G04 Layer_Color=128*
%FSLAX25Y25*%
%MOIN*%
G70*
G01*
G75*
%ADD27R,0.04331X0.03937*%
%ADD37R,0.03937X0.04331*%
%ADD84O,0.09843X0.01969*%
%ADD85R,0.09843X0.01969*%
%ADD86R,0.05118X0.05906*%
%ADD87R,0.03543X0.03740*%
%ADD88R,0.03543X0.03740*%
%ADD89R,0.03740X0.03543*%
%ADD90R,0.03740X0.03543*%
%ADD91O,0.17323X0.05906*%
D27*
X388900Y-158900D02*
D03*
X395593D02*
D03*
X388300Y-145700D02*
D03*
X394993D02*
D03*
X341500Y-120800D02*
D03*
X334807D02*
D03*
X420600Y-128000D02*
D03*
X413907D02*
D03*
X414000Y-136400D02*
D03*
X420693D02*
D03*
X402583Y-113900D02*
D03*
X395890D02*
D03*
X334490Y-110500D02*
D03*
X341182D02*
D03*
X420582Y-102900D02*
D03*
X413890D02*
D03*
X334490Y-100400D02*
D03*
X341182D02*
D03*
D37*
X218200Y-82000D02*
D03*
Y-75307D02*
D03*
X230300Y-75400D02*
D03*
Y-82093D02*
D03*
D84*
X355600Y-134000D02*
D03*
Y-129000D02*
D03*
Y-124000D02*
D03*
Y-119000D02*
D03*
Y-114000D02*
D03*
Y-109000D02*
D03*
Y-104000D02*
D03*
Y-99000D02*
D03*
X382372Y-134000D02*
D03*
Y-129000D02*
D03*
Y-124000D02*
D03*
Y-119000D02*
D03*
Y-114000D02*
D03*
Y-109000D02*
D03*
Y-104000D02*
D03*
D85*
Y-99000D02*
D03*
D86*
X403340Y-102900D02*
D03*
X395860D02*
D03*
D87*
X403240Y-135126D02*
D03*
X399500Y-125874D02*
D03*
D88*
X395760Y-135126D02*
D03*
D89*
X422226Y-112160D02*
D03*
X412974Y-115900D02*
D03*
D90*
X422226Y-119640D02*
D03*
D91*
X338080Y-152883D02*
D03*
X373120Y-152917D02*
D03*
M02*
