G04 Layer_Color=16711935*
%FSLAX25Y25*%
%MOIN*%
G70*
G01*
G75*
%ADD117R,0.05131X0.04737*%
%ADD127R,0.04737X0.05131*%
%ADD144C,0.07453*%
%ADD145R,0.07453X0.07453*%
%ADD146C,0.19540*%
%ADD147C,0.06800*%
%ADD148C,0.13005*%
%ADD149C,0.05131*%
%ADD150C,0.06706*%
%ADD151C,0.10800*%
%ADD152C,0.07300*%
%ADD153C,0.15800*%
%ADD154R,0.07300X0.07300*%
%ADD155C,0.06706*%
%ADD156R,0.06706X0.06706*%
%ADD157C,0.07099*%
%ADD158C,0.04800*%
%ADD159C,0.02300*%
%ADD160C,0.02800*%
%ADD161C,0.03800*%
%ADD162C,0.04300*%
%ADD163C,0.03300*%
%ADD164O,0.10642X0.02769*%
%ADD165R,0.10642X0.02769*%
%ADD166R,0.05918X0.06706*%
%ADD167R,0.04343X0.04540*%
%ADD168R,0.04343X0.04540*%
%ADD169R,0.04540X0.04343*%
%ADD170R,0.04540X0.04343*%
%ADD171O,0.18123X0.06706*%
D117*
X388900Y-158900D02*
D03*
X395593D02*
D03*
X388300Y-145700D02*
D03*
X394993D02*
D03*
X341500Y-120800D02*
D03*
X334807D02*
D03*
X420600Y-128000D02*
D03*
X413907D02*
D03*
X414000Y-136400D02*
D03*
X420693D02*
D03*
X402583Y-113900D02*
D03*
X395890D02*
D03*
X334490Y-110500D02*
D03*
X341182D02*
D03*
X420582Y-102900D02*
D03*
X413890D02*
D03*
X334490Y-100400D02*
D03*
X341182D02*
D03*
D127*
X218200Y-82000D02*
D03*
Y-75307D02*
D03*
X230300Y-75400D02*
D03*
Y-82093D02*
D03*
D144*
X74679Y-211408D02*
D03*
X80115Y-222589D02*
D03*
X85550Y-211408D02*
D03*
X90985Y-222589D02*
D03*
X96420Y-211408D02*
D03*
X101855Y-222589D02*
D03*
X107290Y-211408D02*
D03*
X112725Y-222589D02*
D03*
X118160Y-211408D02*
D03*
X123595Y-222589D02*
D03*
X129030Y-211408D02*
D03*
X134465Y-222589D02*
D03*
X139900Y-211408D02*
D03*
X145335Y-222589D02*
D03*
X150770Y-211408D02*
D03*
X156205Y-222589D02*
D03*
X161640Y-211408D02*
D03*
X167075Y-222589D02*
D03*
X172510Y-211408D02*
D03*
X177945Y-222589D02*
D03*
X183380Y-211408D02*
D03*
X188815Y-222589D02*
D03*
X194250Y-211408D02*
D03*
X199685Y-222589D02*
D03*
D145*
X205120Y-211408D02*
D03*
D146*
X232522Y-216998D02*
D03*
X47278D02*
D03*
D147*
X10000Y0D02*
D03*
X0D02*
D03*
X700Y-157600D02*
D03*
X10700D02*
D03*
X20700D02*
D03*
X30700D02*
D03*
X40700D02*
D03*
X700Y-179253D02*
D03*
X10700D02*
D03*
X20700D02*
D03*
X30700D02*
D03*
X40700D02*
D03*
D148*
X-5876Y34836D02*
D03*
X489789D02*
D03*
Y-250282D02*
D03*
X-5876D02*
D03*
D149*
X96300Y-53364D02*
D03*
D150*
X96202Y-23836D02*
D03*
D151*
X96300Y-38600D02*
D03*
D152*
X358617Y-210400D02*
D03*
X336400Y-200400D02*
D03*
X318684D02*
D03*
X327542D02*
D03*
X345258D02*
D03*
X323183Y-210400D02*
D03*
X332042D02*
D03*
X340900D02*
D03*
X349758D02*
D03*
X318684Y-220400D02*
D03*
X327542D02*
D03*
X336400D02*
D03*
X345258D02*
D03*
X354117D02*
D03*
X302600Y-95900D02*
D03*
Y-105900D02*
D03*
Y-115900D02*
D03*
Y-125900D02*
D03*
Y-135900D02*
D03*
Y-145900D02*
D03*
Y-155900D02*
D03*
D153*
X386400Y-210400D02*
D03*
X286400D02*
D03*
D154*
X354117Y-200400D02*
D03*
D155*
X484700Y-144600D02*
D03*
D156*
X474700D02*
D03*
D157*
X195962Y34117D02*
D03*
X291238D02*
D03*
D158*
X460200Y-156300D02*
D03*
X470900Y21500D02*
D03*
X455200Y5800D02*
D03*
X480900Y-56200D02*
D03*
X375800Y10900D02*
D03*
X375200Y-66300D02*
D03*
X406600Y-42900D02*
D03*
X454913Y-177113D02*
D03*
D159*
X418900Y14800D02*
D03*
X163000Y-124800D02*
D03*
X223600Y-89500D02*
D03*
X202820Y-143679D02*
D03*
X288700Y-111500D02*
D03*
X327000Y-144900D02*
D03*
X260600Y-110200D02*
D03*
X300700Y-190000D02*
D03*
X324300Y-189900D02*
D03*
X335500Y-188200D02*
D03*
X297400Y-192600D02*
D03*
X332500Y-127900D02*
D03*
X340200Y-131500D02*
D03*
X34700Y-61400D02*
D03*
X195600Y-133600D02*
D03*
X232300Y-76800D02*
D03*
X287200Y-64900D02*
D03*
X287100Y-76939D02*
D03*
X201800Y-129900D02*
D03*
X185600Y-114800D02*
D03*
X232200Y-118500D02*
D03*
X234700Y-121200D02*
D03*
X198400Y-192700D02*
D03*
X207600Y-192500D02*
D03*
X170100Y-192100D02*
D03*
X362100Y-99000D02*
D03*
X364500Y-138700D02*
D03*
X367500Y-111500D02*
D03*
X375500Y-122700D02*
D03*
X315500Y-134800D02*
D03*
X282200Y-151200D02*
D03*
X311500Y-129500D02*
D03*
X229500Y-115700D02*
D03*
X226700Y-112500D02*
D03*
X223400Y-128900D02*
D03*
X223200Y-134600D02*
D03*
X109200Y-170100D02*
D03*
X119900Y-170000D02*
D03*
X283400Y-114700D02*
D03*
X285600Y-117900D02*
D03*
X339500Y-98800D02*
D03*
X322100Y-110200D02*
D03*
X321900Y-122000D02*
D03*
X287800Y-125600D02*
D03*
X281500Y-130900D02*
D03*
X290700Y-135900D02*
D03*
X293000Y-148400D02*
D03*
X218200Y-180400D02*
D03*
X246200Y-183100D02*
D03*
X238400Y-180600D02*
D03*
X230000Y-180400D02*
D03*
X227000Y-184000D02*
D03*
X228200Y-169000D02*
D03*
X216500Y-170600D02*
D03*
X209000Y-163500D02*
D03*
X206500Y-165900D02*
D03*
X202000Y-171900D02*
D03*
X204300Y-168400D02*
D03*
X249600Y-90700D02*
D03*
X230300Y-89400D02*
D03*
D160*
X414800Y9600D02*
D03*
X431400Y24800D02*
D03*
X398900Y22800D02*
D03*
X208200Y-174200D02*
D03*
X360500Y-91200D02*
D03*
X295000Y-52000D02*
D03*
X266100Y-51700D02*
D03*
X148300Y-40400D02*
D03*
X160300Y-35700D02*
D03*
X281100Y-82100D02*
D03*
X318400Y-81900D02*
D03*
X247200Y-82100D02*
D03*
X152200Y-93300D02*
D03*
X55600Y28400D02*
D03*
X65800Y-24800D02*
D03*
X112200Y21800D02*
D03*
X387800Y11200D02*
D03*
X378200Y35000D02*
D03*
X240400Y-33600D02*
D03*
X59000Y-169900D02*
D03*
D161*
X282000Y-182400D02*
D03*
X131400Y-84200D02*
D03*
X164500Y-78100D02*
D03*
X354400Y-84600D02*
D03*
X309200Y-181200D02*
D03*
X246300Y-70800D02*
D03*
X430200Y-145400D02*
D03*
X82000Y-147200D02*
D03*
X75500Y-5600D02*
D03*
D162*
X415000Y-177300D02*
D03*
D163*
X317200Y-168800D02*
D03*
X79900D02*
D03*
D164*
X355600Y-134000D02*
D03*
Y-129000D02*
D03*
Y-124000D02*
D03*
Y-119000D02*
D03*
Y-114000D02*
D03*
Y-109000D02*
D03*
Y-104000D02*
D03*
Y-99000D02*
D03*
X382372Y-134000D02*
D03*
Y-129000D02*
D03*
Y-124000D02*
D03*
Y-119000D02*
D03*
Y-114000D02*
D03*
Y-109000D02*
D03*
Y-104000D02*
D03*
D165*
Y-99000D02*
D03*
D166*
X403340Y-102900D02*
D03*
X395860D02*
D03*
D167*
X403240Y-135126D02*
D03*
X399500Y-125874D02*
D03*
D168*
X395760Y-135126D02*
D03*
D169*
X422226Y-112160D02*
D03*
X412974Y-115900D02*
D03*
D170*
X422226Y-119640D02*
D03*
D171*
X338080Y-152883D02*
D03*
X373120Y-152917D02*
D03*
M02*
