G04 Layer_Color=8388736*
%FSLAX25Y25*%
%MOIN*%
G70*
G01*
G75*
%ADD100R,0.09461X0.03162*%
%ADD101R,0.07887X0.03556*%
%ADD102C,0.06800*%
%ADD103R,0.04200X0.14800*%
%ADD104O,0.04200X0.14800*%
%ADD105C,0.07300*%
%ADD106O,0.01981X0.09068*%
%ADD107O,0.09068X0.01981*%
%ADD108R,0.06800X0.06800*%
%ADD109R,0.06800X0.06800*%
%ADD110R,0.10642X0.14973*%
G04:AMPARAMS|DCode=111|XSize=21mil|YSize=58mil|CornerRadius=0mil|HoleSize=0mil|Usage=FLASHONLY|Rotation=270.000|XOffset=0mil|YOffset=0mil|HoleType=Round|Shape=Octagon|*
%AMOCTAGOND111*
4,1,8,0.02900,0.00525,0.02900,-0.00525,0.02375,-0.01050,-0.02375,-0.01050,-0.02900,-0.00525,-0.02900,0.00525,-0.02375,0.01050,0.02375,0.01050,0.02900,0.00525,0.0*
%
%ADD111OCTAGOND111*%

%ADD112R,0.05800X0.02139*%
G04:AMPARAMS|DCode=113|XSize=21.39mil|YSize=58mil|CornerRadius=0mil|HoleSize=0mil|Usage=FLASHONLY|Rotation=270.000|XOffset=0mil|YOffset=0mil|HoleType=Round|Shape=Octagon|*
%AMOCTAGOND113*
4,1,8,0.02900,0.00535,0.02900,-0.00535,0.02365,-0.01069,-0.02365,-0.01069,-0.02900,-0.00535,-0.02900,0.00535,-0.02365,0.01069,0.02365,0.01069,0.02900,0.00535,0.0*
%
%ADD113OCTAGOND113*%

G04:AMPARAMS|DCode=114|XSize=21.39mil|YSize=58mil|CornerRadius=0mil|HoleSize=0mil|Usage=FLASHONLY|Rotation=0.000|XOffset=0mil|YOffset=0mil|HoleType=Round|Shape=Octagon|*
%AMOCTAGOND114*
4,1,8,-0.00535,0.02900,0.00535,0.02900,0.01069,0.02365,0.01069,-0.02365,0.00535,-0.02900,-0.00535,-0.02900,-0.01069,-0.02365,-0.01069,0.02365,-0.00535,0.02900,0.0*
%
%ADD114OCTAGOND114*%

%ADD115R,0.02139X0.05800*%
G04:AMPARAMS|DCode=116|XSize=21mil|YSize=58mil|CornerRadius=0mil|HoleSize=0mil|Usage=FLASHONLY|Rotation=180.000|XOffset=0mil|YOffset=0mil|HoleType=Round|Shape=Octagon|*
%AMOCTAGOND116*
4,1,8,0.00525,-0.02900,-0.00525,-0.02900,-0.01050,-0.02375,-0.01050,0.02375,-0.00525,0.02900,0.00525,0.02900,0.01050,0.02375,0.01050,-0.02375,0.00525,-0.02900,0.0*
%
%ADD116OCTAGOND116*%

%ADD117R,0.05131X0.04737*%
%ADD118R,0.06706X0.05918*%
%ADD119O,0.14579X0.20485*%
G04:AMPARAMS|DCode=120|XSize=145.79mil|YSize=204.85mil|CornerRadius=0mil|HoleSize=0mil|Usage=FLASHONLY|Rotation=180.000|XOffset=0mil|YOffset=0mil|HoleType=Round|Shape=Octagon|*
%AMOCTAGOND120*
4,1,8,0.03645,-0.10243,-0.03645,-0.10243,-0.07290,-0.06598,-0.07290,0.06598,-0.03645,0.10243,0.03645,0.10243,0.07290,0.06598,0.07290,-0.06598,0.03645,-0.10243,0.0*
%
%ADD120OCTAGOND120*%

%ADD121R,0.07887X0.03950*%
%ADD122O,0.06706X0.18123*%
%ADD123O,0.12611X0.05524*%
%ADD124R,0.05524X0.08674*%
%ADD125R,0.06800X0.05800*%
%ADD126R,0.14973X0.08674*%
%ADD127R,0.04737X0.05131*%
%ADD128O,0.09461X0.03162*%
%ADD129O,0.03162X0.09461*%
%ADD130R,0.05131X0.06902*%
%ADD131R,0.05131X0.06902*%
%ADD132R,0.14383X0.06902*%
%ADD133R,0.22453X0.16548*%
%ADD134R,0.12611X0.16548*%
%ADD135R,0.08674X0.08674*%
%ADD136R,0.04737X0.06706*%
%ADD137R,0.04934X0.09068*%
%ADD138R,0.42139X0.44107*%
%ADD139R,0.07887X0.08280*%
%ADD140R,0.09800X0.08280*%
G04:AMPARAMS|DCode=141|XSize=61.15mil|YSize=23.75mil|CornerRadius=0mil|HoleSize=0mil|Usage=FLASHONLY|Rotation=270.000|XOffset=0mil|YOffset=0mil|HoleType=Round|Shape=Octagon|*
%AMOCTAGOND141*
4,1,8,-0.00594,-0.03058,0.00594,-0.03058,0.01187,-0.02464,0.01187,0.02464,0.00594,0.03058,-0.00594,0.03058,-0.01187,0.02464,-0.01187,-0.02464,-0.00594,-0.03058,0.0*
%
%ADD141OCTAGOND141*%

%ADD142R,0.06706X0.08674*%
%ADD143R,0.08674X0.06706*%
%ADD144C,0.07453*%
%ADD145R,0.07453X0.07453*%
%ADD146C,0.19540*%
%ADD147C,0.06800*%
%ADD148C,0.13005*%
%ADD149C,0.05131*%
%ADD150C,0.06706*%
%ADD151C,0.10800*%
%ADD152C,0.07300*%
%ADD153C,0.15800*%
%ADD154R,0.07300X0.07300*%
%ADD155C,0.06706*%
%ADD156R,0.06706X0.06706*%
%ADD157C,0.07099*%
%ADD158C,0.04800*%
%ADD159C,0.02300*%
%ADD160C,0.02800*%
%ADD161C,0.03800*%
%ADD162C,0.04300*%
%ADD163C,0.03300*%
D100*
X58600Y-88400D02*
D03*
Y-77400D02*
D03*
D101*
X62600Y-82900D02*
D03*
D102*
X315800Y-9000D02*
D03*
D103*
X323277Y-70682D02*
D03*
D104*
X328300Y-70800D02*
D03*
X358300D02*
D03*
X353300D02*
D03*
X348300D02*
D03*
X343300D02*
D03*
X338300D02*
D03*
X333300D02*
D03*
D105*
X363600Y-22800D02*
D03*
D106*
X218978Y-99979D02*
D03*
X220947D02*
D03*
X222915D02*
D03*
X224884D02*
D03*
X226852D02*
D03*
X228820D02*
D03*
X230789D02*
D03*
X232757D02*
D03*
X234726D02*
D03*
X236695D02*
D03*
X238663D02*
D03*
X240632D02*
D03*
X242600D02*
D03*
X244568D02*
D03*
X246537D02*
D03*
X248505D02*
D03*
X250474D02*
D03*
X252443D02*
D03*
X254411D02*
D03*
X256380D02*
D03*
X258348D02*
D03*
X260316D02*
D03*
X262285D02*
D03*
X264253D02*
D03*
X266222D02*
D03*
Y-159821D02*
D03*
X264253D02*
D03*
X262285D02*
D03*
X260316D02*
D03*
X258348D02*
D03*
X256380D02*
D03*
X254411D02*
D03*
X252443D02*
D03*
X250474D02*
D03*
X248505D02*
D03*
X246537D02*
D03*
X244568D02*
D03*
X242600D02*
D03*
X240632D02*
D03*
X238663D02*
D03*
X236695D02*
D03*
X234726D02*
D03*
X232757D02*
D03*
X230789D02*
D03*
X228820D02*
D03*
X226852D02*
D03*
X224884D02*
D03*
X222915D02*
D03*
X220947D02*
D03*
X218978D02*
D03*
D107*
X272521Y-106278D02*
D03*
Y-108247D02*
D03*
Y-110215D02*
D03*
Y-112183D02*
D03*
Y-114152D02*
D03*
Y-116121D02*
D03*
Y-118089D02*
D03*
Y-120057D02*
D03*
Y-122026D02*
D03*
Y-123995D02*
D03*
Y-125963D02*
D03*
Y-127931D02*
D03*
Y-129900D02*
D03*
Y-131869D02*
D03*
Y-133837D02*
D03*
Y-135805D02*
D03*
Y-137774D02*
D03*
Y-139743D02*
D03*
Y-141711D02*
D03*
Y-143679D02*
D03*
Y-145648D02*
D03*
Y-147617D02*
D03*
Y-149585D02*
D03*
Y-151553D02*
D03*
Y-153522D02*
D03*
X212679D02*
D03*
Y-151553D02*
D03*
Y-149585D02*
D03*
Y-147617D02*
D03*
Y-145648D02*
D03*
Y-143679D02*
D03*
Y-141711D02*
D03*
Y-139743D02*
D03*
Y-137774D02*
D03*
Y-135805D02*
D03*
Y-133837D02*
D03*
Y-131869D02*
D03*
Y-129900D02*
D03*
Y-127931D02*
D03*
Y-125963D02*
D03*
Y-123995D02*
D03*
Y-122026D02*
D03*
Y-120057D02*
D03*
Y-118089D02*
D03*
Y-116121D02*
D03*
Y-114152D02*
D03*
Y-112183D02*
D03*
Y-110215D02*
D03*
Y-108247D02*
D03*
Y-106278D02*
D03*
D108*
X370600Y-90000D02*
D03*
Y-104000D02*
D03*
D109*
X469600Y-124900D02*
D03*
X483600D02*
D03*
D110*
X459939Y-41900D02*
D03*
X477261D02*
D03*
D111*
X347100Y-160900D02*
D03*
D112*
X346600Y-158900D02*
D03*
Y-156900D02*
D03*
Y-154900D02*
D03*
Y-152900D02*
D03*
X329600D02*
D03*
Y-154900D02*
D03*
Y-156900D02*
D03*
Y-158900D02*
D03*
D113*
X347100Y-150900D02*
D03*
X329100D02*
D03*
Y-160900D02*
D03*
D114*
X343100Y-146900D02*
D03*
X333100D02*
D03*
Y-164900D02*
D03*
D115*
X341100Y-147400D02*
D03*
X339100D02*
D03*
X337100D02*
D03*
X335100D02*
D03*
Y-164400D02*
D03*
X337100D02*
D03*
X339100D02*
D03*
X341100D02*
D03*
D116*
X343100Y-164900D02*
D03*
D117*
X137904Y-105900D02*
D03*
X131211D02*
D03*
X333600Y-135900D02*
D03*
X326907D02*
D03*
X351600D02*
D03*
X344907D02*
D03*
X451600Y-153900D02*
D03*
X444907D02*
D03*
X444900Y-162600D02*
D03*
X451593D02*
D03*
X463600Y-194900D02*
D03*
X470293D02*
D03*
X463800Y-186000D02*
D03*
X470493D02*
D03*
X325400Y-175700D02*
D03*
X318707D02*
D03*
X347600Y-116900D02*
D03*
X354293D02*
D03*
X347600Y-107900D02*
D03*
X354293D02*
D03*
X423900Y-154200D02*
D03*
X430593D02*
D03*
X423700Y-163200D02*
D03*
X430393D02*
D03*
X137600Y-113350D02*
D03*
X130907D02*
D03*
X53600Y-137900D02*
D03*
X46907D02*
D03*
X53600Y-145900D02*
D03*
X46907D02*
D03*
D118*
X138600Y-5160D02*
D03*
Y-12640D02*
D03*
X494600Y-45640D02*
D03*
Y-38160D02*
D03*
X131600Y-122160D02*
D03*
Y-129640D02*
D03*
D119*
X96300Y-70600D02*
D03*
D120*
Y-6600D02*
D03*
D121*
X72600Y-155884D02*
D03*
Y-151553D02*
D03*
Y-147223D02*
D03*
Y-142892D02*
D03*
Y-138561D02*
D03*
Y-134231D02*
D03*
Y-129900D02*
D03*
Y-118089D02*
D03*
Y-113758D02*
D03*
Y-109428D02*
D03*
Y-105097D02*
D03*
Y-100766D02*
D03*
X120600Y-155884D02*
D03*
Y-151553D02*
D03*
Y-147223D02*
D03*
Y-142892D02*
D03*
Y-138561D02*
D03*
Y-134231D02*
D03*
Y-129900D02*
D03*
Y-118089D02*
D03*
Y-113758D02*
D03*
Y-109428D02*
D03*
Y-105097D02*
D03*
Y-100766D02*
D03*
D122*
X185683Y-107549D02*
D03*
X185717Y-142589D02*
D03*
D123*
X150600Y-72900D02*
D03*
D124*
X154537Y-42900D02*
D03*
X146663D02*
D03*
D125*
X35100Y-50750D02*
D03*
Y-22250D02*
D03*
D126*
X480600Y-15900D02*
D03*
X458600D02*
D03*
D127*
X137600Y-62900D02*
D03*
Y-56207D02*
D03*
X164600Y-62900D02*
D03*
Y-56207D02*
D03*
X50400Y-29400D02*
D03*
Y-22707D02*
D03*
X286600Y-104900D02*
D03*
Y-98207D02*
D03*
X267800Y-182200D02*
D03*
Y-175507D02*
D03*
X317200Y-147800D02*
D03*
Y-154493D02*
D03*
X163100Y-108538D02*
D03*
Y-101845D02*
D03*
X454500Y23500D02*
D03*
Y16807D02*
D03*
X163000Y-141600D02*
D03*
Y-148293D02*
D03*
X50000Y-43368D02*
D03*
Y-50061D02*
D03*
X245000Y-184900D02*
D03*
Y-178207D02*
D03*
X237000Y-185400D02*
D03*
Y-178707D02*
D03*
X228700Y-185500D02*
D03*
Y-178807D02*
D03*
X285600Y-84332D02*
D03*
Y-77639D02*
D03*
X276600Y-84332D02*
D03*
Y-77639D02*
D03*
X239600Y-84032D02*
D03*
Y-77339D02*
D03*
X225600Y-84032D02*
D03*
Y-77339D02*
D03*
X215300Y-84200D02*
D03*
Y-77507D02*
D03*
X58600Y-179900D02*
D03*
Y-186593D02*
D03*
X208800Y-193400D02*
D03*
Y-186707D02*
D03*
X199900Y-193300D02*
D03*
Y-186607D02*
D03*
X171600Y-193900D02*
D03*
Y-187207D02*
D03*
X131600Y-139900D02*
D03*
Y-146593D02*
D03*
D128*
X70951Y-174200D02*
D03*
Y-179200D02*
D03*
Y-184200D02*
D03*
Y-189200D02*
D03*
X89849Y-174200D02*
D03*
Y-179200D02*
D03*
Y-184200D02*
D03*
Y-189200D02*
D03*
X57049Y-126400D02*
D03*
Y-121400D02*
D03*
Y-116400D02*
D03*
Y-111400D02*
D03*
X38151Y-126400D02*
D03*
Y-121400D02*
D03*
Y-116400D02*
D03*
Y-111400D02*
D03*
D129*
X165100Y-7451D02*
D03*
X160100D02*
D03*
X155100D02*
D03*
X150100D02*
D03*
X165100Y-26349D02*
D03*
X160100D02*
D03*
X155100D02*
D03*
X150100D02*
D03*
D130*
X443055Y-177113D02*
D03*
D131*
X434000D02*
D03*
X424945D02*
D03*
D132*
X434000Y-203687D02*
D03*
D133*
X446200Y-85300D02*
D03*
X491100D02*
D03*
D134*
X433222Y-29900D02*
D03*
X385978D02*
D03*
D135*
X184600Y26400D02*
D03*
X299600D02*
D03*
D136*
X295175Y-62100D02*
D03*
X232852D02*
D03*
X206671D02*
D03*
X281986D02*
D03*
X275293D02*
D03*
X265765D02*
D03*
X255923D02*
D03*
X246080D02*
D03*
X239348D02*
D03*
X226356D02*
D03*
X216513D02*
D03*
D137*
X410293Y-68266D02*
D03*
X416986D02*
D03*
X403600D02*
D03*
X390214D02*
D03*
X396907D02*
D03*
D138*
X403600Y-104534D02*
D03*
D139*
X419600Y47100D02*
D03*
X64600D02*
D03*
D140*
X433100D02*
D03*
X406100D02*
D03*
X78100D02*
D03*
X51100D02*
D03*
D141*
X414482Y37100D02*
D03*
X417041D02*
D03*
X419600D02*
D03*
X422159D02*
D03*
X424718D02*
D03*
X59482D02*
D03*
X62041D02*
D03*
X64600D02*
D03*
X67159D02*
D03*
X69718D02*
D03*
D142*
X406900Y-153600D02*
D03*
X393121D02*
D03*
X406600Y-168700D02*
D03*
X392821D02*
D03*
X338400Y-118500D02*
D03*
X324621D02*
D03*
X338400Y-106900D02*
D03*
X324621D02*
D03*
D143*
X370600Y-129900D02*
D03*
Y-116121D02*
D03*
Y-153900D02*
D03*
Y-140120D02*
D03*
D144*
X74679Y-211408D02*
D03*
X80115Y-222589D02*
D03*
X85550Y-211408D02*
D03*
X90985Y-222589D02*
D03*
X96420Y-211408D02*
D03*
X101855Y-222589D02*
D03*
X107290Y-211408D02*
D03*
X112725Y-222589D02*
D03*
X118160Y-211408D02*
D03*
X123595Y-222589D02*
D03*
X129030Y-211408D02*
D03*
X134465Y-222589D02*
D03*
X139900Y-211408D02*
D03*
X145335Y-222589D02*
D03*
X150770Y-211408D02*
D03*
X156205Y-222589D02*
D03*
X161640Y-211408D02*
D03*
X167075Y-222589D02*
D03*
X172510Y-211408D02*
D03*
X177945Y-222589D02*
D03*
X183380Y-211408D02*
D03*
X188815Y-222589D02*
D03*
X194250Y-211408D02*
D03*
X199685Y-222589D02*
D03*
D145*
X205120Y-211408D02*
D03*
D146*
X232522Y-216998D02*
D03*
X47278D02*
D03*
D147*
X10000Y0D02*
D03*
X0D02*
D03*
X700Y-157600D02*
D03*
X10700D02*
D03*
X20700D02*
D03*
X30700D02*
D03*
X40700D02*
D03*
X700Y-179253D02*
D03*
X10700D02*
D03*
X20700D02*
D03*
X30700D02*
D03*
X40700D02*
D03*
D148*
X-5876Y34836D02*
D03*
X489789D02*
D03*
Y-250282D02*
D03*
X-5876D02*
D03*
D149*
X96300Y-53364D02*
D03*
D150*
X96202Y-23836D02*
D03*
D151*
X96300Y-38600D02*
D03*
D152*
X358617Y-210400D02*
D03*
X336400Y-200400D02*
D03*
X318684D02*
D03*
X327542D02*
D03*
X345258D02*
D03*
X323183Y-210400D02*
D03*
X332042D02*
D03*
X340900D02*
D03*
X349758D02*
D03*
X318684Y-220400D02*
D03*
X327542D02*
D03*
X336400D02*
D03*
X345258D02*
D03*
X354117D02*
D03*
X302600Y-95900D02*
D03*
Y-105900D02*
D03*
Y-115900D02*
D03*
Y-125900D02*
D03*
Y-135900D02*
D03*
Y-145900D02*
D03*
Y-155900D02*
D03*
D153*
X386400Y-210400D02*
D03*
X286400D02*
D03*
D154*
X354117Y-200400D02*
D03*
D155*
X484700Y-144600D02*
D03*
D156*
X474700D02*
D03*
D157*
X195962Y34117D02*
D03*
X291238D02*
D03*
D158*
X460200Y-156300D02*
D03*
X470900Y21500D02*
D03*
X455200Y5800D02*
D03*
X480900Y-56200D02*
D03*
X375800Y10900D02*
D03*
X375200Y-66300D02*
D03*
X406600Y-42900D02*
D03*
X454913Y-177113D02*
D03*
D159*
X418900Y14800D02*
D03*
X163000Y-124800D02*
D03*
X223600Y-89500D02*
D03*
X202820Y-143679D02*
D03*
X288700Y-111500D02*
D03*
X327000Y-144900D02*
D03*
X260600Y-110200D02*
D03*
X300700Y-190000D02*
D03*
X324300Y-189900D02*
D03*
X335500Y-188200D02*
D03*
X297400Y-192600D02*
D03*
X332500Y-127900D02*
D03*
X340200Y-131500D02*
D03*
X34700Y-61400D02*
D03*
X195600Y-133600D02*
D03*
X232300Y-76800D02*
D03*
X287200Y-64900D02*
D03*
X287100Y-76939D02*
D03*
X201800Y-129900D02*
D03*
X185600Y-114800D02*
D03*
X232200Y-118500D02*
D03*
X234700Y-121200D02*
D03*
X198400Y-192700D02*
D03*
X207600Y-192500D02*
D03*
X170100Y-192100D02*
D03*
X362100Y-99000D02*
D03*
X364500Y-138700D02*
D03*
X367500Y-111500D02*
D03*
X375500Y-122700D02*
D03*
X315500Y-134800D02*
D03*
X282200Y-151200D02*
D03*
X311500Y-129500D02*
D03*
X229500Y-115700D02*
D03*
X226700Y-112500D02*
D03*
X223400Y-128900D02*
D03*
X223200Y-134600D02*
D03*
X109200Y-170100D02*
D03*
X119900Y-170000D02*
D03*
X283400Y-114700D02*
D03*
X285600Y-117900D02*
D03*
X339500Y-98800D02*
D03*
X322100Y-110200D02*
D03*
X321900Y-122000D02*
D03*
X287800Y-125600D02*
D03*
X281500Y-130900D02*
D03*
X290700Y-135900D02*
D03*
X293000Y-148400D02*
D03*
X218200Y-180400D02*
D03*
X246200Y-183100D02*
D03*
X238400Y-180600D02*
D03*
X230000Y-180400D02*
D03*
X227000Y-184000D02*
D03*
X228200Y-169000D02*
D03*
X216500Y-170600D02*
D03*
X209000Y-163500D02*
D03*
X206500Y-165900D02*
D03*
X202000Y-171900D02*
D03*
X204300Y-168400D02*
D03*
X249600Y-90700D02*
D03*
X230300Y-89400D02*
D03*
D160*
X414800Y9600D02*
D03*
X431400Y24800D02*
D03*
X398900Y22800D02*
D03*
X208200Y-174200D02*
D03*
X360500Y-91200D02*
D03*
X295000Y-52000D02*
D03*
X266100Y-51700D02*
D03*
X148300Y-40400D02*
D03*
X160300Y-35700D02*
D03*
X281100Y-82100D02*
D03*
X318400Y-81900D02*
D03*
X247200Y-82100D02*
D03*
X152200Y-93300D02*
D03*
X55600Y28400D02*
D03*
X65800Y-24800D02*
D03*
X112200Y21800D02*
D03*
X387800Y11200D02*
D03*
X378200Y35000D02*
D03*
X240400Y-33600D02*
D03*
X59000Y-169900D02*
D03*
D161*
X282000Y-182400D02*
D03*
X131400Y-84200D02*
D03*
X164500Y-78100D02*
D03*
X354400Y-84600D02*
D03*
X309200Y-181200D02*
D03*
X246300Y-70800D02*
D03*
X430200Y-145400D02*
D03*
X82000Y-147200D02*
D03*
X75500Y-5600D02*
D03*
D162*
X415000Y-177300D02*
D03*
D163*
X317200Y-168800D02*
D03*
X79900D02*
D03*
M02*
