G04 Layer_Color=16711935*
%FSLAX25Y25*%
%MOIN*%
G70*
G01*
G75*
%ADD55C,0.01000*%
D55*
X-25761Y-230795D02*
X-25748Y-231792D01*
X-25710Y-232789D01*
X-25647Y-233784D01*
X-25559Y-234778D01*
X-25445Y-235769D01*
X-25307Y-236756D01*
X-25143Y-237740D01*
X-24955Y-238720D01*
X-24742Y-239694D01*
X-24504Y-240663D01*
X-24242Y-241625D01*
X-23955Y-242581D01*
X-23645Y-243528D01*
X-23310Y-244468D01*
X-22952Y-245399D01*
X-22570Y-246320D01*
X-22165Y-247232D01*
X-21737Y-248133D01*
X-21287Y-249023D01*
X-20814Y-249901D01*
X-20319Y-250767D01*
X-19802Y-251620D01*
X-19264Y-252460D01*
X-18704Y-253285D01*
X-18124Y-254097D01*
X-17524Y-254893D01*
X-16903Y-255674D01*
X-16263Y-256439D01*
X-15604Y-257188D01*
X-14926Y-257919D01*
X-14230Y-258633D01*
X-13516Y-259330D01*
X-12784Y-260008D01*
X-12035Y-260667D01*
X-11270Y-261307D01*
X-10489Y-261928D01*
X-9693Y-262528D01*
X-8882Y-263108D01*
X-8056Y-263667D01*
X-7216Y-264206D01*
X-6363Y-264723D01*
X-5497Y-265218D01*
X-4619Y-265691D01*
X-3729Y-266141D01*
X-2828Y-266569D01*
X-1917Y-266974D01*
X-995Y-267356D01*
X-64Y-267714D01*
X876Y-268049D01*
X1823Y-268359D01*
X2779Y-268646D01*
X3741Y-268908D01*
X4710Y-269146D01*
X5684Y-269359D01*
X6664Y-269547D01*
X7648Y-269711D01*
X8635Y-269849D01*
X9626Y-269963D01*
X10620Y-270051D01*
X11615Y-270114D01*
X12612Y-270152D01*
X13609Y-270165D01*
X470302D02*
X471299Y-270152D01*
X472296Y-270114D01*
X473292Y-270051D01*
X474285Y-269963D01*
X475276Y-269849D01*
X476264Y-269711D01*
X477248Y-269547D01*
X478227Y-269359D01*
X479202Y-269146D01*
X480170Y-268908D01*
X481133Y-268646D01*
X482088Y-268359D01*
X483036Y-268049D01*
X483975Y-267714D01*
X484906Y-267356D01*
X485828Y-266974D01*
X486739Y-266569D01*
X487640Y-266141D01*
X488530Y-265691D01*
X489408Y-265218D01*
X490274Y-264723D01*
X491127Y-264206D01*
X491967Y-263668D01*
X492793Y-263108D01*
X493604Y-262528D01*
X494401Y-261928D01*
X495182Y-261307D01*
X495947Y-260667D01*
X496695Y-260008D01*
X497427Y-259330D01*
X498141Y-258634D01*
X498837Y-257919D01*
X499515Y-257188D01*
X500174Y-256439D01*
X500814Y-255674D01*
X501435Y-254893D01*
X502035Y-254097D01*
X502615Y-253286D01*
X503175Y-252460D01*
X503713Y-251620D01*
X504230Y-250767D01*
X504725Y-249901D01*
X505198Y-249023D01*
X505649Y-248133D01*
X506076Y-247232D01*
X506481Y-246321D01*
X506863Y-245399D01*
X507221Y-244468D01*
X507556Y-243529D01*
X507866Y-242581D01*
X508153Y-241626D01*
X508415Y-240663D01*
X508653Y-239695D01*
X508866Y-238720D01*
X509055Y-237741D01*
X509218Y-236757D01*
X509357Y-235769D01*
X509470Y-234778D01*
X509558Y-233785D01*
X509622Y-232789D01*
X509659Y-231792D01*
X509672Y-230795D01*
Y15347D02*
X509660Y16344D01*
X509622Y17341D01*
X509558Y18337D01*
X509470Y19330D01*
X509357Y20321D01*
X509218Y21309D01*
X509055Y22293D01*
X508866Y23272D01*
X508653Y24247D01*
X508415Y25215D01*
X508153Y26178D01*
X507867Y27133D01*
X507556Y28081D01*
X507222Y29021D01*
X506863Y29952D01*
X506482Y30873D01*
X506077Y31785D01*
X505649Y32686D01*
X505198Y33575D01*
X504725Y34454D01*
X504230Y35320D01*
X503713Y36173D01*
X503175Y37012D01*
X502616Y37838D01*
X502036Y38649D01*
X501435Y39446D01*
X500814Y40227D01*
X500175Y40992D01*
X499515Y41740D01*
X498837Y42472D01*
X498141Y43186D01*
X497427Y43882D01*
X496695Y44560D01*
X495947Y45220D01*
X495182Y45860D01*
X494401Y46480D01*
X493604Y47081D01*
X492793Y47661D01*
X491967Y48220D01*
X491127Y48758D01*
X490274Y49275D01*
X489408Y49770D01*
X488530Y50243D01*
X487640Y50694D01*
X486739Y51122D01*
X485828Y51527D01*
X484906Y51908D01*
X483976Y52267D01*
X483036Y52601D01*
X482088Y52912D01*
X481133Y53198D01*
X480170Y53461D01*
X479202Y53698D01*
X478227Y53911D01*
X477248Y54100D01*
X476264Y54263D01*
X475276Y54402D01*
X474285Y54515D01*
X473292Y54604D01*
X472296Y54667D01*
X471299Y54705D01*
X470302Y54717D01*
X13609D02*
X12612Y54705D01*
X11615Y54667D01*
X10620Y54604D01*
X9626Y54515D01*
X8635Y54402D01*
X7648Y54263D01*
X6663Y54100D01*
X5684Y53911D01*
X4710Y53698D01*
X3741Y53461D01*
X2779Y53198D01*
X1823Y52912D01*
X875Y52601D01*
X-64Y52267D01*
X-995Y51908D01*
X-1917Y51527D01*
X-2828Y51122D01*
X-3729Y50694D01*
X-4619Y50243D01*
X-5497Y49770D01*
X-6363Y49275D01*
X-7216Y48758D01*
X-8056Y48220D01*
X-8882Y47661D01*
X-9693Y47081D01*
X-10490Y46480D01*
X-11270Y45860D01*
X-12035Y45219D01*
X-12784Y44560D01*
X-13516Y43882D01*
X-14230Y43186D01*
X-14926Y42472D01*
X-15604Y41740D01*
X-16263Y40992D01*
X-16903Y40227D01*
X-17524Y39446D01*
X-18124Y38649D01*
X-18704Y37838D01*
X-19264Y37012D01*
X-19802Y36173D01*
X-20319Y35319D01*
X-20814Y34453D01*
X-21287Y33575D01*
X-21737Y32686D01*
X-22165Y31784D01*
X-22570Y30873D01*
X-22952Y29952D01*
X-23310Y29021D01*
X-23645Y28081D01*
X-23955Y27133D01*
X-24242Y26178D01*
X-24504Y25215D01*
X-24742Y24247D01*
X-24955Y23272D01*
X-25143Y22293D01*
X-25307Y21309D01*
X-25445Y20321D01*
X-25559Y19330D01*
X-25647Y18337D01*
X-25710Y17341D01*
X-25748Y16344D01*
X-25761Y15347D01*
X403373Y-234732D02*
X436837D01*
X403373Y-270165D02*
Y-234732D01*
X436837D02*
X470302D01*
Y-270165D02*
Y-234732D01*
X-25761Y-230795D02*
Y15347D01*
X13609Y54717D02*
X470302D01*
X509672Y-230795D02*
Y15347D01*
X13609Y-270165D02*
X403373D01*
M02*
