M48
;Layer_Color=9474304
;FILE_FORMAT=2:5
INCH,LZ
;TYPE=PLATED
T1F00S00C0.01500
T2F00S00C0.02000
T3F00S00C0.02500
T4F00S00C0.03000
T5F00S00C0.03500
T6F00S00C0.03543
T7F00S00C0.04000
T8F00S00C0.04291
T9F00S00C0.04331
T10F00S00C0.04800
T11F00S00C0.05906
T12F00S00C0.06299
T13F00S00C0.10000
T14F00S00C0.11811
T15F00S00C0.12205
T16F00S00C0.12835
%
T01
X02974Y-01926
X03007Y-019
X03243Y-01899
X03355Y-01882
X02462Y-01831
X02384Y-01806
X023Y-01804
X0227Y-0184
X02182Y-01804
X02165Y-01706
X02282Y-0169
X02043Y-01684
X0202Y-01719
X01984Y-01927
X02076Y-01925
X01701Y-01921
X01199Y-017
X01092Y-01701
X00347Y-00614
X0163Y-01248
X01856Y-01148
X01956Y-01336
X02018Y-01299
X020282Y-0143679
X02065Y-01659
X0209Y-01635
X02232Y-01346
X02234Y-01289
X02347Y-01212
X02322Y-01185
X02295Y-01157
X02267Y-01125
X02236Y-00895
X02303Y-00894
X02323Y-00768
X02496Y-00907
X02606Y-01102
X02834Y-01147
X02856Y-01179
X02887Y-01115
X02878Y-01256
X02815Y-01309
X02907Y-01359
X0293Y-01484
X02822Y-01512
X03155Y-01348
X03115Y-01295
X03219Y-0122
X03221Y-01102
X03325Y-01279
X03402Y-01315
X0327Y-01449
X03645Y-01387
X03755Y-01227
X03675Y-01115
X03621Y-0099
X03395Y-00988
X02871Y-0076939
X02872Y-00649
X04189Y00148
T02
X02082Y-01742
X0059Y-01699
X00658Y-00248
X01483Y-00404
X01603Y-00357
X01522Y-00933
X02472Y-00821
X02661Y-00517
X02404Y-00336
X0295Y-0052
X02811Y-00821
X03184Y-00819
X03605Y-00912
X04314Y00248
X04148Y00096
X03878Y00112
X03989Y00228
X03782Y0035
X01122Y00218
X00556Y00284
T03
X03172Y-01688
X00799
T04
X0282Y-01824
X03092Y-01812
X0082Y-01472
X01314Y-00842
X01645Y-00781
X02463Y-00708
X03544Y-00846
X04302Y-01454
X00755Y-00056
T05
X0415Y-01773
X00407Y-0179253
X00307
X00207
X00107
X00007
Y-01576
X00107
X00207
X00307
X00407
X001Y0
X0
T06
X04747Y-01446
X04847
T07
X0454913Y-0177113
X03026Y-01559
Y-01459
Y-01359
Y-01259
Y-01159
Y-01059
Y-00959
X03752Y-00663
X04066Y-00429
X04809Y-00562
X04602Y-01563
X04552Y00058
X04709Y00215
X03758Y00109
T08
X0123595Y-0222589
X0134465
X0145335
X0156205
X0167075
X0177945
X0188815
X0199685
X019425Y-0211408
X018338
X017251
X016164
X015077
X01399
X012903
X020512
X011816
X010729
X009642
X008555
X0074679
X0080115Y-0222589
X0090985
X0101855
X0112725
T09
X00963Y-0053364
T10
X0318684Y-02204
X0327542
X03364
X0345258
X0354117
X0349758Y-02104
X0358617
X0354117Y-02004
X0345258
X03364
X0327542
X0318684
X0323183Y-02104
X0332042
X03409
T11
X0096202Y-0023836
T12
X0291238Y0034117
X0195962
T13
X00963Y-00386
T14
X02864Y-02104
X03864
T15
X0489789Y-0250282
X-0005876
X0489789Y0034836
X-0005876
T16
X0232522Y-0216998
X0047278
M30
