G04 Layer_Color=2752767*
%FSLAX25Y25*%
%MOIN*%
G70*
G01*
G75*
%ADD99C,0.00500*%
G36*
X-5656Y-226806D02*
X-5609D01*
X-5492Y-226822D01*
X-5352Y-226853D01*
X-5203Y-226892D01*
X-5039Y-226947D01*
X-4867Y-227017D01*
X-4696Y-227111D01*
X-4532Y-227228D01*
X-4383Y-227368D01*
X-4243Y-227540D01*
X-4180Y-227642D01*
X-4125Y-227743D01*
X-4079Y-227860D01*
X-4039Y-227978D01*
X-4008Y-228110D01*
X-3985Y-228251D01*
X-3969Y-228399D01*
X-3961Y-228563D01*
Y-228571D01*
Y-228587D01*
Y-228626D01*
Y-228665D01*
X-3969Y-228719D01*
X-3977Y-228782D01*
X-3993Y-228923D01*
X-4016Y-229087D01*
X-4055Y-229266D01*
X-4110Y-229446D01*
X-4188Y-229618D01*
X-4750D01*
Y-229610D01*
X-4735Y-229594D01*
X-4719Y-229563D01*
X-4703Y-229524D01*
X-4680Y-229477D01*
X-4649Y-229415D01*
X-4594Y-229282D01*
X-4539Y-229118D01*
X-4485Y-228946D01*
X-4453Y-228759D01*
X-4438Y-228571D01*
Y-228555D01*
Y-228517D01*
X-4446Y-228462D01*
X-4461Y-228384D01*
X-4477Y-228290D01*
X-4500Y-228196D01*
X-4539Y-228087D01*
X-4594Y-227970D01*
X-4664Y-227860D01*
X-4742Y-227751D01*
X-4844Y-227650D01*
X-4969Y-227564D01*
X-5110Y-227486D01*
X-5274Y-227431D01*
X-5469Y-227392D01*
X-5687Y-227376D01*
X-6031D01*
Y-227392D01*
X-6023Y-227400D01*
X-6008Y-227408D01*
X-5976Y-227431D01*
X-5937Y-227462D01*
X-5891Y-227501D01*
X-5836Y-227548D01*
X-5781Y-227603D01*
X-5726Y-227673D01*
X-5672Y-227743D01*
X-5617Y-227829D01*
X-5562Y-227915D01*
X-5516Y-228017D01*
X-5477Y-228126D01*
X-5445Y-228243D01*
X-5430Y-228368D01*
X-5422Y-228501D01*
Y-228509D01*
Y-228524D01*
Y-228563D01*
X-5430Y-228602D01*
X-5438Y-228657D01*
X-5445Y-228712D01*
X-5477Y-228852D01*
X-5531Y-229009D01*
X-5609Y-229172D01*
X-5656Y-229258D01*
X-5719Y-229337D01*
X-5781Y-229415D01*
X-5859Y-229485D01*
X-5867D01*
X-5883Y-229501D01*
X-5906Y-229516D01*
X-5937Y-229540D01*
X-5984Y-229571D01*
X-6039Y-229602D01*
X-6101Y-229633D01*
X-6172Y-229665D01*
X-6250Y-229704D01*
X-6336Y-229735D01*
X-6437Y-229766D01*
X-6539Y-229797D01*
X-6773Y-229836D01*
X-6898Y-229844D01*
X-7031Y-229852D01*
X-7109D01*
X-7171Y-229844D01*
X-7242Y-229836D01*
X-7320Y-229829D01*
X-7413Y-229821D01*
X-7507Y-229797D01*
X-7726Y-229750D01*
X-7944Y-229680D01*
X-8054Y-229633D01*
X-8163Y-229579D01*
X-8265Y-229516D01*
X-8359Y-229446D01*
X-8366Y-229438D01*
X-8382Y-229430D01*
X-8405Y-229407D01*
X-8437Y-229368D01*
X-8476Y-229329D01*
X-8515Y-229282D01*
X-8562Y-229227D01*
X-8608Y-229157D01*
X-8647Y-229087D01*
X-8694Y-229001D01*
X-8772Y-228813D01*
X-8804Y-228712D01*
X-8827Y-228602D01*
X-8843Y-228485D01*
X-8850Y-228360D01*
Y-228352D01*
Y-228329D01*
Y-228298D01*
X-8843Y-228251D01*
X-8835Y-228196D01*
X-8819Y-228134D01*
X-8788Y-227993D01*
X-8726Y-227837D01*
X-8679Y-227751D01*
X-8632Y-227673D01*
X-8569Y-227595D01*
X-8499Y-227525D01*
X-8421Y-227454D01*
X-8327Y-227392D01*
Y-227376D01*
X-8772D01*
Y-226798D01*
X-5695D01*
X-5656Y-226806D01*
D02*
G37*
G36*
X-6992Y-225385D02*
X-6945D01*
X-6906Y-225377D01*
X-6859D01*
X-6812Y-225369D01*
X-6695Y-225346D01*
X-6562Y-225314D01*
X-6429Y-225260D01*
X-6297Y-225197D01*
X-6179Y-225103D01*
X-6164Y-225088D01*
X-6133Y-225057D01*
X-6094Y-224994D01*
X-6039Y-224908D01*
X-5984Y-224799D01*
X-5945Y-224666D01*
X-5914Y-224518D01*
X-5898Y-224346D01*
Y-224338D01*
Y-224323D01*
Y-224291D01*
X-5906Y-224252D01*
Y-224205D01*
X-5914Y-224143D01*
X-5945Y-224010D01*
X-5984Y-223854D01*
X-6047Y-223682D01*
X-6133Y-223502D01*
X-6187Y-223417D01*
X-6250Y-223331D01*
X-5734D01*
Y-223339D01*
X-5719Y-223354D01*
X-5703Y-223377D01*
X-5687Y-223409D01*
X-5664Y-223456D01*
X-5633Y-223502D01*
X-5609Y-223565D01*
X-5578Y-223635D01*
X-5547Y-223713D01*
X-5523Y-223799D01*
X-5492Y-223901D01*
X-5469Y-224002D01*
X-5438Y-224229D01*
X-5422Y-224479D01*
Y-224486D01*
Y-224510D01*
Y-224549D01*
X-5430Y-224596D01*
X-5438Y-224658D01*
X-5445Y-224721D01*
X-5477Y-224885D01*
X-5531Y-225064D01*
X-5570Y-225150D01*
X-5609Y-225244D01*
X-5664Y-225338D01*
X-5719Y-225424D01*
X-5789Y-225510D01*
X-5867Y-225588D01*
X-5875Y-225596D01*
X-5891Y-225603D01*
X-5914Y-225627D01*
X-5953Y-225650D01*
X-6000Y-225681D01*
X-6055Y-225713D01*
X-6117Y-225744D01*
X-6195Y-225783D01*
X-6281Y-225822D01*
X-6375Y-225853D01*
X-6476Y-225885D01*
X-6586Y-225916D01*
X-6703Y-225939D01*
X-6836Y-225963D01*
X-6968Y-225970D01*
X-7117Y-225978D01*
X-7187D01*
X-7242Y-225970D01*
X-7304Y-225963D01*
X-7382Y-225955D01*
X-7460Y-225939D01*
X-7554Y-225924D01*
X-7749Y-225877D01*
X-7960Y-225799D01*
X-8062Y-225744D01*
X-8163Y-225689D01*
X-8265Y-225627D01*
X-8359Y-225549D01*
X-8366Y-225541D01*
X-8382Y-225525D01*
X-8405Y-225502D01*
X-8437Y-225471D01*
X-8476Y-225424D01*
X-8515Y-225377D01*
X-8562Y-225314D01*
X-8608Y-225252D01*
X-8694Y-225088D01*
X-8772Y-224908D01*
X-8804Y-224807D01*
X-8827Y-224697D01*
X-8843Y-224580D01*
X-8850Y-224463D01*
Y-224455D01*
Y-224432D01*
Y-224401D01*
X-8843Y-224354D01*
X-8835Y-224307D01*
X-8827Y-224244D01*
X-8796Y-224096D01*
X-8749Y-223940D01*
X-8679Y-223768D01*
X-8632Y-223690D01*
X-8577Y-223612D01*
X-8507Y-223534D01*
X-8437Y-223463D01*
X-8429Y-223456D01*
X-8421Y-223448D01*
X-8398Y-223432D01*
X-8359Y-223409D01*
X-8319Y-223377D01*
X-8265Y-223346D01*
X-8210Y-223315D01*
X-8140Y-223276D01*
X-8062Y-223245D01*
X-7976Y-223214D01*
X-7874Y-223182D01*
X-7773Y-223151D01*
X-7663Y-223128D01*
X-7546Y-223112D01*
X-7413Y-223096D01*
X-6992D01*
Y-225385D01*
D02*
G37*
G36*
X-5500Y-236100D02*
X-10085D01*
Y-235506D01*
X-6023D01*
Y-233687D01*
X-5500D01*
Y-236100D01*
D02*
G37*
G36*
X-6992Y-232695D02*
X-6945D01*
X-6906Y-232687D01*
X-6859D01*
X-6812Y-232679D01*
X-6695Y-232656D01*
X-6562Y-232625D01*
X-6429Y-232570D01*
X-6297Y-232507D01*
X-6179Y-232414D01*
X-6164Y-232398D01*
X-6133Y-232367D01*
X-6094Y-232304D01*
X-6039Y-232218D01*
X-5984Y-232109D01*
X-5945Y-231976D01*
X-5914Y-231828D01*
X-5898Y-231656D01*
Y-231648D01*
Y-231633D01*
Y-231601D01*
X-5906Y-231562D01*
Y-231516D01*
X-5914Y-231453D01*
X-5945Y-231320D01*
X-5984Y-231164D01*
X-6047Y-230992D01*
X-6133Y-230813D01*
X-6187Y-230727D01*
X-6250Y-230641D01*
X-5734D01*
Y-230649D01*
X-5719Y-230664D01*
X-5703Y-230688D01*
X-5687Y-230719D01*
X-5664Y-230766D01*
X-5633Y-230813D01*
X-5609Y-230875D01*
X-5578Y-230945D01*
X-5547Y-231024D01*
X-5523Y-231109D01*
X-5492Y-231211D01*
X-5469Y-231312D01*
X-5438Y-231539D01*
X-5422Y-231789D01*
Y-231797D01*
Y-231820D01*
Y-231859D01*
X-5430Y-231906D01*
X-5438Y-231968D01*
X-5445Y-232031D01*
X-5477Y-232195D01*
X-5531Y-232375D01*
X-5570Y-232460D01*
X-5609Y-232554D01*
X-5664Y-232648D01*
X-5719Y-232734D01*
X-5789Y-232820D01*
X-5867Y-232898D01*
X-5875Y-232906D01*
X-5891Y-232913D01*
X-5914Y-232937D01*
X-5953Y-232960D01*
X-6000Y-232992D01*
X-6055Y-233023D01*
X-6117Y-233054D01*
X-6195Y-233093D01*
X-6281Y-233132D01*
X-6375Y-233163D01*
X-6476Y-233195D01*
X-6586Y-233226D01*
X-6703Y-233249D01*
X-6836Y-233273D01*
X-6968Y-233281D01*
X-7117Y-233288D01*
X-7187D01*
X-7242Y-233281D01*
X-7304Y-233273D01*
X-7382Y-233265D01*
X-7460Y-233249D01*
X-7554Y-233234D01*
X-7749Y-233187D01*
X-7960Y-233109D01*
X-8062Y-233054D01*
X-8163Y-232999D01*
X-8265Y-232937D01*
X-8359Y-232859D01*
X-8366Y-232851D01*
X-8382Y-232835D01*
X-8405Y-232812D01*
X-8437Y-232781D01*
X-8476Y-232734D01*
X-8515Y-232687D01*
X-8562Y-232625D01*
X-8608Y-232562D01*
X-8694Y-232398D01*
X-8772Y-232218D01*
X-8804Y-232117D01*
X-8827Y-232008D01*
X-8843Y-231890D01*
X-8850Y-231773D01*
Y-231766D01*
Y-231742D01*
Y-231711D01*
X-8843Y-231664D01*
X-8835Y-231617D01*
X-8827Y-231555D01*
X-8796Y-231406D01*
X-8749Y-231250D01*
X-8679Y-231078D01*
X-8632Y-231000D01*
X-8577Y-230922D01*
X-8507Y-230844D01*
X-8437Y-230774D01*
X-8429Y-230766D01*
X-8421Y-230758D01*
X-8398Y-230742D01*
X-8359Y-230719D01*
X-8319Y-230688D01*
X-8265Y-230656D01*
X-8210Y-230625D01*
X-8140Y-230586D01*
X-8062Y-230555D01*
X-7976Y-230524D01*
X-7874Y-230492D01*
X-7773Y-230461D01*
X-7663Y-230438D01*
X-7546Y-230422D01*
X-7413Y-230406D01*
X-6992D01*
Y-232695D01*
D02*
G37*
G36*
X-5500Y-220136D02*
X-7406D01*
X-7452Y-220144D01*
X-7515D01*
X-7593Y-220160D01*
X-7679Y-220175D01*
X-7773Y-220199D01*
X-7866Y-220230D01*
X-7960Y-220269D01*
X-8054Y-220316D01*
X-8140Y-220378D01*
X-8218Y-220449D01*
X-8280Y-220535D01*
X-8327Y-220636D01*
X-8366Y-220745D01*
X-8374Y-220878D01*
Y-220886D01*
Y-220894D01*
X-8366Y-220941D01*
X-8359Y-221011D01*
X-8335Y-221097D01*
X-8304Y-221199D01*
X-8249Y-221300D01*
X-8179Y-221409D01*
X-8085Y-221503D01*
X-8070Y-221511D01*
X-8038Y-221542D01*
X-7976Y-221581D01*
X-7890Y-221620D01*
X-7788Y-221667D01*
X-7663Y-221706D01*
X-7523Y-221737D01*
X-7367Y-221745D01*
X-5500D01*
Y-222323D01*
X-8772D01*
Y-221745D01*
X-8234D01*
Y-221737D01*
X-8241Y-221730D01*
X-8257Y-221722D01*
X-8288Y-221698D01*
X-8327Y-221667D01*
X-8374Y-221628D01*
X-8429Y-221581D01*
X-8483Y-221527D01*
X-8546Y-221464D01*
X-8601Y-221394D01*
X-8655Y-221316D01*
X-8710Y-221222D01*
X-8757Y-221128D01*
X-8796Y-221019D01*
X-8827Y-220910D01*
X-8843Y-220792D01*
X-8850Y-220660D01*
Y-220652D01*
Y-220636D01*
Y-220605D01*
X-8843Y-220574D01*
Y-220527D01*
X-8835Y-220472D01*
X-8804Y-220355D01*
X-8765Y-220222D01*
X-8702Y-220090D01*
X-8616Y-219957D01*
X-8562Y-219894D01*
X-8499Y-219840D01*
X-8483Y-219824D01*
X-8460Y-219816D01*
X-8437Y-219793D01*
X-8398Y-219777D01*
X-8359Y-219754D01*
X-8249Y-219699D01*
X-8101Y-219644D01*
X-7929Y-219605D01*
X-7734Y-219574D01*
X-7499Y-219558D01*
X-5500D01*
Y-220136D01*
D02*
G37*
G36*
Y-216333D02*
X-6039D01*
Y-216349D01*
X-6031Y-216356D01*
X-6016Y-216364D01*
X-5984Y-216388D01*
X-5945Y-216419D01*
X-5898Y-216458D01*
X-5844Y-216505D01*
X-5789Y-216559D01*
X-5734Y-216622D01*
X-5672Y-216692D01*
X-5617Y-216778D01*
X-5562Y-216864D01*
X-5516Y-216966D01*
X-5477Y-217075D01*
X-5445Y-217192D01*
X-5430Y-217325D01*
X-5422Y-217458D01*
Y-217465D01*
Y-217481D01*
Y-217520D01*
X-5430Y-217559D01*
X-5438Y-217614D01*
X-5445Y-217676D01*
X-5477Y-217817D01*
X-5531Y-217973D01*
X-5609Y-218137D01*
X-5656Y-218223D01*
X-5719Y-218301D01*
X-5781Y-218379D01*
X-5859Y-218449D01*
X-5867D01*
X-5883Y-218465D01*
X-5906Y-218481D01*
X-5937Y-218504D01*
X-5984Y-218535D01*
X-6039Y-218567D01*
X-6101Y-218598D01*
X-6179Y-218629D01*
X-6258Y-218660D01*
X-6344Y-218691D01*
X-6445Y-218723D01*
X-6554Y-218754D01*
X-6664Y-218777D01*
X-6789Y-218793D01*
X-6914Y-218801D01*
X-7054Y-218809D01*
X-7132D01*
X-7187Y-218801D01*
X-7257Y-218793D01*
X-7335Y-218785D01*
X-7429Y-218777D01*
X-7523Y-218754D01*
X-7734Y-218707D01*
X-7944Y-218637D01*
X-8054Y-218590D01*
X-8163Y-218535D01*
X-8265Y-218473D01*
X-8359Y-218403D01*
X-8366Y-218395D01*
X-8382Y-218387D01*
X-8405Y-218363D01*
X-8437Y-218324D01*
X-8476Y-218285D01*
X-8515Y-218238D01*
X-8562Y-218176D01*
X-8608Y-218114D01*
X-8647Y-218036D01*
X-8694Y-217957D01*
X-8772Y-217770D01*
X-8804Y-217668D01*
X-8827Y-217559D01*
X-8843Y-217442D01*
X-8850Y-217317D01*
Y-217309D01*
Y-217286D01*
Y-217254D01*
X-8843Y-217208D01*
X-8835Y-217153D01*
X-8819Y-217091D01*
X-8788Y-216950D01*
X-8726Y-216786D01*
X-8679Y-216708D01*
X-8632Y-216630D01*
X-8569Y-216552D01*
X-8499Y-216474D01*
X-8421Y-216411D01*
X-8327Y-216349D01*
Y-216333D01*
X-10342D01*
Y-215755D01*
X-5500D01*
Y-216333D01*
D02*
G37*
%LPC*%
G36*
X-7452Y-223674D02*
X-7491D01*
X-7523Y-223682D01*
X-7601Y-223690D01*
X-7702Y-223706D01*
X-7812Y-223729D01*
X-7921Y-223768D01*
X-8030Y-223823D01*
X-8132Y-223893D01*
X-8140Y-223901D01*
X-8171Y-223932D01*
X-8210Y-223979D01*
X-8257Y-224041D01*
X-8304Y-224119D01*
X-8343Y-224221D01*
X-8374Y-224338D01*
X-8382Y-224471D01*
Y-224486D01*
Y-224526D01*
X-8366Y-224596D01*
X-8351Y-224674D01*
X-8319Y-224768D01*
X-8273Y-224869D01*
X-8210Y-224971D01*
X-8124Y-225072D01*
X-8116Y-225080D01*
X-8077Y-225111D01*
X-8023Y-225158D01*
X-7944Y-225205D01*
X-7851Y-225260D01*
X-7734Y-225307D01*
X-7601Y-225353D01*
X-7452Y-225385D01*
Y-223674D01*
D02*
G37*
G36*
X-6984Y-216333D02*
X-7507D01*
X-7585Y-216349D01*
X-7671Y-216364D01*
X-7780Y-216395D01*
X-7890Y-216442D01*
X-7999Y-216505D01*
X-8101Y-216591D01*
X-8116Y-216598D01*
X-8148Y-216637D01*
X-8187Y-216692D01*
X-8241Y-216770D01*
X-8288Y-216856D01*
X-8335Y-216966D01*
X-8366Y-217091D01*
X-8374Y-217231D01*
Y-217239D01*
Y-217254D01*
Y-217278D01*
X-8366Y-217309D01*
X-8359Y-217387D01*
X-8327Y-217489D01*
X-8288Y-217606D01*
X-8226Y-217723D01*
X-8140Y-217840D01*
X-8085Y-217895D01*
X-8023Y-217950D01*
X-8007Y-217957D01*
X-7960Y-217989D01*
X-7882Y-218036D01*
X-7780Y-218082D01*
X-7640Y-218129D01*
X-7484Y-218176D01*
X-7296Y-218207D01*
X-7085Y-218215D01*
X-7031D01*
X-6992Y-218207D01*
X-6945D01*
X-6890Y-218199D01*
X-6765Y-218184D01*
X-6625Y-218153D01*
X-6484Y-218106D01*
X-6344Y-218051D01*
X-6211Y-217965D01*
X-6195Y-217950D01*
X-6164Y-217918D01*
X-6109Y-217864D01*
X-6055Y-217786D01*
X-6000Y-217684D01*
X-5945Y-217567D01*
X-5914Y-217434D01*
X-5898Y-217286D01*
Y-217278D01*
Y-217270D01*
Y-217247D01*
X-5906Y-217215D01*
X-5914Y-217137D01*
X-5937Y-217044D01*
X-5976Y-216934D01*
X-6031Y-216817D01*
X-6109Y-216708D01*
X-6211Y-216598D01*
X-6226Y-216591D01*
X-6265Y-216559D01*
X-6336Y-216512D01*
X-6422Y-216466D01*
X-6539Y-216419D01*
X-6672Y-216372D01*
X-6820Y-216341D01*
X-6984Y-216333D01*
D02*
G37*
G36*
Y-227376D02*
X-7507D01*
X-7577Y-227392D01*
X-7671Y-227408D01*
X-7773Y-227439D01*
X-7882Y-227486D01*
X-7991Y-227548D01*
X-8101Y-227634D01*
X-8116Y-227642D01*
X-8148Y-227681D01*
X-8187Y-227735D01*
X-8241Y-227806D01*
X-8288Y-227900D01*
X-8335Y-228009D01*
X-8366Y-228134D01*
X-8374Y-228267D01*
Y-228274D01*
Y-228290D01*
Y-228313D01*
X-8366Y-228345D01*
X-8359Y-228431D01*
X-8327Y-228532D01*
X-8288Y-228649D01*
X-8226Y-228774D01*
X-8140Y-228891D01*
X-8085Y-228946D01*
X-8023Y-229001D01*
X-8007Y-229009D01*
X-7984Y-229024D01*
X-7960Y-229040D01*
X-7882Y-229079D01*
X-7773Y-229126D01*
X-7632Y-229180D01*
X-7468Y-229219D01*
X-7281Y-229251D01*
X-7062Y-229258D01*
X-7015D01*
X-6976Y-229251D01*
X-6929D01*
X-6882Y-229243D01*
X-6757Y-229227D01*
X-6625Y-229196D01*
X-6484Y-229149D01*
X-6344Y-229094D01*
X-6219Y-229009D01*
X-6203Y-228993D01*
X-6172Y-228962D01*
X-6117Y-228907D01*
X-6062Y-228829D01*
X-6000Y-228735D01*
X-5945Y-228618D01*
X-5914Y-228485D01*
X-5898Y-228337D01*
Y-228329D01*
Y-228321D01*
Y-228298D01*
X-5906Y-228267D01*
X-5914Y-228188D01*
X-5937Y-228095D01*
X-5976Y-227985D01*
X-6023Y-227868D01*
X-6101Y-227759D01*
X-6203Y-227650D01*
X-6219Y-227634D01*
X-6258Y-227603D01*
X-6328Y-227564D01*
X-6422Y-227509D01*
X-6531Y-227462D01*
X-6664Y-227415D01*
X-6820Y-227384D01*
X-6984Y-227376D01*
D02*
G37*
G36*
X-7452Y-230984D02*
X-7491D01*
X-7523Y-230992D01*
X-7601Y-231000D01*
X-7702Y-231016D01*
X-7812Y-231039D01*
X-7921Y-231078D01*
X-8030Y-231133D01*
X-8132Y-231203D01*
X-8140Y-231211D01*
X-8171Y-231242D01*
X-8210Y-231289D01*
X-8257Y-231351D01*
X-8304Y-231430D01*
X-8343Y-231531D01*
X-8374Y-231648D01*
X-8382Y-231781D01*
Y-231797D01*
Y-231836D01*
X-8366Y-231906D01*
X-8351Y-231984D01*
X-8319Y-232078D01*
X-8273Y-232179D01*
X-8210Y-232281D01*
X-8124Y-232382D01*
X-8116Y-232390D01*
X-8077Y-232421D01*
X-8023Y-232468D01*
X-7944Y-232515D01*
X-7851Y-232570D01*
X-7734Y-232617D01*
X-7601Y-232664D01*
X-7452Y-232695D01*
Y-230984D01*
D02*
G37*
%LPD*%
D99*
X74679Y-211408D02*
Y-208076D01*
X76346Y-206410D01*
X78012Y-208076D01*
Y-211408D01*
Y-208909D01*
X74679D01*
X80115Y-222589D02*
Y-219257D01*
X81781Y-217591D01*
X83447Y-219257D01*
Y-222589D01*
Y-220090D01*
X80115D01*
X85550Y-211408D02*
Y-208076D01*
X87216Y-206410D01*
X88882Y-208076D01*
Y-211408D01*
Y-208909D01*
X85550D01*
X90985Y-222589D02*
Y-219257D01*
X92651Y-217591D01*
X94317Y-219257D01*
Y-222589D01*
Y-220090D01*
X90985D01*
X96420Y-211408D02*
Y-208076D01*
X98086Y-206410D01*
X99752Y-208076D01*
Y-211408D01*
Y-208909D01*
X96420D01*
X101855Y-222589D02*
Y-219257D01*
X103521Y-217591D01*
X105187Y-219257D01*
Y-222589D01*
Y-220090D01*
X101855D01*
X107290Y-211408D02*
Y-208076D01*
X108956Y-206410D01*
X110622Y-208076D01*
Y-211408D01*
Y-208909D01*
X107290D01*
X112725Y-222589D02*
Y-219257D01*
X114391Y-217591D01*
X116057Y-219257D01*
Y-222589D01*
Y-220090D01*
X112725D01*
X118160Y-211408D02*
Y-208076D01*
X119826Y-206410D01*
X121492Y-208076D01*
Y-211408D01*
Y-208909D01*
X118160D01*
X123595Y-222589D02*
Y-219257D01*
X125261Y-217591D01*
X126927Y-219257D01*
Y-222589D01*
Y-220090D01*
X123595D01*
X129030Y-211408D02*
Y-208076D01*
X130696Y-206410D01*
X132362Y-208076D01*
Y-211408D01*
Y-208909D01*
X129030D01*
X134465Y-222589D02*
Y-219257D01*
X136131Y-217591D01*
X137797Y-219257D01*
Y-222589D01*
Y-220090D01*
X134465D01*
X139900Y-211408D02*
Y-208076D01*
X141566Y-206410D01*
X143232Y-208076D01*
Y-211408D01*
Y-208909D01*
X139900D01*
X145335Y-222589D02*
Y-219257D01*
X147001Y-217591D01*
X148667Y-219257D01*
Y-222589D01*
Y-220090D01*
X145335D01*
X150770Y-211408D02*
Y-208076D01*
X152436Y-206410D01*
X154102Y-208076D01*
Y-211408D01*
Y-208909D01*
X150770D01*
X156205Y-222589D02*
Y-219257D01*
X157871Y-217591D01*
X159537Y-219257D01*
Y-222589D01*
Y-220090D01*
X156205D01*
X161640Y-211408D02*
Y-208076D01*
X163306Y-206410D01*
X164972Y-208076D01*
Y-211408D01*
Y-208909D01*
X161640D01*
X167075Y-222589D02*
Y-219257D01*
X168741Y-217591D01*
X170407Y-219257D01*
Y-222589D01*
Y-220090D01*
X167075D01*
X172510Y-211408D02*
Y-208076D01*
X174176Y-206410D01*
X175842Y-208076D01*
Y-211408D01*
Y-208909D01*
X172510D01*
X177945Y-222589D02*
Y-219257D01*
X179611Y-217591D01*
X181278Y-219257D01*
Y-222589D01*
Y-220090D01*
X177945D01*
X183380Y-211408D02*
Y-208076D01*
X185046Y-206410D01*
X186713Y-208076D01*
Y-211408D01*
Y-208909D01*
X183380D01*
X188815Y-222589D02*
Y-219257D01*
X190481Y-217591D01*
X192148Y-219257D01*
Y-222589D01*
Y-220090D01*
X188815D01*
X194250Y-211408D02*
Y-208076D01*
X195916Y-206410D01*
X197583Y-208076D01*
Y-211408D01*
Y-208909D01*
X194250D01*
X199685Y-222589D02*
Y-219257D01*
X201351Y-217591D01*
X203018Y-219257D01*
Y-222589D01*
Y-220090D01*
X199685D01*
X205120Y-211408D02*
Y-208076D01*
X206787Y-206410D01*
X208453Y-208076D01*
Y-211408D01*
Y-208909D01*
X205120D01*
X232522Y-212000D02*
Y-216998D01*
X235021D01*
X235854Y-216165D01*
Y-215332D01*
X235021Y-214499D01*
X232522D01*
X235021D01*
X235854Y-213666D01*
Y-212833D01*
X235021Y-212000D01*
X232522D01*
X47278D02*
Y-216998D01*
X49777D01*
X50610Y-216165D01*
Y-215332D01*
X49777Y-214499D01*
X47278D01*
X49777D01*
X50610Y-213666D01*
Y-212833D01*
X49777Y-212000D01*
X47278D01*
X13332Y4165D02*
X12499Y4998D01*
X10833D01*
X10000Y4165D01*
Y833D01*
X10833Y0D01*
X12499D01*
X13332Y833D01*
X3332Y4165D02*
X2499Y4998D01*
X833D01*
X0Y4165D01*
Y833D01*
X833Y0D01*
X2499D01*
X3332Y833D01*
X4032Y-153435D02*
X3199Y-152602D01*
X1533D01*
X700Y-153435D01*
Y-156767D01*
X1533Y-157600D01*
X3199D01*
X4032Y-156767D01*
X14032Y-153435D02*
X13199Y-152602D01*
X11533D01*
X10700Y-153435D01*
Y-156767D01*
X11533Y-157600D01*
X13199D01*
X14032Y-156767D01*
X24032Y-153435D02*
X23199Y-152602D01*
X21533D01*
X20700Y-153435D01*
Y-156767D01*
X21533Y-157600D01*
X23199D01*
X24032Y-156767D01*
X34032Y-153435D02*
X33199Y-152602D01*
X31533D01*
X30700Y-153435D01*
Y-156767D01*
X31533Y-157600D01*
X33199D01*
X34032Y-156767D01*
X44032Y-153435D02*
X43199Y-152602D01*
X41533D01*
X40700Y-153435D01*
Y-156767D01*
X41533Y-157600D01*
X43199D01*
X44032Y-156767D01*
X4032Y-175088D02*
X3199Y-174255D01*
X1533D01*
X700Y-175088D01*
Y-178420D01*
X1533Y-179253D01*
X3199D01*
X4032Y-178420D01*
X14032Y-175088D02*
X13199Y-174255D01*
X11533D01*
X10700Y-175088D01*
Y-178420D01*
X11533Y-179253D01*
X13199D01*
X14032Y-178420D01*
X24032Y-175088D02*
X23199Y-174255D01*
X21533D01*
X20700Y-175088D01*
Y-178420D01*
X21533Y-179253D01*
X23199D01*
X24032Y-178420D01*
X34032Y-175088D02*
X33199Y-174255D01*
X31533D01*
X30700Y-175088D01*
Y-178420D01*
X31533Y-179253D01*
X33199D01*
X34032Y-178420D01*
X44032Y-175088D02*
X43199Y-174255D01*
X41533D01*
X40700Y-175088D01*
Y-178420D01*
X41533Y-179253D01*
X43199D01*
X44032Y-178420D01*
X-5876Y39835D02*
Y34836D01*
X-3377D01*
X-2544Y35669D01*
Y39002D01*
X-3377Y39835D01*
X-5876D01*
X489789D02*
Y34836D01*
X492288D01*
X493121Y35669D01*
Y39002D01*
X492288Y39835D01*
X489789D01*
Y-245284D02*
Y-250282D01*
X492288D01*
X493121Y-249449D01*
Y-246117D01*
X492288Y-245284D01*
X489789D01*
X-5876D02*
Y-250282D01*
X-3377D01*
X-2544Y-249449D01*
Y-246117D01*
X-3377Y-245284D01*
X-5876D01*
X99632Y-48365D02*
X96300D01*
Y-53364D01*
X99632D01*
X96300Y-50865D02*
X97966D01*
X99534Y-18838D02*
X96202D01*
Y-21337D01*
X97868D01*
X96202D01*
Y-23836D01*
X99632Y-34435D02*
X98799Y-33602D01*
X97133D01*
X96300Y-34435D01*
Y-37767D01*
X97133Y-38600D01*
X98799D01*
X99632Y-37767D01*
Y-36101D01*
X97966D01*
X358617Y-205402D02*
Y-210400D01*
Y-207901D01*
X361949D01*
Y-205402D01*
Y-210400D01*
X336400Y-195402D02*
Y-200400D01*
Y-197901D01*
X339732D01*
Y-195402D01*
Y-200400D01*
X386400Y-205402D02*
X388066D01*
X387233D01*
Y-210400D01*
X386400D01*
X388066D01*
X286400Y-205402D02*
X288066D01*
X287233D01*
Y-210400D01*
X286400D01*
X288066D01*
X318684Y-195402D02*
Y-200400D01*
Y-197901D01*
X322016D01*
Y-195402D01*
Y-200400D01*
X327542Y-195402D02*
Y-200400D01*
Y-197901D01*
X330874D01*
Y-195402D01*
Y-200400D01*
X345258Y-195402D02*
Y-200400D01*
Y-197901D01*
X348591D01*
Y-195402D01*
Y-200400D01*
X354117Y-195402D02*
Y-200400D01*
Y-197901D01*
X357449D01*
Y-195402D01*
Y-200400D01*
X323183Y-205402D02*
Y-210400D01*
Y-207901D01*
X326516D01*
Y-205402D01*
Y-210400D01*
X332042Y-205402D02*
Y-210400D01*
Y-207901D01*
X335374D01*
Y-205402D01*
Y-210400D01*
X340900Y-205402D02*
Y-210400D01*
Y-207901D01*
X344232D01*
Y-205402D01*
Y-210400D01*
X349758Y-205402D02*
Y-210400D01*
Y-207901D01*
X353091D01*
Y-205402D01*
Y-210400D01*
X318684Y-215402D02*
Y-220400D01*
Y-217901D01*
X322016D01*
Y-215402D01*
Y-220400D01*
X327542Y-215402D02*
Y-220400D01*
Y-217901D01*
X330874D01*
Y-215402D01*
Y-220400D01*
X336400Y-215402D02*
Y-220400D01*
Y-217901D01*
X339732D01*
Y-215402D01*
Y-220400D01*
X345258Y-215402D02*
Y-220400D01*
Y-217901D01*
X348591D01*
Y-215402D01*
Y-220400D01*
X354117Y-215402D02*
Y-220400D01*
Y-217901D01*
X357449D01*
Y-215402D01*
Y-220400D01*
X488032Y-139602D02*
X486366D01*
X487199D01*
Y-143767D01*
X486366Y-144600D01*
X485533D01*
X484700Y-143767D01*
X478032Y-139602D02*
X476366D01*
X477199D01*
Y-143767D01*
X476366Y-144600D01*
X475533D01*
X474700Y-143767D01*
X195962Y39115D02*
Y34117D01*
Y35783D01*
X199294Y39115D01*
X196795Y36616D01*
X199294Y34117D01*
X291238Y39115D02*
Y34117D01*
Y35783D01*
X294570Y39115D01*
X292071Y36616D01*
X294570Y34117D01*
X302600Y-90902D02*
Y-95900D01*
X305932D01*
X302600Y-100902D02*
Y-105900D01*
X305932D01*
X302600Y-110902D02*
Y-115900D01*
X305932D01*
X302600Y-120902D02*
Y-125900D01*
X305932D01*
X302600Y-130902D02*
Y-135900D01*
X305932D01*
X302600Y-140902D02*
Y-145900D01*
X305932D01*
X302600Y-150902D02*
Y-155900D01*
X305932D01*
X460200Y-151302D02*
Y-156300D01*
X463532D01*
X470900Y26498D02*
Y21500D01*
X474232D01*
X455200Y10798D02*
Y5800D01*
X458532D01*
X480900Y-51202D02*
Y-56200D01*
X484232D01*
X418900Y14800D02*
Y19798D01*
X420566Y18132D01*
X422232Y19798D01*
Y14800D01*
X414800Y9600D02*
Y14598D01*
X418132Y9600D01*
Y14598D01*
X431400Y24800D02*
Y29798D01*
X434732Y24800D01*
Y29798D01*
X398900Y22800D02*
Y27798D01*
X402232Y22800D01*
Y27798D01*
X284499Y-177402D02*
X282833D01*
X282000Y-178235D01*
Y-181567D01*
X282833Y-182400D01*
X284499D01*
X285332Y-181567D01*
Y-178235D01*
X284499Y-177402D01*
X163000Y-124800D02*
Y-119802D01*
X164666Y-121468D01*
X166332Y-119802D01*
Y-124800D01*
X133899Y-79202D02*
X132233D01*
X131400Y-80035D01*
Y-83367D01*
X132233Y-84200D01*
X133899D01*
X134732Y-83367D01*
Y-80035D01*
X133899Y-79202D01*
X166999Y-73102D02*
X165333D01*
X164500Y-73935D01*
Y-77267D01*
X165333Y-78100D01*
X166999D01*
X167832Y-77267D01*
Y-73935D01*
X166999Y-73102D01*
X223600Y-89500D02*
Y-84502D01*
X225266Y-86168D01*
X226932Y-84502D01*
Y-89500D01*
X202820Y-143679D02*
Y-138681D01*
X204487Y-140347D01*
X206153Y-138681D01*
Y-143679D01*
X208200Y-174200D02*
Y-169202D01*
X211532Y-174200D01*
Y-169202D01*
X360500Y-91200D02*
Y-86202D01*
X363832Y-91200D01*
Y-86202D01*
X356899Y-79602D02*
X355233D01*
X354400Y-80435D01*
Y-83767D01*
X355233Y-84600D01*
X356899D01*
X357732Y-83767D01*
Y-80435D01*
X356899Y-79602D01*
X288700Y-111500D02*
Y-106502D01*
X290366Y-108168D01*
X292032Y-106502D01*
Y-111500D01*
X418332Y-173135D02*
X417499Y-172302D01*
X415833D01*
X415000Y-173135D01*
Y-176467D01*
X415833Y-177300D01*
X417499D01*
X418332Y-176467D01*
X327000Y-144900D02*
Y-139902D01*
X328666Y-141568D01*
X330332Y-139902D01*
Y-144900D01*
X260600Y-110200D02*
Y-105202D01*
X262266Y-106868D01*
X263932Y-105202D01*
Y-110200D01*
X311699Y-176202D02*
X310033D01*
X309200Y-177035D01*
Y-180367D01*
X310033Y-181200D01*
X311699D01*
X312532Y-180367D01*
Y-177035D01*
X311699Y-176202D01*
X300700Y-190000D02*
Y-185002D01*
X302366Y-186668D01*
X304032Y-185002D01*
Y-190000D01*
X324300Y-189900D02*
Y-184902D01*
X325966Y-186568D01*
X327632Y-184902D01*
Y-189900D01*
X335500Y-188200D02*
Y-183202D01*
X337166Y-184868D01*
X338832Y-183202D01*
Y-188200D01*
X297400Y-192600D02*
Y-187602D01*
X299066Y-189268D01*
X300732Y-187602D01*
Y-192600D01*
X317200Y-168800D02*
Y-163802D01*
X319699D01*
X320532Y-164635D01*
Y-166301D01*
X319699Y-167134D01*
X317200D01*
X332500Y-127900D02*
Y-122902D01*
X334166Y-124568D01*
X335832Y-122902D01*
Y-127900D01*
X340200Y-131500D02*
Y-126502D01*
X341866Y-128168D01*
X343532Y-126502D01*
Y-131500D01*
X34700Y-61400D02*
Y-56402D01*
X36366Y-58068D01*
X38032Y-56402D01*
Y-61400D01*
X195600Y-133600D02*
Y-128602D01*
X197266Y-130268D01*
X198932Y-128602D01*
Y-133600D01*
X375800Y15898D02*
Y10900D01*
X379132D01*
X295000Y-52000D02*
Y-47002D01*
X298332Y-52000D01*
Y-47002D01*
X266100Y-51700D02*
Y-46702D01*
X269432Y-51700D01*
Y-46702D01*
X148300Y-40400D02*
Y-35402D01*
X151632Y-40400D01*
Y-35402D01*
X160300Y-35700D02*
Y-30702D01*
X163632Y-35700D01*
Y-30702D01*
X248799Y-65802D02*
X247133D01*
X246300Y-66635D01*
Y-69967D01*
X247133Y-70800D01*
X248799D01*
X249632Y-69967D01*
Y-66635D01*
X248799Y-65802D01*
X232300Y-76800D02*
Y-71802D01*
X233966Y-73468D01*
X235632Y-71802D01*
Y-76800D01*
X287200Y-64900D02*
Y-59902D01*
X288866Y-61568D01*
X290532Y-59902D01*
Y-64900D01*
X287100Y-76939D02*
Y-71941D01*
X288766Y-73607D01*
X290432Y-71941D01*
Y-76939D01*
X201800Y-129900D02*
Y-124902D01*
X203466Y-126568D01*
X205132Y-124902D01*
Y-129900D01*
X185600Y-114800D02*
Y-109802D01*
X187266Y-111468D01*
X188932Y-109802D01*
Y-114800D01*
X232200Y-118500D02*
Y-113502D01*
X233866Y-115168D01*
X235532Y-113502D01*
Y-118500D01*
X234700Y-121200D02*
Y-116202D01*
X236366Y-117868D01*
X238032Y-116202D01*
Y-121200D01*
X198400Y-192700D02*
Y-187702D01*
X200066Y-189368D01*
X201732Y-187702D01*
Y-192700D01*
X207600Y-192500D02*
Y-187502D01*
X209266Y-189168D01*
X210932Y-187502D01*
Y-192500D01*
X170100Y-192100D02*
Y-187102D01*
X171766Y-188768D01*
X173432Y-187102D01*
Y-192100D01*
X375200Y-61302D02*
Y-66300D01*
X378532D01*
X362100Y-99000D02*
Y-94002D01*
X363766Y-95668D01*
X365432Y-94002D01*
Y-99000D01*
X432699Y-140402D02*
X431033D01*
X430200Y-141235D01*
Y-144567D01*
X431033Y-145400D01*
X432699D01*
X433532Y-144567D01*
Y-141235D01*
X432699Y-140402D01*
X364500Y-138700D02*
Y-133702D01*
X366166Y-135368D01*
X367832Y-133702D01*
Y-138700D01*
X367500Y-111500D02*
Y-106502D01*
X369166Y-108168D01*
X370832Y-106502D01*
Y-111500D01*
X375500Y-122700D02*
Y-117702D01*
X377166Y-119368D01*
X378832Y-117702D01*
Y-122700D01*
X315500Y-134800D02*
Y-129802D01*
X317166Y-131468D01*
X318832Y-129802D01*
Y-134800D01*
X282200Y-151200D02*
Y-146202D01*
X283866Y-147868D01*
X285532Y-146202D01*
Y-151200D01*
X311500Y-129500D02*
Y-124502D01*
X313166Y-126168D01*
X314832Y-124502D01*
Y-129500D01*
X406600Y-37902D02*
Y-42900D01*
X409932D01*
X84499Y-142202D02*
X82833D01*
X82000Y-143035D01*
Y-146367D01*
X82833Y-147200D01*
X84499D01*
X85332Y-146367D01*
Y-143035D01*
X84499Y-142202D01*
X77999Y-602D02*
X76333D01*
X75500Y-1435D01*
Y-4767D01*
X76333Y-5600D01*
X77999D01*
X78832Y-4767D01*
Y-1435D01*
X77999Y-602D01*
X229500Y-115700D02*
Y-110702D01*
X231166Y-112368D01*
X232832Y-110702D01*
Y-115700D01*
X226700Y-112500D02*
Y-107502D01*
X228366Y-109168D01*
X230032Y-107502D01*
Y-112500D01*
X223400Y-128900D02*
Y-123902D01*
X225066Y-125568D01*
X226732Y-123902D01*
Y-128900D01*
X223200Y-134600D02*
Y-129602D01*
X224866Y-131268D01*
X226532Y-129602D01*
Y-134600D01*
X109200Y-170100D02*
Y-165102D01*
X110866Y-166768D01*
X112532Y-165102D01*
Y-170100D01*
X119900Y-170000D02*
Y-165002D01*
X121566Y-166668D01*
X123232Y-165002D01*
Y-170000D01*
X79900Y-168800D02*
Y-163802D01*
X82399D01*
X83232Y-164635D01*
Y-166301D01*
X82399Y-167134D01*
X79900D01*
X283400Y-114700D02*
Y-109702D01*
X285066Y-111368D01*
X286732Y-109702D01*
Y-114700D01*
X285600Y-117900D02*
Y-112902D01*
X287266Y-114568D01*
X288932Y-112902D01*
Y-117900D01*
X339500Y-98800D02*
Y-93802D01*
X341166Y-95468D01*
X342832Y-93802D01*
Y-98800D01*
X322100Y-110200D02*
Y-105202D01*
X323766Y-106868D01*
X325432Y-105202D01*
Y-110200D01*
X321900Y-122000D02*
Y-117002D01*
X323566Y-118668D01*
X325232Y-117002D01*
Y-122000D01*
X287800Y-125600D02*
Y-120602D01*
X289466Y-122268D01*
X291132Y-120602D01*
Y-125600D01*
X281500Y-130900D02*
Y-125902D01*
X283166Y-127568D01*
X284832Y-125902D01*
Y-130900D01*
X290700Y-135900D02*
Y-130902D01*
X292366Y-132568D01*
X294032Y-130902D01*
Y-135900D01*
X293000Y-148400D02*
Y-143402D01*
X294666Y-145068D01*
X296332Y-143402D01*
Y-148400D01*
X281100Y-82100D02*
Y-77102D01*
X284432Y-82100D01*
Y-77102D01*
X318400Y-81900D02*
Y-76902D01*
X321732Y-81900D01*
Y-76902D01*
X247200Y-82100D02*
Y-77102D01*
X250532Y-82100D01*
Y-77102D01*
X218200Y-180400D02*
Y-175402D01*
X219866Y-177068D01*
X221532Y-175402D01*
Y-180400D01*
X246200Y-183100D02*
Y-178102D01*
X247866Y-179768D01*
X249532Y-178102D01*
Y-183100D01*
X238400Y-180600D02*
Y-175602D01*
X240066Y-177268D01*
X241732Y-175602D01*
Y-180600D01*
X230000Y-180400D02*
Y-175402D01*
X231666Y-177068D01*
X233332Y-175402D01*
Y-180400D01*
X227000Y-184000D02*
Y-179002D01*
X228666Y-180668D01*
X230332Y-179002D01*
Y-184000D01*
X228200Y-169000D02*
Y-164002D01*
X229866Y-165668D01*
X231532Y-164002D01*
Y-169000D01*
X216500Y-170600D02*
Y-165602D01*
X218166Y-167268D01*
X219832Y-165602D01*
Y-170600D01*
X209000Y-163500D02*
Y-158502D01*
X210666Y-160168D01*
X212332Y-158502D01*
Y-163500D01*
X206500Y-165900D02*
Y-160902D01*
X208166Y-162568D01*
X209832Y-160902D01*
Y-165900D01*
X202000Y-171900D02*
Y-166902D01*
X203666Y-168568D01*
X205332Y-166902D01*
Y-171900D01*
X204300Y-168400D02*
Y-163402D01*
X205966Y-165068D01*
X207632Y-163402D01*
Y-168400D01*
X249600Y-90700D02*
Y-85702D01*
X251266Y-87368D01*
X252932Y-85702D01*
Y-90700D01*
X230300Y-89400D02*
Y-84402D01*
X231966Y-86068D01*
X233632Y-84402D01*
Y-89400D01*
X152200Y-93300D02*
Y-88302D01*
X155532Y-93300D01*
Y-88302D01*
X454913Y-172114D02*
Y-177113D01*
X458245D01*
X55600Y28400D02*
Y33398D01*
X58932Y28400D01*
Y33398D01*
X65800Y-24800D02*
Y-19802D01*
X69132Y-24800D01*
Y-19802D01*
X112200Y21800D02*
Y26798D01*
X115532Y21800D01*
Y26798D01*
X387800Y11200D02*
Y16198D01*
X391132Y11200D01*
Y16198D01*
X378200Y35000D02*
Y39998D01*
X381532Y35000D01*
Y39998D01*
X240400Y-33600D02*
Y-28602D01*
X243732Y-33600D01*
Y-28602D01*
X59000Y-169900D02*
Y-164902D01*
X62332Y-169900D01*
Y-164902D01*
M02*
