G04 Layer_Physical_Order=1*
G04 Layer_Color=255*
%FSLAX25Y25*%
%MOIN*%
G70*
G01*
G75*
%ADD10R,0.08661X0.02362*%
%ADD11R,0.07087X0.02756*%
%ADD12C,0.06000*%
%ADD13R,0.03400X0.14000*%
%ADD14O,0.03400X0.14000*%
%ADD15C,0.06500*%
%ADD16O,0.01181X0.08268*%
%ADD17O,0.08268X0.01181*%
%ADD18R,0.06000X0.06000*%
%ADD19R,0.06000X0.06000*%
%ADD20R,0.09843X0.14173*%
G04:AMPARAMS|DCode=21|XSize=13mil|YSize=50mil|CornerRadius=0mil|HoleSize=0mil|Usage=FLASHONLY|Rotation=270.000|XOffset=0mil|YOffset=0mil|HoleType=Round|Shape=Octagon|*
%AMOCTAGOND21*
4,1,8,0.02500,0.00325,0.02500,-0.00325,0.02175,-0.00650,-0.02175,-0.00650,-0.02500,-0.00325,-0.02500,0.00325,-0.02175,0.00650,0.02175,0.00650,0.02500,0.00325,0.0*
%
%ADD21OCTAGOND21*%

%ADD22R,0.05000X0.01339*%
G04:AMPARAMS|DCode=23|XSize=13.39mil|YSize=50mil|CornerRadius=0mil|HoleSize=0mil|Usage=FLASHONLY|Rotation=270.000|XOffset=0mil|YOffset=0mil|HoleType=Round|Shape=Octagon|*
%AMOCTAGOND23*
4,1,8,0.02500,0.00335,0.02500,-0.00335,0.02165,-0.00669,-0.02165,-0.00669,-0.02500,-0.00335,-0.02500,0.00335,-0.02165,0.00669,0.02165,0.00669,0.02500,0.00335,0.0*
%
%ADD23OCTAGOND23*%

G04:AMPARAMS|DCode=24|XSize=13.39mil|YSize=50mil|CornerRadius=0mil|HoleSize=0mil|Usage=FLASHONLY|Rotation=0.000|XOffset=0mil|YOffset=0mil|HoleType=Round|Shape=Octagon|*
%AMOCTAGOND24*
4,1,8,-0.00335,0.02500,0.00335,0.02500,0.00669,0.02165,0.00669,-0.02165,0.00335,-0.02500,-0.00335,-0.02500,-0.00669,-0.02165,-0.00669,0.02165,-0.00335,0.02500,0.0*
%
%ADD24OCTAGOND24*%

%ADD25R,0.01339X0.05000*%
G04:AMPARAMS|DCode=26|XSize=13mil|YSize=50mil|CornerRadius=0mil|HoleSize=0mil|Usage=FLASHONLY|Rotation=180.000|XOffset=0mil|YOffset=0mil|HoleType=Round|Shape=Octagon|*
%AMOCTAGOND26*
4,1,8,0.00325,-0.02500,-0.00325,-0.02500,-0.00650,-0.02175,-0.00650,0.02175,-0.00325,0.02500,0.00325,0.02500,0.00650,0.02175,0.00650,-0.02175,0.00325,-0.02500,0.0*
%
%ADD26OCTAGOND26*%

%ADD27R,0.04331X0.03937*%
%ADD28R,0.05906X0.05118*%
%ADD29O,0.13780X0.19685*%
G04:AMPARAMS|DCode=30|XSize=137.8mil|YSize=196.85mil|CornerRadius=0mil|HoleSize=0mil|Usage=FLASHONLY|Rotation=180.000|XOffset=0mil|YOffset=0mil|HoleType=Round|Shape=Octagon|*
%AMOCTAGOND30*
4,1,8,0.03445,-0.09843,-0.03445,-0.09843,-0.06890,-0.06398,-0.06890,0.06398,-0.03445,0.09843,0.03445,0.09843,0.06890,0.06398,0.06890,-0.06398,0.03445,-0.09843,0.0*
%
%ADD30OCTAGOND30*%

%ADD31R,0.07087X0.03150*%
%ADD32O,0.05906X0.17323*%
%ADD33O,0.11811X0.04724*%
%ADD34R,0.04724X0.07874*%
%ADD35R,0.06000X0.05000*%
%ADD36R,0.14173X0.07874*%
%ADD37R,0.03937X0.04331*%
%ADD38O,0.08661X0.02362*%
%ADD39O,0.02362X0.08661*%
%ADD40R,0.04331X0.06102*%
%ADD41R,0.04331X0.06102*%
%ADD42R,0.13583X0.06102*%
%ADD43R,0.21654X0.15748*%
%ADD44R,0.11811X0.15748*%
%ADD45R,0.07874X0.07874*%
%ADD46R,0.03937X0.05906*%
%ADD47R,0.04134X0.08268*%
%ADD48R,0.41339X0.43307*%
%ADD49R,0.07087X0.07480*%
%ADD50R,0.09000X0.07480*%
G04:AMPARAMS|DCode=51|XSize=53.15mil|YSize=15.75mil|CornerRadius=0mil|HoleSize=0mil|Usage=FLASHONLY|Rotation=270.000|XOffset=0mil|YOffset=0mil|HoleType=Round|Shape=Octagon|*
%AMOCTAGOND51*
4,1,8,-0.00394,-0.02658,0.00394,-0.02658,0.00787,-0.02264,0.00787,0.02264,0.00394,0.02658,-0.00394,0.02658,-0.00787,0.02264,-0.00787,-0.02264,-0.00394,-0.02658,0.0*
%
%ADD51OCTAGOND51*%

%ADD52R,0.05906X0.07874*%
%ADD53R,0.07874X0.05906*%
%ADD54C,0.02000*%
%ADD55C,0.01000*%
%ADD56C,0.02500*%
%ADD57C,0.05000*%
%ADD58C,0.04000*%
%ADD59C,0.02200*%
%ADD60C,0.01800*%
%ADD61C,0.01500*%
%ADD62C,0.03000*%
%ADD63C,0.01200*%
%ADD64C,0.06654*%
%ADD65R,0.06654X0.06654*%
%ADD66C,0.18740*%
%ADD67C,0.06000*%
%ADD68C,0.12205*%
%ADD69C,0.04331*%
%ADD70C,0.05906*%
%ADD71C,0.10000*%
%ADD72C,0.06500*%
%ADD73C,0.15000*%
%ADD74R,0.06500X0.06500*%
%ADD75C,0.05906*%
%ADD76R,0.05906X0.05906*%
%ADD77C,0.06299*%
%ADD78C,0.04000*%
%ADD79C,0.01500*%
%ADD80C,0.02000*%
%ADD81C,0.03000*%
%ADD82C,0.03500*%
%ADD83C,0.02500*%
G36*
X474585Y53357D02*
X478814Y52638D01*
X482935Y51451D01*
X486898Y49810D01*
X490653Y47735D01*
X494151Y45252D01*
X497349Y42394D01*
X500207Y39196D01*
X502690Y35698D01*
X504764Y31943D01*
X506406Y27981D01*
X507593Y23859D01*
X508312Y19630D01*
X508552Y15354D01*
X508551Y15347D01*
Y-230795D01*
X508552Y-230801D01*
X508312Y-235077D01*
X507593Y-239306D01*
X506406Y-243428D01*
X504764Y-247391D01*
X502690Y-251145D01*
X500207Y-254643D01*
X497349Y-257842D01*
X494151Y-260700D01*
X490653Y-263182D01*
X486898Y-265257D01*
X482935Y-266898D01*
X478814Y-268086D01*
X474585Y-268804D01*
X472005Y-268949D01*
X471424Y-268400D01*
Y-234732D01*
X471338Y-234302D01*
X471095Y-233939D01*
X470731Y-233695D01*
X470302Y-233610D01*
X403373D01*
X402944Y-233695D01*
X402580Y-233939D01*
X402337Y-234302D01*
X402251Y-234732D01*
Y-269043D01*
X13609D01*
X13602Y-269044D01*
X9326Y-268804D01*
X5098Y-268086D01*
X976Y-266898D01*
X-2987Y-265257D01*
X-6741Y-263182D01*
X-10239Y-260700D01*
X-13438Y-257842D01*
X-16296Y-254643D01*
X-18778Y-251145D01*
X-20853Y-247391D01*
X-22495Y-243428D01*
X-23682Y-239306D01*
X-24400Y-235077D01*
X-24641Y-230801D01*
X-24639Y-230795D01*
Y15347D01*
X-24641Y15354D01*
X-24400Y19630D01*
X-23682Y23859D01*
X-22495Y27981D01*
X-20853Y31943D01*
X-18778Y35698D01*
X-16296Y39196D01*
X-13438Y42394D01*
X-10239Y45252D01*
X-6741Y47735D01*
X-2987Y49810D01*
X976Y51451D01*
X5098Y52638D01*
X9326Y53357D01*
X13602Y53597D01*
X13609Y53596D01*
X470302D01*
X470309Y53597D01*
X474585Y53357D01*
D02*
G37*
%LPC*%
G36*
X43425Y-121900D02*
X32877D01*
X32947Y-122251D01*
X33429Y-122973D01*
X34150Y-123454D01*
X34340Y-123492D01*
Y-124308D01*
X34150Y-124346D01*
X33429Y-124828D01*
X32947Y-125549D01*
X32877Y-125900D01*
X43425D01*
X43355Y-125549D01*
X42873Y-124828D01*
X42152Y-124346D01*
X41963Y-124308D01*
Y-123492D01*
X42152Y-123454D01*
X42873Y-122973D01*
X43355Y-122251D01*
X43425Y-121900D01*
D02*
G37*
G36*
X424869Y-82280D02*
X382331D01*
Y-126787D01*
X424869D01*
Y-82280D01*
D02*
G37*
G36*
X43425Y-126900D02*
X38651D01*
Y-128624D01*
X41301D01*
X42152Y-128454D01*
X42873Y-127972D01*
X43355Y-127251D01*
X43425Y-126900D01*
D02*
G37*
G36*
X483183Y-42400D02*
X471340D01*
Y-49690D01*
X467165Y-53865D01*
X466480Y-54890D01*
X466239Y-56100D01*
Y-91100D01*
X466480Y-92310D01*
X467165Y-93335D01*
X473639Y-99809D01*
Y-119978D01*
X472839Y-120562D01*
X472761Y-120537D01*
Y-104700D01*
X472520Y-103490D01*
X471835Y-102465D01*
X457627Y-88257D01*
Y-76826D01*
X447996D01*
X437201Y-66031D01*
X436176Y-65346D01*
X434966Y-65105D01*
X419653D01*
Y-63532D01*
X414319D01*
Y-66678D01*
X414066Y-67057D01*
X413825Y-68266D01*
X414066Y-69476D01*
X414319Y-69855D01*
Y-73000D01*
X419653D01*
Y-71427D01*
X433657D01*
X438317Y-76087D01*
X438011Y-76826D01*
X434773D01*
Y-93774D01*
X454204D01*
X466439Y-106009D01*
Y-121300D01*
X466000D01*
Y-128500D01*
X472839D01*
X473200Y-128500D01*
X473639Y-129118D01*
Y-131191D01*
X473191Y-131639D01*
X463600D01*
X462390Y-131880D01*
X461365Y-132565D01*
X458265Y-135665D01*
X457580Y-136690D01*
X457339Y-137900D01*
Y-155001D01*
X457280Y-155090D01*
X457139Y-155800D01*
X463661D01*
Y-139209D01*
X464909Y-137961D01*
X474500D01*
X475710Y-137720D01*
X476735Y-137035D01*
X479035Y-134735D01*
X479720Y-133710D01*
X479961Y-132500D01*
Y-129284D01*
X480000Y-128500D01*
X480974Y-128500D01*
X481539Y-129066D01*
Y-142936D01*
X481353Y-143214D01*
X481078Y-144600D01*
X481353Y-145986D01*
X482139Y-147161D01*
X483314Y-147947D01*
X484700Y-148222D01*
X486086Y-147947D01*
X487261Y-147161D01*
X488047Y-145986D01*
X488322Y-144600D01*
X488047Y-143214D01*
X487861Y-142936D01*
Y-126000D01*
X487620Y-124790D01*
X487200Y-124162D01*
Y-121300D01*
X480761D01*
X480000Y-121300D01*
X479961Y-120516D01*
Y-98500D01*
X479720Y-97290D01*
X479035Y-96265D01*
X472561Y-89791D01*
Y-57409D01*
X479496Y-50474D01*
X479822Y-49987D01*
X483183D01*
Y-42400D01*
D02*
G37*
G36*
X43425Y-116900D02*
X32877D01*
X32947Y-117251D01*
X33429Y-117973D01*
X34150Y-118455D01*
X34340Y-118492D01*
Y-119308D01*
X34150Y-119345D01*
X33429Y-119827D01*
X32947Y-120549D01*
X32877Y-120900D01*
X43425D01*
X43355Y-120549D01*
X42873Y-119827D01*
X42152Y-119345D01*
X41963Y-119308D01*
Y-118492D01*
X42152Y-118455D01*
X42873Y-117973D01*
X43355Y-117251D01*
X43425Y-116900D01*
D02*
G37*
G36*
X328173Y-113963D02*
X321068D01*
Y-120932D01*
X320927Y-121027D01*
X320628Y-121473D01*
X320524Y-122000D01*
X320628Y-122527D01*
X320927Y-122973D01*
X321373Y-123272D01*
X321900Y-123376D01*
X322427Y-123272D01*
X322778Y-123037D01*
X328173D01*
Y-113963D01*
D02*
G37*
G36*
X37651Y-126900D02*
X32877D01*
X32947Y-127251D01*
X33429Y-127972D01*
X34150Y-128454D01*
X35002Y-128624D01*
X37651D01*
Y-126900D01*
D02*
G37*
G36*
X700Y-153929D02*
X-705Y-154209D01*
X-1895Y-155005D01*
X-2691Y-156195D01*
X-2970Y-157600D01*
X-2691Y-159005D01*
X-1895Y-160196D01*
X-705Y-160991D01*
X700Y-161270D01*
X2105Y-160991D01*
X3295Y-160196D01*
X4091Y-159005D01*
X4371Y-157600D01*
X4091Y-156195D01*
X3295Y-155005D01*
X2105Y-154209D01*
X700Y-153929D01*
D02*
G37*
G36*
X11200Y-175275D02*
Y-178753D01*
X14679D01*
X14468Y-177693D01*
X13584Y-176370D01*
X12261Y-175486D01*
X11200Y-175275D01*
D02*
G37*
G36*
X10200D02*
X9139Y-175486D01*
X7816Y-176370D01*
X6932Y-177693D01*
X6721Y-178753D01*
X10200D01*
Y-175275D01*
D02*
G37*
G36*
X488687Y-16400D02*
X472513D01*
Y-20837D01*
X474101D01*
Y-33813D01*
X471340D01*
Y-41400D01*
X483183D01*
Y-41321D01*
X490647D01*
Y-41719D01*
X490956D01*
X491047Y-42481D01*
X491047Y-42519D01*
Y-48799D01*
X491807D01*
X491949Y-49012D01*
Y-51302D01*
X489702Y-53549D01*
X480900D01*
X479885Y-53751D01*
X479026Y-54325D01*
X478451Y-55186D01*
X478249Y-56200D01*
Y-75100D01*
X478451Y-76114D01*
X479026Y-76974D01*
X479673Y-77622D01*
Y-93774D01*
X493549D01*
Y-147602D01*
X489102Y-152049D01*
X478798D01*
X477351Y-150602D01*
Y-148153D01*
X478253D01*
Y-141047D01*
X471147D01*
Y-148153D01*
X472049D01*
Y-151700D01*
X472251Y-152715D01*
X472825Y-153575D01*
X475826Y-156574D01*
X476685Y-157149D01*
X477700Y-157351D01*
X490200D01*
X491215Y-157149D01*
X492074Y-156574D01*
X498074Y-150575D01*
X498649Y-149715D01*
X498851Y-148700D01*
Y-93774D01*
X502527D01*
Y-76826D01*
X486375D01*
X483551Y-74002D01*
Y-58851D01*
X490800D01*
X491815Y-58649D01*
X492674Y-58074D01*
X496475Y-54274D01*
X497049Y-53414D01*
X497251Y-52400D01*
Y-49012D01*
X497393Y-48799D01*
X498153D01*
Y-42519D01*
X498153Y-42481D01*
X498244Y-41719D01*
X498553D01*
Y-38660D01*
X494600D01*
Y-38160D01*
X494100D01*
Y-34601D01*
X490647D01*
Y-34999D01*
X483183D01*
Y-33813D01*
X480422D01*
Y-20837D01*
X488687D01*
Y-16400D01*
D02*
G37*
G36*
X463661Y-156800D02*
X457039D01*
X457280Y-158010D01*
X457965Y-159035D01*
X458265Y-159335D01*
X459290Y-160020D01*
X460500Y-160261D01*
X461710Y-160020D01*
X462735Y-159335D01*
X463420Y-158310D01*
X463661Y-157100D01*
Y-156800D01*
D02*
G37*
G36*
X40700Y-153929D02*
X39295Y-154209D01*
X38105Y-155005D01*
X37309Y-156195D01*
X37029Y-157600D01*
X37309Y-159005D01*
X38105Y-160196D01*
X39295Y-160991D01*
X40700Y-161270D01*
X42105Y-160991D01*
X43295Y-160196D01*
X44091Y-159005D01*
X44370Y-157600D01*
X44091Y-156195D01*
X43295Y-155005D01*
X42105Y-154209D01*
X40700Y-153929D01*
D02*
G37*
G36*
X284554Y-58547D02*
X279417D01*
Y-65653D01*
X284554D01*
Y-64886D01*
X285293Y-64579D01*
X285876Y-65162D01*
X285928Y-65427D01*
X286227Y-65873D01*
X286673Y-66172D01*
X287200Y-66276D01*
X287727Y-66172D01*
X288173Y-65873D01*
X288472Y-65427D01*
X288577Y-64900D01*
X288472Y-64373D01*
X288173Y-63927D01*
X287727Y-63628D01*
X287462Y-63576D01*
X285193Y-61307D01*
X284829Y-61064D01*
X284554Y-61009D01*
Y-58547D01*
D02*
G37*
G36*
X406600Y-40249D02*
X405585Y-40451D01*
X404726Y-41026D01*
X401725Y-44025D01*
X401151Y-44886D01*
X400949Y-45900D01*
Y-54432D01*
X392417D01*
X391403Y-54634D01*
X390542Y-55209D01*
X388340Y-57411D01*
X387765Y-58271D01*
X387563Y-59286D01*
Y-63532D01*
X387547D01*
Y-73000D01*
X392881D01*
Y-63532D01*
X392865D01*
Y-60384D01*
X393515Y-59734D01*
X400949D01*
Y-63532D01*
X400933D01*
Y-73000D01*
X406267D01*
Y-63532D01*
X406251D01*
Y-57083D01*
Y-46998D01*
X408474Y-44774D01*
X409049Y-43914D01*
X409251Y-42900D01*
X409049Y-41886D01*
X408474Y-41026D01*
X407615Y-40451D01*
X406600Y-40249D01*
D02*
G37*
G36*
X362440Y-91700D02*
X361000D01*
Y-93140D01*
X361280Y-93084D01*
X361942Y-92642D01*
X362384Y-91980D01*
X362440Y-91700D01*
D02*
G37*
G36*
X439728Y-21426D02*
X426717D01*
Y-32656D01*
X408418Y-50955D01*
X407844Y-51815D01*
X407642Y-52829D01*
Y-63532D01*
X407626D01*
Y-73000D01*
X412960D01*
Y-63532D01*
X412944D01*
Y-53927D01*
X428497Y-38374D01*
X439728D01*
Y-32807D01*
X440528Y-32476D01*
X452187Y-44135D01*
X453212Y-44820D01*
X454417Y-45060D01*
Y-49587D01*
X465460D01*
Y-34213D01*
X454417D01*
Y-36380D01*
X453678Y-36686D01*
X443557Y-26565D01*
X442532Y-25880D01*
X441322Y-25639D01*
X439728D01*
Y-21426D01*
D02*
G37*
G36*
X294500Y-50060D02*
X294220Y-50116D01*
X293558Y-50558D01*
X293116Y-51220D01*
X293060Y-51500D01*
X294500D01*
Y-50060D01*
D02*
G37*
G36*
X294675Y-62600D02*
X292206D01*
Y-66053D01*
X294675D01*
Y-62600D01*
D02*
G37*
G36*
X360000Y-91700D02*
X358560D01*
X358616Y-91980D01*
X359058Y-92642D01*
X359720Y-93084D01*
X360000Y-93140D01*
Y-91700D01*
D02*
G37*
G36*
X302100Y-96400D02*
X298379D01*
X298459Y-97009D01*
X298888Y-98043D01*
X299569Y-98931D01*
X300457Y-99612D01*
X301490Y-100041D01*
X302100Y-100121D01*
Y-96400D01*
D02*
G37*
G36*
X341953Y-102363D02*
X334847D01*
Y-111437D01*
X341953D01*
Y-109041D01*
X344835D01*
Y-110468D01*
X350365D01*
Y-105332D01*
X348032D01*
X347419Y-104922D01*
X346600Y-104759D01*
X341953D01*
Y-102363D01*
D02*
G37*
G36*
X43425Y-111900D02*
X32877D01*
X32947Y-112251D01*
X33429Y-112972D01*
X34150Y-113454D01*
X34340Y-113492D01*
Y-114308D01*
X34150Y-114346D01*
X33429Y-114828D01*
X32947Y-115549D01*
X32877Y-115900D01*
X43425D01*
X43355Y-115549D01*
X42873Y-114828D01*
X42152Y-114346D01*
X41963Y-114308D01*
Y-113492D01*
X42152Y-113454D01*
X42873Y-112972D01*
X43355Y-112251D01*
X43425Y-111900D01*
D02*
G37*
G36*
X375200Y-63649D02*
X374185Y-63851D01*
X373325Y-64425D01*
X372751Y-65285D01*
X372549Y-66300D01*
Y-73227D01*
X368725Y-77051D01*
X368151Y-77911D01*
X367949Y-78926D01*
Y-86400D01*
X367000D01*
Y-93600D01*
X374200D01*
Y-86400D01*
X373251D01*
Y-80023D01*
X377075Y-76200D01*
X377649Y-75340D01*
X377851Y-74326D01*
Y-66300D01*
X377649Y-65285D01*
X377075Y-64425D01*
X376215Y-63851D01*
X375200Y-63649D01*
D02*
G37*
G36*
X298143Y-62600D02*
X295675D01*
Y-66053D01*
X296820D01*
X300969Y-70201D01*
Y-91976D01*
X300457Y-92188D01*
X299569Y-92869D01*
X298888Y-93757D01*
X298459Y-94791D01*
X298379Y-95400D01*
X306821D01*
X306741Y-94791D01*
X306312Y-93757D01*
X305631Y-92869D01*
X304743Y-92188D01*
X304231Y-91976D01*
Y-69525D01*
X304107Y-68901D01*
X303753Y-68372D01*
X298143Y-62761D01*
Y-62600D01*
D02*
G37*
G36*
X306821Y-96400D02*
X303100D01*
Y-100121D01*
X303710Y-100041D01*
X304743Y-99612D01*
X305631Y-98931D01*
X306312Y-98043D01*
X306741Y-97009D01*
X306821Y-96400D01*
D02*
G37*
G36*
X294907Y-210900D02*
X286900D01*
Y-218907D01*
X288619Y-218681D01*
X290687Y-217825D01*
X292462Y-216462D01*
X293825Y-214687D01*
X294681Y-212619D01*
X294907Y-210900D01*
D02*
G37*
G36*
X285900D02*
X277892D01*
X278119Y-212619D01*
X278975Y-214687D01*
X280338Y-216462D01*
X282113Y-217825D01*
X284181Y-218681D01*
X285900Y-218907D01*
Y-210900D01*
D02*
G37*
G36*
X354616Y-216179D02*
Y-219900D01*
X358337D01*
X358257Y-219290D01*
X357829Y-218257D01*
X357148Y-217369D01*
X356260Y-216688D01*
X355226Y-216259D01*
X354616Y-216179D01*
D02*
G37*
G36*
X327042D02*
X326432Y-216259D01*
X325398Y-216688D01*
X324511Y-217369D01*
X324219Y-217749D01*
X322006D01*
X321715Y-217369D01*
X320827Y-216688D01*
X319793Y-216259D01*
X319183Y-216179D01*
Y-220400D01*
Y-224621D01*
X319793Y-224541D01*
X320827Y-224112D01*
X321715Y-223431D01*
X322006Y-223051D01*
X324219D01*
X324511Y-223431D01*
X325398Y-224112D01*
X326432Y-224541D01*
X327042Y-224621D01*
Y-220400D01*
Y-216179D01*
D02*
G37*
G36*
X394907Y-210900D02*
X386900D01*
Y-218907D01*
X388619Y-218681D01*
X390687Y-217825D01*
X392462Y-216462D01*
X393825Y-214687D01*
X394681Y-212619D01*
X394907Y-210900D01*
D02*
G37*
G36*
X385900D02*
X377892D01*
X378119Y-212619D01*
X378975Y-214687D01*
X380338Y-216462D01*
X382113Y-217825D01*
X384181Y-218681D01*
X385900Y-218907D01*
Y-210900D01*
D02*
G37*
G36*
X318183Y-216179D02*
X317574Y-216259D01*
X316540Y-216688D01*
X315652Y-217369D01*
X314971Y-218257D01*
X314543Y-219290D01*
X314463Y-219900D01*
X318183D01*
Y-216179D01*
D02*
G37*
G36*
X46778Y-217498D02*
X36907D01*
X37058Y-219031D01*
X37651Y-220986D01*
X38614Y-222788D01*
X39910Y-224367D01*
X41489Y-225663D01*
X43290Y-226625D01*
X45245Y-227219D01*
X46778Y-227369D01*
Y-217498D01*
D02*
G37*
G36*
X489789Y-243522D02*
X488039Y-243752D01*
X486409Y-244427D01*
X485009Y-245502D01*
X483934Y-246902D01*
X483259Y-248532D01*
X483029Y-250282D01*
X483259Y-252032D01*
X483934Y-253662D01*
X485009Y-255062D01*
X486409Y-256136D01*
X488039Y-256812D01*
X489789Y-257042D01*
X491539Y-256812D01*
X493169Y-256136D01*
X494569Y-255062D01*
X495644Y-253662D01*
X496319Y-252032D01*
X496549Y-250282D01*
X496319Y-248532D01*
X495644Y-246902D01*
X494569Y-245502D01*
X493169Y-244427D01*
X491539Y-243752D01*
X489789Y-243522D01*
D02*
G37*
G36*
X-5876D02*
X-7626Y-243752D01*
X-9257Y-244427D01*
X-10657Y-245502D01*
X-11731Y-246902D01*
X-12406Y-248532D01*
X-12637Y-250282D01*
X-12406Y-252032D01*
X-11731Y-253662D01*
X-10657Y-255062D01*
X-9257Y-256136D01*
X-7626Y-256812D01*
X-5876Y-257042D01*
X-4127Y-256812D01*
X-2496Y-256136D01*
X-1096Y-255062D01*
X-22Y-253662D01*
X654Y-252032D01*
X884Y-250282D01*
X654Y-248532D01*
X-22Y-246902D01*
X-1096Y-245502D01*
X-2496Y-244427D01*
X-4127Y-243752D01*
X-5876Y-243522D01*
D02*
G37*
G36*
X358337Y-220900D02*
X354616D01*
Y-224621D01*
X355226Y-224541D01*
X356260Y-224112D01*
X357148Y-223431D01*
X357829Y-222543D01*
X358257Y-221510D01*
X358337Y-220900D01*
D02*
G37*
G36*
X318183D02*
X314463D01*
X314543Y-221510D01*
X314971Y-222543D01*
X315652Y-223431D01*
X316540Y-224112D01*
X317574Y-224541D01*
X318183Y-224621D01*
Y-220900D01*
D02*
G37*
G36*
X57649Y-217498D02*
X47778D01*
Y-227369D01*
X49311Y-227219D01*
X51266Y-226625D01*
X53067Y-225663D01*
X54646Y-224367D01*
X55942Y-222788D01*
X56905Y-220986D01*
X57498Y-219031D01*
X57649Y-217498D01*
D02*
G37*
G36*
X284450Y-182900D02*
X282500D01*
Y-184850D01*
X282976Y-184755D01*
X283802Y-184202D01*
X284355Y-183376D01*
X284450Y-182900D01*
D02*
G37*
G36*
X267300Y-182700D02*
X264831D01*
Y-185365D01*
X267300D01*
Y-182700D01*
D02*
G37*
G36*
X386900Y-201892D02*
Y-209900D01*
X394907D01*
X394681Y-208181D01*
X393825Y-206113D01*
X392462Y-204338D01*
X390687Y-202975D01*
X388619Y-202119D01*
X386900Y-201892D01*
D02*
G37*
G36*
X282500Y-179950D02*
Y-181900D01*
X284450D01*
X284355Y-181424D01*
X283802Y-180598D01*
X282976Y-180045D01*
X282500Y-179950D01*
D02*
G37*
G36*
X14679Y-179753D02*
X11200D01*
Y-183232D01*
X12261Y-183021D01*
X13584Y-182137D01*
X14468Y-180814D01*
X14679Y-179753D01*
D02*
G37*
G36*
X10200D02*
X6721D01*
X6932Y-180814D01*
X7816Y-182137D01*
X9139Y-183021D01*
X10200Y-183232D01*
Y-179753D01*
D02*
G37*
G36*
X385900Y-201892D02*
X384181Y-202119D01*
X382113Y-202975D01*
X380338Y-204338D01*
X378975Y-206113D01*
X378119Y-208181D01*
X377892Y-209900D01*
X385900D01*
Y-201892D01*
D02*
G37*
G36*
X353616Y-216179D02*
X353007Y-216259D01*
X351973Y-216688D01*
X351085Y-217369D01*
X350794Y-217749D01*
X348581D01*
X348289Y-217369D01*
X347402Y-216688D01*
X346368Y-216259D01*
X345758Y-216179D01*
Y-220400D01*
Y-224621D01*
X346368Y-224541D01*
X347402Y-224112D01*
X348289Y-223431D01*
X348581Y-223051D01*
X350794D01*
X351085Y-223431D01*
X351973Y-224112D01*
X353007Y-224541D01*
X353616Y-224621D01*
Y-220400D01*
Y-216179D01*
D02*
G37*
G36*
X344758D02*
X344149Y-216259D01*
X343115Y-216688D01*
X342227Y-217369D01*
X341935Y-217749D01*
X339723D01*
X339431Y-217369D01*
X338543Y-216688D01*
X337509Y-216259D01*
X336900Y-216179D01*
Y-220400D01*
Y-224621D01*
X337509Y-224541D01*
X338543Y-224112D01*
X339431Y-223431D01*
X339723Y-223051D01*
X341935D01*
X342227Y-223431D01*
X343115Y-224112D01*
X344149Y-224541D01*
X344758Y-224621D01*
Y-220400D01*
Y-216179D01*
D02*
G37*
G36*
X335900D02*
X335291Y-216259D01*
X334257Y-216688D01*
X333369Y-217369D01*
X333077Y-217749D01*
X330865D01*
X330573Y-217369D01*
X329685Y-216688D01*
X328651Y-216259D01*
X328042Y-216179D01*
Y-220400D01*
Y-224621D01*
X328651Y-224541D01*
X329685Y-224112D01*
X330573Y-223431D01*
X330865Y-223051D01*
X333077D01*
X333369Y-223431D01*
X334257Y-224112D01*
X335291Y-224541D01*
X335900Y-224621D01*
Y-220400D01*
Y-216179D01*
D02*
G37*
G36*
X286900Y-201892D02*
Y-209900D01*
X294907D01*
X294681Y-208181D01*
X293825Y-206113D01*
X292462Y-204338D01*
X290687Y-202975D01*
X288619Y-202119D01*
X286900Y-201892D01*
D02*
G37*
G36*
X285900D02*
X284181Y-202119D01*
X282113Y-202975D01*
X280338Y-204338D01*
X278975Y-206113D01*
X278119Y-208181D01*
X277892Y-209900D01*
X285900D01*
Y-201892D01*
D02*
G37*
G36*
X46778Y-206627D02*
X45245Y-206778D01*
X43290Y-207371D01*
X41489Y-208334D01*
X39910Y-209630D01*
X38614Y-211209D01*
X37651Y-213011D01*
X37058Y-214966D01*
X36907Y-216498D01*
X46778D01*
Y-206627D01*
D02*
G37*
G36*
X189537Y25900D02*
X185100D01*
Y21463D01*
X189537D01*
Y25900D01*
D02*
G37*
G36*
X299100D02*
X294663D01*
Y21463D01*
X299100D01*
Y25900D01*
D02*
G37*
G36*
X415376Y40758D02*
X414982D01*
Y37100D01*
X414482D01*
Y36600D01*
X412695D01*
Y34336D01*
X413105Y33925D01*
Y10664D01*
X412916Y10380D01*
X412860Y10100D01*
X414800D01*
Y9100D01*
X412860D01*
X412916Y8820D01*
X413358Y8158D01*
X414020Y7716D01*
X414669Y7587D01*
X414897Y7181D01*
X414998Y6785D01*
X400735Y-7478D01*
X386900D01*
X386471Y-7564D01*
X386107Y-7807D01*
X386107Y-7807D01*
X375457Y-18457D01*
X375214Y-18821D01*
X375128Y-19250D01*
X375129Y-19250D01*
Y-56785D01*
X369607Y-62307D01*
X369364Y-62671D01*
X369278Y-63100D01*
X369279Y-63100D01*
Y-69935D01*
X363807Y-75407D01*
X363564Y-75771D01*
X363478Y-76200D01*
X363478Y-76200D01*
Y-97335D01*
X362679Y-97763D01*
X362627Y-97728D01*
X362100Y-97624D01*
X361573Y-97728D01*
X361127Y-98027D01*
X360828Y-98473D01*
X360723Y-99000D01*
Y-105430D01*
X359630Y-106524D01*
X357058D01*
Y-105332D01*
X356541D01*
Y-84600D01*
X356378Y-83781D01*
X355914Y-83086D01*
X355219Y-82622D01*
X354400Y-82459D01*
X353581Y-82622D01*
X352886Y-83086D01*
X352422Y-83781D01*
X352259Y-84600D01*
Y-105332D01*
X351528D01*
Y-110468D01*
X352152D01*
Y-114331D01*
X351528D01*
Y-119468D01*
X352152D01*
Y-127913D01*
X350386Y-129679D01*
X349922Y-130374D01*
X349759Y-131193D01*
Y-133332D01*
X348835D01*
Y-133332D01*
X348072Y-133240D01*
Y-132931D01*
X345407D01*
Y-135900D01*
X344907D01*
Y-136400D01*
X341742D01*
Y-137479D01*
X340961Y-138260D01*
X340222Y-137954D01*
Y-135100D01*
X340136Y-134671D01*
X339893Y-134307D01*
X339893Y-134307D01*
X337393Y-131807D01*
X337029Y-131564D01*
X336600Y-131478D01*
X336600Y-131478D01*
X331553D01*
X331247Y-130739D01*
X332000Y-129986D01*
Y-128400D01*
X330414D01*
X328107Y-130707D01*
X327864Y-131071D01*
X327778Y-131500D01*
X327779Y-131500D01*
Y-132135D01*
X327407Y-132507D01*
Y-135900D01*
Y-138868D01*
X328290D01*
X332434Y-143013D01*
X332277Y-143988D01*
X331831Y-144435D01*
Y-145778D01*
X329465D01*
X328324Y-144638D01*
X328272Y-144373D01*
X327973Y-143927D01*
X327527Y-143628D01*
X327000Y-143524D01*
X326473Y-143628D01*
X326027Y-143927D01*
X325728Y-144373D01*
X325623Y-144900D01*
X325728Y-145427D01*
X326027Y-145873D01*
X326473Y-146172D01*
X326738Y-146224D01*
X328207Y-147693D01*
X328207Y-147693D01*
X328571Y-147936D01*
X329000Y-148022D01*
X329000Y-148022D01*
X331831D01*
Y-148941D01*
X331639Y-149439D01*
X331141Y-149631D01*
X326635D01*
X326487Y-149778D01*
X320765D01*
X319769Y-148782D01*
Y-145035D01*
X316097D01*
X315791Y-144296D01*
X322942Y-137144D01*
X323742Y-137318D01*
Y-138868D01*
X326407D01*
Y-135900D01*
Y-132931D01*
X323742D01*
Y-134778D01*
X322600D01*
X322600Y-134778D01*
X322171Y-134864D01*
X321807Y-135107D01*
X319661Y-137253D01*
X318921Y-136947D01*
Y-103381D01*
X320500Y-101803D01*
X321068Y-102366D01*
X321068Y-103162D01*
Y-109315D01*
X320828Y-109673D01*
X320724Y-110200D01*
X320828Y-110727D01*
X321068Y-111085D01*
Y-111437D01*
X321521D01*
X321573Y-111472D01*
X322100Y-111576D01*
X322627Y-111472D01*
X322679Y-111437D01*
X328173D01*
Y-102363D01*
X321868D01*
X321071Y-102363D01*
X320508Y-101795D01*
X325373Y-96930D01*
X332850D01*
X332971Y-97082D01*
X333135Y-97935D01*
X331135Y-99935D01*
X330870Y-100332D01*
X330777Y-100800D01*
Y-122600D01*
X330870Y-123068D01*
X331135Y-123465D01*
X333086Y-125417D01*
X332692Y-126154D01*
X332500Y-126116D01*
X331817Y-126251D01*
X331238Y-126638D01*
X330852Y-127217D01*
X330815Y-127400D01*
X332500D01*
Y-127900D01*
X333000D01*
Y-129585D01*
X333183Y-129549D01*
X333762Y-129162D01*
X334149Y-128583D01*
X334284Y-127900D01*
X334246Y-127708D01*
X334983Y-127314D01*
X338881Y-131211D01*
X338824Y-131500D01*
X338928Y-132027D01*
X339227Y-132473D01*
X339673Y-132772D01*
X340200Y-132876D01*
X340651Y-132787D01*
X340727Y-132772D01*
X340749Y-132764D01*
X341114Y-132697D01*
X341156Y-132708D01*
X341660Y-133078D01*
X341742Y-133380D01*
X341742Y-133668D01*
Y-135400D01*
X344407D01*
Y-132931D01*
X342537D01*
X342325Y-132931D01*
X341938Y-132880D01*
X341676Y-132774D01*
X341653Y-132748D01*
X341522Y-132405D01*
X341473Y-132080D01*
X341472Y-132027D01*
X341497Y-131898D01*
X341577Y-131500D01*
X341472Y-130973D01*
X341424Y-130901D01*
Y-130800D01*
X341330Y-130332D01*
X341065Y-129935D01*
X334967Y-123837D01*
X335299Y-123037D01*
X335441Y-123037D01*
X335441Y-123037D01*
X335460Y-123037D01*
X341953D01*
Y-120641D01*
X346000D01*
X346819Y-120478D01*
X347514Y-120014D01*
X348060Y-119468D01*
X350365D01*
Y-114331D01*
X344835D01*
Y-116359D01*
X341953D01*
Y-113963D01*
X334847D01*
X334847Y-122424D01*
Y-122443D01*
Y-122443D01*
X334847Y-122586D01*
X334604Y-122686D01*
X334047Y-122917D01*
X333224Y-122093D01*
Y-101307D01*
X334507Y-100023D01*
X338901D01*
X338973Y-100072D01*
X339500Y-100176D01*
X340027Y-100072D01*
X340473Y-99773D01*
X340772Y-99327D01*
X340877Y-98800D01*
X340772Y-98273D01*
X340473Y-97827D01*
X340328Y-97730D01*
X340571Y-96930D01*
X341692D01*
X341692Y-96930D01*
X342121Y-96845D01*
X342485Y-96601D01*
X350893Y-88193D01*
X351136Y-87829D01*
X351222Y-87400D01*
X351221Y-87400D01*
Y-83365D01*
X354093Y-80493D01*
X354093Y-80493D01*
X354336Y-80129D01*
X354421Y-79700D01*
Y-78117D01*
X354958Y-77758D01*
X355085Y-77568D01*
X356041Y-77578D01*
X356353Y-78047D01*
X356669Y-78257D01*
Y-81100D01*
X356793Y-81724D01*
X357147Y-82253D01*
X358869Y-83976D01*
Y-90042D01*
X358616Y-90420D01*
X358560Y-90700D01*
X362440D01*
X362384Y-90420D01*
X362131Y-90042D01*
Y-83300D01*
X362007Y-82676D01*
X361653Y-82147D01*
X359931Y-80424D01*
Y-78257D01*
X360247Y-78047D01*
X360843Y-77153D01*
X361053Y-76100D01*
Y-71300D01*
X358300D01*
Y-70300D01*
X361053D01*
Y-65500D01*
X360843Y-64447D01*
X360247Y-63553D01*
X359931Y-63343D01*
Y-58800D01*
X359807Y-58176D01*
X359454Y-57647D01*
X352654Y-50846D01*
X352124Y-50493D01*
X351500Y-50369D01*
X296158D01*
X295780Y-50116D01*
X295500Y-50060D01*
Y-52000D01*
X295000D01*
Y-52500D01*
X293060D01*
X293116Y-52780D01*
X293543Y-53420D01*
Y-58147D01*
X292206D01*
Y-61600D01*
X298143D01*
Y-58147D01*
X296806D01*
Y-53631D01*
X350824D01*
X356669Y-59476D01*
Y-63343D01*
X356353Y-63553D01*
X356041Y-64022D01*
X355085Y-64032D01*
X354958Y-63842D01*
X354197Y-63333D01*
X353300Y-63155D01*
X352403Y-63333D01*
X351642Y-63842D01*
X351244Y-64436D01*
X350935Y-64503D01*
X350665D01*
X350356Y-64436D01*
X349958Y-63842D01*
X349197Y-63333D01*
X348300Y-63155D01*
X347403Y-63333D01*
X346642Y-63842D01*
X346245Y-64436D01*
X345935Y-64503D01*
X345665D01*
X345356Y-64436D01*
X344958Y-63842D01*
X344197Y-63333D01*
X343300Y-63155D01*
X342403Y-63333D01*
X341642Y-63842D01*
X341245Y-64436D01*
X340935Y-64503D01*
X340665D01*
X340355Y-64436D01*
X339958Y-63842D01*
X339197Y-63333D01*
X338300Y-63155D01*
X337403Y-63333D01*
X336642Y-63842D01*
X336245Y-64436D01*
X335935Y-64503D01*
X335665D01*
X335355Y-64436D01*
X334958Y-63842D01*
X334197Y-63333D01*
X333300Y-63155D01*
X332403Y-63333D01*
X331642Y-63842D01*
X331244Y-64436D01*
X330935Y-64503D01*
X330665D01*
X330356Y-64436D01*
X329958Y-63842D01*
X329197Y-63333D01*
X328300Y-63155D01*
X327403Y-63333D01*
X326642Y-63842D01*
X326377Y-64238D01*
X325577Y-63995D01*
Y-63082D01*
X320977D01*
Y-67075D01*
X317247Y-70806D01*
X316893Y-71335D01*
X316769Y-71959D01*
Y-81900D01*
X316893Y-82524D01*
X317247Y-83053D01*
X317776Y-83407D01*
X318400Y-83531D01*
X319024Y-83407D01*
X319553Y-83053D01*
X319907Y-82524D01*
X320031Y-81900D01*
Y-73208D01*
X320177Y-73111D01*
X320977Y-73539D01*
Y-78282D01*
X325577D01*
Y-77605D01*
X326377Y-77362D01*
X326642Y-77758D01*
X327179Y-78117D01*
Y-84835D01*
X325985Y-86028D01*
X321450D01*
X321021Y-86114D01*
X320657Y-86357D01*
X320657Y-86357D01*
X307207Y-99807D01*
X306964Y-100171D01*
X306958Y-100201D01*
X306814Y-100417D01*
X306728Y-100846D01*
X306729Y-100846D01*
Y-103709D01*
X305928Y-103952D01*
X305376Y-103124D01*
X304102Y-102273D01*
X302600Y-101975D01*
X301098Y-102273D01*
X299824Y-103124D01*
X298973Y-104398D01*
X298675Y-105900D01*
X298973Y-107402D01*
X299189Y-107725D01*
X295621Y-111292D01*
X294822Y-110961D01*
Y-77709D01*
X294822Y-77709D01*
X294736Y-77279D01*
X294493Y-76915D01*
X294493Y-76915D01*
X288859Y-71281D01*
X288495Y-71038D01*
X288066Y-70952D01*
X288066Y-70952D01*
X276414D01*
Y-65653D01*
X277861D01*
Y-58547D01*
X272724D01*
X272521Y-57831D01*
Y-42496D01*
X272522Y-42496D01*
X272436Y-42067D01*
X272193Y-41703D01*
X272193Y-41703D01*
X221197Y9293D01*
X221017Y9414D01*
X221216Y10214D01*
X297169D01*
X297891Y10357D01*
X298503Y10766D01*
X315201Y27464D01*
X391569D01*
X397566Y21466D01*
X398178Y21057D01*
X398900Y20914D01*
X399622Y21057D01*
X400234Y21466D01*
X400643Y22078D01*
X400786Y22800D01*
X400643Y23522D01*
X400234Y24134D01*
X393684Y30684D01*
X393072Y31093D01*
X392350Y31236D01*
X314420D01*
X313698Y31093D01*
X313086Y30684D01*
X305276Y22874D01*
X304537Y23180D01*
Y25900D01*
X300100D01*
Y21463D01*
X302820D01*
X303126Y20724D01*
X296388Y13986D01*
X76586D01*
Y29100D01*
X76443Y29822D01*
X76034Y30434D01*
X75422Y30843D01*
X75405Y30846D01*
X71626Y34626D01*
X71105Y34973D01*
Y39664D01*
X70412Y40358D01*
X69024D01*
X68439Y39772D01*
X67853Y40358D01*
X66465D01*
X65879Y39772D01*
X65294Y40358D01*
X63906D01*
X63320Y39772D01*
X62735Y40358D01*
X61347D01*
X61061Y40072D01*
X60376Y40758D01*
X59982D01*
Y37100D01*
X59482D01*
Y36600D01*
X57695D01*
Y34336D01*
X58105Y33925D01*
Y32152D01*
X56261Y30308D01*
X56100Y30340D01*
Y28400D01*
X55600D01*
Y27900D01*
X53660D01*
X53716Y27620D01*
X54158Y26958D01*
X54820Y26516D01*
X55142Y26452D01*
X55295Y26421D01*
X55216Y25626D01*
X55180Y25622D01*
X46000D01*
X46000Y25622D01*
X45571Y25536D01*
X45207Y25293D01*
X45207Y25293D01*
X28135Y8222D01*
X4800D01*
X4800Y8222D01*
X4371Y8136D01*
X4007Y7893D01*
X4007Y7893D01*
X-269Y3617D01*
X-1405Y3391D01*
X-2596Y2596D01*
X-3391Y1405D01*
X-3670Y0D01*
X-3391Y-1405D01*
X-2596Y-2596D01*
X-1405Y-3391D01*
X0Y-3670D01*
X1405Y-3391D01*
X2596Y-2596D01*
X3391Y-1405D01*
X3670Y0D01*
X3391Y1405D01*
X2596Y2595D01*
X2531Y3245D01*
X5265Y5979D01*
X28600D01*
X28600Y5978D01*
X29029Y6064D01*
X29393Y6307D01*
X46465Y23379D01*
X47889D01*
X48192Y22579D01*
X26735Y1122D01*
X13447D01*
X13391Y1405D01*
X12596Y2596D01*
X11405Y3391D01*
X10000Y3670D01*
X8595Y3391D01*
X7405Y2596D01*
X6609Y1405D01*
X6329Y0D01*
X6609Y-1405D01*
X7405Y-2596D01*
X8595Y-3391D01*
X10000Y-3670D01*
X11405Y-3391D01*
X12596Y-2596D01*
X13391Y-1405D01*
X13447Y-1122D01*
X27200D01*
X27200Y-1122D01*
X27629Y-1036D01*
X27993Y-793D01*
X49665Y20878D01*
X59200D01*
X59200Y20878D01*
X59629Y20964D01*
X59993Y21207D01*
X67811Y29025D01*
X67811Y29025D01*
X68054Y29389D01*
X68140Y29818D01*
Y32283D01*
X68940Y32526D01*
X69174Y32174D01*
X72814Y28535D01*
Y13986D01*
X53984D01*
X53825Y14224D01*
X52965Y14799D01*
X51950Y15001D01*
X50936Y14799D01*
X50076Y14224D01*
X15426Y-20425D01*
X14851Y-21285D01*
X14649Y-22300D01*
Y-124002D01*
X-12075Y-150725D01*
X-12649Y-151585D01*
X-12851Y-152600D01*
Y-184300D01*
X-12649Y-185315D01*
X-12075Y-186174D01*
X-4474Y-193774D01*
X-3615Y-194349D01*
X-2600Y-194551D01*
X28054D01*
X29068Y-194349D01*
X29928Y-193774D01*
X40798Y-182905D01*
X42105Y-182645D01*
X43295Y-181849D01*
X44091Y-180658D01*
X44370Y-179253D01*
X44091Y-177849D01*
X43295Y-176658D01*
X42105Y-175862D01*
X40700Y-175583D01*
X39295Y-175862D01*
X38105Y-176658D01*
X37309Y-177849D01*
X37049Y-179156D01*
X34060Y-182144D01*
X33439Y-181634D01*
X33581Y-181422D01*
X34091Y-180658D01*
X34370Y-179253D01*
X34091Y-177849D01*
X33296Y-176658D01*
X32105Y-175862D01*
X30700Y-175583D01*
X29295Y-175862D01*
X28104Y-176658D01*
X27309Y-177849D01*
X27029Y-179253D01*
X27309Y-180658D01*
X28104Y-181849D01*
X29295Y-182645D01*
X30700Y-182924D01*
X32105Y-182645D01*
X32868Y-182134D01*
X33081Y-181993D01*
X33591Y-182614D01*
X26956Y-189249D01*
X-1502D01*
X-7549Y-183202D01*
Y-153698D01*
X19174Y-126974D01*
X19749Y-126114D01*
X19951Y-125100D01*
Y-23398D01*
X53160Y9811D01*
X53262Y9783D01*
X53497Y8887D01*
X23407Y-21203D01*
X23164Y-21567D01*
X23078Y-21996D01*
X23078Y-21996D01*
Y-126861D01*
X15107Y-134832D01*
X14864Y-135196D01*
X14778Y-135626D01*
X14778Y-135626D01*
Y-155862D01*
X13979Y-156027D01*
X13295Y-155005D01*
X12105Y-154209D01*
X10700Y-153929D01*
X9295Y-154209D01*
X8105Y-155005D01*
X7309Y-156195D01*
X7029Y-157600D01*
X7309Y-159005D01*
X8105Y-160196D01*
X9295Y-160991D01*
X10700Y-161270D01*
X12105Y-160991D01*
X13295Y-160196D01*
X13979Y-159173D01*
X14778Y-159338D01*
Y-163589D01*
X2345Y-176023D01*
X2105Y-175862D01*
X700Y-175583D01*
X-705Y-175862D01*
X-1895Y-176658D01*
X-2691Y-177849D01*
X-2970Y-179253D01*
X-2691Y-180658D01*
X-1895Y-181849D01*
X-705Y-182645D01*
X700Y-182924D01*
X2105Y-182645D01*
X3295Y-181849D01*
X4091Y-180658D01*
X4371Y-179253D01*
X4091Y-177849D01*
X3931Y-177609D01*
X16693Y-164847D01*
X16693Y-164847D01*
X16936Y-164483D01*
X17022Y-164053D01*
X17021Y-164053D01*
Y-160015D01*
X17821Y-159772D01*
X18104Y-160196D01*
X19295Y-160991D01*
X20700Y-161270D01*
X22105Y-160991D01*
X23295Y-160196D01*
X23979Y-159173D01*
X24779Y-159338D01*
Y-166135D01*
X19907Y-171007D01*
X19664Y-171371D01*
X19578Y-171800D01*
X19579Y-171800D01*
Y-175806D01*
X19295Y-175862D01*
X18104Y-176658D01*
X17309Y-177849D01*
X17030Y-179253D01*
X17309Y-180658D01*
X18104Y-181849D01*
X19295Y-182645D01*
X20700Y-182924D01*
X22105Y-182645D01*
X23295Y-181849D01*
X24091Y-180658D01*
X24371Y-179253D01*
X24091Y-177849D01*
X23295Y-176658D01*
X22105Y-175862D01*
X21822Y-175806D01*
Y-172265D01*
X26693Y-167393D01*
X26936Y-167029D01*
X27022Y-166600D01*
X27022Y-166600D01*
Y-160015D01*
X27822Y-159772D01*
X28104Y-160196D01*
X29295Y-160991D01*
X30700Y-161270D01*
X32105Y-160991D01*
X33296Y-160196D01*
X34091Y-159005D01*
X34370Y-157600D01*
X34091Y-156195D01*
X33296Y-155005D01*
X32105Y-154209D01*
X30700Y-153929D01*
X29295Y-154209D01*
X28104Y-155005D01*
X27822Y-155428D01*
X27022Y-155185D01*
Y-75425D01*
X27131Y-75342D01*
X27822Y-75129D01*
X32495Y-79802D01*
X33024Y-80156D01*
X33649Y-80280D01*
X36520D01*
Y-89549D01*
Y-109176D01*
X35002D01*
X34150Y-109345D01*
X33429Y-109827D01*
X32947Y-110549D01*
X32877Y-110900D01*
X43425D01*
X43355Y-110549D01*
X42873Y-109827D01*
X42152Y-109345D01*
X41301Y-109176D01*
X39783D01*
Y-90224D01*
X39976Y-90031D01*
X46459D01*
X47024Y-90598D01*
X46902Y-118182D01*
X46900Y-118700D01*
X47100Y-118900D01*
X47618Y-118900D01*
X53237D01*
X53316Y-119700D01*
X53204Y-119722D01*
X52615Y-120116D01*
X52507Y-120278D01*
X52400D01*
X52400Y-120278D01*
X51971Y-120364D01*
X51607Y-120607D01*
X51607Y-120607D01*
X49607Y-122607D01*
X49364Y-122971D01*
X49278Y-123400D01*
X49278Y-123400D01*
Y-128800D01*
X49278Y-128800D01*
X49364Y-129229D01*
X49607Y-129593D01*
X54545Y-134531D01*
X54214Y-135331D01*
X50835D01*
Y-140469D01*
X56365D01*
Y-139022D01*
X68457D01*
Y-141771D01*
X56608D01*
X56179Y-141856D01*
X55815Y-142099D01*
X55815Y-142099D01*
X54582Y-143332D01*
X50835D01*
Y-148468D01*
X56365D01*
Y-144721D01*
X57073Y-144014D01*
X68457D01*
Y-149398D01*
Y-153728D01*
Y-158059D01*
X76743D01*
Y-153185D01*
X101746D01*
X102371Y-153061D01*
X102900Y-152707D01*
X108454Y-147153D01*
X108807Y-146624D01*
X108931Y-146000D01*
X108931Y-146000D01*
Y-136076D01*
X113476Y-131531D01*
X116457D01*
Y-136406D01*
Y-140736D01*
Y-145067D01*
Y-149398D01*
Y-153728D01*
Y-158059D01*
X124743D01*
Y-153728D01*
Y-148344D01*
X129032D01*
Y-149358D01*
X130478D01*
Y-156335D01*
X125935Y-160878D01*
X62300D01*
X62300Y-160878D01*
X61871Y-160964D01*
X61507Y-161207D01*
X50422Y-172292D01*
X49622Y-171961D01*
Y-148468D01*
X49672D01*
Y-143332D01*
X44142D01*
X44017Y-142583D01*
Y-141217D01*
X44142Y-140469D01*
X49672D01*
Y-135331D01*
X44142D01*
Y-136830D01*
X43971Y-136864D01*
X43607Y-137107D01*
X43607Y-137107D01*
X42103Y-138611D01*
X41860Y-138975D01*
X41774Y-139404D01*
X41774Y-139404D01*
Y-149500D01*
X41774Y-149500D01*
X41860Y-149929D01*
X42103Y-150293D01*
X45378Y-153569D01*
Y-199608D01*
X45378Y-199608D01*
X45464Y-200038D01*
X45707Y-200401D01*
X52349Y-207043D01*
X51867Y-207693D01*
X51266Y-207371D01*
X49311Y-206778D01*
X47778Y-206627D01*
Y-216498D01*
X57649D01*
X57498Y-214966D01*
X56905Y-213011D01*
X56584Y-212409D01*
X57233Y-211928D01*
X64778Y-219473D01*
Y-229308D01*
X64778Y-229308D01*
X64864Y-229737D01*
X65107Y-230101D01*
X74999Y-239993D01*
X74999Y-239993D01*
X75362Y-240236D01*
X75792Y-240322D01*
X75792Y-240321D01*
X236004D01*
X236004Y-240322D01*
X236433Y-240236D01*
X236797Y-239993D01*
X262810Y-213981D01*
X263053Y-213617D01*
X263138Y-213188D01*
X263138Y-213188D01*
Y-201834D01*
X263143Y-201826D01*
X263229Y-201397D01*
X263229Y-201397D01*
Y-180346D01*
X264029Y-180015D01*
X264831Y-180818D01*
Y-181700D01*
X267800D01*
Y-182200D01*
X268300D01*
Y-185365D01*
X270768D01*
Y-184341D01*
X280405D01*
X281025Y-184755D01*
X281500Y-184850D01*
Y-182400D01*
Y-179950D01*
X281025Y-180045D01*
X281004Y-180059D01*
X270768D01*
Y-179035D01*
X270768D01*
X270517Y-178235D01*
X270866Y-177648D01*
X286420D01*
X289259Y-180487D01*
Y-193700D01*
X289422Y-194519D01*
X289886Y-195214D01*
X306586Y-211914D01*
X307281Y-212378D01*
X308100Y-212541D01*
X319984D01*
X320408Y-213176D01*
X321681Y-214027D01*
X323183Y-214325D01*
X324686Y-214027D01*
X325959Y-213176D01*
X326383Y-212541D01*
X328842D01*
X329266Y-213176D01*
X330539Y-214027D01*
X332042Y-214325D01*
X333544Y-214027D01*
X334817Y-213176D01*
X335241Y-212541D01*
X337700D01*
X338124Y-213176D01*
X339398Y-214027D01*
X340900Y-214325D01*
X342402Y-214027D01*
X343676Y-213176D01*
X344100Y-212541D01*
X346559D01*
X346983Y-213176D01*
X348256Y-214027D01*
X349758Y-214325D01*
X351260Y-214027D01*
X352534Y-213176D01*
X352958Y-212541D01*
X355417D01*
X355841Y-213176D01*
X357114Y-214027D01*
X358617Y-214325D01*
X360119Y-214027D01*
X361392Y-213176D01*
X362243Y-211902D01*
X362542Y-210400D01*
X362410Y-209735D01*
X385904Y-186241D01*
X412713D01*
X418959Y-192487D01*
Y-206800D01*
X419122Y-207619D01*
X419586Y-208314D01*
X424586Y-213314D01*
X425281Y-213778D01*
X426100Y-213941D01*
X470400D01*
X471219Y-213778D01*
X471914Y-213314D01*
X479114Y-206114D01*
X479578Y-205419D01*
X479741Y-204600D01*
Y-179600D01*
X479578Y-178781D01*
X479114Y-178086D01*
X476814Y-175786D01*
X476119Y-175322D01*
X475300Y-175159D01*
X467180D01*
X454358Y-162337D01*
Y-160031D01*
X453734D01*
Y-156468D01*
X454365D01*
Y-151331D01*
X453734D01*
Y-148393D01*
X453571Y-147573D01*
X453107Y-146879D01*
X450507Y-144279D01*
X449812Y-143815D01*
X448993Y-143652D01*
X431480D01*
X416214Y-128386D01*
X415519Y-127922D01*
X414700Y-127759D01*
X375137D01*
Y-126347D01*
X366063D01*
Y-127759D01*
X356434D01*
Y-119468D01*
X357058D01*
Y-114331D01*
X356434D01*
Y-110468D01*
X357058D01*
Y-109276D01*
X360200D01*
X360727Y-109172D01*
X361173Y-108873D01*
X362679Y-107368D01*
X363478Y-107700D01*
Y-121200D01*
X363478Y-121200D01*
X363564Y-121629D01*
X363807Y-121993D01*
X365307Y-123493D01*
X365671Y-123736D01*
X366100Y-123822D01*
X366100Y-123822D01*
X374749D01*
X374973Y-123972D01*
X375500Y-124076D01*
X376027Y-123972D01*
X376473Y-123673D01*
X376772Y-123227D01*
X376876Y-122700D01*
X376772Y-122173D01*
X376473Y-121727D01*
X376027Y-121428D01*
X375500Y-121324D01*
X374973Y-121428D01*
X374749Y-121578D01*
X366565D01*
X365722Y-120735D01*
Y-120332D01*
X366063Y-119673D01*
X366522Y-119673D01*
X375137D01*
Y-112568D01*
X370514D01*
X368473Y-110527D01*
X368027Y-110228D01*
X367500Y-110124D01*
X366973Y-110228D01*
X366527Y-110527D01*
X366522Y-110534D01*
X365722Y-110292D01*
Y-76665D01*
X371193Y-71193D01*
X371193Y-71193D01*
X371436Y-70829D01*
X371522Y-70400D01*
X371521Y-70400D01*
Y-63565D01*
X377043Y-58043D01*
X377286Y-57679D01*
X377372Y-57250D01*
X377372Y-57250D01*
Y-19715D01*
X387365Y-9722D01*
X401200D01*
X401200Y-9722D01*
X401629Y-9636D01*
X401993Y-9393D01*
X422952Y11566D01*
X422952Y11566D01*
X423195Y11930D01*
X423281Y12359D01*
Y29120D01*
X424081Y29452D01*
X430066Y23466D01*
X430678Y23057D01*
X431400Y22914D01*
X444719D01*
X444749Y22883D01*
Y-4700D01*
X444951Y-5714D01*
X445526Y-6575D01*
X450890Y-11939D01*
X450858Y-12739D01*
X424600D01*
X423390Y-12980D01*
X422365Y-13665D01*
X410391Y-25639D01*
X392483D01*
Y-21426D01*
X379472D01*
Y-33660D01*
X379449Y-33778D01*
Y-76502D01*
X376325Y-79625D01*
X375751Y-80485D01*
X375549Y-81500D01*
Y-95302D01*
X370451Y-100400D01*
X367000D01*
Y-107600D01*
X374200D01*
Y-104149D01*
X380075Y-98274D01*
X380649Y-97414D01*
X380851Y-96400D01*
Y-82598D01*
X383198Y-80251D01*
X393900D01*
X394915Y-80049D01*
X395775Y-79475D01*
X398782Y-76467D01*
X399356Y-75607D01*
X399558Y-74593D01*
Y-73000D01*
X399574D01*
Y-63532D01*
X394240D01*
Y-73000D01*
X394240Y-73000D01*
X394240D01*
X394240Y-73000D01*
X394036Y-73715D01*
X392802Y-74949D01*
X384751D01*
Y-38374D01*
X392483D01*
Y-31961D01*
X411700D01*
X412910Y-31720D01*
X413935Y-31035D01*
X425909Y-19061D01*
X450913D01*
Y-20437D01*
X466287D01*
Y-11363D01*
X457812D01*
X450051Y-3602D01*
Y20849D01*
X451148D01*
X451299Y20676D01*
X451532Y19972D01*
X451532D01*
Y17307D01*
X457469D01*
Y19972D01*
X457469D01*
X457701Y20676D01*
X457852Y20849D01*
X467802D01*
X469026Y19625D01*
X469885Y19051D01*
X470900Y18849D01*
X471914Y19051D01*
X472775Y19625D01*
X473349Y20485D01*
X473551Y21500D01*
X473349Y22514D01*
X472775Y23374D01*
X470775Y25374D01*
X469914Y25949D01*
X468900Y26151D01*
X457068D01*
Y26265D01*
X451931D01*
Y26151D01*
X448000D01*
X447013Y25955D01*
X446834Y26134D01*
X446222Y26543D01*
X445500Y26686D01*
X432181D01*
X426094Y32773D01*
Y34525D01*
X426105Y34536D01*
Y39664D01*
X425412Y40358D01*
X424024D01*
X423439Y39772D01*
X422853Y40358D01*
X421465D01*
X420880Y39772D01*
X420294Y40358D01*
X418906D01*
X418321Y39772D01*
X417735Y40358D01*
X416347D01*
X416061Y40072D01*
X415376Y40758D01*
D02*
G37*
G36*
X184100Y25900D02*
X179663D01*
Y21463D01*
X184100D01*
Y25900D01*
D02*
G37*
G36*
X111700Y23740D02*
X111420Y23684D01*
X110758Y23242D01*
X110316Y22580D01*
X110260Y22300D01*
X111700D01*
Y23740D01*
D02*
G37*
G36*
X184100Y31337D02*
X179663D01*
Y26900D01*
X184100D01*
Y31337D01*
D02*
G37*
G36*
X189537D02*
X185100D01*
Y26900D01*
X189537D01*
Y31337D01*
D02*
G37*
G36*
X375800Y13551D02*
X374785Y13349D01*
X373925Y12775D01*
X373351Y11914D01*
X373149Y10900D01*
X373351Y9886D01*
X373925Y9025D01*
X374785Y8451D01*
X375800Y8249D01*
X376815Y8451D01*
X377675Y9025D01*
X378249Y9886D01*
X378451Y10900D01*
X378249Y11914D01*
X377675Y12775D01*
X376815Y13349D01*
X375800Y13551D01*
D02*
G37*
G36*
X112700Y23740D02*
Y22300D01*
X114140D01*
X114084Y22580D01*
X113642Y23242D01*
X112980Y23684D01*
X112700Y23740D01*
D02*
G37*
G36*
X389740Y10700D02*
X388300D01*
Y9260D01*
X388580Y9316D01*
X389242Y9758D01*
X389684Y10420D01*
X389740Y10700D01*
D02*
G37*
G36*
X387300Y13140D02*
X387020Y13084D01*
X386358Y12642D01*
X385916Y11980D01*
X385860Y11700D01*
X387300D01*
Y13140D01*
D02*
G37*
G36*
Y10700D02*
X385860D01*
X385916Y10420D01*
X386358Y9758D01*
X387020Y9316D01*
X387300Y9260D01*
Y10700D01*
D02*
G37*
G36*
X363600Y26500D02*
X315600D01*
Y-5369D01*
X314395Y-5609D01*
X313205Y-6404D01*
X312409Y-7595D01*
X312129Y-9000D01*
X312409Y-10405D01*
X313205Y-11596D01*
X314395Y-12391D01*
X315600Y-12631D01*
Y-17000D01*
X363100D01*
Y26000D01*
X363600Y26500D01*
D02*
G37*
G36*
X388300Y13140D02*
Y11700D01*
X389740D01*
X389684Y11980D01*
X389242Y12642D01*
X388580Y13084D01*
X388300Y13140D01*
D02*
G37*
G36*
X111700Y21300D02*
X110260D01*
X110316Y21020D01*
X110758Y20358D01*
X111420Y19916D01*
X111700Y19860D01*
Y21300D01*
D02*
G37*
G36*
X114140D02*
X112700D01*
Y19860D01*
X112980Y19916D01*
X113642Y20358D01*
X114084Y21020D01*
X114140Y21300D01*
D02*
G37*
G36*
X363600Y-18875D02*
X362098Y-19173D01*
X360824Y-20024D01*
X359973Y-21298D01*
X359675Y-22800D01*
X359973Y-24302D01*
X360824Y-25576D01*
X362098Y-26427D01*
X363600Y-26725D01*
X365102Y-26427D01*
X366376Y-25576D01*
X367227Y-24302D01*
X367525Y-22800D01*
X367227Y-21298D01*
X366376Y-20024D01*
X365102Y-19173D01*
X363600Y-18875D01*
D02*
G37*
G36*
X457469Y16307D02*
X451532D01*
Y13642D01*
X451849D01*
Y7314D01*
X452051Y6300D01*
X455200D01*
Y5300D01*
X452139D01*
X452280Y4590D01*
X452965Y3565D01*
X463265Y-6735D01*
X464290Y-7420D01*
X465500Y-7661D01*
X472991D01*
X475554Y-10224D01*
X475248Y-10963D01*
X472513D01*
Y-15400D01*
X488687D01*
Y-10963D01*
X483761D01*
Y-10800D01*
X483520Y-9590D01*
X482835Y-8565D01*
X476535Y-2265D01*
X475510Y-1580D01*
X474300Y-1339D01*
X466809D01*
X457435Y8035D01*
X457151Y8225D01*
Y13642D01*
X457469D01*
Y16307D01*
D02*
G37*
G36*
X291238Y37940D02*
X289775Y37649D01*
X288534Y36820D01*
X287706Y35580D01*
X287415Y34117D01*
X287706Y32653D01*
X288534Y31413D01*
X289775Y30584D01*
X291238Y30294D01*
X292701Y30584D01*
X293833Y31341D01*
X293877Y31370D01*
X294196Y31286D01*
X294663Y31054D01*
X294663Y30615D01*
Y26900D01*
X299100D01*
Y31337D01*
X295396D01*
X294852Y31337D01*
X294334Y32001D01*
X294770Y32653D01*
X295061Y34117D01*
X294770Y35580D01*
X293941Y36820D01*
X292701Y37649D01*
X291238Y37940D01*
D02*
G37*
G36*
X56200Y51440D02*
X46000D01*
Y42760D01*
X56200D01*
Y51440D01*
D02*
G37*
G36*
X68743D02*
X60457D01*
Y42760D01*
X68743D01*
Y51440D01*
D02*
G37*
G36*
X58982Y40758D02*
X58588D01*
X57695Y39864D01*
Y37600D01*
X58982D01*
Y40758D01*
D02*
G37*
G36*
X413982D02*
X413588D01*
X412695Y39864D01*
Y37600D01*
X413982D01*
Y40758D01*
D02*
G37*
G36*
X83200Y51440D02*
X73000D01*
Y42760D01*
X83200D01*
Y51440D01*
D02*
G37*
G36*
X423743D02*
X415457D01*
Y42760D01*
X423743D01*
Y51440D01*
D02*
G37*
G36*
X438200D02*
X428000D01*
Y42760D01*
X438200D01*
Y51440D01*
D02*
G37*
G36*
X498553Y-34601D02*
X495100D01*
Y-37660D01*
X498553D01*
Y-34601D01*
D02*
G37*
G36*
X411200Y51440D02*
X401000D01*
Y42760D01*
X411200D01*
Y51440D01*
D02*
G37*
G36*
X378700Y36940D02*
Y35500D01*
X380140D01*
X380084Y35780D01*
X379642Y36442D01*
X378980Y36884D01*
X378700Y36940D01*
D02*
G37*
G36*
X55100Y30340D02*
X54820Y30284D01*
X54158Y29842D01*
X53716Y29180D01*
X53660Y28900D01*
X55100D01*
Y30340D01*
D02*
G37*
G36*
X300100Y31337D02*
Y26900D01*
X304537D01*
Y31337D01*
X300100D01*
D02*
G37*
G36*
X-5876Y41596D02*
X-7626Y41366D01*
X-9257Y40691D01*
X-10657Y39616D01*
X-11731Y38216D01*
X-12406Y36586D01*
X-12637Y34836D01*
X-12406Y33086D01*
X-11731Y31456D01*
X-10657Y30056D01*
X-9257Y28982D01*
X-7626Y28306D01*
X-5876Y28076D01*
X-4127Y28306D01*
X-2496Y28982D01*
X-1096Y30056D01*
X-22Y31456D01*
X654Y33086D01*
X884Y34836D01*
X654Y36586D01*
X-22Y38216D01*
X-1096Y39616D01*
X-2496Y40691D01*
X-4127Y41366D01*
X-5876Y41596D01*
D02*
G37*
G36*
X489789D02*
X488039Y41366D01*
X486409Y40691D01*
X485009Y39616D01*
X483934Y38216D01*
X483259Y36586D01*
X483029Y34836D01*
X483259Y33086D01*
X483934Y31456D01*
X485009Y30056D01*
X486409Y28982D01*
X488039Y28306D01*
X489789Y28076D01*
X491539Y28306D01*
X493169Y28982D01*
X494569Y30056D01*
X495644Y31456D01*
X496319Y33086D01*
X496549Y34836D01*
X496319Y36586D01*
X495644Y38216D01*
X494569Y39616D01*
X493169Y40691D01*
X491539Y41366D01*
X489789Y41596D01*
D02*
G37*
G36*
X195962Y37940D02*
X194499Y37649D01*
X193259Y36820D01*
X192430Y35580D01*
X192139Y34117D01*
X192430Y32653D01*
X193259Y31413D01*
X194499Y30584D01*
X195962Y30294D01*
X197425Y30584D01*
X198665Y31413D01*
X199494Y32653D01*
X199785Y34117D01*
X199494Y35580D01*
X198665Y36820D01*
X197425Y37649D01*
X195962Y37940D01*
D02*
G37*
G36*
X380140Y34500D02*
X378700D01*
Y33060D01*
X378980Y33116D01*
X379642Y33558D01*
X380084Y34220D01*
X380140Y34500D01*
D02*
G37*
G36*
X377700Y36940D02*
X377420Y36884D01*
X376758Y36442D01*
X376316Y35780D01*
X376260Y35500D01*
X377700D01*
Y36940D01*
D02*
G37*
G36*
Y34500D02*
X376260D01*
X376316Y34220D01*
X376758Y33558D01*
X377420Y33116D01*
X377700Y33060D01*
Y34500D01*
D02*
G37*
%LPD*%
G36*
X203321Y-145364D02*
X203503Y-145328D01*
X204082Y-144941D01*
X204176Y-144801D01*
X207336D01*
X207409Y-144842D01*
X207931Y-145601D01*
X207922Y-145648D01*
X208014Y-146113D01*
X208226Y-146632D01*
X208014Y-147152D01*
X207922Y-147617D01*
X207931Y-147663D01*
X207381Y-148463D01*
X204600D01*
X204171Y-148549D01*
X203807Y-148792D01*
X203575Y-149138D01*
X201972Y-150742D01*
X201172Y-150411D01*
Y-146915D01*
X202321Y-145766D01*
Y-143679D01*
X203321D01*
Y-145364D01*
D02*
G37*
G36*
X298507Y-151493D02*
X298507Y-151493D01*
X298871Y-151736D01*
X299300Y-151822D01*
X299620D01*
X299891Y-152622D01*
X299569Y-152869D01*
X298888Y-153757D01*
X298459Y-154790D01*
X298379Y-155400D01*
X306821D01*
X306741Y-154790D01*
X306312Y-153757D01*
X305631Y-152869D01*
X305309Y-152622D01*
X305580Y-151822D01*
X306600D01*
X306600Y-151822D01*
X307029Y-151736D01*
X307393Y-151493D01*
X309228Y-149658D01*
X310029Y-149989D01*
Y-155985D01*
X305535Y-160478D01*
X304743D01*
X304584Y-159678D01*
X304743Y-159612D01*
X305631Y-158931D01*
X306312Y-158043D01*
X306741Y-157009D01*
X306821Y-156400D01*
X298379D01*
X298459Y-157009D01*
X298888Y-158043D01*
X298976Y-158159D01*
X298373Y-158687D01*
X292415Y-152729D01*
X292051Y-152486D01*
X291622Y-152401D01*
X291622Y-152401D01*
X283984D01*
X283693Y-152018D01*
X283497Y-151601D01*
X283576Y-151200D01*
X283472Y-150673D01*
X283237Y-150322D01*
X283345Y-149912D01*
X283558Y-149522D01*
X292249D01*
X292473Y-149672D01*
X293000Y-149776D01*
X293527Y-149672D01*
X293973Y-149373D01*
X294272Y-148927D01*
X294361Y-148478D01*
X294646Y-148302D01*
X295137Y-148123D01*
X298507Y-151493D01*
D02*
G37*
G36*
X200433Y-129853D02*
X200424Y-129900D01*
X200433Y-129947D01*
X199853Y-130747D01*
X197332D01*
X197332Y-130747D01*
X196902Y-130832D01*
X196538Y-131075D01*
X195338Y-132276D01*
X195073Y-132328D01*
X194627Y-132627D01*
X194328Y-133073D01*
X194224Y-133600D01*
X194328Y-134127D01*
X194627Y-134573D01*
X195073Y-134872D01*
X195600Y-134976D01*
X196127Y-134872D01*
X196573Y-134573D01*
X196872Y-134127D01*
X196924Y-133862D01*
X197796Y-132990D01*
X198780D01*
X199111Y-133790D01*
X192457Y-140445D01*
X192214Y-140808D01*
X192128Y-141237D01*
X192128Y-141238D01*
Y-149673D01*
X165707Y-176094D01*
X165464Y-176458D01*
X165378Y-176888D01*
X165378Y-176888D01*
Y-179123D01*
X139107Y-205395D01*
X138864Y-205758D01*
X138778Y-206188D01*
X138778Y-206188D01*
Y-207627D01*
X138368Y-207709D01*
X137069Y-208577D01*
X136201Y-209876D01*
X135933Y-211225D01*
X135182Y-211606D01*
X134291Y-210715D01*
X133927Y-210472D01*
X133498Y-210386D01*
X132788Y-210171D01*
X132729Y-209876D01*
X131861Y-208577D01*
X130562Y-207709D01*
X129030Y-207404D01*
X127498Y-207709D01*
X126199Y-208577D01*
X125331Y-209876D01*
X125063Y-211225D01*
X124312Y-211606D01*
X123421Y-210715D01*
X123057Y-210472D01*
X122628Y-210386D01*
X121917Y-210171D01*
X121859Y-209876D01*
X120991Y-208577D01*
X119692Y-207709D01*
X118160Y-207404D01*
X116628Y-207709D01*
X115329Y-208577D01*
X114461Y-209876D01*
X114156Y-211408D01*
X114461Y-212940D01*
X115329Y-214239D01*
X116628Y-215107D01*
X118160Y-215412D01*
X119692Y-215107D01*
X120991Y-214239D01*
X121652Y-213249D01*
X122497Y-213074D01*
X122638Y-213104D01*
X128062Y-218528D01*
X128062Y-218528D01*
X128426Y-218771D01*
X128855Y-218856D01*
X131544D01*
X131786Y-219656D01*
X131634Y-219758D01*
X130766Y-221057D01*
X130461Y-222589D01*
X130766Y-224121D01*
X131634Y-225420D01*
X132933Y-226288D01*
X134465Y-226593D01*
X135997Y-226288D01*
X137296Y-225420D01*
X138164Y-224121D01*
X138469Y-222589D01*
X138164Y-221057D01*
X137296Y-219758D01*
X137144Y-219656D01*
X137386Y-218856D01*
X142414D01*
X142656Y-219656D01*
X142504Y-219758D01*
X141636Y-221057D01*
X141331Y-222589D01*
X141636Y-224121D01*
X142504Y-225420D01*
X143803Y-226288D01*
X145335Y-226593D01*
X146867Y-226288D01*
X148166Y-225420D01*
X149034Y-224121D01*
X149339Y-222589D01*
X149034Y-221057D01*
X148166Y-219758D01*
X148014Y-219656D01*
X148257Y-218856D01*
X153284D01*
X153526Y-219656D01*
X153374Y-219758D01*
X152506Y-221057D01*
X152201Y-222589D01*
X152506Y-224121D01*
X153374Y-225420D01*
X154673Y-226288D01*
X156205Y-226593D01*
X157737Y-226288D01*
X159036Y-225420D01*
X159904Y-224121D01*
X160209Y-222589D01*
X159904Y-221057D01*
X159036Y-219758D01*
X158884Y-219656D01*
X159127Y-218856D01*
X164154D01*
X164396Y-219656D01*
X164244Y-219758D01*
X163376Y-221057D01*
X163072Y-222589D01*
X163376Y-224121D01*
X164244Y-225420D01*
X165543Y-226288D01*
X167075Y-226593D01*
X168607Y-226288D01*
X169906Y-225420D01*
X170567Y-224430D01*
X171413Y-224255D01*
X171554Y-224285D01*
X180061Y-232793D01*
X180061Y-232793D01*
X180425Y-233036D01*
X180854Y-233121D01*
X204004D01*
X204004Y-233122D01*
X204433Y-233036D01*
X204797Y-232793D01*
X218597Y-218993D01*
X218597Y-218993D01*
X218840Y-218629D01*
X218926Y-218200D01*
X218926Y-218200D01*
Y-209173D01*
X230077Y-198022D01*
X250217D01*
X250217Y-198022D01*
X250646Y-197936D01*
X251010Y-197693D01*
X256427Y-192276D01*
X257082Y-192469D01*
X257226Y-192575D01*
Y-211046D01*
X233594Y-234679D01*
X77665D01*
X70422Y-227435D01*
Y-217600D01*
X70422Y-217600D01*
X70336Y-217171D01*
X70093Y-216807D01*
X70093Y-216807D01*
X51572Y-198285D01*
Y-194663D01*
X52311Y-194357D01*
X54027Y-196073D01*
X54027Y-196073D01*
X54473Y-196372D01*
X55000Y-196476D01*
X55000Y-196476D01*
X62500D01*
X63027Y-196372D01*
X63473Y-196073D01*
X68123Y-191424D01*
X70451D01*
Y-189700D01*
X65677D01*
X65723Y-189930D01*
X61930Y-193724D01*
X55570D01*
X53776Y-191930D01*
Y-176970D01*
X58500Y-172247D01*
Y-169900D01*
X59000D01*
Y-169400D01*
X61347D01*
X63870Y-166876D01*
X78071D01*
X78158Y-166980D01*
X78426Y-167676D01*
X78157Y-168078D01*
X78014Y-168800D01*
X78157Y-169522D01*
X78269Y-169688D01*
Y-175300D01*
X78393Y-175924D01*
X78746Y-176453D01*
X82647Y-180353D01*
X83176Y-180707D01*
X83800Y-180831D01*
X85935D01*
X86004Y-180878D01*
X86699Y-181016D01*
X92998D01*
X93693Y-180878D01*
X94283Y-180484D01*
X94676Y-179895D01*
X94814Y-179200D01*
X94676Y-178505D01*
X94283Y-177916D01*
X93693Y-177522D01*
X92998Y-177384D01*
X86699D01*
X86004Y-177522D01*
X85935Y-177569D01*
X84476D01*
X81531Y-174624D01*
Y-169688D01*
X81643Y-169522D01*
X81786Y-168800D01*
X81643Y-168078D01*
X81374Y-167676D01*
X81642Y-166980D01*
X81729Y-166876D01*
X114032D01*
X114338Y-167616D01*
X111278Y-170676D01*
X110540Y-170282D01*
X110576Y-170100D01*
X110472Y-169573D01*
X110173Y-169127D01*
X109727Y-168828D01*
X109200Y-168724D01*
X108673Y-168828D01*
X108449Y-168978D01*
X102600D01*
X102600Y-168978D01*
X102171Y-169064D01*
X101807Y-169307D01*
X101807Y-169307D01*
X98035Y-173078D01*
X94391D01*
X94283Y-172916D01*
X93693Y-172522D01*
X92998Y-172384D01*
X86699D01*
X86004Y-172522D01*
X85415Y-172916D01*
X85022Y-173505D01*
X84883Y-174200D01*
X85022Y-174895D01*
X85415Y-175484D01*
X86004Y-175878D01*
X86699Y-176016D01*
X92998D01*
X93693Y-175878D01*
X94283Y-175484D01*
X94391Y-175322D01*
X97900D01*
X98232Y-176122D01*
X97227Y-177127D01*
X96928Y-177573D01*
X96824Y-178100D01*
Y-180930D01*
X95368Y-182385D01*
X94571Y-182627D01*
X93849Y-182146D01*
X92998Y-181976D01*
X90349D01*
Y-184200D01*
Y-186424D01*
X92998D01*
X93849Y-186255D01*
X94571Y-185773D01*
X94702Y-185576D01*
X95500D01*
X96027Y-185472D01*
X96473Y-185173D01*
X99173Y-182473D01*
X99173Y-182473D01*
X99472Y-182027D01*
X99576Y-181500D01*
X99576Y-181500D01*
Y-178670D01*
X100678Y-177568D01*
X101478Y-177900D01*
Y-184635D01*
X98035Y-188078D01*
X94391D01*
X94283Y-187916D01*
X93693Y-187522D01*
X92998Y-187384D01*
X86699D01*
X86004Y-187522D01*
X85415Y-187916D01*
X85022Y-188505D01*
X84922Y-189007D01*
X84122Y-188928D01*
Y-185708D01*
X84922Y-185465D01*
X85127Y-185773D01*
X85848Y-186255D01*
X86699Y-186424D01*
X89349D01*
Y-184200D01*
Y-181976D01*
X86699D01*
X85848Y-182146D01*
X85127Y-182627D01*
X84645Y-183349D01*
X84477Y-184191D01*
X84331Y-184286D01*
X83953Y-184512D01*
X83728Y-184541D01*
X77593Y-178407D01*
X77229Y-178164D01*
X76800Y-178078D01*
X76800Y-178078D01*
X75494D01*
X75385Y-177916D01*
X74796Y-177522D01*
X74101Y-177384D01*
X67802D01*
X67107Y-177522D01*
X66518Y-177916D01*
X66409Y-178078D01*
X61168D01*
Y-177135D01*
X56032D01*
Y-182665D01*
X59508D01*
X59819Y-183162D01*
X59865Y-183465D01*
X59497Y-183827D01*
X56032D01*
Y-189358D01*
X61168D01*
Y-185610D01*
X61458Y-185322D01*
X66409D01*
X66518Y-185484D01*
X67107Y-185878D01*
X67802Y-186016D01*
X74101D01*
X74796Y-185878D01*
X75385Y-185484D01*
X75494Y-185322D01*
X76735D01*
X78278Y-186865D01*
Y-206323D01*
X76620Y-207982D01*
X76212Y-207709D01*
X74679Y-207404D01*
X73147Y-207709D01*
X71848Y-208577D01*
X70981Y-209876D01*
X70676Y-211408D01*
X70981Y-212940D01*
X71848Y-214239D01*
X73147Y-215107D01*
X74679Y-215412D01*
X76212Y-215107D01*
X77511Y-214239D01*
X78378Y-212940D01*
X78683Y-211408D01*
X78378Y-209876D01*
X78186Y-209588D01*
X80193Y-207580D01*
X80193Y-207580D01*
X80436Y-207217D01*
X80522Y-206787D01*
X80522Y-206787D01*
Y-186400D01*
X80522Y-186400D01*
X80436Y-185971D01*
X80193Y-185607D01*
X77993Y-183407D01*
X77629Y-183164D01*
X77200Y-183078D01*
X77200Y-183078D01*
X75494D01*
X75385Y-182916D01*
X74796Y-182522D01*
X74101Y-182384D01*
X67802D01*
X67107Y-182522D01*
X66518Y-182916D01*
X66409Y-183078D01*
X61797D01*
X61168Y-182665D01*
X61168Y-180887D01*
X61734Y-180322D01*
X66409D01*
X66518Y-180484D01*
X67107Y-180878D01*
X67802Y-181016D01*
X74101D01*
X74796Y-180878D01*
X75385Y-180484D01*
X75494Y-180322D01*
X76335D01*
X81878Y-185865D01*
Y-208958D01*
X81878Y-208958D01*
X81964Y-209387D01*
X82070Y-209547D01*
X81851Y-209876D01*
X81546Y-211408D01*
X81851Y-212940D01*
X82719Y-214239D01*
X84017Y-215107D01*
X85550Y-215412D01*
X87082Y-215107D01*
X88381Y-214239D01*
X89249Y-212940D01*
X89553Y-211408D01*
X89249Y-209876D01*
X88381Y-208577D01*
X87082Y-207709D01*
X85550Y-207404D01*
X84740Y-207565D01*
X84122Y-207058D01*
Y-189471D01*
X84922Y-189393D01*
X85022Y-189895D01*
X85415Y-190484D01*
X86004Y-190878D01*
X86699Y-191016D01*
X92998D01*
X93693Y-190878D01*
X94283Y-190484D01*
X94391Y-190322D01*
X98500D01*
X98500Y-190322D01*
X98929Y-190236D01*
X99293Y-189993D01*
X103393Y-185893D01*
X103393Y-185893D01*
X103636Y-185529D01*
X103722Y-185100D01*
X103722Y-185100D01*
Y-177365D01*
X104515Y-176572D01*
X112250D01*
X112250Y-176572D01*
X112679Y-176486D01*
X113043Y-176243D01*
X118165Y-171122D01*
X119149D01*
X119373Y-171272D01*
X119900Y-171376D01*
X120427Y-171272D01*
X120873Y-170973D01*
X121172Y-170527D01*
X121276Y-170000D01*
X121172Y-169473D01*
X120873Y-169027D01*
X120427Y-168728D01*
X119900Y-168624D01*
X119373Y-168728D01*
X119149Y-168878D01*
X118099D01*
X117768Y-168078D01*
X118970Y-166876D01*
X152600D01*
X153127Y-166772D01*
X153573Y-166473D01*
X156173Y-163873D01*
X156173Y-163873D01*
X156472Y-163427D01*
X156577Y-162900D01*
X156576Y-162900D01*
Y-145370D01*
X158970Y-142976D01*
X160031D01*
Y-144765D01*
X160340D01*
X160432Y-145528D01*
X160432D01*
Y-151058D01*
X165568D01*
Y-149669D01*
X180013D01*
X180539Y-149565D01*
X180986Y-149266D01*
X181391Y-148861D01*
X182259Y-149124D01*
X182370Y-149683D01*
X183156Y-150859D01*
X184331Y-151644D01*
X185717Y-151920D01*
X187103Y-151644D01*
X188278Y-150859D01*
X189064Y-149683D01*
X189339Y-148297D01*
Y-136880D01*
X189064Y-135494D01*
X188278Y-134319D01*
X187103Y-133533D01*
X186838Y-133481D01*
Y-130548D01*
X188333Y-129053D01*
X199853D01*
X200433Y-129853D01*
D02*
G37*
G36*
X322814Y-161693D02*
X322814Y-161693D01*
X323178Y-161936D01*
X323607Y-162022D01*
X323607Y-162022D01*
X325887D01*
X326435Y-162569D01*
X328600D01*
Y-160900D01*
X329600D01*
Y-162569D01*
X331765D01*
X331831Y-162596D01*
Y-167365D01*
X332465Y-168000D01*
X333735D01*
X333979Y-168101D01*
Y-173235D01*
X332635Y-174578D01*
X328165D01*
Y-173132D01*
X322635D01*
Y-173132D01*
X321872Y-173040D01*
Y-172731D01*
X320848D01*
Y-170107D01*
X320685Y-169288D01*
X320221Y-168593D01*
X318855Y-167227D01*
X318822Y-167178D01*
X318773Y-167145D01*
X318714Y-167086D01*
X318321Y-166824D01*
Y-158332D01*
X319122Y-158001D01*
X322814Y-161693D01*
D02*
G37*
G36*
X241514Y-178200D02*
X241514Y-178200D01*
X241878Y-178443D01*
X242307Y-178529D01*
X242431Y-179307D01*
Y-180972D01*
X242431Y-180973D01*
X242431D01*
X242340Y-181735D01*
X242032D01*
Y-184400D01*
X245000D01*
Y-184900D01*
X245500D01*
Y-188065D01*
X245964D01*
X246391Y-188865D01*
X246316Y-188978D01*
X231478D01*
X231269Y-188265D01*
X231269Y-188178D01*
Y-185422D01*
X234432D01*
Y-188165D01*
X239568D01*
Y-182635D01*
X239452D01*
X239122Y-182122D01*
X239568Y-181473D01*
X239568D01*
Y-181281D01*
X239672Y-181127D01*
X239776Y-180600D01*
X239672Y-180073D01*
X239568Y-179919D01*
Y-177386D01*
X240369Y-177055D01*
X241514Y-178200D01*
D02*
G37*
G36*
X198928Y-154303D02*
Y-173050D01*
X198928Y-173050D01*
X199014Y-173479D01*
X199257Y-173843D01*
X200707Y-175293D01*
X201071Y-175536D01*
X201500Y-175622D01*
X201500Y-175622D01*
X206745D01*
X206758Y-175642D01*
X207420Y-176084D01*
X207700Y-176140D01*
Y-174200D01*
Y-172260D01*
X207420Y-172316D01*
X206758Y-172758D01*
X206344Y-173378D01*
X203548D01*
X203170Y-172578D01*
X203272Y-172427D01*
X203376Y-171900D01*
X203272Y-171373D01*
X203122Y-171149D01*
Y-170198D01*
X203385Y-169986D01*
X203922Y-169701D01*
X204300Y-169776D01*
X204827Y-169672D01*
X205273Y-169373D01*
X205572Y-168927D01*
X205677Y-168400D01*
X205572Y-167873D01*
X206072Y-167301D01*
X206222Y-167221D01*
X206500Y-167276D01*
X207027Y-167172D01*
X207473Y-166873D01*
X207772Y-166427D01*
X207876Y-165900D01*
X207772Y-165373D01*
X207824Y-165173D01*
X208473Y-164772D01*
X209000Y-164876D01*
X209527Y-164772D01*
X209751Y-164622D01*
X215299D01*
X215299Y-164622D01*
X215728Y-164536D01*
X216092Y-164293D01*
X217008Y-163377D01*
X217828Y-163688D01*
X217857Y-163829D01*
X218120Y-164223D01*
X218513Y-164486D01*
X218916Y-164566D01*
X219068Y-164803D01*
X219280Y-165334D01*
X217735Y-166878D01*
X214400D01*
X213971Y-166964D01*
X213607Y-167207D01*
X213607Y-167207D01*
X208700Y-172114D01*
Y-173700D01*
X210286D01*
X214323Y-169663D01*
X214548Y-169702D01*
X214595Y-169728D01*
X215124Y-170600D01*
X215228Y-171127D01*
X215527Y-171573D01*
X215973Y-171872D01*
X216422Y-171961D01*
X216598Y-172246D01*
X216777Y-172737D01*
X211035Y-178478D01*
X197500D01*
X197071Y-178564D01*
X196707Y-178807D01*
X196707Y-178807D01*
X166307Y-209207D01*
X166064Y-209571D01*
X166055Y-209616D01*
X165942Y-209657D01*
X165222Y-209701D01*
X164471Y-208577D01*
X163172Y-207709D01*
X162762Y-207627D01*
Y-189720D01*
X168367Y-184115D01*
X169032Y-184582D01*
Y-189972D01*
X169775D01*
X169854Y-190772D01*
X169573Y-190828D01*
X169127Y-191127D01*
X169121Y-191135D01*
X169032D01*
Y-191269D01*
X168828Y-191573D01*
X168724Y-192100D01*
X168828Y-192627D01*
X169032Y-192931D01*
Y-196665D01*
X174169D01*
Y-191135D01*
X171079D01*
X171073Y-191127D01*
X170627Y-190828D01*
X170346Y-190772D01*
X170425Y-189972D01*
X174169D01*
Y-184442D01*
X172722D01*
Y-179465D01*
X198189Y-153997D01*
X198928Y-154303D01*
D02*
G37*
G36*
X221446Y-105044D02*
X221567Y-105020D01*
X222093Y-104669D01*
X222215Y-104486D01*
X222450Y-104643D01*
X222915Y-104736D01*
X223379Y-104643D01*
X223899Y-104432D01*
X224419Y-104643D01*
X224883Y-104736D01*
X225553Y-105396D01*
Y-111787D01*
X225428Y-111973D01*
X225324Y-112500D01*
X225428Y-113027D01*
X225727Y-113473D01*
X226173Y-113772D01*
X226700Y-113876D01*
X227077Y-113802D01*
X227616Y-114088D01*
X227877Y-114299D01*
Y-115198D01*
X227877Y-115198D01*
X227962Y-115628D01*
X228171Y-115941D01*
X228228Y-116227D01*
X228527Y-116673D01*
X228973Y-116972D01*
X229500Y-117076D01*
X230027Y-116972D01*
X230473Y-116673D01*
X230658Y-116397D01*
X231458Y-116565D01*
Y-117372D01*
X231227Y-117527D01*
X230928Y-117973D01*
X230823Y-118500D01*
X230928Y-119027D01*
X231227Y-119473D01*
X231673Y-119772D01*
X232200Y-119876D01*
X232727Y-119772D01*
X233293Y-120338D01*
X233428Y-120673D01*
X233324Y-121200D01*
X233428Y-121727D01*
X233727Y-122173D01*
X234173Y-122472D01*
X234700Y-122576D01*
X235227Y-122472D01*
X235673Y-122173D01*
X235972Y-121727D01*
X236076Y-121200D01*
X235972Y-120673D01*
X235872Y-120523D01*
Y-115992D01*
X235872Y-115992D01*
X235847Y-115872D01*
Y-105277D01*
X236648Y-104727D01*
X236695Y-104736D01*
X237159Y-104643D01*
X237679Y-104432D01*
X238198Y-104643D01*
X238663Y-104736D01*
X239127Y-104643D01*
X239647Y-104432D01*
X240167Y-104643D01*
X240632Y-104736D01*
X241096Y-104643D01*
X241616Y-104432D01*
X242136Y-104643D01*
X242600Y-104736D01*
X243064Y-104643D01*
X243584Y-104432D01*
X244104Y-104643D01*
X244568Y-104736D01*
X245033Y-104643D01*
X245553Y-104432D01*
X246073Y-104643D01*
X246537Y-104736D01*
X247002Y-104643D01*
X247521Y-104432D01*
X248041Y-104643D01*
X248505Y-104736D01*
X248970Y-104643D01*
X249490Y-104432D01*
X250009Y-104643D01*
X250474Y-104736D01*
X250939Y-104643D01*
X251458Y-104432D01*
X251978Y-104643D01*
X252443Y-104736D01*
X252907Y-104643D01*
X253427Y-104432D01*
X253946Y-104643D01*
X254411Y-104736D01*
X254876Y-104643D01*
X255395Y-104432D01*
X255915Y-104643D01*
X256380Y-104736D01*
X256844Y-104643D01*
X257364Y-104432D01*
X257884Y-104643D01*
X258348Y-104736D01*
X258813Y-104643D01*
X259332Y-104432D01*
X259852Y-104643D01*
X260316Y-104736D01*
X260781Y-104643D01*
X261301Y-104432D01*
X261821Y-104643D01*
X262285Y-104736D01*
X263078Y-105313D01*
Y-106135D01*
X260338Y-108876D01*
X260073Y-108928D01*
X259627Y-109227D01*
X259328Y-109673D01*
X259224Y-110200D01*
X259328Y-110727D01*
X259627Y-111173D01*
X260073Y-111472D01*
X260600Y-111576D01*
X261127Y-111472D01*
X261573Y-111173D01*
X261872Y-110727D01*
X261924Y-110462D01*
X264039Y-108347D01*
X264778Y-108653D01*
Y-111100D01*
X264778Y-111100D01*
X264864Y-111529D01*
X265107Y-111893D01*
X265444Y-112230D01*
X265113Y-113030D01*
X253948D01*
X253519Y-113116D01*
X253155Y-113359D01*
X253155Y-113359D01*
X238735Y-127778D01*
X224151D01*
X223927Y-127628D01*
X223400Y-127524D01*
X222873Y-127628D01*
X222427Y-127927D01*
X222128Y-128373D01*
X222024Y-128900D01*
X222128Y-129427D01*
X222427Y-129873D01*
X222873Y-130172D01*
X223400Y-130276D01*
X223927Y-130172D01*
X224151Y-130022D01*
X237851D01*
X238157Y-130761D01*
X235440Y-133478D01*
X223951D01*
X223727Y-133328D01*
X223200Y-133224D01*
X222673Y-133328D01*
X222227Y-133627D01*
X221928Y-134073D01*
X221824Y-134600D01*
X221928Y-135127D01*
X222227Y-135573D01*
X222673Y-135872D01*
X223200Y-135976D01*
X223727Y-135872D01*
X223951Y-135722D01*
X235904D01*
X235904Y-135722D01*
X236333Y-135636D01*
X236697Y-135393D01*
X254848Y-117242D01*
X267223D01*
X267773Y-118042D01*
X267764Y-118089D01*
X267857Y-118553D01*
X268120Y-118947D01*
Y-119199D01*
X267857Y-119593D01*
X267764Y-120057D01*
X267857Y-120522D01*
X268120Y-120916D01*
Y-121168D01*
X267857Y-121561D01*
X267764Y-122026D01*
X267857Y-122491D01*
X268068Y-123010D01*
X267857Y-123530D01*
X267764Y-123995D01*
X267857Y-124459D01*
X268120Y-124853D01*
Y-125105D01*
X267857Y-125498D01*
X267764Y-125963D01*
X267857Y-126427D01*
X268068Y-126947D01*
X267857Y-127467D01*
X267764Y-127931D01*
X267857Y-128396D01*
X268120Y-128790D01*
Y-129042D01*
X267857Y-129436D01*
X267764Y-129900D01*
X267857Y-130365D01*
X268120Y-130758D01*
Y-131010D01*
X267857Y-131404D01*
X267764Y-131869D01*
X267857Y-132333D01*
X268068Y-132853D01*
X267857Y-133372D01*
X267764Y-133837D01*
X267857Y-134301D01*
X268120Y-134695D01*
Y-134947D01*
X267857Y-135341D01*
X267764Y-135805D01*
X267857Y-136270D01*
X268068Y-136790D01*
X267857Y-137310D01*
X267764Y-137774D01*
X267857Y-138239D01*
X268120Y-138632D01*
Y-138884D01*
X267857Y-139278D01*
X267764Y-139743D01*
X267857Y-140207D01*
X268120Y-140601D01*
Y-140853D01*
X267857Y-141246D01*
X267764Y-141711D01*
X267857Y-142175D01*
X268068Y-142695D01*
X267857Y-143215D01*
X267764Y-143679D01*
X267857Y-144144D01*
X268120Y-144538D01*
Y-144790D01*
X267857Y-145184D01*
X267764Y-145648D01*
X267857Y-146113D01*
X268068Y-146632D01*
X267857Y-147152D01*
X267764Y-147617D01*
X267857Y-148081D01*
X268120Y-148475D01*
Y-148727D01*
X267857Y-149120D01*
X267764Y-149585D01*
X267857Y-150050D01*
X268120Y-150443D01*
Y-150695D01*
X267857Y-151089D01*
X267764Y-151553D01*
X267857Y-152018D01*
X268068Y-152538D01*
X267857Y-153058D01*
X267764Y-153522D01*
X267857Y-153987D01*
X268120Y-154380D01*
X268513Y-154643D01*
X268978Y-154736D01*
X276065D01*
X276529Y-154644D01*
X291158D01*
X298907Y-162393D01*
X298907Y-162393D01*
X299271Y-162636D01*
X299700Y-162722D01*
X299700Y-162722D01*
X306000D01*
X306000Y-162722D01*
X306429Y-162636D01*
X306793Y-162393D01*
X311943Y-157243D01*
X312186Y-156879D01*
X312272Y-156450D01*
X312271Y-156450D01*
Y-153258D01*
X312432Y-153141D01*
X313071Y-152958D01*
X314107Y-153993D01*
X320168D01*
Y-152129D01*
X320300Y-152022D01*
X326487D01*
X326500Y-152035D01*
Y-154169D01*
Y-159231D01*
X326435D01*
X325887Y-159778D01*
X324072D01*
X320168Y-155875D01*
Y-154993D01*
X314231D01*
Y-157658D01*
X316078D01*
Y-166824D01*
X315686Y-167086D01*
X315662Y-167121D01*
X315578Y-167178D01*
X315080Y-167922D01*
X315005Y-168300D01*
X317200D01*
Y-169300D01*
X315005D01*
X315080Y-169678D01*
X315578Y-170422D01*
X316322Y-170920D01*
X316533Y-170961D01*
X316566Y-170994D01*
Y-172731D01*
X315542D01*
Y-173559D01*
X314700D01*
X313881Y-173722D01*
X313186Y-174186D01*
X308602Y-178770D01*
X308225Y-178845D01*
X307398Y-179398D01*
X306845Y-180225D01*
X306750Y-180700D01*
X309200D01*
Y-181200D01*
X309700D01*
Y-183650D01*
X310175Y-183555D01*
X311002Y-183002D01*
X311555Y-182176D01*
X311630Y-181798D01*
X314797Y-178631D01*
X315542Y-178668D01*
Y-178668D01*
X315542Y-178668D01*
X318207D01*
Y-175700D01*
X319207D01*
Y-178668D01*
X321872D01*
Y-178360D01*
X322635Y-178269D01*
Y-178269D01*
X328165D01*
Y-176822D01*
X333100D01*
X333100Y-176822D01*
X333529Y-176736D01*
X333893Y-176493D01*
X335893Y-174493D01*
X335893Y-174493D01*
X336136Y-174129D01*
X336222Y-173700D01*
X336222Y-173700D01*
Y-167500D01*
X339979D01*
Y-178435D01*
X327185Y-191228D01*
X325998D01*
X325571Y-190428D01*
X325572Y-190427D01*
X325676Y-189900D01*
X325572Y-189373D01*
X325273Y-188927D01*
X324827Y-188628D01*
X324300Y-188524D01*
X323773Y-188628D01*
X323399Y-188878D01*
X301451D01*
X301227Y-188728D01*
X300700Y-188624D01*
X300173Y-188728D01*
X299727Y-189027D01*
X299428Y-189473D01*
X299324Y-190000D01*
X299409Y-190428D01*
X299342Y-190649D01*
X298935Y-191228D01*
X297650D01*
X297537Y-191251D01*
X297400Y-191224D01*
X296873Y-191328D01*
X296427Y-191627D01*
X296128Y-192073D01*
X296024Y-192600D01*
X296128Y-193127D01*
X296427Y-193573D01*
X296873Y-193872D01*
X297400Y-193976D01*
X297927Y-193872D01*
X298373Y-193573D01*
X298441Y-193472D01*
X327650D01*
X327650Y-193472D01*
X328079Y-193386D01*
X328443Y-193143D01*
X333366Y-188220D01*
X334189Y-188529D01*
X334228Y-188727D01*
X334527Y-189173D01*
X334973Y-189472D01*
X335500Y-189576D01*
X336027Y-189472D01*
X336473Y-189173D01*
X336772Y-188727D01*
X336824Y-188462D01*
X343762Y-181524D01*
X343762Y-181524D01*
X344005Y-181160D01*
X344091Y-180731D01*
X344091Y-180731D01*
Y-167634D01*
X344350Y-167375D01*
Y-162581D01*
X344425Y-162550D01*
X346600D01*
Y-160900D01*
X347100D01*
Y-160400D01*
X350600D01*
Y-160075D01*
X349775Y-159250D01*
X349700D01*
Y-156169D01*
Y-152035D01*
X350200Y-151535D01*
Y-150265D01*
X349565Y-149631D01*
X345059D01*
X344561Y-149439D01*
X344369Y-148941D01*
Y-144435D01*
X343735Y-143800D01*
X342465D01*
X342221Y-143699D01*
Y-142865D01*
X344365Y-140722D01*
X347900D01*
X347900Y-140722D01*
X348329Y-140636D01*
X348693Y-140393D01*
X350618Y-138469D01*
X352861D01*
X366063Y-151670D01*
Y-157453D01*
X375137D01*
Y-150347D01*
X369354D01*
X354365Y-135358D01*
Y-133332D01*
X354041D01*
Y-132485D01*
X354198Y-132306D01*
X354774Y-131918D01*
X355393Y-132041D01*
X366063D01*
Y-133453D01*
X375137D01*
Y-132041D01*
X413813D01*
X428452Y-146680D01*
Y-151631D01*
X427828D01*
Y-156769D01*
X433358D01*
X433358Y-156769D01*
Y-156769D01*
X434041Y-157069D01*
X435059Y-158087D01*
Y-168213D01*
X432486Y-170786D01*
X432022Y-171481D01*
X431859Y-172300D01*
Y-173461D01*
X431235D01*
Y-180764D01*
X436765D01*
Y-173461D01*
X436765D01*
X436667Y-172661D01*
X438714Y-170614D01*
X439178Y-169919D01*
X439341Y-169100D01*
Y-157200D01*
X439178Y-156381D01*
X438714Y-155686D01*
X435714Y-152686D01*
X435019Y-152222D01*
X434200Y-152059D01*
X433358D01*
Y-151631D01*
X432734D01*
Y-147934D01*
X448106D01*
X449452Y-149280D01*
Y-150766D01*
X449291Y-150927D01*
X448873Y-151177D01*
X448072Y-150932D01*
Y-150932D01*
X445873D01*
X445407Y-150839D01*
Y-153900D01*
X444907D01*
Y-154400D01*
X441742D01*
Y-156869D01*
X441746D01*
Y-159632D01*
X441735D01*
Y-162016D01*
X441181Y-162570D01*
X440606Y-163430D01*
X440404Y-164445D01*
Y-173061D01*
X439890D01*
Y-176613D01*
X443055D01*
Y-177113D01*
X443555D01*
Y-181164D01*
X446221D01*
Y-179763D01*
X453094D01*
X460439Y-187109D01*
Y-191931D01*
X460435D01*
Y-194400D01*
X463600D01*
Y-194900D01*
X464100D01*
Y-197961D01*
X464566Y-197869D01*
X466765D01*
Y-197869D01*
X467547Y-197913D01*
X467832Y-198132D01*
X467842Y-198154D01*
Y-201449D01*
X458398D01*
X447775Y-190825D01*
X446914Y-190251D01*
X445900Y-190049D01*
X433298D01*
X427596Y-184347D01*
Y-180764D01*
X427710D01*
Y-173461D01*
X428189Y-172860D01*
X432267Y-168782D01*
X432267Y-168782D01*
X432842Y-167922D01*
X433044Y-166907D01*
Y-165769D01*
X433158D01*
Y-160632D01*
X427628D01*
Y-165769D01*
X427171Y-166380D01*
X423070Y-170481D01*
X422496Y-171341D01*
X422294Y-172355D01*
Y-173461D01*
X422180D01*
Y-174462D01*
X415187D01*
X414173Y-174663D01*
X413313Y-175238D01*
X413126Y-175426D01*
X412551Y-176286D01*
X412349Y-177300D01*
X412551Y-178314D01*
X413126Y-179174D01*
X413985Y-179749D01*
X415000Y-179951D01*
X415942Y-179763D01*
X422180D01*
Y-180764D01*
X422294D01*
Y-185445D01*
X422496Y-186460D01*
X423070Y-187320D01*
X430326Y-194574D01*
X431185Y-195149D01*
X432200Y-195351D01*
X444802D01*
X455426Y-205975D01*
X455426Y-205975D01*
X456285Y-206549D01*
X457300Y-206751D01*
X469600D01*
X470614Y-206549D01*
X471475Y-205975D01*
X472367Y-205082D01*
X472942Y-204222D01*
X473144Y-203207D01*
Y-188568D01*
X473258D01*
Y-183431D01*
X470907D01*
X470493Y-183349D01*
X470078Y-183431D01*
X467765D01*
X467728Y-183431D01*
X466965Y-183340D01*
Y-183031D01*
X465301D01*
X457148Y-174878D01*
X456122Y-174193D01*
X455413Y-174051D01*
Y-177113D01*
X454413D01*
Y-174051D01*
X453703Y-174193D01*
X453300Y-174462D01*
X446221D01*
Y-173061D01*
X445706D01*
Y-165595D01*
X445838Y-165568D01*
X448065D01*
Y-165260D01*
X448828Y-165168D01*
X448865Y-165168D01*
X451133D01*
X464779Y-178814D01*
X465474Y-179278D01*
X466293Y-179441D01*
X474413D01*
X475459Y-180487D01*
Y-203713D01*
X469513Y-209659D01*
X426987D01*
X423241Y-205913D01*
Y-191600D01*
X423078Y-190781D01*
X422614Y-190086D01*
X415114Y-182586D01*
X414419Y-182122D01*
X413600Y-181959D01*
X385017D01*
X384197Y-182122D01*
X383503Y-182586D01*
X359449Y-206640D01*
X358617Y-206475D01*
X357114Y-206773D01*
X355841Y-207624D01*
X355417Y-208259D01*
X352958D01*
X352534Y-207624D01*
X351260Y-206773D01*
X349758Y-206475D01*
X348256Y-206773D01*
X346983Y-207624D01*
X346559Y-208259D01*
X344100D01*
X343676Y-207624D01*
X342402Y-206773D01*
X340900Y-206475D01*
X339398Y-206773D01*
X338124Y-207624D01*
X337700Y-208259D01*
X335241D01*
X334817Y-207624D01*
X333544Y-206773D01*
X332042Y-206475D01*
X330539Y-206773D01*
X329266Y-207624D01*
X328842Y-208259D01*
X326383D01*
X325959Y-207624D01*
X324686Y-206773D01*
X323183Y-206475D01*
X321681Y-206773D01*
X320408Y-207624D01*
X319984Y-208259D01*
X308987D01*
X293541Y-192813D01*
Y-179600D01*
X293378Y-178781D01*
X292914Y-178086D01*
X288821Y-173993D01*
X288126Y-173529D01*
X287307Y-173366D01*
X270369D01*
Y-172742D01*
X267344D01*
Y-163829D01*
X267436Y-163365D01*
Y-156278D01*
X267343Y-155813D01*
X267080Y-155420D01*
X266687Y-155157D01*
X266222Y-155064D01*
X265757Y-155157D01*
X265522Y-155314D01*
X265400Y-155131D01*
X264874Y-154780D01*
X264754Y-154756D01*
Y-159821D01*
X263754D01*
Y-154756D01*
X263633Y-154780D01*
X263107Y-155131D01*
X262985Y-155314D01*
X262750Y-155157D01*
X262285Y-155064D01*
X261821Y-155157D01*
X261427Y-155420D01*
X261175D01*
X260781Y-155157D01*
X260316Y-155064D01*
X259852Y-155157D01*
X259458Y-155420D01*
X259206D01*
X258813Y-155157D01*
X258348Y-155064D01*
X257884Y-155157D01*
X257490Y-155420D01*
X257238D01*
X256844Y-155157D01*
X256380Y-155064D01*
X255915Y-155157D01*
X255521Y-155420D01*
X255269D01*
X254876Y-155157D01*
X254411Y-155064D01*
X253946Y-155157D01*
X253553Y-155420D01*
X253301D01*
X252907Y-155157D01*
X252443Y-155064D01*
X251978Y-155157D01*
X251584Y-155420D01*
X251332D01*
X250939Y-155157D01*
X250474Y-155064D01*
X250009Y-155157D01*
X249616Y-155420D01*
X249364D01*
X248970Y-155157D01*
X248505Y-155064D01*
X248041Y-155157D01*
X247647Y-155420D01*
X247395D01*
X247002Y-155157D01*
X246537Y-155064D01*
X246073Y-155157D01*
X245679Y-155420D01*
X245427D01*
X245033Y-155157D01*
X244568Y-155064D01*
X244104Y-155157D01*
X243710Y-155420D01*
X243458D01*
X243064Y-155157D01*
X242600Y-155064D01*
X242136Y-155157D01*
X241742Y-155420D01*
X241490D01*
X241096Y-155157D01*
X240632Y-155064D01*
X240167Y-155157D01*
X239773Y-155420D01*
X239521D01*
X239127Y-155157D01*
X238663Y-155064D01*
X238198Y-155157D01*
X237805Y-155420D01*
X237553D01*
X237159Y-155157D01*
X236695Y-155064D01*
X236230Y-155157D01*
X235836Y-155420D01*
X235584D01*
X235191Y-155157D01*
X234726Y-155064D01*
X234261Y-155157D01*
X233868Y-155420D01*
X233616D01*
X233222Y-155157D01*
X232757Y-155064D01*
X232293Y-155157D01*
X231899Y-155420D01*
X231647D01*
X231254Y-155157D01*
X230789Y-155064D01*
X230324Y-155157D01*
X229931Y-155420D01*
X229679D01*
X229285Y-155157D01*
X228820Y-155064D01*
X228356Y-155157D01*
X227962Y-155420D01*
X227710D01*
X227316Y-155157D01*
X226852Y-155064D01*
X226387Y-155157D01*
X225994Y-155420D01*
X225742D01*
X225348Y-155157D01*
X224884Y-155064D01*
X224836Y-155073D01*
X224037Y-154523D01*
Y-149263D01*
X224037Y-149263D01*
X223951Y-148834D01*
X223708Y-148470D01*
X223708Y-148470D01*
X220099Y-144861D01*
Y-125022D01*
X220099Y-125022D01*
X220099Y-125022D01*
Y-115022D01*
X220099Y-115022D01*
X220099Y-115022D01*
Y-105758D01*
X220446Y-105488D01*
Y-99979D01*
X221446D01*
Y-105044D01*
D02*
G37*
G36*
X221793Y-149728D02*
Y-154042D01*
X221446Y-154312D01*
Y-159821D01*
X220446D01*
Y-154756D01*
X220326Y-154780D01*
X219800Y-155131D01*
X219678Y-155314D01*
X219443Y-155157D01*
X218978Y-155064D01*
X218513Y-155157D01*
X218120Y-155420D01*
X217857Y-155813D01*
X217764Y-156278D01*
Y-159449D01*
X214835Y-162378D01*
X209751D01*
X209527Y-162228D01*
X209000Y-162124D01*
X208473Y-162228D01*
X208421Y-162263D01*
X207622Y-161835D01*
Y-155865D01*
X208814Y-154672D01*
X209135Y-154736D01*
X216222D01*
X216687Y-154643D01*
X217080Y-154380D01*
X217343Y-153987D01*
X217436Y-153522D01*
X217343Y-153058D01*
X217132Y-152538D01*
X217343Y-152018D01*
X217436Y-151553D01*
X217343Y-151089D01*
X217080Y-150695D01*
Y-150443D01*
X217343Y-150050D01*
X217436Y-149585D01*
X217343Y-149120D01*
X217080Y-148727D01*
Y-148475D01*
X217343Y-148081D01*
X217436Y-147617D01*
X217427Y-147570D01*
X217977Y-146770D01*
X218835D01*
X221793Y-149728D01*
D02*
G37*
G36*
X154546Y-107554D02*
X156784Y-109791D01*
X157314Y-110145D01*
X157938Y-110269D01*
X160132D01*
Y-111703D01*
X161624D01*
Y-123710D01*
X161352Y-124117D01*
X161315Y-124300D01*
X163000D01*
Y-125300D01*
X161315D01*
X161352Y-125483D01*
X161624Y-125890D01*
Y-138435D01*
X160031D01*
Y-140224D01*
X158400D01*
X157873Y-140328D01*
X157427Y-140627D01*
X157427Y-140627D01*
X154227Y-143827D01*
X153928Y-144273D01*
X153824Y-144800D01*
Y-162330D01*
X152030Y-164124D01*
X63300D01*
X63300Y-164123D01*
X63212Y-164141D01*
X62753Y-163417D01*
X62971Y-163122D01*
X126400D01*
X126400Y-163122D01*
X126829Y-163036D01*
X127193Y-162793D01*
X132393Y-157593D01*
X132636Y-157229D01*
X132722Y-156800D01*
X132722Y-156800D01*
Y-149358D01*
X134169D01*
Y-143827D01*
X129032D01*
Y-146101D01*
X124743D01*
Y-140736D01*
Y-136406D01*
Y-132075D01*
Y-128064D01*
X127288Y-125519D01*
X128047Y-125319D01*
Y-125319D01*
X128047Y-125319D01*
X135153D01*
Y-123791D01*
X149140D01*
X149765Y-123667D01*
X150294Y-123313D01*
X153253Y-120353D01*
X153607Y-119824D01*
X153731Y-119200D01*
Y-107774D01*
X154531Y-107531D01*
X154546Y-107554D01*
D02*
G37*
G36*
X207409Y-125157D02*
X207931Y-125916D01*
X207922Y-125963D01*
X207931Y-126010D01*
X207381Y-126810D01*
X187869D01*
X187868Y-126810D01*
X187439Y-126895D01*
X187075Y-127138D01*
X187075Y-127138D01*
X184924Y-129290D01*
X184681Y-129654D01*
X184595Y-130083D01*
X184595Y-130083D01*
Y-133481D01*
X184331Y-133533D01*
X183156Y-134319D01*
X182370Y-135494D01*
X182095Y-136880D01*
Y-144264D01*
X179443Y-146916D01*
X165568D01*
Y-145528D01*
X165568D01*
X165660Y-144765D01*
X165969D01*
Y-142100D01*
X163000D01*
Y-141100D01*
X165969D01*
Y-138435D01*
X164376D01*
Y-125890D01*
X164648Y-125483D01*
X164721Y-125116D01*
X207336D01*
X207409Y-125157D01*
D02*
G37*
G36*
X251321Y-57407D02*
Y-89406D01*
X250796Y-89631D01*
X250521Y-89692D01*
X250127Y-89428D01*
X249862Y-89376D01*
X249093Y-88607D01*
X248729Y-88364D01*
X248300Y-88278D01*
X248300Y-88278D01*
X231051D01*
X230827Y-88128D01*
X230300Y-88024D01*
X229773Y-88128D01*
X229327Y-88427D01*
X229028Y-88873D01*
X228924Y-89400D01*
X229028Y-89927D01*
X229327Y-90373D01*
X229667Y-90601D01*
Y-94681D01*
X228867Y-95231D01*
X228820Y-95222D01*
X228356Y-95314D01*
X227836Y-95526D01*
X227316Y-95314D01*
X226852Y-95222D01*
X226387Y-95314D01*
X225868Y-95526D01*
X225348Y-95314D01*
X224884Y-95222D01*
X224419Y-95314D01*
X223899Y-95526D01*
X223379Y-95314D01*
X222915Y-95222D01*
X222868Y-95231D01*
X222109Y-94709D01*
X222068Y-94636D01*
Y-92618D01*
X223100Y-91586D01*
Y-90000D01*
X221514D01*
X220900Y-90614D01*
X220099Y-90283D01*
Y-85431D01*
X223031D01*
Y-86798D01*
X228169D01*
Y-85431D01*
X237032D01*
Y-86798D01*
X242168D01*
Y-83764D01*
X247168D01*
X247792Y-83640D01*
X248321Y-83286D01*
X248334Y-83267D01*
X248354Y-83254D01*
X248707Y-82724D01*
X248831Y-82100D01*
X248707Y-81476D01*
X248354Y-80946D01*
X247824Y-80593D01*
X247200Y-80469D01*
X247038Y-80501D01*
X242804D01*
X242168Y-80105D01*
Y-74574D01*
X240470D01*
Y-65653D01*
X241916D01*
Y-58547D01*
X241370D01*
X241039Y-57747D01*
X242265Y-56522D01*
X250435D01*
X251321Y-57407D01*
D02*
G37*
G36*
X274171Y-72000D02*
X274171Y-72000D01*
X274257Y-72429D01*
X274500Y-72793D01*
X274574Y-72867D01*
X274574Y-72867D01*
X275479Y-73772D01*
Y-74874D01*
X274031D01*
Y-80405D01*
X279169D01*
Y-74874D01*
X277722D01*
Y-73307D01*
X277813Y-73196D01*
X287601D01*
X288699Y-74294D01*
X288148Y-74874D01*
X283032D01*
Y-80405D01*
X288169D01*
X288169Y-80405D01*
Y-80405D01*
X288913Y-80338D01*
X290879Y-82304D01*
Y-110170D01*
X290078Y-110413D01*
X289962Y-110238D01*
X289383Y-109852D01*
X289200Y-109815D01*
Y-111500D01*
Y-113185D01*
X289383Y-113148D01*
X289962Y-112762D01*
X290078Y-112587D01*
X290879Y-112830D01*
Y-114831D01*
X287743Y-117966D01*
X287610Y-117955D01*
X286927Y-117651D01*
X286872Y-117373D01*
X286573Y-116927D01*
X286127Y-116628D01*
X285600Y-116524D01*
X285292Y-116585D01*
X285282Y-116584D01*
X284701Y-116220D01*
X284533Y-115435D01*
X284672Y-115227D01*
X284776Y-114700D01*
X284672Y-114173D01*
X284373Y-113727D01*
X283927Y-113428D01*
X283400Y-113324D01*
X282873Y-113428D01*
X282427Y-113727D01*
X282128Y-114173D01*
X282024Y-114700D01*
X282128Y-115227D01*
X282278Y-115451D01*
Y-116035D01*
X281347Y-116967D01*
X277819D01*
X277269Y-116167D01*
X277278Y-116121D01*
X277186Y-115656D01*
X276923Y-115262D01*
Y-115010D01*
X277186Y-114617D01*
X277278Y-114152D01*
X277186Y-113687D01*
X276974Y-113168D01*
X277186Y-112648D01*
X277278Y-112183D01*
X277186Y-111719D01*
X276923Y-111325D01*
Y-111073D01*
X277186Y-110679D01*
X277278Y-110215D01*
X277269Y-110168D01*
X277791Y-109409D01*
X277864Y-109368D01*
X282789D01*
X285714Y-112293D01*
X286078Y-112536D01*
X286507Y-112622D01*
X286507Y-112622D01*
X287345D01*
X287438Y-112762D01*
X288017Y-113148D01*
X288200Y-113185D01*
Y-111500D01*
Y-109815D01*
X288017Y-109852D01*
X287438Y-110238D01*
X286654Y-110061D01*
X285459Y-108865D01*
X285790Y-108065D01*
X286100D01*
Y-104900D01*
X286600D01*
Y-104400D01*
X289568D01*
Y-101735D01*
X289260D01*
X289169Y-100972D01*
X289169D01*
Y-95442D01*
X288231D01*
Y-84332D01*
X288169Y-84016D01*
Y-81567D01*
X283264D01*
X283032Y-81567D01*
X282399Y-81164D01*
X282254Y-80946D01*
X281724Y-80593D01*
X281100Y-80469D01*
X280476Y-80593D01*
X279946Y-80946D01*
X279881Y-81044D01*
X279777Y-81148D01*
X279169Y-81567D01*
Y-81567D01*
X279169Y-81567D01*
X274031D01*
Y-87098D01*
X279169D01*
Y-85964D01*
X283032D01*
Y-87098D01*
X284969D01*
Y-95442D01*
X284032D01*
Y-99882D01*
X278758Y-105156D01*
X276529D01*
X276065Y-105064D01*
X269930D01*
X269598Y-104264D01*
X272193Y-101669D01*
X272193Y-101669D01*
X272436Y-101305D01*
X272521Y-100876D01*
Y-66369D01*
X272724Y-65653D01*
X274171D01*
Y-72000D01*
D02*
G37*
G36*
X266265Y-66053D02*
X268579D01*
Y-95771D01*
X268128Y-96124D01*
X267284Y-95881D01*
X267080Y-95577D01*
X266687Y-95314D01*
X266222Y-95222D01*
X265757Y-95314D01*
X265238Y-95526D01*
X264718Y-95314D01*
X264253Y-95222D01*
X264207Y-95231D01*
X263407Y-94681D01*
Y-66053D01*
X265265D01*
Y-62100D01*
X266265D01*
Y-66053D01*
D02*
G37*
G36*
X268579Y-43665D02*
Y-50369D01*
X267778Y-50612D01*
X267542Y-50258D01*
X266880Y-49816D01*
X266600Y-49760D01*
Y-51700D01*
X266100D01*
Y-52200D01*
X264134D01*
Y-58147D01*
X263129D01*
X263078Y-58071D01*
X255630Y-50624D01*
X255266Y-50380D01*
X254837Y-50295D01*
X254837Y-50295D01*
X222584D01*
X222584Y-50295D01*
X222154Y-50380D01*
X221790Y-50624D01*
X221790Y-50624D01*
X215720Y-56694D01*
X215477Y-57057D01*
X215392Y-57487D01*
X215392Y-57487D01*
Y-58547D01*
X213945D01*
Y-65653D01*
X215392D01*
Y-74742D01*
X212732D01*
Y-80273D01*
X217868D01*
Y-74742D01*
X217635D01*
Y-65653D01*
X219082D01*
Y-58547D01*
X218127D01*
X217839Y-57747D01*
X223048Y-52538D01*
X228531D01*
X228837Y-53277D01*
X225563Y-56551D01*
X225320Y-56915D01*
X225234Y-57344D01*
X225234Y-57344D01*
Y-58547D01*
X223787D01*
Y-65653D01*
X225234D01*
Y-74574D01*
X223031D01*
Y-80105D01*
X228169D01*
Y-74574D01*
X227478D01*
Y-65653D01*
X228924D01*
Y-58547D01*
X227626D01*
X227539Y-57747D01*
X231048Y-54238D01*
X240244D01*
X240576Y-55038D01*
X238555Y-57059D01*
X238312Y-57423D01*
X238227Y-57852D01*
X237933Y-58547D01*
X236779D01*
Y-65653D01*
X238227D01*
Y-74574D01*
X237032D01*
Y-80105D01*
X237828D01*
X238202Y-80905D01*
X237898Y-81267D01*
X237032D01*
Y-82169D01*
X228169D01*
Y-81267D01*
X223031D01*
Y-82169D01*
X217868D01*
Y-81435D01*
X212732D01*
Y-86965D01*
X217856D01*
Y-95971D01*
X217764Y-96435D01*
Y-103522D01*
X217856Y-103986D01*
Y-105141D01*
X217203Y-105376D01*
X217056Y-105404D01*
X216687Y-105157D01*
X216222Y-105064D01*
X209135D01*
X208671Y-105156D01*
X206951D01*
X201622Y-99827D01*
Y-37000D01*
X201536Y-36571D01*
X201293Y-36207D01*
X201293Y-36207D01*
X172672Y-7585D01*
Y-2250D01*
X172586Y-1821D01*
X172343Y-1457D01*
X172343Y-1457D01*
X168393Y2493D01*
X168029Y2736D01*
X167600Y2822D01*
X167600Y2822D01*
X156800D01*
X156371Y2736D01*
X156007Y2493D01*
X156007Y2493D01*
X154307Y793D01*
X154064Y429D01*
X153978Y0D01*
X153978Y-0D01*
Y-2909D01*
X153816Y-3018D01*
X153422Y-3607D01*
X153284Y-4302D01*
Y-10601D01*
X153422Y-11296D01*
X153816Y-11885D01*
X154405Y-12279D01*
X155100Y-12417D01*
X155795Y-12279D01*
X156384Y-11885D01*
X156778Y-11296D01*
X156916Y-10601D01*
Y-4302D01*
X156778Y-3607D01*
X156384Y-3018D01*
X156222Y-2909D01*
Y-465D01*
X157265Y579D01*
X159747D01*
X160053Y-161D01*
X159307Y-907D01*
X159064Y-1271D01*
X158978Y-1700D01*
X158978Y-1700D01*
Y-2909D01*
X158816Y-3018D01*
X158422Y-3607D01*
X158284Y-4302D01*
Y-10601D01*
X158422Y-11296D01*
X158816Y-11885D01*
X159405Y-12279D01*
X160100Y-12417D01*
X160795Y-12279D01*
X161384Y-11885D01*
X161778Y-11296D01*
X161916Y-10601D01*
Y-4302D01*
X161778Y-3607D01*
X161384Y-3018D01*
X161273Y-2943D01*
X161229Y-2157D01*
X162265Y-1122D01*
X166035D01*
X168428Y-3515D01*
Y-8148D01*
X167689Y-8454D01*
X166916Y-7681D01*
Y-4302D01*
X166778Y-3607D01*
X166384Y-3018D01*
X165795Y-2624D01*
X165100Y-2486D01*
X164405Y-2624D01*
X163816Y-3018D01*
X163422Y-3607D01*
X163284Y-4302D01*
Y-10601D01*
X163422Y-11296D01*
X163816Y-11885D01*
X164405Y-12279D01*
X165100Y-12417D01*
X165795Y-12279D01*
X166384Y-11885D01*
X166557Y-11626D01*
X167503Y-11440D01*
X195778Y-39716D01*
Y-101500D01*
X195778Y-101500D01*
X195864Y-101929D01*
X196107Y-102293D01*
X204822Y-111008D01*
X204822Y-111008D01*
X205186Y-111251D01*
X205615Y-111337D01*
X207381D01*
X207931Y-112136D01*
X207922Y-112183D01*
X208014Y-112648D01*
X208226Y-113168D01*
X208014Y-113687D01*
X207922Y-114152D01*
X208014Y-114617D01*
X208277Y-115010D01*
Y-115262D01*
X208014Y-115656D01*
X207922Y-116121D01*
X208014Y-116585D01*
X208226Y-117105D01*
X208014Y-117624D01*
X207922Y-118089D01*
X208014Y-118553D01*
X208277Y-118947D01*
Y-119199D01*
X208014Y-119593D01*
X207922Y-120057D01*
X208014Y-120522D01*
X208277Y-120916D01*
Y-121168D01*
X208014Y-121561D01*
X207922Y-122026D01*
X207931Y-122073D01*
X207409Y-122832D01*
X207336Y-122873D01*
X164376D01*
Y-111703D01*
X166068D01*
Y-109038D01*
X163100D01*
Y-108038D01*
X166068D01*
Y-105372D01*
X165760D01*
X165668Y-104610D01*
X165668Y-104572D01*
Y-103221D01*
X179409D01*
X182061Y-105873D01*
Y-113258D01*
X182336Y-114644D01*
X183122Y-115819D01*
X184297Y-116604D01*
X185683Y-116880D01*
X187069Y-116604D01*
X188244Y-115819D01*
X189030Y-114644D01*
X189305Y-113258D01*
Y-101840D01*
X189030Y-100454D01*
X188244Y-99279D01*
X187069Y-98494D01*
X185683Y-98218D01*
X184297Y-98494D01*
X183122Y-99279D01*
X182336Y-100454D01*
X182225Y-101013D01*
X181357Y-101277D01*
X180952Y-100872D01*
X180506Y-100573D01*
X179979Y-100468D01*
X165668D01*
Y-99080D01*
X160531D01*
Y-104572D01*
X160531Y-104610D01*
X160440Y-105372D01*
X160132D01*
Y-107006D01*
X158614D01*
X157331Y-105724D01*
Y-97776D01*
X165654Y-89454D01*
X166007Y-88924D01*
X166131Y-88300D01*
Y-80017D01*
X166302Y-79902D01*
X166855Y-79075D01*
X166949Y-78600D01*
X162050D01*
X162145Y-79075D01*
X162698Y-79902D01*
X162869Y-80017D01*
Y-87624D01*
X154546Y-95947D01*
X154531Y-95969D01*
X153731Y-95726D01*
Y-93803D01*
X153831Y-93300D01*
X153707Y-92676D01*
X153354Y-92146D01*
X153052Y-91945D01*
X124931Y-63824D01*
Y-47476D01*
X139753Y-32653D01*
X140107Y-32124D01*
X140231Y-31500D01*
Y-27980D01*
X148284D01*
Y-29498D01*
X148422Y-30193D01*
X148816Y-30782D01*
X149405Y-31176D01*
X150100Y-31314D01*
X150795Y-31176D01*
X151384Y-30782D01*
X151778Y-30193D01*
X151916Y-29498D01*
Y-23199D01*
X151778Y-22504D01*
X151384Y-21915D01*
X150795Y-21521D01*
X150100Y-21383D01*
X149405Y-21521D01*
X148816Y-21915D01*
X148422Y-22504D01*
X148284Y-23199D01*
Y-24717D01*
X140231D01*
Y-15799D01*
X142153D01*
Y-9481D01*
X135047D01*
Y-15799D01*
X136969D01*
Y-25900D01*
Y-30824D01*
X122624Y-45169D01*
X85276D01*
X82321Y-42214D01*
X81792Y-41860D01*
X81168Y-41736D01*
X52569D01*
Y-40602D01*
X47431D01*
Y-46133D01*
X52569D01*
Y-44999D01*
X80492D01*
X83447Y-47954D01*
X83976Y-48307D01*
X84600Y-48431D01*
X84600Y-48431D01*
X121669D01*
Y-64500D01*
X121793Y-65124D01*
X122146Y-65654D01*
X150469Y-93976D01*
Y-118524D01*
X148465Y-120528D01*
X135718D01*
X135153Y-119963D01*
Y-119001D01*
X135911Y-118900D01*
X143500D01*
Y-101600D01*
X127300Y-85400D01*
X91400D01*
X79300Y-73300D01*
X47100D01*
X47089Y-75769D01*
X39783D01*
Y-72524D01*
X40076Y-72231D01*
X88342D01*
Y-73553D01*
X88613Y-75612D01*
X89408Y-77532D01*
X90673Y-79180D01*
X92321Y-80444D01*
X94240Y-81239D01*
X95800Y-81445D01*
Y-70600D01*
Y-59755D01*
X94240Y-59961D01*
X92321Y-60756D01*
X90673Y-62020D01*
X89408Y-63668D01*
X88613Y-65588D01*
X88342Y-67647D01*
Y-68969D01*
X39400D01*
X38776Y-69093D01*
X38247Y-69446D01*
X36998Y-70695D01*
X36644Y-71224D01*
X36520Y-71849D01*
Y-77017D01*
X34324D01*
X30431Y-73124D01*
Y-29226D01*
X33907Y-25750D01*
X34600D01*
Y-22250D01*
Y-18750D01*
X32481D01*
X32175Y-18011D01*
X55865Y5678D01*
X219235D01*
X268579Y-43665D01*
D02*
G37*
%LPC*%
G36*
X233022Y-206627D02*
Y-216498D01*
X242893D01*
X242742Y-214966D01*
X242149Y-213011D01*
X241186Y-211209D01*
X239890Y-209630D01*
X238311Y-208334D01*
X236510Y-207371D01*
X234555Y-206778D01*
X233022Y-206627D01*
D02*
G37*
G36*
X107290Y-207404D02*
X105758Y-207709D01*
X104459Y-208577D01*
X103591Y-209876D01*
X103286Y-211408D01*
X103591Y-212940D01*
X104459Y-214239D01*
X105758Y-215107D01*
X107290Y-215412D01*
X108822Y-215107D01*
X110121Y-214239D01*
X110989Y-212940D01*
X111293Y-211408D01*
X110989Y-209876D01*
X110121Y-208577D01*
X108822Y-207709D01*
X107290Y-207404D01*
D02*
G37*
G36*
X96420D02*
X94888Y-207709D01*
X93589Y-208577D01*
X92721Y-209876D01*
X92416Y-211408D01*
X92721Y-212940D01*
X93589Y-214239D01*
X94888Y-215107D01*
X96420Y-215412D01*
X97952Y-215107D01*
X99251Y-214239D01*
X100119Y-212940D01*
X100423Y-211408D01*
X100119Y-209876D01*
X99251Y-208577D01*
X97952Y-207709D01*
X96420Y-207404D01*
D02*
G37*
G36*
X232022Y-206627D02*
X230489Y-206778D01*
X228534Y-207371D01*
X226733Y-208334D01*
X225154Y-209630D01*
X223858Y-211209D01*
X222895Y-213011D01*
X222302Y-214966D01*
X222151Y-216498D01*
X232022D01*
Y-206627D01*
D02*
G37*
G36*
X154143Y-69880D02*
X147057D01*
X145901Y-70110D01*
X144921Y-70764D01*
X144266Y-71744D01*
X144036Y-72900D01*
X144266Y-74056D01*
X144921Y-75036D01*
X145901Y-75690D01*
X147057Y-75920D01*
X154143D01*
X155299Y-75690D01*
X156279Y-75036D01*
X156934Y-74056D01*
X157164Y-72900D01*
X156934Y-71744D01*
X156279Y-70764D01*
X155299Y-70110D01*
X154143Y-69880D01*
D02*
G37*
G36*
X248649Y-58547D02*
X243512D01*
Y-61686D01*
X243429Y-62100D01*
Y-70580D01*
X243631Y-71595D01*
X244206Y-72455D01*
X244426Y-72675D01*
X245286Y-73249D01*
X246300Y-73451D01*
X247315Y-73249D01*
X248175Y-72675D01*
X248749Y-71815D01*
X248951Y-70800D01*
X248749Y-69785D01*
X248731Y-69759D01*
Y-62100D01*
X248649Y-61686D01*
Y-58547D01*
D02*
G37*
G36*
X234073Y-77300D02*
X232800D01*
Y-78485D01*
X232983Y-78448D01*
X233562Y-78062D01*
X233948Y-77483D01*
X233955Y-77453D01*
X234005Y-77402D01*
X234073Y-77300D01*
D02*
G37*
G36*
X235821Y-62600D02*
X229884D01*
Y-66053D01*
X231221D01*
Y-75416D01*
X231038Y-75538D01*
X230651Y-76117D01*
X230615Y-76300D01*
X234473D01*
X234483Y-76248D01*
Y-66053D01*
X235821D01*
Y-62600D01*
D02*
G37*
G36*
X327542Y-196475D02*
X326040Y-196773D01*
X324766Y-197624D01*
X323915Y-198898D01*
X323616Y-200400D01*
X323915Y-201902D01*
X324766Y-203176D01*
X326040Y-204027D01*
X327542Y-204325D01*
X329044Y-204027D01*
X330317Y-203176D01*
X331168Y-201902D01*
X331467Y-200400D01*
X331168Y-198898D01*
X330317Y-197624D01*
X329044Y-196773D01*
X327542Y-196475D01*
D02*
G37*
G36*
X318684D02*
X317181Y-196773D01*
X315908Y-197624D01*
X315057Y-198898D01*
X314758Y-200400D01*
X315057Y-201902D01*
X315908Y-203176D01*
X317181Y-204027D01*
X318684Y-204325D01*
X320186Y-204027D01*
X321459Y-203176D01*
X322310Y-201902D01*
X322609Y-200400D01*
X322310Y-198898D01*
X321459Y-197624D01*
X320186Y-196773D01*
X318684Y-196475D01*
D02*
G37*
G36*
X345258D02*
X343756Y-196773D01*
X342483Y-197624D01*
X341632Y-198898D01*
X341333Y-200400D01*
X341632Y-201902D01*
X342483Y-203176D01*
X343756Y-204027D01*
X345258Y-204325D01*
X346761Y-204027D01*
X348034Y-203176D01*
X348885Y-201902D01*
X349184Y-200400D01*
X348885Y-198898D01*
X348034Y-197624D01*
X346761Y-196773D01*
X345258Y-196475D01*
D02*
G37*
G36*
X336400D02*
X334898Y-196773D01*
X333624Y-197624D01*
X332773Y-198898D01*
X332475Y-200400D01*
X332773Y-201902D01*
X333624Y-203176D01*
X334898Y-204027D01*
X336400Y-204325D01*
X337902Y-204027D01*
X339176Y-203176D01*
X340027Y-201902D01*
X340325Y-200400D01*
X340027Y-198898D01*
X339176Y-197624D01*
X337902Y-196773D01*
X336400Y-196475D01*
D02*
G37*
G36*
X441391Y-200036D02*
X426609D01*
Y-207339D01*
X441391D01*
Y-200036D01*
D02*
G37*
G36*
X131900Y-81751D02*
Y-83700D01*
X133850D01*
X133755Y-83224D01*
X133202Y-82398D01*
X132376Y-81845D01*
X131900Y-81751D01*
D02*
G37*
G36*
X231800Y-77300D02*
X230615D01*
X230651Y-77483D01*
X231038Y-78062D01*
X231617Y-78448D01*
X231800Y-78485D01*
Y-77300D01*
D02*
G37*
G36*
X133850Y-84700D02*
X131900D01*
Y-86650D01*
X132376Y-86555D01*
X133202Y-86002D01*
X133755Y-85176D01*
X133850Y-84700D01*
D02*
G37*
G36*
X96800Y-59755D02*
Y-70600D01*
Y-81445D01*
X98360Y-81239D01*
X100279Y-80444D01*
X101927Y-79180D01*
X103192Y-77532D01*
X103987Y-75612D01*
X104258Y-73553D01*
Y-72231D01*
X117124D01*
X128593Y-83700D01*
X130900D01*
Y-81393D01*
X118954Y-69446D01*
X118424Y-69093D01*
X117800Y-68969D01*
X104258D01*
Y-67647D01*
X103987Y-65588D01*
X103192Y-63668D01*
X101927Y-62020D01*
X100279Y-60756D01*
X98360Y-59961D01*
X96800Y-59755D01*
D02*
G37*
G36*
X90985Y-218585D02*
X89452Y-218890D01*
X88154Y-219758D01*
X87286Y-221057D01*
X86981Y-222589D01*
X87286Y-224121D01*
X88154Y-225420D01*
X89452Y-226288D01*
X90985Y-226593D01*
X92517Y-226288D01*
X93816Y-225420D01*
X94684Y-224121D01*
X94988Y-222589D01*
X94684Y-221057D01*
X93816Y-219758D01*
X92517Y-218890D01*
X90985Y-218585D01*
D02*
G37*
G36*
X80115D02*
X78582Y-218890D01*
X77284Y-219758D01*
X76416Y-221057D01*
X76111Y-222589D01*
X76416Y-224121D01*
X77284Y-225420D01*
X78582Y-226288D01*
X80115Y-226593D01*
X81647Y-226288D01*
X82946Y-225420D01*
X83814Y-224121D01*
X84118Y-222589D01*
X83814Y-221057D01*
X82946Y-219758D01*
X81647Y-218890D01*
X80115Y-218585D01*
D02*
G37*
G36*
X112725D02*
X111193Y-218890D01*
X109894Y-219758D01*
X109026Y-221057D01*
X108721Y-222589D01*
X109026Y-224121D01*
X109894Y-225420D01*
X111193Y-226288D01*
X112725Y-226593D01*
X114257Y-226288D01*
X115556Y-225420D01*
X116424Y-224121D01*
X116728Y-222589D01*
X116424Y-221057D01*
X115556Y-219758D01*
X114257Y-218890D01*
X112725Y-218585D01*
D02*
G37*
G36*
X101855D02*
X100323Y-218890D01*
X99024Y-219758D01*
X98156Y-221057D01*
X97851Y-222589D01*
X98156Y-224121D01*
X99024Y-225420D01*
X100323Y-226288D01*
X101855Y-226593D01*
X103387Y-226288D01*
X104686Y-225420D01*
X105554Y-224121D01*
X105858Y-222589D01*
X105554Y-221057D01*
X104686Y-219758D01*
X103387Y-218890D01*
X101855Y-218585D01*
D02*
G37*
G36*
X242893Y-217498D02*
X233022D01*
Y-227369D01*
X234555Y-227219D01*
X236510Y-226625D01*
X238311Y-225663D01*
X239890Y-224367D01*
X241186Y-222788D01*
X242149Y-220986D01*
X242742Y-219031D01*
X242893Y-217498D01*
D02*
G37*
G36*
X265600Y-49760D02*
X265320Y-49816D01*
X264658Y-50258D01*
X264216Y-50920D01*
X264160Y-51200D01*
X265600D01*
Y-49760D01*
D02*
G37*
G36*
X96300Y-32952D02*
X94838Y-33144D01*
X93476Y-33708D01*
X92306Y-34606D01*
X91408Y-35776D01*
X90844Y-37138D01*
X90652Y-38600D01*
X90844Y-40062D01*
X91408Y-41424D01*
X92306Y-42594D01*
X93476Y-43492D01*
X94838Y-44056D01*
X96300Y-44248D01*
X97762Y-44056D01*
X99124Y-43492D01*
X100294Y-42594D01*
X101192Y-41424D01*
X101756Y-40062D01*
X101948Y-38600D01*
X101756Y-37138D01*
X101192Y-35776D01*
X100294Y-34606D01*
X99124Y-33708D01*
X97762Y-33144D01*
X96300Y-32952D01*
D02*
G37*
G36*
X232022Y-217498D02*
X222151D01*
X222302Y-219031D01*
X222895Y-220986D01*
X223858Y-222788D01*
X225154Y-224367D01*
X226733Y-225663D01*
X228534Y-226625D01*
X230489Y-227219D01*
X232022Y-227369D01*
Y-217498D01*
D02*
G37*
G36*
X39100Y-18750D02*
X35600D01*
Y-22250D01*
Y-25750D01*
X39100D01*
Y-24339D01*
X47431D01*
Y-25872D01*
X47740D01*
X47831Y-26635D01*
X47831Y-26673D01*
Y-30382D01*
X34307Y-43907D01*
X34064Y-44271D01*
X33978Y-44700D01*
X33978Y-44700D01*
Y-47650D01*
X31500D01*
Y-53850D01*
X33978D01*
Y-60259D01*
X33727Y-60427D01*
X33428Y-60873D01*
X33324Y-61400D01*
X33428Y-61927D01*
X33727Y-62373D01*
X34173Y-62672D01*
X34700Y-62776D01*
X35227Y-62672D01*
X35673Y-62373D01*
X35972Y-61927D01*
X36043Y-61569D01*
X36136Y-61429D01*
X36222Y-61000D01*
X36222Y-61000D01*
Y-53850D01*
X38700D01*
Y-51182D01*
X47431D01*
Y-52826D01*
X52569D01*
Y-47295D01*
X47431D01*
Y-48939D01*
X38700D01*
Y-47650D01*
X36222D01*
Y-45165D01*
X49221Y-32165D01*
X52969D01*
Y-26673D01*
X52969Y-26635D01*
X53060Y-25872D01*
X53369D01*
Y-23207D01*
X50400D01*
Y-22707D01*
X49900D01*
Y-19542D01*
X47431D01*
Y-21076D01*
X39100D01*
Y-18750D01*
D02*
G37*
G36*
X123595Y-218585D02*
X122063Y-218890D01*
X120764Y-219758D01*
X119896Y-221057D01*
X119591Y-222589D01*
X119896Y-224121D01*
X120764Y-225420D01*
X122063Y-226288D01*
X123595Y-226593D01*
X125127Y-226288D01*
X126426Y-225420D01*
X127294Y-224121D01*
X127599Y-222589D01*
X127294Y-221057D01*
X126426Y-219758D01*
X125127Y-218890D01*
X123595Y-218585D01*
D02*
G37*
G36*
X137100Y-63400D02*
X134632D01*
Y-66065D01*
X137100D01*
Y-63400D01*
D02*
G37*
G36*
X160100Y-21383D02*
X159405Y-21521D01*
X158816Y-21915D01*
X158422Y-22504D01*
X158284Y-23199D01*
Y-29498D01*
X158422Y-30193D01*
X158816Y-30782D01*
X158978Y-30891D01*
Y-34798D01*
X158793Y-35076D01*
X158669Y-35700D01*
X158793Y-36324D01*
X159146Y-36854D01*
X159676Y-37207D01*
X160300Y-37331D01*
X160924Y-37207D01*
X161453Y-36854D01*
X161807Y-36324D01*
X161931Y-35700D01*
X161807Y-35076D01*
X161453Y-34547D01*
X161222Y-34391D01*
Y-30891D01*
X161384Y-30782D01*
X161778Y-30193D01*
X161916Y-29498D01*
Y-23199D01*
X161778Y-22504D01*
X161384Y-21915D01*
X160795Y-21521D01*
X160100Y-21383D01*
D02*
G37*
G36*
X242340Y-34100D02*
X240900D01*
Y-35540D01*
X241180Y-35484D01*
X241842Y-35042D01*
X242284Y-34380D01*
X242340Y-34100D01*
D02*
G37*
G36*
X239900D02*
X238460D01*
X238516Y-34380D01*
X238958Y-35042D01*
X239620Y-35484D01*
X239900Y-35540D01*
Y-34100D01*
D02*
G37*
G36*
X209239Y-58547D02*
X204102D01*
Y-65653D01*
X209239D01*
Y-58547D01*
D02*
G37*
G36*
X155100Y-21383D02*
X154405Y-21521D01*
X153816Y-21915D01*
X153422Y-22504D01*
X153284Y-23199D01*
Y-29498D01*
X153422Y-30193D01*
X153816Y-30782D01*
X153978Y-30891D01*
Y-38363D01*
X151575D01*
Y-47437D01*
X157488D01*
X162693Y-52642D01*
X162361Y-53442D01*
X162031D01*
Y-58935D01*
X162031Y-58973D01*
X161940Y-59735D01*
X161632D01*
Y-61269D01*
X140568D01*
Y-59735D01*
X140260D01*
X140168Y-58973D01*
X140168Y-58935D01*
Y-53442D01*
X139022D01*
Y-52128D01*
X143712Y-47437D01*
X149625D01*
Y-41297D01*
X149807Y-41024D01*
X149931Y-40400D01*
X149807Y-39776D01*
X149625Y-39503D01*
Y-38363D01*
X143701D01*
Y-44276D01*
X137107Y-50870D01*
X136864Y-51234D01*
X136778Y-51663D01*
X136778Y-51663D01*
Y-53442D01*
X135031D01*
Y-58935D01*
X135031Y-58973D01*
X134940Y-59735D01*
X134632D01*
Y-62400D01*
X137600D01*
Y-62900D01*
X138100D01*
Y-66065D01*
X140568D01*
Y-64531D01*
X161632D01*
Y-66065D01*
X162969D01*
Y-76117D01*
X162698Y-76298D01*
X162145Y-77125D01*
X162050Y-77600D01*
X167307D01*
X174453Y-70454D01*
X174807Y-69924D01*
X174931Y-69300D01*
Y-48400D01*
X174807Y-47776D01*
X174453Y-47247D01*
X166731Y-39524D01*
Y-30983D01*
X167155Y-30349D01*
X167324Y-29498D01*
Y-26849D01*
X162876D01*
Y-29498D01*
X163046Y-30349D01*
X163469Y-30983D01*
Y-40200D01*
X163593Y-40824D01*
X163946Y-41353D01*
X171669Y-49076D01*
Y-68624D01*
X166971Y-73322D01*
X166231Y-73016D01*
Y-66065D01*
X167569D01*
Y-63400D01*
X164600D01*
Y-62400D01*
X167569D01*
Y-59735D01*
X167260D01*
X167168Y-58973D01*
X167168Y-58935D01*
Y-53442D01*
X166291D01*
X165722Y-52963D01*
X165636Y-52534D01*
X165393Y-52170D01*
X165393Y-52170D01*
X157499Y-44276D01*
Y-38363D01*
X156222D01*
Y-30891D01*
X156384Y-30782D01*
X156778Y-30193D01*
X156916Y-29498D01*
Y-23199D01*
X156778Y-22504D01*
X156384Y-21915D01*
X155795Y-21521D01*
X155100Y-21383D01*
D02*
G37*
G36*
X96300Y-50544D02*
X95221Y-50759D01*
X94306Y-51370D01*
X93695Y-52285D01*
X93480Y-53364D01*
X93695Y-54443D01*
X94306Y-55357D01*
X95221Y-55969D01*
X96300Y-56183D01*
X97379Y-55969D01*
X98294Y-55357D01*
X98905Y-54443D01*
X99120Y-53364D01*
X98905Y-52285D01*
X98294Y-51370D01*
X97379Y-50759D01*
X96300Y-50544D01*
D02*
G37*
G36*
X232352Y-58147D02*
X229884D01*
Y-61600D01*
X232352D01*
Y-58147D01*
D02*
G37*
G36*
X235821D02*
X233352D01*
Y-61600D01*
X235821D01*
Y-58147D01*
D02*
G37*
G36*
X357966Y-196550D02*
X350267D01*
Y-204250D01*
X357966D01*
Y-196550D01*
D02*
G37*
G36*
X164600Y-21075D02*
X164249Y-21145D01*
X163528Y-21627D01*
X163046Y-22348D01*
X162876Y-23199D01*
Y-25849D01*
X164600D01*
Y-21075D01*
D02*
G37*
G36*
X289568Y-105400D02*
X287100D01*
Y-108065D01*
X289568D01*
Y-105400D01*
D02*
G37*
G36*
X165600Y-21075D02*
Y-25849D01*
X167324D01*
Y-23199D01*
X167155Y-22348D01*
X166673Y-21627D01*
X165951Y-21145D01*
X165600Y-21075D01*
D02*
G37*
G36*
X410453Y-149063D02*
X403347D01*
Y-158137D01*
X410453D01*
Y-155741D01*
X421135D01*
Y-156769D01*
X426665D01*
Y-151631D01*
X424134D01*
X424119Y-151622D01*
X423300Y-151459D01*
X410453D01*
Y-149063D01*
D02*
G37*
G36*
X350600Y-161400D02*
X347600D01*
Y-162550D01*
X349775D01*
X350600Y-161725D01*
Y-161400D01*
D02*
G37*
G36*
X397073Y-154100D02*
X389168D01*
Y-158537D01*
X391189D01*
Y-163763D01*
X388868D01*
Y-168200D01*
X396773D01*
Y-163763D01*
X394452D01*
Y-158537D01*
X397073D01*
Y-154100D01*
D02*
G37*
G36*
X60940Y-170400D02*
X59500D01*
Y-171840D01*
X59780Y-171784D01*
X60442Y-171342D01*
X60884Y-170680D01*
X60940Y-170400D01*
D02*
G37*
G36*
X67740Y-25300D02*
X66300D01*
Y-26740D01*
X66580Y-26684D01*
X67242Y-26242D01*
X67684Y-25580D01*
X67740Y-25300D01*
D02*
G37*
G36*
X426465Y-160632D02*
X420935D01*
Y-162937D01*
X417313Y-166559D01*
X410153D01*
Y-164163D01*
X403047D01*
Y-173237D01*
X410153D01*
Y-170841D01*
X418200D01*
X419019Y-170678D01*
X419714Y-170214D01*
X424159Y-165769D01*
X426465D01*
Y-160632D01*
D02*
G37*
G36*
X135153Y-126481D02*
X128047D01*
Y-132799D01*
X130478D01*
Y-137135D01*
X129032D01*
Y-142665D01*
X134169D01*
Y-137135D01*
X132722D01*
Y-132799D01*
X135153D01*
Y-126481D01*
D02*
G37*
G36*
X53369Y-19542D02*
X50900D01*
Y-22207D01*
X53369D01*
Y-19542D01*
D02*
G37*
G36*
X100045Y3842D02*
X92555D01*
X88810Y98D01*
Y-4969D01*
X77516D01*
X77478Y-4781D01*
X77014Y-4086D01*
X76319Y-3622D01*
X75500Y-3459D01*
X74681Y-3622D01*
X73986Y-4086D01*
X73522Y-4781D01*
X73359Y-5600D01*
X73522Y-6419D01*
X73986Y-7114D01*
X74681Y-7578D01*
X75293Y-7700D01*
X75346Y-7754D01*
X75876Y-8107D01*
X76500Y-8231D01*
X88810D01*
Y-13298D01*
X92555Y-17042D01*
X100045D01*
X103790Y-13298D01*
Y-8231D01*
X135047D01*
Y-8319D01*
X142153D01*
Y-6791D01*
X147133D01*
X148284Y-7942D01*
Y-10601D01*
X148422Y-11296D01*
X148816Y-11885D01*
X149405Y-12279D01*
X150100Y-12417D01*
X150795Y-12279D01*
X151384Y-11885D01*
X151778Y-11296D01*
X151916Y-10601D01*
Y-4302D01*
X151778Y-3607D01*
X151384Y-3018D01*
X150795Y-2624D01*
X150100Y-2486D01*
X149405Y-2624D01*
X148816Y-3018D01*
X148422Y-3607D01*
X148372Y-3641D01*
X147809Y-3528D01*
X142153D01*
Y-2001D01*
X135047D01*
Y-4969D01*
X103790D01*
Y98D01*
X100045Y3842D01*
D02*
G37*
G36*
X375137Y-136568D02*
X366063D01*
Y-137232D01*
X365960Y-137319D01*
X365263Y-137586D01*
X365027Y-137428D01*
X364500Y-137324D01*
X363973Y-137428D01*
X363527Y-137727D01*
X363228Y-138173D01*
X363123Y-138700D01*
X363228Y-139227D01*
X363527Y-139673D01*
X363973Y-139972D01*
X364058Y-139989D01*
X365055Y-140986D01*
X365452Y-141251D01*
X365920Y-141344D01*
X366063D01*
Y-143673D01*
X375137D01*
Y-136568D01*
D02*
G37*
G36*
X66300Y-22860D02*
Y-24300D01*
X67740D01*
X67684Y-24020D01*
X67242Y-23358D01*
X66580Y-22916D01*
X66300Y-22860D01*
D02*
G37*
G36*
X392620Y-148663D02*
X389168D01*
Y-153100D01*
X392620D01*
Y-148663D01*
D02*
G37*
G36*
X444407Y-150839D02*
X443941Y-150932D01*
X441742D01*
Y-153400D01*
X444407D01*
Y-150839D01*
D02*
G37*
G36*
X65300Y-22860D02*
X65020Y-22916D01*
X64358Y-23358D01*
X63916Y-24020D01*
X63860Y-24300D01*
X65300D01*
Y-22860D01*
D02*
G37*
G36*
X397073Y-148663D02*
X393620D01*
Y-153100D01*
X397073D01*
Y-148663D01*
D02*
G37*
G36*
X396773Y-169200D02*
X393320D01*
Y-173637D01*
X396773D01*
Y-169200D01*
D02*
G37*
G36*
X224100Y-87815D02*
Y-89000D01*
X225285D01*
X225249Y-88817D01*
X224862Y-88238D01*
X224283Y-87852D01*
X224100Y-87815D01*
D02*
G37*
G36*
X244500Y-185400D02*
X242032D01*
Y-188065D01*
X244500D01*
Y-185400D01*
D02*
G37*
G36*
X308700Y-181700D02*
X306750D01*
X306845Y-182176D01*
X307398Y-183002D01*
X308225Y-183555D01*
X308700Y-183650D01*
Y-181700D01*
D02*
G37*
G36*
X223100Y-87815D02*
X222917Y-87852D01*
X222338Y-88238D01*
X221952Y-88817D01*
X221915Y-89000D01*
X223100D01*
Y-87815D01*
D02*
G37*
G36*
X74101Y-186976D02*
X71451D01*
Y-188700D01*
X76225D01*
X76155Y-188349D01*
X75673Y-187627D01*
X74952Y-187145D01*
X74101Y-186976D01*
D02*
G37*
G36*
X130900Y-84700D02*
X128951D01*
X129045Y-85176D01*
X129598Y-86002D01*
X130424Y-86555D01*
X130900Y-86650D01*
Y-84700D01*
D02*
G37*
G36*
X463100Y-195400D02*
X460435D01*
Y-197869D01*
X462634D01*
X463100Y-197961D01*
Y-195400D01*
D02*
G37*
G36*
X70451Y-186976D02*
X67802D01*
X66951Y-187145D01*
X66229Y-187627D01*
X65747Y-188349D01*
X65677Y-188700D01*
X70451D01*
Y-186976D01*
D02*
G37*
G36*
X76225Y-189700D02*
X71451D01*
Y-191424D01*
X74101D01*
X74952Y-191254D01*
X75673Y-190772D01*
X76155Y-190051D01*
X76225Y-189700D01*
D02*
G37*
G36*
X210140Y-174700D02*
X208700D01*
Y-176140D01*
X208980Y-176084D01*
X209642Y-175642D01*
X210084Y-174980D01*
X210140Y-174700D01*
D02*
G37*
G36*
X65300Y-25300D02*
X63860D01*
X63916Y-25580D01*
X64358Y-26242D01*
X65020Y-26684D01*
X65300Y-26740D01*
Y-25300D01*
D02*
G37*
G36*
X392320Y-169200D02*
X388868D01*
Y-173637D01*
X392320D01*
Y-169200D01*
D02*
G37*
G36*
X74101Y-172384D02*
X67802D01*
X67107Y-172522D01*
X66518Y-172916D01*
X66124Y-173505D01*
X65986Y-174200D01*
X66124Y-174895D01*
X66518Y-175484D01*
X67107Y-175878D01*
X67802Y-176016D01*
X74101D01*
X74796Y-175878D01*
X75385Y-175484D01*
X75779Y-174895D01*
X75917Y-174200D01*
X75779Y-173505D01*
X75385Y-172916D01*
X74796Y-172522D01*
X74101Y-172384D01*
D02*
G37*
G36*
X96202Y-20214D02*
X94815Y-20490D01*
X93640Y-21275D01*
X92855Y-22450D01*
X92579Y-23836D01*
X92855Y-25222D01*
X93640Y-26398D01*
X94815Y-27183D01*
X96202Y-27459D01*
X97588Y-27183D01*
X98763Y-26398D01*
X99548Y-25222D01*
X99824Y-23836D01*
X99548Y-22450D01*
X98763Y-21275D01*
X97588Y-20490D01*
X96202Y-20214D01*
D02*
G37*
G36*
X239900Y-31660D02*
X239620Y-31716D01*
X238958Y-32158D01*
X238516Y-32820D01*
X238460Y-33100D01*
X239900D01*
Y-31660D01*
D02*
G37*
G36*
X225285Y-90000D02*
X224100D01*
Y-91185D01*
X224283Y-91149D01*
X224862Y-90762D01*
X225249Y-90183D01*
X225285Y-90000D01*
D02*
G37*
G36*
X442555Y-177613D02*
X439890D01*
Y-181164D01*
X442555D01*
Y-177613D01*
D02*
G37*
G36*
X240900Y-31660D02*
Y-33100D01*
X242340D01*
X242284Y-32820D01*
X241842Y-32158D01*
X241180Y-31716D01*
X240900Y-31660D01*
D02*
G37*
%LPD*%
D10*
X58600Y-88400D02*
D03*
Y-77400D02*
D03*
D11*
X62600Y-82900D02*
D03*
D12*
X315800Y-9000D02*
D03*
D13*
X323277Y-70682D02*
D03*
D14*
X328300Y-70800D02*
D03*
X358300D02*
D03*
X353300D02*
D03*
X348300D02*
D03*
X343300D02*
D03*
X338300D02*
D03*
X333300D02*
D03*
D15*
X363600Y-22800D02*
D03*
D16*
X218978Y-99979D02*
D03*
X220947D02*
D03*
X222915D02*
D03*
X224884D02*
D03*
X226852D02*
D03*
X228820D02*
D03*
X230789D02*
D03*
X232757D02*
D03*
X234726D02*
D03*
X236695D02*
D03*
X238663D02*
D03*
X240632D02*
D03*
X242600D02*
D03*
X244568D02*
D03*
X246537D02*
D03*
X248505D02*
D03*
X250474D02*
D03*
X252443D02*
D03*
X254411D02*
D03*
X256380D02*
D03*
X258348D02*
D03*
X260316D02*
D03*
X262285D02*
D03*
X264253D02*
D03*
X266222D02*
D03*
Y-159821D02*
D03*
X264253D02*
D03*
X262285D02*
D03*
X260316D02*
D03*
X258348D02*
D03*
X256380D02*
D03*
X254411D02*
D03*
X252443D02*
D03*
X250474D02*
D03*
X248505D02*
D03*
X246537D02*
D03*
X244568D02*
D03*
X242600D02*
D03*
X240632D02*
D03*
X238663D02*
D03*
X236695D02*
D03*
X234726D02*
D03*
X232757D02*
D03*
X230789D02*
D03*
X228820D02*
D03*
X226852D02*
D03*
X224884D02*
D03*
X222915D02*
D03*
X220947D02*
D03*
X218978D02*
D03*
D17*
X272521Y-106278D02*
D03*
Y-108247D02*
D03*
Y-110215D02*
D03*
Y-112183D02*
D03*
Y-114152D02*
D03*
Y-116121D02*
D03*
Y-118089D02*
D03*
Y-120057D02*
D03*
Y-122026D02*
D03*
Y-123995D02*
D03*
Y-125963D02*
D03*
Y-127931D02*
D03*
Y-129900D02*
D03*
Y-131869D02*
D03*
Y-133837D02*
D03*
Y-135805D02*
D03*
Y-137774D02*
D03*
Y-139743D02*
D03*
Y-141711D02*
D03*
Y-143679D02*
D03*
Y-145648D02*
D03*
Y-147617D02*
D03*
Y-149585D02*
D03*
Y-151553D02*
D03*
Y-153522D02*
D03*
X212679D02*
D03*
Y-151553D02*
D03*
Y-149585D02*
D03*
Y-147617D02*
D03*
Y-145648D02*
D03*
Y-143679D02*
D03*
Y-141711D02*
D03*
Y-139743D02*
D03*
Y-137774D02*
D03*
Y-135805D02*
D03*
Y-133837D02*
D03*
Y-131869D02*
D03*
Y-129900D02*
D03*
Y-127931D02*
D03*
Y-125963D02*
D03*
Y-123995D02*
D03*
Y-122026D02*
D03*
Y-120057D02*
D03*
Y-118089D02*
D03*
Y-116121D02*
D03*
Y-114152D02*
D03*
Y-112183D02*
D03*
Y-110215D02*
D03*
Y-108247D02*
D03*
Y-106278D02*
D03*
D18*
X370600Y-90000D02*
D03*
Y-104000D02*
D03*
D19*
X469600Y-124900D02*
D03*
X483600D02*
D03*
D20*
X459939Y-41900D02*
D03*
X477261D02*
D03*
D21*
X347100Y-160900D02*
D03*
D22*
X346600Y-158900D02*
D03*
Y-156900D02*
D03*
Y-154900D02*
D03*
Y-152900D02*
D03*
X329600D02*
D03*
Y-154900D02*
D03*
Y-156900D02*
D03*
Y-158900D02*
D03*
D23*
X347100Y-150900D02*
D03*
X329100D02*
D03*
Y-160900D02*
D03*
D24*
X343100Y-146900D02*
D03*
X333100D02*
D03*
Y-164900D02*
D03*
D25*
X341100Y-147400D02*
D03*
X339100D02*
D03*
X337100D02*
D03*
X335100D02*
D03*
Y-164400D02*
D03*
X337100D02*
D03*
X339100D02*
D03*
X341100D02*
D03*
D26*
X343100Y-164900D02*
D03*
D27*
X137904Y-105900D02*
D03*
X131211D02*
D03*
X333600Y-135900D02*
D03*
X326907D02*
D03*
X351600D02*
D03*
X344907D02*
D03*
X451600Y-153900D02*
D03*
X444907D02*
D03*
X444900Y-162600D02*
D03*
X451593D02*
D03*
X463600Y-194900D02*
D03*
X470293D02*
D03*
X463800Y-186000D02*
D03*
X470493D02*
D03*
X325400Y-175700D02*
D03*
X318707D02*
D03*
X347600Y-116900D02*
D03*
X354293D02*
D03*
X347600Y-107900D02*
D03*
X354293D02*
D03*
X423900Y-154200D02*
D03*
X430593D02*
D03*
X423700Y-163200D02*
D03*
X430393D02*
D03*
X137600Y-113350D02*
D03*
X130907D02*
D03*
X53600Y-137900D02*
D03*
X46907D02*
D03*
X53600Y-145900D02*
D03*
X46907D02*
D03*
D28*
X138600Y-5160D02*
D03*
Y-12640D02*
D03*
X494600Y-45640D02*
D03*
Y-38160D02*
D03*
X131600Y-122160D02*
D03*
Y-129640D02*
D03*
D29*
X96300Y-70600D02*
D03*
D30*
Y-6600D02*
D03*
D31*
X72600Y-155884D02*
D03*
Y-151553D02*
D03*
Y-147223D02*
D03*
Y-142892D02*
D03*
Y-138561D02*
D03*
Y-134231D02*
D03*
Y-129900D02*
D03*
Y-118089D02*
D03*
Y-113758D02*
D03*
Y-109428D02*
D03*
Y-105097D02*
D03*
Y-100766D02*
D03*
X120600Y-155884D02*
D03*
Y-151553D02*
D03*
Y-147223D02*
D03*
Y-142892D02*
D03*
Y-138561D02*
D03*
Y-134231D02*
D03*
Y-129900D02*
D03*
Y-118089D02*
D03*
Y-113758D02*
D03*
Y-109428D02*
D03*
Y-105097D02*
D03*
Y-100766D02*
D03*
D32*
X185683Y-107549D02*
D03*
X185717Y-142589D02*
D03*
D33*
X150600Y-72900D02*
D03*
D34*
X154537Y-42900D02*
D03*
X146663D02*
D03*
D35*
X35100Y-50750D02*
D03*
Y-22250D02*
D03*
D36*
X480600Y-15900D02*
D03*
X458600D02*
D03*
D37*
X137600Y-62900D02*
D03*
Y-56207D02*
D03*
X164600Y-62900D02*
D03*
Y-56207D02*
D03*
X50400Y-29400D02*
D03*
Y-22707D02*
D03*
X286600Y-104900D02*
D03*
Y-98207D02*
D03*
X267800Y-182200D02*
D03*
Y-175507D02*
D03*
X317200Y-147800D02*
D03*
Y-154493D02*
D03*
X163100Y-108538D02*
D03*
Y-101845D02*
D03*
X454500Y23500D02*
D03*
Y16807D02*
D03*
X163000Y-141600D02*
D03*
Y-148293D02*
D03*
X50000Y-43368D02*
D03*
Y-50061D02*
D03*
X245000Y-184900D02*
D03*
Y-178207D02*
D03*
X237000Y-185400D02*
D03*
Y-178707D02*
D03*
X228700Y-185500D02*
D03*
Y-178807D02*
D03*
X285600Y-84332D02*
D03*
Y-77639D02*
D03*
X276600Y-84332D02*
D03*
Y-77639D02*
D03*
X239600Y-84032D02*
D03*
Y-77339D02*
D03*
X225600Y-84032D02*
D03*
Y-77339D02*
D03*
X215300Y-84200D02*
D03*
Y-77507D02*
D03*
X58600Y-179900D02*
D03*
Y-186593D02*
D03*
X208800Y-193400D02*
D03*
Y-186707D02*
D03*
X199900Y-193300D02*
D03*
Y-186607D02*
D03*
X171600Y-193900D02*
D03*
Y-187207D02*
D03*
X131600Y-139900D02*
D03*
Y-146593D02*
D03*
D38*
X70951Y-174200D02*
D03*
Y-179200D02*
D03*
Y-184200D02*
D03*
Y-189200D02*
D03*
X89849Y-174200D02*
D03*
Y-179200D02*
D03*
Y-184200D02*
D03*
Y-189200D02*
D03*
X57049Y-126400D02*
D03*
Y-121400D02*
D03*
Y-116400D02*
D03*
Y-111400D02*
D03*
X38151Y-126400D02*
D03*
Y-121400D02*
D03*
Y-116400D02*
D03*
Y-111400D02*
D03*
D39*
X165100Y-7451D02*
D03*
X160100D02*
D03*
X155100D02*
D03*
X150100D02*
D03*
X165100Y-26349D02*
D03*
X160100D02*
D03*
X155100D02*
D03*
X150100D02*
D03*
D40*
X443055Y-177113D02*
D03*
D41*
X434000D02*
D03*
X424945D02*
D03*
D42*
X434000Y-203687D02*
D03*
D43*
X446200Y-85300D02*
D03*
X491100D02*
D03*
D44*
X433222Y-29900D02*
D03*
X385978D02*
D03*
D45*
X184600Y26400D02*
D03*
X299600D02*
D03*
D46*
X295175Y-62100D02*
D03*
X232852D02*
D03*
X206671D02*
D03*
X281986D02*
D03*
X275293D02*
D03*
X265765D02*
D03*
X255923D02*
D03*
X246080D02*
D03*
X239348D02*
D03*
X226356D02*
D03*
X216513D02*
D03*
D47*
X410293Y-68266D02*
D03*
X416986D02*
D03*
X403600D02*
D03*
X390214D02*
D03*
X396907D02*
D03*
D48*
X403600Y-104534D02*
D03*
D49*
X419600Y47100D02*
D03*
X64600D02*
D03*
D50*
X433100D02*
D03*
X406100D02*
D03*
X78100D02*
D03*
X51100D02*
D03*
D51*
X414482Y37100D02*
D03*
X417041D02*
D03*
X419600D02*
D03*
X422159D02*
D03*
X424718D02*
D03*
X59482D02*
D03*
X62041D02*
D03*
X64600D02*
D03*
X67159D02*
D03*
X69718D02*
D03*
D52*
X406900Y-153600D02*
D03*
X393121D02*
D03*
X406600Y-168700D02*
D03*
X392821D02*
D03*
X338400Y-118500D02*
D03*
X324621D02*
D03*
X338400Y-106900D02*
D03*
X324621D02*
D03*
D53*
X370600Y-129900D02*
D03*
Y-116121D02*
D03*
Y-153900D02*
D03*
Y-140120D02*
D03*
D54*
X351500Y-52000D02*
X358300Y-58800D01*
Y-81100D02*
Y-58800D01*
X286600Y-98207D02*
Y-84332D01*
X278900D02*
X285600D01*
X278900D02*
X281100Y-82132D01*
X276600Y-84332D02*
X278900D01*
X237932Y-83800D02*
X239600Y-82132D01*
X216800Y-83800D02*
X237932D01*
X28800Y-73800D02*
Y-28550D01*
X35100Y-22250D01*
X28800Y-73800D02*
X33649Y-78649D01*
X164600Y-78000D02*
X173300Y-69300D01*
X164500Y-78100D02*
X164600Y-78000D01*
X173300Y-69300D02*
Y-48400D01*
X165100Y-40200D02*
X173300Y-48400D01*
X165100Y-40200D02*
Y-26349D01*
X117800Y-70600D02*
X131400Y-84200D01*
X96300Y-70600D02*
X117800D01*
X39400D02*
X96300D01*
X38151Y-71849D02*
X39400Y-70600D01*
X38151Y-78649D02*
Y-71849D01*
X33649Y-78649D02*
X38151D01*
X157938Y-108638D02*
X163000D01*
X155700Y-106400D02*
X157938Y-108638D01*
X155700Y-106400D02*
Y-97100D01*
X164500Y-88300D01*
Y-78100D01*
X164600Y-78000D02*
Y-62900D01*
X360500Y-91200D02*
Y-83300D01*
X358300Y-81100D02*
X360500Y-83300D01*
X295175Y-62100D02*
X302600Y-69525D01*
Y-95900D02*
Y-69525D01*
X138600Y-31500D02*
Y-25900D01*
X123300Y-46800D02*
X138600Y-31500D01*
X84600Y-46800D02*
X123300D01*
X81168Y-43368D02*
X84600Y-46800D01*
X50000Y-43368D02*
X81168D01*
X295000Y-52000D02*
X351500D01*
X295175Y-62100D02*
Y-52175D01*
X295000Y-52000D02*
X295175Y-52175D01*
X265765Y-62100D02*
Y-52035D01*
X266100Y-51700D01*
X113500Y-100766D02*
X120600D01*
X72600D02*
X113500D01*
Y-109400D02*
Y-100766D01*
Y-109400D02*
X113528Y-109428D01*
X120600D01*
X38151Y-116400D02*
Y-111400D01*
Y-121400D02*
Y-116400D01*
Y-126400D02*
Y-121400D01*
X120600Y-129900D02*
X128340Y-122160D01*
X131600D01*
X35557Y-22707D02*
X50400D01*
X138600Y-25900D02*
X139049Y-26349D01*
X150100D01*
X138600Y-25900D02*
Y-12640D01*
X147809Y-5160D02*
X150100Y-7451D01*
X138600Y-5160D02*
X147809D01*
X137160Y-6600D02*
X138600Y-5160D01*
X96300Y-6600D02*
X137160D01*
X232300Y-76800D02*
X232852Y-76248D01*
X232200Y-76900D02*
X232300Y-76800D01*
X232852Y-76248D02*
Y-62100D01*
X72600Y-147223D02*
X79577D01*
X38151Y-89549D02*
X39300Y-88400D01*
X58600D01*
X38151Y-111400D02*
Y-89549D01*
X39400Y-77400D02*
X58600D01*
X38151Y-78649D02*
X39400Y-77400D01*
X38151Y-89549D02*
Y-78649D01*
X58600Y-88400D02*
X70500D01*
X72300Y-90200D01*
Y-100466D02*
Y-90200D01*
Y-100466D02*
X72600Y-100766D01*
X72623Y-147200D02*
X82000D01*
X72600Y-147223D02*
X72623Y-147200D01*
X76500Y-6600D02*
X96300D01*
X75500Y-5600D02*
X76500Y-6600D01*
X72600Y-151553D02*
X101746D01*
X107300Y-146000D01*
Y-135400D01*
X112800Y-129900D01*
X120600D01*
X62600Y-82900D02*
X75900D01*
X84700Y-91700D01*
X125100D01*
X131211Y-97811D01*
Y-105900D02*
Y-97811D01*
X137600Y-62900D02*
X164600D01*
X83800Y-179200D02*
X89849D01*
X79900Y-175300D02*
X83800Y-179200D01*
X79900Y-175300D02*
Y-168800D01*
X318400Y-81900D02*
Y-71959D01*
X323277Y-67082D01*
X239600Y-82132D02*
X247168D01*
X352600Y-135900D02*
X370600Y-153900D01*
X351600Y-135900D02*
X352600D01*
X131600Y-122160D02*
X149140D01*
X152100Y-119200D01*
X57049Y-111400D02*
X63700D01*
X65200Y-112900D01*
Y-121600D02*
Y-112900D01*
Y-121600D02*
X68000Y-124400D01*
X96300D01*
X107300Y-135400D01*
X123300Y-64500D02*
Y-46800D01*
Y-64500D02*
X152100Y-93300D01*
Y-119200D02*
Y-93300D01*
X392821Y-168700D02*
Y-153900D01*
X393121Y-153600D01*
D55*
X376250Y-19250D02*
X386900Y-8600D01*
X364600Y-121200D02*
Y-76200D01*
X376250Y-57250D02*
Y-19250D01*
X370400Y-63100D02*
X376250Y-57250D01*
X370400Y-70400D02*
Y-63100D01*
X364600Y-76200D02*
X370400Y-70400D01*
X348300Y-85300D02*
Y-70800D01*
X339492Y-94108D02*
X348300Y-85300D01*
X324204Y-94108D02*
X339492D01*
X343300Y-86400D02*
Y-70800D01*
X337292Y-92408D02*
X343300Y-86400D01*
X323500Y-92408D02*
X337292D01*
X350100Y-87400D02*
Y-82900D01*
X341692Y-95808D02*
X350100Y-87400D01*
X324908Y-95808D02*
X341692D01*
X328300Y-70800D02*
Y-67200D01*
Y-85300D02*
Y-70800D01*
X308000Y-100600D02*
X321450Y-87150D01*
X326450D02*
X328300Y-85300D01*
X321450Y-87150D02*
X326450D01*
X333300Y-70800D02*
Y-67200D01*
Y-87400D02*
Y-70800D01*
X331796Y-88904D02*
X333300Y-87400D01*
X322196Y-88904D02*
X331796D01*
X309550Y-101550D02*
X322196Y-88904D01*
X338300Y-70800D02*
Y-67200D01*
Y-87400D02*
Y-70800D01*
X311500Y-102004D02*
X322900Y-90604D01*
X335096D02*
X338300Y-87400D01*
X322900Y-90604D02*
X335096D01*
X343300Y-70800D02*
Y-67200D01*
X313600Y-102308D02*
X323500Y-92408D01*
X348300Y-70800D02*
Y-69300D01*
X315500Y-102813D02*
X324204Y-94108D01*
X317800Y-102917D02*
X324908Y-95808D01*
X353300Y-70800D02*
Y-67200D01*
Y-79700D02*
Y-70800D01*
X350100Y-82900D02*
X353300Y-79700D01*
X275367Y-72074D02*
X276600Y-73307D01*
X275293Y-72000D02*
X275367Y-72074D01*
X276600Y-77639D02*
Y-73307D01*
X275293Y-72000D02*
Y-62100D01*
X275367Y-72074D02*
X288066D01*
X216513Y-75607D02*
Y-62100D01*
X27200Y0D02*
X49200Y22000D01*
X10000Y0D02*
X27200D01*
X28600Y7100D02*
X46000Y24500D01*
X4800Y7100D02*
X28600D01*
X0Y2300D02*
X4800Y7100D01*
X0Y0D02*
Y2300D01*
X15900Y-164053D02*
Y-135626D01*
X700Y-179253D02*
X15900Y-164053D01*
X46000Y24500D02*
X58100D01*
X49200Y22000D02*
X59200D01*
X15900Y-135626D02*
X24200Y-127325D01*
Y-21996D01*
X54696Y8500D01*
X25900Y-22700D02*
X55400Y6800D01*
X25900Y-166600D02*
Y-22700D01*
X20700Y-171800D02*
X25900Y-166600D01*
X20700Y-179253D02*
Y-171800D01*
X67018Y29818D02*
Y36959D01*
X59200Y22000D02*
X67018Y29818D01*
X58100Y24500D02*
X64600Y31000D01*
Y37100D01*
X55400Y6800D02*
X219700D01*
X20700Y-181100D02*
Y-179253D01*
X419700Y15600D02*
Y37000D01*
X418900Y14800D02*
X419700Y15600D01*
X42896Y-149500D02*
X46500Y-153104D01*
Y-199608D02*
Y-153104D01*
Y-199608D02*
X65900Y-219008D01*
X42896Y-149500D02*
Y-139404D01*
X46907Y-145900D02*
X48500Y-147493D01*
Y-199204D02*
Y-147493D01*
Y-199204D02*
X67600Y-218304D01*
X42896Y-139404D02*
X44400Y-137900D01*
X46907D01*
X50450Y-198750D02*
X69300Y-217600D01*
X54696Y8500D02*
X220404D01*
X219700Y6800D02*
X269700Y-43200D01*
X220404Y8500D02*
X271400Y-42496D01*
X422159Y12359D02*
Y37100D01*
X401200Y-8600D02*
X422159Y12359D01*
X386900Y-8600D02*
X401200D01*
X220947Y-92154D02*
X223600Y-89500D01*
X220947Y-99979D02*
Y-92154D01*
X200050Y-146450D02*
X202820Y-143679D01*
X212679D01*
X200050Y-173050D02*
Y-146450D01*
X208200Y-174200D02*
X214400Y-168000D01*
X207900Y-174500D02*
X208200Y-174200D01*
X286507Y-111500D02*
X288700D01*
X283254Y-108247D02*
X286507Y-111500D01*
X283254Y-108247D02*
X286600Y-104900D01*
X272521Y-108247D02*
X283254D01*
X327000Y-144900D02*
X329000Y-146900D01*
X333100D01*
X260600Y-110200D02*
X264200Y-106600D01*
Y-100032D01*
X264253Y-99979D01*
X324200Y-190000D02*
X324300Y-189900D01*
X300700Y-190000D02*
X324200D01*
X297650Y-192350D02*
X327650D01*
X341100Y-178900D01*
X335500Y-188200D02*
X342969Y-180731D01*
X297400Y-192600D02*
X297650Y-192350D01*
X317200Y-168600D02*
Y-154493D01*
X325400Y-175700D02*
X333100D01*
X335100Y-173700D01*
Y-164400D01*
X328900Y-131500D02*
X332500Y-127900D01*
X328900Y-132600D02*
Y-131500D01*
Y-132600D02*
X336600D01*
X339100Y-135100D01*
Y-141707D02*
Y-135100D01*
X34700Y-61400D02*
X35100Y-61000D01*
Y-50750D01*
X195600Y-133600D02*
X197332Y-131869D01*
X212679D01*
X185717Y-142589D02*
Y-130083D01*
X187868Y-127931D01*
X212679D01*
X67018Y36959D02*
X67159Y37100D01*
X266984Y-112183D02*
X272521D01*
X265900Y-111100D02*
X266984Y-112183D01*
X265900Y-111100D02*
Y-106376D01*
X271400Y-100876D01*
Y-42496D01*
X269700Y-96501D02*
Y-43200D01*
X266222Y-99979D02*
X269700Y-96501D01*
X155100Y-7451D02*
Y0D01*
X156800Y1700D01*
X200500Y-100292D02*
Y-37000D01*
X167600Y1700D02*
X171550Y-2250D01*
Y-8050D02*
X200500Y-37000D01*
X171550Y-8050D02*
Y-2250D01*
X156800Y1700D02*
X167600D01*
X169550Y-9497D02*
Y-3050D01*
X166500Y0D02*
X169550Y-3050D01*
X161800Y0D02*
X166500D01*
X200500Y-100292D02*
X206486Y-106278D01*
X169550Y-9497D02*
X198600Y-38547D01*
Y-100796D02*
Y-38547D01*
X165100Y-7451D02*
X196900Y-39251D01*
Y-101500D02*
Y-39251D01*
X198600Y-100796D02*
X206051Y-108247D01*
X196900Y-101500D02*
X205615Y-110215D01*
X206486Y-106278D02*
X212679D01*
X206051Y-108247D02*
X212679D01*
X205615Y-110215D02*
X212679D01*
X160100Y-1700D02*
X161800Y0D01*
X160100Y-7451D02*
Y-1700D01*
X235300Y-237500D02*
X260316Y-212484D01*
X76496Y-237500D02*
X235300D01*
X67600Y-228604D02*
X76496Y-237500D01*
X236004Y-239200D02*
X262017Y-213188D01*
X75792Y-239200D02*
X236004D01*
X65900Y-229308D02*
X75792Y-239200D01*
X234059Y-235800D02*
X258348Y-211511D01*
X77200Y-235800D02*
X234059D01*
X69300Y-227900D02*
X77200Y-235800D01*
X258348Y-211511D02*
Y-159821D01*
X262017Y-201488D02*
X262107Y-201397D01*
X262017Y-213188D02*
Y-201488D01*
X262107Y-201397D02*
Y-159999D01*
X260316Y-212484D02*
Y-159821D01*
X65900Y-229308D02*
Y-219008D01*
X67600Y-228604D02*
Y-218304D01*
X69300Y-227900D02*
Y-217600D01*
X262107Y-159999D02*
X262285Y-159821D01*
X250217Y-196900D02*
X255800Y-191317D01*
Y-171683D01*
X250474Y-166357D02*
X255800Y-171683D01*
X249513Y-195200D02*
X254100Y-190612D01*
Y-172388D01*
X250012Y-168300D02*
X254100Y-172388D01*
X248808Y-193500D02*
X252400Y-189908D01*
Y-173092D01*
X249308Y-170000D02*
X252400Y-173092D01*
X248104Y-191800D02*
X250700Y-189204D01*
Y-173796D01*
X248604Y-171700D02*
X250700Y-173796D01*
X226528Y-190100D02*
X247400D01*
X249000Y-188500D01*
Y-174500D01*
X247900Y-173400D02*
X249000Y-174500D01*
X244500Y-173400D02*
X247900D01*
X248700Y-168300D02*
X250012D01*
X246704Y-170000D02*
X249308D01*
X228204Y-193500D02*
X248808D01*
X246000Y-171700D02*
X248604D01*
X227500Y-191800D02*
X248104D01*
X240632Y-175732D02*
X242307Y-177407D01*
X240632Y-175732D02*
Y-159821D01*
X229612Y-196900D02*
X250217D01*
X228908Y-195200D02*
X249513D01*
X246537Y-169833D02*
X246704Y-170000D01*
X244568Y-170268D02*
X246000Y-171700D01*
X242500Y-171400D02*
X244500Y-173400D01*
X242307Y-177407D02*
X245000D01*
X246537Y-169833D02*
Y-159821D01*
X244568Y-170268D02*
Y-159821D01*
X242500Y-171400D02*
Y-159921D01*
X238700Y-176107D02*
Y-159858D01*
X237000Y-177807D02*
X238700Y-176107D01*
X234726Y-170974D02*
Y-159821D01*
X230958Y-174742D02*
X234726Y-170974D01*
X232757Y-170343D02*
Y-159821D01*
X230058Y-173042D02*
X232757Y-170343D01*
X264253Y-178654D02*
X267800Y-182200D01*
X266222Y-173929D02*
Y-159821D01*
Y-173929D02*
X267800Y-175507D01*
X139900Y-206188D02*
X166500Y-179587D01*
X150770Y-197722D02*
X168200Y-180292D01*
X166500Y-179587D02*
Y-176888D01*
X168200Y-180292D02*
Y-177592D01*
X169900Y-180996D02*
Y-178296D01*
X161640Y-189256D02*
X169900Y-180996D01*
X171600Y-185207D02*
Y-179000D01*
X52400Y-121400D02*
X57049D01*
X50400Y-123400D02*
X52400Y-121400D01*
X50400Y-128800D02*
Y-123400D01*
Y-128800D02*
X55831Y-134231D01*
X72600D01*
X57049Y-126400D02*
X60549Y-129900D01*
X72600D01*
X71939Y-137900D02*
X72600Y-138561D01*
X53600Y-137900D02*
X71939D01*
X53600Y-145900D02*
X56608Y-142892D01*
X72600D01*
X130970Y-147223D02*
X131600Y-146593D01*
X120600Y-147223D02*
X130970D01*
X131600Y-139900D02*
Y-129640D01*
X137904Y-113046D02*
Y-105900D01*
X130499Y-113758D02*
X130907Y-113350D01*
X120600Y-113758D02*
X130499D01*
X130408Y-105097D02*
X131211Y-105900D01*
X120600Y-105097D02*
X130408D01*
X35100Y-50750D02*
Y-44700D01*
X50400Y-29400D01*
X35100Y-50750D02*
X35789Y-50061D01*
X50000D01*
X160100Y-35500D02*
X160300Y-35700D01*
X160100Y-35500D02*
Y-26349D01*
X137600Y-56207D02*
X137900Y-55907D01*
Y-51663D01*
X146663Y-42900D01*
X164600Y-56207D02*
Y-52963D01*
X154537Y-42900D02*
X164600Y-52963D01*
X154537Y-42900D02*
X155100Y-42337D01*
Y-26349D01*
X239348Y-75187D02*
X239600Y-75439D01*
X239348Y-75187D02*
Y-62100D01*
X226356Y-77339D02*
Y-62100D01*
X254837Y-51416D02*
X262285Y-58864D01*
Y-99979D02*
Y-58864D01*
X254133Y-53117D02*
X260316Y-59300D01*
Y-99979D02*
Y-59300D01*
X222584Y-51416D02*
X254837D01*
X216513Y-57487D02*
X222584Y-51416D01*
X216513Y-62100D02*
Y-57487D01*
X230584Y-53117D02*
X254133D01*
X226356Y-57344D02*
X230584Y-53117D01*
X226356Y-62100D02*
Y-57344D01*
X241800Y-55400D02*
X250900D01*
X239348Y-57852D02*
X241800Y-55400D01*
X239348Y-62100D02*
Y-57852D01*
X250900Y-55400D02*
X252443Y-56942D01*
Y-99979D02*
Y-56942D01*
X255923Y-87227D02*
X258348Y-89652D01*
X255923Y-87227D02*
Y-62100D01*
X284400D02*
X287200Y-64900D01*
X281986Y-62100D02*
X284400D01*
X287100Y-76939D02*
X292000Y-81839D01*
X288066Y-72074D02*
X293700Y-77709D01*
X258348Y-99979D02*
Y-89652D01*
X201800Y-129900D02*
X212679D01*
X232579Y-118121D02*
Y-100157D01*
X232200Y-118500D02*
X232579Y-118121D01*
Y-100157D02*
X232757Y-99979D01*
X234726Y-115968D02*
Y-99979D01*
Y-115968D02*
X234750Y-115992D01*
Y-121150D02*
Y-115992D01*
X234700Y-121200D02*
X234750Y-121150D01*
X226674Y-100157D02*
X226852Y-99979D01*
X228820D02*
X228998Y-100157D01*
X58600Y-186593D02*
X60993Y-184200D01*
X70951D01*
X58600Y-179900D02*
X59300Y-179200D01*
X70951D01*
X74679Y-211508D02*
X79400Y-206787D01*
Y-186400D01*
X77200Y-184200D02*
X79400Y-186400D01*
X70951Y-184200D02*
X77200D01*
X83000Y-208958D02*
X85550Y-211508D01*
X204600Y-149700D02*
Y-149585D01*
X208378Y-153522D02*
X212679D01*
X206246Y-151553D02*
X212679D01*
X201522Y-137774D02*
X212679D01*
X196650Y-142646D02*
X201522Y-137774D01*
X194950Y-141942D02*
X201086Y-135805D01*
X193250Y-141237D02*
X200651Y-133837D01*
X201958Y-139743D02*
X212679D01*
X198350Y-143350D02*
X201958Y-139743D01*
X264253Y-178654D02*
Y-159821D01*
X200651Y-133837D02*
X212679D01*
X201086Y-135805D02*
X212679D01*
X229354Y-171342D02*
X230789Y-169907D01*
Y-159821D01*
X225530Y-173042D02*
X230058D01*
X228700Y-178107D02*
X229997D01*
X174765Y-217735D02*
X177800Y-214700D01*
X128855Y-217735D02*
X174765D01*
X138025Y-216035D02*
X164200D01*
X167100Y-213135D01*
X139900Y-211508D02*
Y-206188D01*
X150770Y-211508D02*
Y-197722D01*
X161640Y-211508D02*
Y-189256D01*
X122628Y-211508D02*
X128855Y-217735D01*
X118160Y-211508D02*
X122628D01*
X133498D02*
X138025Y-216035D01*
X129030Y-211508D02*
X133498D01*
X228593Y-178107D02*
X228700D01*
X248505Y-168105D02*
X248700Y-168300D01*
X250474Y-166357D02*
Y-159821D01*
X217804Y-208708D02*
X229612Y-196900D01*
X217804Y-218200D02*
Y-208708D01*
X204004Y-232000D02*
X217804Y-218200D01*
X180854Y-232000D02*
X204004D01*
X171544Y-222689D02*
X180854Y-232000D01*
X167075Y-222689D02*
X171544D01*
X248505Y-168105D02*
Y-159821D01*
X216104Y-208004D02*
X228908Y-195200D01*
X216104Y-217496D02*
Y-208004D01*
X203300Y-230300D02*
X216104Y-217496D01*
X185556Y-230300D02*
X203300D01*
X177945Y-222689D02*
X185556Y-230300D01*
X214200Y-207504D02*
X228204Y-193500D01*
X214200Y-216600D02*
Y-207504D01*
X202600Y-228200D02*
X214200Y-216600D01*
X194326Y-228200D02*
X202600D01*
X188815Y-222689D02*
X194326Y-228200D01*
X212500Y-206800D02*
X227500Y-191800D01*
X212500Y-214400D02*
Y-206800D01*
X204211Y-222689D02*
X212500Y-214400D01*
X199685Y-222689D02*
X204211D01*
X242500Y-159921D02*
X242600Y-159821D01*
X205120Y-211508D02*
X226528Y-190100D01*
X228800Y-184300D02*
X237000D01*
X317800Y-138100D02*
Y-102917D01*
X322600Y-135900D02*
X326907D01*
X313702Y-144798D02*
X322600Y-135900D01*
X313702Y-152002D02*
Y-144798D01*
Y-152002D02*
X316193Y-154493D01*
X317200D01*
Y-147800D02*
X320300Y-150900D01*
X329100D01*
X212679Y-147617D02*
Y-145648D01*
X238663Y-159821D02*
X238700Y-159858D01*
X342969Y-180731D02*
Y-165031D01*
X343100Y-164900D01*
X341100Y-178900D02*
Y-164400D01*
X317200Y-154493D02*
X323607Y-160900D01*
X329100D01*
X315500Y-134800D02*
Y-102813D01*
X313600Y-131142D02*
Y-102308D01*
X311500Y-129500D02*
Y-102004D01*
X347900Y-139600D02*
X351600Y-135900D01*
X343900Y-139600D02*
X347900D01*
X341100Y-142400D02*
X343900Y-139600D01*
X341100Y-147400D02*
Y-142400D01*
X333600Y-135900D02*
X337100Y-139400D01*
Y-147400D02*
Y-139400D01*
X334969Y-147269D02*
X335100Y-147400D01*
X334969Y-147269D02*
Y-143962D01*
X326907Y-135900D02*
X334969Y-143962D01*
X339100Y-141707D02*
X344907Y-135900D01*
X339100Y-147400D02*
Y-141707D01*
X326907Y-135900D02*
Y-134593D01*
X346969Y-160769D02*
X347100Y-160900D01*
X343603Y-160769D02*
X346969D01*
X343434Y-160600D02*
X343603Y-160769D01*
X333800Y-160600D02*
X343434D01*
X333500Y-160900D02*
X333800Y-160600D01*
X329100Y-160900D02*
X333500D01*
X341100Y-151000D02*
Y-147400D01*
X341000Y-151100D02*
X341100Y-151000D01*
X333934Y-151100D02*
X341000D01*
X333734Y-150900D02*
X333934Y-151100D01*
X329100Y-150900D02*
X333734D01*
X364600Y-121200D02*
X366100Y-122700D01*
X375500D01*
X419600Y37100D02*
X419700Y37000D01*
X281846Y-151553D02*
X282200Y-151200D01*
X272521Y-151553D02*
X281846D01*
X313300Y-131442D02*
X313600Y-131142D01*
X280219Y-149585D02*
X281504Y-148300D01*
X272521Y-149585D02*
X280219D01*
X272521Y-147617D02*
X279784D01*
X272521Y-141711D02*
X292689D01*
X70951Y-179200D02*
X76800D01*
X83000Y-185400D01*
Y-208958D02*
Y-185400D01*
X228998Y-115198D02*
X229500Y-115700D01*
X228998Y-115198D02*
Y-100157D01*
X226674Y-112474D02*
X226700Y-112500D01*
X226674Y-112474D02*
Y-100157D01*
X253948Y-114152D02*
X272521D01*
X239200Y-128900D02*
X253948Y-114152D01*
X223400Y-128900D02*
X239200D01*
X254384Y-116121D02*
X272521D01*
X223200Y-134600D02*
X235904D01*
X254384Y-116121D01*
X89849Y-189200D02*
X98500D01*
X89849Y-174200D02*
X98500D01*
X102600Y-170100D01*
X109200D01*
X117700Y-170000D02*
X119900D01*
X102600Y-185100D02*
Y-176900D01*
X104050Y-175450D01*
X112250D01*
X98500Y-189200D02*
X102600Y-185100D01*
X112250Y-175450D02*
X117700Y-170000D01*
X126400Y-162000D02*
X131600Y-156800D01*
Y-146593D01*
X272521Y-118089D02*
X281811D01*
X283400Y-116500D01*
Y-114700D01*
X272521Y-120057D02*
X283442D01*
X285600Y-117900D01*
X326907Y-134593D02*
X328900Y-132600D01*
X272521Y-125963D02*
X283737D01*
X293700Y-116000D01*
Y-77709D01*
X272521Y-123995D02*
X283301D01*
X292000Y-115296D01*
Y-81839D01*
X281300Y-146100D02*
X294700D01*
X279784Y-147617D02*
X281300Y-146100D01*
X272521Y-143679D02*
X295920D01*
X272521Y-127931D02*
X285469D01*
X287800Y-125600D01*
X290200Y-122600D02*
X295700Y-117100D01*
Y-112800D01*
X302600Y-105900D01*
X272521Y-129900D02*
X280500D01*
X281500Y-130900D01*
X299600Y-115900D02*
X302600D01*
X291900Y-123600D02*
X299600Y-115900D01*
X272521Y-135805D02*
X283794D01*
X291900Y-127700D01*
Y-123600D01*
X272521Y-133837D02*
X283359D01*
X290200Y-126996D01*
Y-122600D01*
X272521Y-153522D02*
X291622D01*
X299700Y-161600D01*
X306000D01*
X311150Y-156450D01*
Y-144750D01*
X317800Y-138100D01*
X294700Y-146100D02*
X299300Y-150700D01*
X306600D01*
X309200Y-148100D01*
Y-144100D01*
X313300Y-140000D01*
Y-131442D01*
X295920Y-143679D02*
X299250Y-140350D01*
X307850Y-128150D02*
Y-100846D01*
X308000Y-100696D01*
Y-100600D01*
X299250Y-140350D02*
X305050D01*
X309550Y-135850D01*
Y-101550D01*
X292689Y-141711D02*
X297400Y-137000D01*
Y-134000D01*
X300600Y-130800D01*
X305200D01*
X307850Y-128150D01*
X272521Y-137774D02*
X284626D01*
X296500Y-125900D01*
X302600D01*
X272521Y-139743D02*
X286057D01*
X289900Y-135900D01*
X290700D01*
X272521Y-106278D02*
X279222D01*
X286600Y-98900D01*
Y-98207D01*
X218978Y-99979D02*
Y-84300D01*
X212679Y-116121D02*
X217880D01*
X218978Y-115022D01*
Y-99979D01*
X212679Y-125963D02*
X218037D01*
X218978Y-125022D01*
Y-115022D01*
X163000Y-123995D02*
X212679D01*
Y-143679D02*
Y-141711D01*
X281504Y-148300D02*
X281604Y-148400D01*
X293000D01*
X208800Y-187207D02*
X220993D01*
X224188Y-184012D01*
X199900Y-186607D02*
Y-183300D01*
X200164Y-183036D01*
X219764D01*
X222186Y-180614D01*
Y-176386D01*
X225530Y-173042D01*
X218200Y-180400D02*
Y-177900D01*
X224758Y-171342D01*
X229354D01*
X229997Y-178107D02*
X236695Y-171410D01*
Y-159821D01*
X224188Y-184012D02*
Y-177212D01*
X226658Y-174742D01*
X230958D01*
X228200Y-169000D02*
X228820Y-168379D01*
Y-159821D01*
X211500Y-179600D02*
X224884Y-166217D01*
Y-159821D01*
X212204Y-181300D02*
X226852Y-166652D01*
Y-159821D01*
X222915Y-165781D02*
Y-159821D01*
X218096Y-170600D02*
X222915Y-165781D01*
X216500Y-170600D02*
X218096D01*
X220947Y-165253D02*
Y-159821D01*
X218200Y-168000D02*
X220947Y-165253D01*
X214400Y-168000D02*
X218200D01*
X167100Y-213135D02*
Y-210000D01*
X197500Y-179600D01*
X211500D01*
X177800Y-214700D02*
Y-201704D01*
X198204Y-181300D01*
X212204D01*
X215299Y-163500D02*
X218978Y-159821D01*
X209000Y-163500D02*
X215299D01*
X206500Y-155400D02*
X208378Y-153522D01*
X206500Y-165900D02*
Y-155400D01*
X202000Y-152300D02*
X204600Y-149700D01*
X202000Y-171900D02*
Y-152300D01*
X204600Y-149585D02*
X212679D01*
X204300Y-168400D02*
Y-153500D01*
X206246Y-151553D01*
X200050Y-173050D02*
X201500Y-174500D01*
X207900D01*
X171600Y-179000D02*
X198350Y-152250D01*
Y-143350D01*
X169900Y-178296D02*
X196650Y-151546D01*
Y-142646D01*
X168200Y-177592D02*
X194950Y-150842D01*
Y-141942D01*
X166500Y-176888D02*
X193250Y-150137D01*
Y-141237D01*
X218978Y-145326D02*
Y-125022D01*
Y-145326D02*
X219300Y-145648D01*
X212679D02*
X219300D01*
Y-145648D02*
Y-145648D01*
Y-145648D02*
X222915Y-149263D01*
Y-159821D02*
Y-149263D01*
X230789Y-99979D02*
Y-89889D01*
X230300Y-89400D02*
X230789Y-89889D01*
X230300Y-89400D02*
X248300D01*
X249600Y-90700D01*
X50450Y-198750D02*
Y-173850D01*
X62300Y-162000D01*
X126400D01*
D56*
X74600Y12100D02*
X297169D01*
X392350Y29350D02*
X398900Y22800D01*
X314420Y29350D02*
X392350D01*
X297169Y12100D02*
X314420Y29350D01*
X52200Y12100D02*
X74600D01*
X74700Y12200D01*
X51950Y12350D02*
X52200Y12100D01*
X74700Y12200D02*
Y29100D01*
X431400Y24800D02*
X445500D01*
X447400Y22900D01*
X424718Y31482D02*
X431400Y24800D01*
D57*
X460500Y-157100D02*
Y-137900D01*
X460200Y-156800D02*
Y-156300D01*
Y-156800D02*
X460500Y-157100D01*
X480600Y-15900D02*
Y-10800D01*
X455200Y5800D02*
X465500Y-4500D01*
X474300D02*
X480600Y-10800D01*
X465500Y-4500D02*
X474300D01*
X477261Y-48239D02*
Y-41900D01*
X469400Y-56100D02*
X477261Y-48239D01*
X469400Y-91100D02*
Y-56100D01*
X424600Y-15900D02*
X458600D01*
X494600Y-47400D02*
Y-45640D01*
X484700Y-144700D02*
Y-126000D01*
X446200Y-85300D02*
Y-79500D01*
X434966Y-68266D02*
X446200Y-79500D01*
X416986Y-68266D02*
X434966D01*
X387078Y-28800D02*
X411700D01*
X424600Y-15900D01*
X434322Y-28800D02*
X441322D01*
X477261Y-41900D02*
Y-19239D01*
X480600Y-15900D01*
X481002Y-38160D02*
X494600D01*
X477261Y-41900D02*
X481002Y-38160D01*
X441322Y-28800D02*
X454422Y-41900D01*
X459939D01*
X454913Y-177113D02*
X463600Y-185800D01*
Y-194900D02*
Y-185800D01*
X444907Y-162593D02*
Y-153900D01*
X446200Y-85300D02*
X450200D01*
X469600Y-104700D01*
Y-124900D02*
Y-104700D01*
X469400Y-91100D02*
X476800Y-98500D01*
Y-132500D02*
Y-98500D01*
X474500Y-134800D02*
X476800Y-132500D01*
X463600Y-134800D02*
X474500D01*
X460500Y-137900D02*
X463600Y-134800D01*
D58*
X28054Y-191900D02*
X40700Y-179253D01*
X-2600Y-191900D02*
X28054D01*
X-10200Y-184300D02*
X-2600Y-191900D01*
X17300Y-22300D02*
X51950Y12350D01*
X17300Y-125100D02*
Y-22300D01*
X-10200Y-184300D02*
Y-152600D01*
X17300Y-125100D01*
X454500Y7314D02*
Y16807D01*
X468900Y23500D02*
X470900Y21500D01*
X454500Y23500D02*
X468900D01*
X448000D02*
X454500D01*
X447400Y22900D02*
X448000Y23500D01*
X447400Y-4700D02*
Y22900D01*
X480900Y-75100D02*
X491100Y-85300D01*
X480900Y-75100D02*
Y-56200D01*
X490800D01*
X494600Y-52400D02*
Y-47400D01*
X490800Y-56200D02*
X494600Y-52400D01*
X415000Y-177300D02*
X415187Y-177113D01*
X424945D01*
X447400Y-4700D02*
X458600Y-15900D01*
X470493Y-203207D02*
Y-186000D01*
X246080Y-70580D02*
X246300Y-70800D01*
X246080Y-70580D02*
Y-62100D01*
X469600Y-204100D02*
X470493Y-203207D01*
X457300Y-204100D02*
X469600D01*
X445900Y-192700D02*
X457300Y-204100D01*
X432200Y-192700D02*
X445900D01*
X424945Y-185445D02*
X432200Y-192700D01*
X424945Y-185445D02*
Y-177113D01*
X375200Y-74326D02*
Y-66300D01*
X370600Y-78926D02*
X375200Y-74326D01*
X370600Y-90000D02*
Y-78926D01*
X385978Y-29900D02*
X387078Y-28800D01*
X382100Y-33778D02*
X385978Y-29900D01*
X382100Y-77600D02*
Y-33778D01*
X370600Y-104000D02*
X378200Y-96400D01*
Y-81500D01*
X382100Y-77600D01*
X393900D01*
X396907Y-74593D01*
Y-68266D01*
X410293D02*
Y-52829D01*
X433222Y-29900D01*
X434322Y-28800D01*
X403600Y-45900D02*
X406600Y-42900D01*
X390214Y-68266D02*
Y-59286D01*
X392417Y-57083D01*
X403600D01*
Y-68266D02*
Y-57083D01*
Y-45900D01*
X443055Y-177113D02*
X454913D01*
X443055D02*
Y-164445D01*
X444900Y-162600D01*
X444907Y-162593D01*
X424945Y-177113D02*
Y-172355D01*
X430393Y-166907D01*
Y-164000D01*
X318783Y-220400D02*
X354217D01*
X474700Y-151700D02*
Y-144600D01*
Y-151700D02*
X477700Y-154700D01*
X491100Y-85300D02*
X496200Y-90400D01*
Y-148700D02*
Y-90400D01*
X490200Y-154700D02*
X496200Y-148700D01*
X477700Y-154700D02*
X490200D01*
D59*
X70400Y33400D02*
X74700Y29100D01*
D60*
X69718Y34082D02*
X70400Y33400D01*
D61*
X69718Y34082D02*
Y37100D01*
X414482Y9600D02*
Y37100D01*
X424718Y31482D02*
Y37100D01*
X180013Y-148293D02*
X185717Y-142589D01*
X163000Y-148293D02*
X180013D01*
X179979Y-101845D02*
X185683Y-107549D01*
X163100Y-101845D02*
X179979D01*
X367500Y-111500D02*
X370600Y-114600D01*
Y-116121D02*
Y-114600D01*
X89849Y-184200D02*
X95500D01*
X98200Y-181500D01*
Y-178100D01*
X103200Y-173100D01*
X110800D01*
X155200Y-162900D02*
Y-144800D01*
X158400Y-141600D01*
X163000D01*
X68400Y-189200D02*
X70951D01*
X62500Y-195100D02*
X68400Y-189200D01*
X55000Y-195100D02*
X62500D01*
X52400Y-192500D02*
X55000Y-195100D01*
X110800Y-173100D02*
X118400Y-165500D01*
X152600D01*
X155200Y-162900D01*
X37651Y-120900D02*
X38151Y-121400D01*
X163000Y-141600D02*
Y-108638D01*
X163100Y-108538D01*
X354293Y-107900D02*
X360200D01*
X362100Y-106000D01*
Y-99000D01*
X59482Y31582D02*
Y37100D01*
X56200Y28300D02*
X59482Y31582D01*
X56100Y28400D02*
X56200Y28300D01*
X55600Y28400D02*
X56100D01*
X52400Y-192500D02*
Y-176400D01*
X63300Y-165500D01*
X118400D01*
D62*
X418200Y-168700D02*
X423700Y-163200D01*
X406600Y-168700D02*
X418200D01*
X423300Y-153600D02*
X423900Y-154200D01*
X406900Y-153600D02*
X423300D01*
X346000Y-118500D02*
X347600Y-116900D01*
X338400Y-118500D02*
X346000D01*
X346600Y-106900D02*
X347600Y-107900D01*
X338400Y-106900D02*
X346600D01*
X317200Y-168600D02*
X318707Y-170107D01*
Y-175700D02*
Y-170107D01*
X281800Y-182200D02*
X282000Y-182400D01*
X267800Y-182200D02*
X281800D01*
X291400Y-193700D02*
X308100Y-210400D01*
X291400Y-193700D02*
Y-179600D01*
X287307Y-175507D02*
X291400Y-179600D01*
X267800Y-175507D02*
X287307D01*
X354400Y-107593D02*
Y-84600D01*
Y-107593D02*
X354500Y-107693D01*
X309200Y-181200D02*
X314700Y-175700D01*
X318707D01*
X430200Y-145400D02*
X430593Y-145793D01*
X414700Y-129900D02*
X430200Y-145400D01*
X448993Y-145793D02*
X451593Y-148393D01*
X430593Y-145793D02*
X448993D01*
X370600Y-129900D02*
X414700D01*
X354293Y-128800D02*
X355393Y-129900D01*
X351900Y-135600D02*
Y-131193D01*
X354293Y-128800D01*
Y-116900D01*
Y-107900D01*
X355393Y-129900D02*
X370600D01*
X430593Y-154200D02*
Y-145793D01*
X434000Y-177113D02*
Y-172300D01*
X437200Y-169100D01*
Y-157200D01*
X434200Y-154200D02*
X437200Y-157200D01*
X430593Y-154200D02*
X434200D01*
X354293Y-107900D02*
X354500Y-107693D01*
X308100Y-210400D02*
X358717D01*
X385017Y-184100D01*
X413600D01*
X421100Y-191600D01*
Y-206800D02*
Y-191600D01*
Y-206800D02*
X426100Y-211800D01*
X470400D01*
X477600Y-204600D01*
Y-179600D01*
X475300Y-177300D02*
X477600Y-179600D01*
X466293Y-177300D02*
X475300D01*
X451593Y-162600D02*
X466293Y-177300D01*
X451593Y-162600D02*
Y-148393D01*
D63*
X340200Y-131500D02*
Y-130800D01*
X332000Y-122600D02*
X340200Y-130800D01*
X364500Y-138700D02*
X365920Y-140120D01*
X370600D01*
X332000Y-122600D02*
Y-100800D01*
X334000Y-98800D01*
X339500D01*
D64*
X74679Y-211408D02*
D03*
X80115Y-222589D02*
D03*
X85550Y-211408D02*
D03*
X90985Y-222589D02*
D03*
X96420Y-211408D02*
D03*
X101855Y-222589D02*
D03*
X107290Y-211408D02*
D03*
X112725Y-222589D02*
D03*
X118160Y-211408D02*
D03*
X123595Y-222589D02*
D03*
X129030Y-211408D02*
D03*
X134465Y-222589D02*
D03*
X139900Y-211408D02*
D03*
X145335Y-222589D02*
D03*
X150770Y-211408D02*
D03*
X156205Y-222589D02*
D03*
X161640Y-211408D02*
D03*
X167075Y-222589D02*
D03*
X172510Y-211408D02*
D03*
X177945Y-222589D02*
D03*
X183380Y-211408D02*
D03*
X188815Y-222589D02*
D03*
X194250Y-211408D02*
D03*
X199685Y-222589D02*
D03*
D65*
X205120Y-211408D02*
D03*
D66*
X232522Y-216998D02*
D03*
X47278D02*
D03*
D67*
X10000Y0D02*
D03*
X0D02*
D03*
X700Y-157600D02*
D03*
X10700D02*
D03*
X20700D02*
D03*
X30700D02*
D03*
X40700D02*
D03*
X700Y-179253D02*
D03*
X10700D02*
D03*
X20700D02*
D03*
X30700D02*
D03*
X40700D02*
D03*
D68*
X-5876Y34836D02*
D03*
X489789D02*
D03*
Y-250282D02*
D03*
X-5876D02*
D03*
D69*
X96300Y-53364D02*
D03*
D70*
X96202Y-23836D02*
D03*
D71*
X96300Y-38600D02*
D03*
D72*
X358617Y-210400D02*
D03*
X336400Y-200400D02*
D03*
X318684D02*
D03*
X327542D02*
D03*
X345258D02*
D03*
X323183Y-210400D02*
D03*
X332042D02*
D03*
X340900D02*
D03*
X349758D02*
D03*
X318684Y-220400D02*
D03*
X327542D02*
D03*
X336400D02*
D03*
X345258D02*
D03*
X354117D02*
D03*
X302600Y-95900D02*
D03*
Y-105900D02*
D03*
Y-115900D02*
D03*
Y-125900D02*
D03*
Y-135900D02*
D03*
Y-145900D02*
D03*
Y-155900D02*
D03*
D73*
X386400Y-210400D02*
D03*
X286400D02*
D03*
D74*
X354117Y-200400D02*
D03*
D75*
X484700Y-144600D02*
D03*
D76*
X474700D02*
D03*
D77*
X195962Y34117D02*
D03*
X291238D02*
D03*
D78*
X460200Y-156300D02*
D03*
X470900Y21500D02*
D03*
X455200Y5800D02*
D03*
X480900Y-56200D02*
D03*
X375800Y10900D02*
D03*
X375200Y-66300D02*
D03*
X406600Y-42900D02*
D03*
X454913Y-177113D02*
D03*
D79*
X418900Y14800D02*
D03*
X163000Y-124800D02*
D03*
X223600Y-89500D02*
D03*
X202820Y-143679D02*
D03*
X288700Y-111500D02*
D03*
X327000Y-144900D02*
D03*
X260600Y-110200D02*
D03*
X300700Y-190000D02*
D03*
X324300Y-189900D02*
D03*
X335500Y-188200D02*
D03*
X297400Y-192600D02*
D03*
X332500Y-127900D02*
D03*
X340200Y-131500D02*
D03*
X34700Y-61400D02*
D03*
X195600Y-133600D02*
D03*
X232300Y-76800D02*
D03*
X287200Y-64900D02*
D03*
X287100Y-76939D02*
D03*
X201800Y-129900D02*
D03*
X185600Y-114800D02*
D03*
X232200Y-118500D02*
D03*
X234700Y-121200D02*
D03*
X198400Y-192700D02*
D03*
X207600Y-192500D02*
D03*
X170100Y-192100D02*
D03*
X362100Y-99000D02*
D03*
X364500Y-138700D02*
D03*
X367500Y-111500D02*
D03*
X375500Y-122700D02*
D03*
X315500Y-134800D02*
D03*
X282200Y-151200D02*
D03*
X311500Y-129500D02*
D03*
X229500Y-115700D02*
D03*
X226700Y-112500D02*
D03*
X223400Y-128900D02*
D03*
X223200Y-134600D02*
D03*
X109200Y-170100D02*
D03*
X119900Y-170000D02*
D03*
X283400Y-114700D02*
D03*
X285600Y-117900D02*
D03*
X339500Y-98800D02*
D03*
X322100Y-110200D02*
D03*
X321900Y-122000D02*
D03*
X287800Y-125600D02*
D03*
X281500Y-130900D02*
D03*
X290700Y-135900D02*
D03*
X293000Y-148400D02*
D03*
X218200Y-180400D02*
D03*
X246200Y-183100D02*
D03*
X238400Y-180600D02*
D03*
X230000Y-180400D02*
D03*
X227000Y-184000D02*
D03*
X228200Y-169000D02*
D03*
X216500Y-170600D02*
D03*
X209000Y-163500D02*
D03*
X206500Y-165900D02*
D03*
X202000Y-171900D02*
D03*
X204300Y-168400D02*
D03*
X249600Y-90700D02*
D03*
X230300Y-89400D02*
D03*
D80*
X414800Y9600D02*
D03*
X431400Y24800D02*
D03*
X398900Y22800D02*
D03*
X208200Y-174200D02*
D03*
X360500Y-91200D02*
D03*
X295000Y-52000D02*
D03*
X266100Y-51700D02*
D03*
X148300Y-40400D02*
D03*
X160300Y-35700D02*
D03*
X281100Y-82100D02*
D03*
X318400Y-81900D02*
D03*
X247200Y-82100D02*
D03*
X152200Y-93300D02*
D03*
X55600Y28400D02*
D03*
X65800Y-24800D02*
D03*
X112200Y21800D02*
D03*
X387800Y11200D02*
D03*
X378200Y35000D02*
D03*
X240400Y-33600D02*
D03*
X59000Y-169900D02*
D03*
D81*
X282000Y-182400D02*
D03*
X131400Y-84200D02*
D03*
X164500Y-78100D02*
D03*
X354400Y-84600D02*
D03*
X309200Y-181200D02*
D03*
X246300Y-70800D02*
D03*
X430200Y-145400D02*
D03*
X82000Y-147200D02*
D03*
X75500Y-5600D02*
D03*
D82*
X415000Y-177300D02*
D03*
D83*
X317200Y-168800D02*
D03*
X79900D02*
D03*
M02*
