G04 Layer_Color=65535*
%FSLAX25Y25*%
%MOIN*%
G70*
G01*
G75*
%ADD55C,0.01000*%
%ADD92C,0.02362*%
%ADD93C,0.00984*%
%ADD94C,0.00787*%
%ADD95C,0.00700*%
%ADD96C,0.00800*%
%ADD97C,0.00394*%
%ADD98C,0.00400*%
%ADD99C,0.00500*%
G36*
X488536Y-153610D02*
X488556Y-153639D01*
X488595Y-153698D01*
X488644Y-153766D01*
X488712Y-153844D01*
X488790Y-153942D01*
X488878Y-154049D01*
X488975Y-154166D01*
X489083Y-154293D01*
X489200Y-154420D01*
X489473Y-154693D01*
X489776Y-154957D01*
X490108Y-155210D01*
Y-155835D01*
X483324D01*
Y-154859D01*
X488595D01*
X488585Y-154840D01*
X488527Y-154791D01*
X488478Y-154752D01*
X488429Y-154713D01*
X488370Y-154654D01*
X488312Y-154586D01*
X488243Y-154498D01*
X488165Y-154410D01*
X488087Y-154303D01*
X487999Y-154195D01*
X487921Y-154069D01*
X487834Y-153922D01*
X487736Y-153766D01*
X487648Y-153600D01*
X488527D01*
X488536Y-153610D01*
D02*
G37*
G36*
X488292Y-158051D02*
X488341Y-158060D01*
X488409Y-158090D01*
X488487Y-158119D01*
X488585Y-158158D01*
X488800Y-158256D01*
X489044Y-158373D01*
X489278Y-158509D01*
X489493Y-158675D01*
X489590Y-158763D01*
X489678Y-158851D01*
X489688Y-158861D01*
X489698Y-158870D01*
X489717Y-158900D01*
X489747Y-158939D01*
X489776Y-158987D01*
X489815Y-159046D01*
X489893Y-159183D01*
X489971Y-159358D01*
X490049Y-159554D01*
X490108Y-159778D01*
X490137Y-160022D01*
Y-160042D01*
X490147Y-160090D01*
Y-160169D01*
Y-160266D01*
Y-160383D01*
Y-160500D01*
X490117Y-160754D01*
Y-160774D01*
X490108Y-160813D01*
X490088Y-160871D01*
X490059Y-160959D01*
X490020Y-161057D01*
X489971Y-161174D01*
X489913Y-161291D01*
X489834Y-161418D01*
X489825Y-161437D01*
X489795Y-161476D01*
X489737Y-161545D01*
X489669Y-161623D01*
X489571Y-161711D01*
X489454Y-161808D01*
X489317Y-161906D01*
X489161Y-161994D01*
X489141Y-162003D01*
X489083Y-162033D01*
X488985Y-162062D01*
X488868Y-162101D01*
X488712Y-162130D01*
X488527Y-162160D01*
X488331Y-162169D01*
X488107Y-162160D01*
X488078D01*
X488048Y-162150D01*
X487999Y-162140D01*
X487941Y-162130D01*
X487873Y-162111D01*
X487785Y-162091D01*
X487697Y-162062D01*
X487590Y-162033D01*
X487482Y-161984D01*
X487238Y-161876D01*
X487102Y-161818D01*
X486955Y-161740D01*
X486809Y-161652D01*
X486653Y-161554D01*
X486643Y-161545D01*
X486614Y-161525D01*
X486565Y-161496D01*
X486496Y-161447D01*
X486409Y-161379D01*
X486301Y-161301D01*
X486174Y-161203D01*
X486038Y-161096D01*
X485872Y-160959D01*
X485686Y-160813D01*
X485491Y-160647D01*
X485267Y-160451D01*
X485033Y-160247D01*
X484779Y-160022D01*
X484505Y-159768D01*
X484213Y-159495D01*
Y-162257D01*
X483324D01*
Y-158187D01*
X483607D01*
X483637Y-158197D01*
X483686D01*
X483734Y-158217D01*
X483793Y-158226D01*
X483949Y-158275D01*
X484115Y-158334D01*
X484291Y-158431D01*
X484476Y-158568D01*
X484574Y-158646D01*
X484662Y-158734D01*
X484671Y-158744D01*
X484681Y-158753D01*
X484710Y-158783D01*
X484749Y-158822D01*
X484798Y-158870D01*
X484867Y-158939D01*
X484935Y-159007D01*
X485023Y-159085D01*
X485120Y-159173D01*
X485228Y-159271D01*
X485345Y-159368D01*
X485472Y-159485D01*
X485618Y-159602D01*
X485765Y-159729D01*
X485930Y-159866D01*
X486106Y-160003D01*
X486116Y-160012D01*
X486145Y-160032D01*
X486204Y-160071D01*
X486262Y-160129D01*
X486350Y-160188D01*
X486438Y-160256D01*
X486545Y-160334D01*
X486653Y-160413D01*
X486897Y-160578D01*
X487141Y-160735D01*
X487375Y-160871D01*
X487492Y-160930D01*
X487590Y-160979D01*
X487599D01*
X487609Y-160988D01*
X487638Y-160998D01*
X487677Y-161018D01*
X487775Y-161047D01*
X487892Y-161086D01*
X488029Y-161115D01*
X488175Y-161144D01*
X488322Y-161154D01*
X488458Y-161144D01*
X488478D01*
X488517Y-161135D01*
X488585Y-161115D01*
X488663Y-161086D01*
X488751Y-161047D01*
X488849Y-160988D01*
X488946Y-160910D01*
X489034Y-160822D01*
X489044Y-160813D01*
X489073Y-160774D01*
X489102Y-160715D01*
X489141Y-160637D01*
X489181Y-160549D01*
X489210Y-160432D01*
X489220Y-160315D01*
Y-160178D01*
Y-160159D01*
X489210Y-160120D01*
X489190Y-160042D01*
X489171Y-159954D01*
X489132Y-159846D01*
X489083Y-159729D01*
X489015Y-159602D01*
X488927Y-159476D01*
X488917Y-159456D01*
X488878Y-159417D01*
X488819Y-159358D01*
X488731Y-159280D01*
X488624Y-159193D01*
X488478Y-159105D01*
X488312Y-159007D01*
X488107Y-158929D01*
X488243Y-158031D01*
X488253D01*
X488292Y-158051D01*
D02*
G37*
G36*
X490030Y-163907D02*
X485159Y-165205D01*
X490030Y-166503D01*
Y-167606D01*
X483207Y-165663D01*
Y-164746D01*
X490030Y-162804D01*
Y-163907D01*
D02*
G37*
G36*
X304695Y-176251D02*
X304703Y-176275D01*
X304719Y-176314D01*
X304750Y-176360D01*
X304773Y-176431D01*
X304805Y-176509D01*
X304844Y-176595D01*
X304875Y-176696D01*
X304914Y-176806D01*
X304945Y-176923D01*
X304984Y-177056D01*
X305008Y-177188D01*
X305055Y-177485D01*
X305063Y-177634D01*
X305070Y-177798D01*
Y-177805D01*
Y-177844D01*
X305063Y-177891D01*
Y-177962D01*
X305055Y-178048D01*
X305039Y-178141D01*
X305016Y-178251D01*
X304992Y-178368D01*
X304961Y-178493D01*
X304914Y-178625D01*
X304867Y-178758D01*
X304805Y-178891D01*
X304734Y-179024D01*
X304648Y-179156D01*
X304555Y-179281D01*
X304446Y-179399D01*
X304438Y-179406D01*
X304414Y-179422D01*
X304383Y-179453D01*
X304328Y-179492D01*
X304266Y-179539D01*
X304196Y-179586D01*
X304102Y-179641D01*
X304000Y-179695D01*
X303891Y-179758D01*
X303766Y-179813D01*
X303625Y-179859D01*
X303477Y-179906D01*
X303313Y-179945D01*
X303149Y-179977D01*
X302962Y-179992D01*
X302774Y-180000D01*
X302727D01*
X302673Y-179992D01*
X302594D01*
X302509Y-179977D01*
X302399Y-179961D01*
X302282Y-179945D01*
X302157Y-179914D01*
X302024Y-179883D01*
X301884Y-179836D01*
X301735Y-179781D01*
X301595Y-179719D01*
X301447Y-179641D01*
X301306Y-179555D01*
X301165Y-179453D01*
X301032Y-179336D01*
X301025Y-179328D01*
X301001Y-179305D01*
X300970Y-179266D01*
X300923Y-179211D01*
X300876Y-179149D01*
X300814Y-179071D01*
X300751Y-178977D01*
X300689Y-178868D01*
X300626Y-178750D01*
X300564Y-178618D01*
X300501Y-178477D01*
X300455Y-178321D01*
X300408Y-178157D01*
X300377Y-177985D01*
X300353Y-177805D01*
X300345Y-177610D01*
Y-177602D01*
Y-177579D01*
Y-177540D01*
Y-177485D01*
X300353Y-177423D01*
X300361Y-177345D01*
Y-177267D01*
X300377Y-177173D01*
X300400Y-176978D01*
X300447Y-176767D01*
X300501Y-176556D01*
X300580Y-176353D01*
X301220D01*
X301212Y-176360D01*
X301204Y-176376D01*
X301189Y-176407D01*
X301165Y-176454D01*
X301142Y-176501D01*
X301111Y-176571D01*
X301079Y-176642D01*
X301040Y-176728D01*
X301009Y-176813D01*
X300978Y-176915D01*
X300947Y-177024D01*
X300923Y-177141D01*
X300884Y-177392D01*
X300869Y-177524D01*
Y-177665D01*
Y-177673D01*
Y-177696D01*
Y-177735D01*
X300876Y-177790D01*
X300884Y-177852D01*
X300892Y-177930D01*
X300908Y-178008D01*
X300931Y-178102D01*
X300993Y-178297D01*
X301032Y-178399D01*
X301087Y-178500D01*
X301142Y-178602D01*
X301212Y-178703D01*
X301290Y-178805D01*
X301384Y-178899D01*
X301392Y-178907D01*
X301407Y-178922D01*
X301439Y-178946D01*
X301478Y-178969D01*
X301524Y-179008D01*
X301587Y-179047D01*
X301657Y-179094D01*
X301743Y-179133D01*
X301837Y-179180D01*
X301939Y-179227D01*
X302048Y-179266D01*
X302165Y-179297D01*
X302298Y-179328D01*
X302438Y-179352D01*
X302579Y-179367D01*
X302735Y-179375D01*
X302821D01*
X302876Y-179367D01*
X302946Y-179360D01*
X303032Y-179352D01*
X303126Y-179336D01*
X303227Y-179321D01*
X303438Y-179266D01*
X303547Y-179227D01*
X303664Y-179188D01*
X303774Y-179133D01*
X303875Y-179078D01*
X303977Y-179008D01*
X304071Y-178930D01*
X304078Y-178922D01*
X304094Y-178907D01*
X304117Y-178883D01*
X304141Y-178852D01*
X304180Y-178805D01*
X304219Y-178750D01*
X304266Y-178688D01*
X304305Y-178610D01*
X304352Y-178532D01*
X304399Y-178438D01*
X304438Y-178344D01*
X304469Y-178235D01*
X304500Y-178118D01*
X304524Y-177993D01*
X304539Y-177868D01*
X304547Y-177727D01*
Y-177719D01*
Y-177704D01*
Y-177673D01*
Y-177641D01*
X304539Y-177594D01*
Y-177540D01*
X304524Y-177423D01*
X304500Y-177282D01*
X304461Y-177134D01*
X304414Y-176978D01*
X304352Y-176837D01*
X303110D01*
Y-177829D01*
X302587D01*
Y-176243D01*
X304688D01*
X304695Y-176251D01*
D02*
G37*
G36*
X302759Y-166543D02*
X302829D01*
X302923Y-166559D01*
X303024Y-166575D01*
X303141Y-166590D01*
X303266Y-166621D01*
X303399Y-166660D01*
X303539Y-166707D01*
X303680Y-166762D01*
X303821Y-166832D01*
X303961Y-166910D01*
X304102Y-167004D01*
X304235Y-167106D01*
X304360Y-167231D01*
X304367Y-167238D01*
X304383Y-167262D01*
X304422Y-167301D01*
X304461Y-167356D01*
X304508Y-167426D01*
X304563Y-167504D01*
X304617Y-167605D01*
X304680Y-167715D01*
X304742Y-167840D01*
X304797Y-167973D01*
X304852Y-168113D01*
X304899Y-168277D01*
X304938Y-168441D01*
X304969Y-168621D01*
X304992Y-168816D01*
X305000Y-169011D01*
Y-170269D01*
X300415D01*
Y-168965D01*
Y-168949D01*
Y-168918D01*
Y-168863D01*
X300423Y-168793D01*
X300431Y-168699D01*
X300447Y-168597D01*
X300470Y-168480D01*
X300494Y-168355D01*
X300525Y-168222D01*
X300564Y-168082D01*
X300611Y-167941D01*
X300673Y-167793D01*
X300744Y-167652D01*
X300822Y-167504D01*
X300915Y-167363D01*
X301025Y-167231D01*
X301032Y-167223D01*
X301056Y-167199D01*
X301087Y-167168D01*
X301134Y-167121D01*
X301197Y-167067D01*
X301275Y-167012D01*
X301361Y-166949D01*
X301454Y-166879D01*
X301571Y-166817D01*
X301689Y-166754D01*
X301821Y-166700D01*
X301970Y-166645D01*
X302126Y-166598D01*
X302290Y-166567D01*
X302470Y-166543D01*
X302657Y-166536D01*
X302704D01*
X302759Y-166543D01*
D02*
G37*
G36*
X305000Y-172159D02*
X301439Y-174455D01*
X301431Y-174463D01*
X301415Y-174470D01*
X301384Y-174486D01*
X301345Y-174510D01*
X301243Y-174564D01*
X301134Y-174611D01*
Y-174635D01*
X301142D01*
X301165Y-174627D01*
X301212D01*
X301275Y-174619D01*
X301361Y-174611D01*
X301470D01*
X301610Y-174603D01*
X305000D01*
Y-175197D01*
X300415D01*
Y-174447D01*
X303922Y-172213D01*
X303930Y-172206D01*
X303961Y-172190D01*
X304008Y-172159D01*
X304055Y-172127D01*
X304156Y-172065D01*
X304203Y-172042D01*
X304235Y-172026D01*
Y-172018D01*
X304196D01*
X304149Y-172026D01*
X304078D01*
X303985Y-172034D01*
X303875D01*
X303735Y-172042D01*
X300415D01*
Y-171448D01*
X305000D01*
Y-172159D01*
D02*
G37*
%LPC*%
G36*
X302665Y-167160D02*
X302579D01*
X302524Y-167168D01*
X302454Y-167176D01*
X302368Y-167184D01*
X302282Y-167199D01*
X302181Y-167223D01*
X301970Y-167285D01*
X301868Y-167324D01*
X301759Y-167371D01*
X301657Y-167434D01*
X301556Y-167504D01*
X301462Y-167582D01*
X301376Y-167668D01*
X301368Y-167676D01*
X301361Y-167691D01*
X301337Y-167723D01*
X301306Y-167762D01*
X301275Y-167809D01*
X301236Y-167871D01*
X301197Y-167941D01*
X301157Y-168019D01*
X301118Y-168113D01*
X301079Y-168207D01*
X301040Y-168316D01*
X301009Y-168433D01*
X300978Y-168558D01*
X300954Y-168699D01*
X300947Y-168840D01*
X300939Y-168988D01*
Y-169675D01*
X304477D01*
Y-169011D01*
Y-169003D01*
Y-168972D01*
Y-168925D01*
X304469Y-168871D01*
X304461Y-168793D01*
X304453Y-168715D01*
X304438Y-168621D01*
X304414Y-168519D01*
X304360Y-168301D01*
X304321Y-168184D01*
X304274Y-168074D01*
X304219Y-167957D01*
X304156Y-167855D01*
X304086Y-167746D01*
X304000Y-167652D01*
X303993Y-167645D01*
X303977Y-167629D01*
X303954Y-167605D01*
X303914Y-167574D01*
X303860Y-167535D01*
X303805Y-167496D01*
X303735Y-167449D01*
X303657Y-167403D01*
X303563Y-167363D01*
X303461Y-167317D01*
X303352Y-167278D01*
X303235Y-167238D01*
X303110Y-167207D01*
X302969Y-167184D01*
X302821Y-167168D01*
X302665Y-167160D01*
D02*
G37*
%LPD*%
D55*
X355965Y-7949D02*
X355844Y-6949D01*
X355487Y-6008D01*
X354915Y-5179D01*
X354161Y-4512D01*
X353270Y-4044D01*
X352292Y-3803D01*
X351286D01*
X350308Y-4044D01*
X349417Y-4512D01*
X348663Y-5179D01*
X348091Y-6008D01*
X347734Y-6949D01*
X347613Y-7949D01*
X347734Y-8948D01*
X348091Y-9890D01*
X348663Y-10718D01*
X349417Y-11386D01*
X350308Y-11854D01*
X351286Y-12094D01*
X352292D01*
X353270Y-11854D01*
X354161Y-11386D01*
X354915Y-10718D01*
X355487Y-9889D01*
X355844Y-8948D01*
X355965Y-7949D01*
X113100Y-153900D02*
X112350Y-153467D01*
Y-154333D01*
X113100Y-153900D01*
X113718D02*
X113297Y-153026D01*
X112351Y-152810D01*
X111593Y-153415D01*
Y-154385D01*
X112351Y-154990D01*
X113297Y-154774D01*
X113718Y-153900D01*
X53364Y-77900D02*
X63600D01*
X53364Y-88136D02*
Y-77900D01*
Y-88136D02*
X63600D01*
Y-77900D01*
X315600Y-71500D02*
X363600D01*
Y26500D01*
X315600D02*
X363600D01*
X315600Y-71500D02*
Y26500D01*
X315800Y-16900D02*
X363600D01*
X21483Y-270165D02*
X21500Y-259000D01*
X275814Y-278039D02*
X397074D01*
Y-220558D01*
X275814D02*
X397074D01*
X275814Y-278039D02*
Y-220558D01*
X35066Y-278039D02*
X244121D01*
Y-220558D01*
X35066D02*
X244121D01*
X35066Y-278039D02*
Y-220558D01*
X403964Y55898D02*
X435460D01*
Y36213D02*
Y55898D01*
X403964Y36213D02*
X435460D01*
X403964D02*
Y55898D01*
X352192Y47600D02*
Y54717D01*
X186050Y-53550D02*
X297861D01*
Y60623D01*
X186050D02*
X297861D01*
X186050Y-53550D02*
Y60623D01*
X131700Y45700D02*
X131719Y54717D01*
X48452Y55898D02*
X79948D01*
X48452Y36213D02*
Y55898D01*
Y36213D02*
X79948D01*
Y55898D01*
X241956Y-270165D02*
Y-260000D01*
X-25761Y-107724D02*
X-12300Y-107700D01*
X51956Y-3100D02*
Y2926D01*
X426500Y-218373D02*
X431956D01*
X51956Y2926D02*
X58200D01*
X431956Y-218373D02*
Y-212500D01*
X395900Y-255400D02*
Y-190400D01*
X276900D02*
X395900D01*
X276900Y-255400D02*
Y-190400D01*
Y-255400D02*
X395900D01*
X120600Y-159790D02*
Y-157900D01*
Y-127400D02*
Y-119900D01*
Y-98400D02*
Y-96821D01*
X72600D02*
X120600D01*
X72600Y-159821D02*
X120632D01*
X72600Y-98900D02*
Y-96821D01*
Y-159821D02*
Y-157900D01*
Y-127900D02*
Y-120400D01*
X484400Y-104900D02*
Y-67400D01*
X493403Y-110900D02*
Y-60600D01*
X453300D02*
X493403D01*
X443600Y-70300D02*
X453300Y-60600D01*
X443600Y-102100D02*
Y-70300D01*
Y-102100D02*
X452400Y-110900D01*
X493400D02*
X493403Y-110897D01*
X308100Y-163900D02*
X308600D01*
Y-86900D01*
X296600D02*
X308600D01*
X296600Y-163900D02*
X308600D01*
X296600Y-184400D02*
Y-67900D01*
D92*
X223505Y-109624D02*
X223061Y-108701D01*
X222062Y-108473D01*
X221260Y-109112D01*
Y-110137D01*
X222062Y-110776D01*
X223061Y-110548D01*
X223505Y-109624D01*
D93*
X213171Y-103522D02*
X212433Y-103096D01*
Y-103948D01*
X213171Y-103522D01*
X90341Y-192546D02*
X89603Y-192120D01*
Y-192973D01*
X90341Y-192546D01*
X147246Y-26349D02*
X146508Y-25923D01*
Y-26775D01*
X147246Y-26349D01*
X38643Y-108054D02*
X37905Y-107627D01*
Y-108480D01*
X38643Y-108054D01*
X443547Y-171896D02*
X442809Y-171470D01*
Y-172322D01*
X443547Y-171896D01*
X417478Y-74565D02*
X416740Y-74139D01*
Y-74992D01*
X417478Y-74565D01*
D94*
X215278Y-278022D02*
X216325Y-277814D01*
X217213Y-277221D01*
X217806Y-276333D01*
X218014Y-275286D01*
X61341Y-257156D02*
X61133Y-256109D01*
X60540Y-255221D01*
X59652Y-254628D01*
X58605Y-254420D01*
X220770D02*
X219723Y-254628D01*
X218835Y-255221D01*
X218242Y-256109D01*
X218034Y-257156D01*
X61361Y-275286D02*
X61569Y-276333D01*
X62162Y-277221D01*
X63050Y-277814D01*
X64097Y-278022D01*
X189700Y-146569D02*
X190619Y-146101D01*
X191484Y-145540D01*
X192285Y-144892D01*
X193014Y-144164D01*
X193663Y-143363D01*
X194225Y-142499D01*
X194693Y-141580D01*
X195063Y-140618D01*
X195330Y-139622D01*
X195491Y-138604D01*
X195545Y-137575D01*
X195543Y-112569D02*
X195489Y-111539D01*
X195327Y-110521D01*
X195060Y-109526D01*
X194691Y-108563D01*
X194222Y-107645D01*
X193661Y-106781D01*
X193012Y-105980D01*
X192282Y-105251D01*
X191481Y-104603D01*
X190616Y-104042D01*
X189697Y-103575D01*
X175909Y-137570D02*
X175952Y-138601D01*
X176103Y-139622D01*
X176360Y-140621D01*
X176721Y-141589D01*
X177180Y-142513D01*
X177734Y-143384D01*
X178376Y-144192D01*
X179099Y-144928D01*
X179896Y-145585D01*
X180756Y-146154D01*
X181672Y-146631D01*
X181666Y-103494D02*
X180747Y-103969D01*
X179882Y-104538D01*
X179082Y-105194D01*
X178355Y-105931D01*
X177710Y-106741D01*
X177153Y-107613D01*
X176691Y-108539D01*
X176329Y-109509D01*
X176070Y-110511D01*
X175918Y-111535D01*
X175875Y-112568D01*
X430191Y-54309D02*
X431179Y-54179D01*
X432100Y-53798D01*
X432891Y-53191D01*
X433498Y-52400D01*
X433879Y-51479D01*
X434009Y-50491D01*
Y-9309D02*
X433879Y-8321D01*
X433498Y-7400D01*
X432891Y-6609D01*
X432100Y-6002D01*
X431179Y-5621D01*
X430191Y-5491D01*
X389009D02*
X388021Y-5621D01*
X387100Y-6002D01*
X386309Y-6609D01*
X385702Y-7400D01*
X385321Y-8321D01*
X385191Y-9309D01*
Y-50491D02*
X385321Y-51479D01*
X385702Y-52400D01*
X386309Y-53191D01*
X387100Y-53798D01*
X388021Y-54179D01*
X389009Y-54309D01*
X425600Y-15900D02*
X424919Y-15159D01*
X424205Y-14451D01*
X423457Y-13777D01*
X422679Y-13139D01*
X421871Y-12539D01*
X421036Y-11978D01*
X420176Y-11457D01*
X419291Y-10977D01*
X418385Y-10540D01*
X417459Y-10146D01*
X416516Y-9796D01*
X415557Y-9492D01*
X414584Y-9233D01*
X413601Y-9020D01*
X412609Y-8854D01*
X411610Y-8735D01*
X410606Y-8664D01*
X409600Y-8640D01*
X408594Y-8664D01*
X407590Y-8735D01*
X406591Y-8854D01*
X405599Y-9020D01*
X404615Y-9233D01*
X403643Y-9492D01*
X402684Y-9796D01*
X401741Y-10146D01*
X400815Y-10540D01*
X399909Y-10977D01*
X399025Y-11457D01*
X398164Y-11978D01*
X397329Y-12539D01*
X396521Y-13139D01*
X395743Y-13777D01*
X394995Y-14451D01*
X394281Y-15159D01*
X393600Y-15900D01*
Y-43900D02*
X394281Y-44641D01*
X394995Y-45349D01*
X395743Y-46023D01*
X396521Y-46661D01*
X397329Y-47261D01*
X398164Y-47822D01*
X399025Y-48343D01*
X399909Y-48823D01*
X400815Y-49260D01*
X401741Y-49654D01*
X402684Y-50004D01*
X403643Y-50308D01*
X404615Y-50567D01*
X405599Y-50780D01*
X406591Y-50946D01*
X407590Y-51065D01*
X408594Y-51136D01*
X409600Y-51160D01*
X410606Y-51136D01*
X411610Y-51065D01*
X412609Y-50946D01*
X413601Y-50780D01*
X414584Y-50567D01*
X415557Y-50308D01*
X416516Y-50004D01*
X417459Y-49654D01*
X418385Y-49260D01*
X419291Y-48823D01*
X420176Y-48343D01*
X421036Y-47822D01*
X421871Y-47261D01*
X422679Y-46661D01*
X423457Y-46023D01*
X424205Y-45349D01*
X424919Y-44641D01*
X425600Y-43900D01*
X204100Y54900D02*
X204113Y53899D01*
X204151Y52899D01*
X204214Y51901D01*
X204303Y50904D01*
X204416Y49910D01*
X204556Y48919D01*
X204720Y47931D01*
X204909Y46949D01*
X205122Y45971D01*
X205361Y44999D01*
X205624Y44034D01*
X205911Y43075D01*
X206223Y42124D01*
X206559Y41181D01*
X206918Y40247D01*
X207301Y39323D01*
X207707Y38408D01*
X208137Y37504D01*
X208589Y36612D01*
X209063Y35730D01*
X209560Y34862D01*
X210079Y34006D01*
X210619Y33163D01*
X211180Y32335D01*
X211762Y31521D01*
X212364Y30722D01*
X212987Y29938D01*
X213629Y29171D01*
X214290Y28420D01*
X214971Y27686D01*
X215669Y26969D01*
X216386Y26271D01*
X217120Y25590D01*
X217871Y24929D01*
X218638Y24287D01*
X219422Y23664D01*
X220221Y23062D01*
X221035Y22480D01*
X221864Y21919D01*
X222706Y21378D01*
X223562Y20860D01*
X224431Y20363D01*
X225312Y19889D01*
X226204Y19437D01*
X227108Y19007D01*
X228023Y18601D01*
X228947Y18218D01*
X229882Y17859D01*
X230824Y17523D01*
X231775Y17211D01*
X232734Y16924D01*
X233699Y16661D01*
X234671Y16422D01*
X235649Y16209D01*
X236631Y16020D01*
X237619Y15856D01*
X238610Y15717D01*
X239604Y15603D01*
X240601Y15514D01*
X241599Y15451D01*
X242599Y15413D01*
X243600Y15400D01*
X244601Y15413D01*
X245601Y15451D01*
X246599Y15514D01*
X247596Y15603D01*
X248590Y15717D01*
X249581Y15856D01*
X250569Y16019D01*
X251551Y16208D01*
X252529Y16422D01*
X253501Y16661D01*
X254466Y16924D01*
X255425Y17211D01*
X256376Y17523D01*
X257318Y17859D01*
X258252Y18218D01*
X259177Y18601D01*
X260091Y19007D01*
X260995Y19437D01*
X261888Y19889D01*
X262769Y20363D01*
X263638Y20860D01*
X264494Y21378D01*
X265336Y21918D01*
X266165Y22480D01*
X266979Y23062D01*
X267778Y23664D01*
X268562Y24287D01*
X269329Y24929D01*
X270080Y25590D01*
X270814Y26270D01*
X271531Y26969D01*
X272229Y27686D01*
X272909Y28420D01*
X273571Y29171D01*
X274213Y29938D01*
X274835Y30722D01*
X275438Y31521D01*
X276020Y32335D01*
X276581Y33163D01*
X277121Y34006D01*
X277640Y34861D01*
X278136Y35730D01*
X278611Y36611D01*
X279063Y37504D01*
X279492Y38408D01*
X279899Y39323D01*
X280282Y40247D01*
X280641Y41181D01*
X280977Y42124D01*
X281288Y43075D01*
X281576Y44033D01*
X281839Y44999D01*
X282078Y45971D01*
X282291Y46948D01*
X282480Y47931D01*
X282644Y48918D01*
X282783Y49909D01*
X282897Y50903D01*
X282986Y51900D01*
X283049Y52899D01*
X283087Y53899D01*
X283100Y54899D01*
X218387Y-154113D02*
X266813D01*
X218387Y-105687D02*
X266813D01*
Y-154113D02*
Y-105687D01*
X218387Y-154113D02*
Y-105687D01*
X35160Y-242589D02*
X244215D01*
X218034Y-275266D02*
Y-257156D01*
X61341Y-275266D02*
Y-257156D01*
X64097Y-278022D02*
X215278D01*
X210554Y-242589D02*
Y-205187D01*
X35160Y-254400D02*
X244215D01*
X68821Y-242589D02*
Y-205187D01*
X35160D02*
X244215D01*
Y-254400D02*
Y-205187D01*
X35160Y-254400D02*
Y-205187D01*
X366100Y-85500D02*
X375100D01*
X366100Y-108500D02*
X375100D01*
X366100Y-93000D02*
Y-85500D01*
X375100Y-93000D02*
Y-85500D01*
Y-108500D02*
Y-101000D01*
X366100Y-108500D02*
Y-101000D01*
X465100Y-129400D02*
Y-120400D01*
X488100Y-129400D02*
Y-120400D01*
X465100Y-129400D02*
X472600D01*
X465100Y-120400D02*
X472600D01*
X480600D02*
X488100D01*
X480600Y-129400D02*
X488100D01*
X453600Y-50561D02*
Y-33239D01*
X483600Y-50561D02*
Y-33239D01*
X472600Y-50561D02*
X483600D01*
X453600D02*
X464600D01*
X472600Y-33239D02*
X483600D01*
X453600D02*
X464600D01*
X175841Y-102556D02*
X181700D01*
X189700D02*
X195526D01*
X175841Y-147508D02*
X181700D01*
X189700D02*
X195526D01*
X175841D02*
Y-102556D01*
X195539Y-147508D02*
Y-102556D01*
X154600Y-64900D02*
Y-52900D01*
X146600D02*
X154600D01*
X146600Y-64900D02*
Y-52900D01*
X76857Y-171858D02*
X83943D01*
X76857Y-191542D02*
X83943D01*
X76857D02*
Y-171858D01*
X83943Y-191542D02*
Y-171858D01*
X167443Y-20443D02*
Y-13357D01*
X147757Y-20443D02*
Y-13357D01*
X167443D01*
X147757Y-20443D02*
X167443D01*
X44057Y-128743D02*
X51143D01*
X44057Y-109057D02*
X51143D01*
Y-128743D02*
Y-109057D01*
X44057Y-128743D02*
Y-109057D01*
X420811Y-197683D02*
X447189D01*
X420811D02*
Y-183117D01*
X447189D01*
Y-197683D02*
Y-183117D01*
X452400Y-110900D02*
X493400D01*
X469700Y-139600D02*
X489700D01*
X469700Y-149600D02*
Y-139600D01*
Y-149600D02*
X489700D01*
Y-139600D01*
X389009Y-54309D02*
X430191D01*
X389009Y-5491D02*
X430191D01*
X434009Y-50491D02*
Y-43581D01*
X385191Y-50491D02*
Y-43581D01*
X434009Y-16219D02*
Y-9309D01*
X385191Y-16219D02*
Y-9309D01*
X129100Y-133400D02*
X134100D01*
X194100Y77400D02*
X195600Y78900D01*
X292100D02*
X293600Y77400D01*
X292100Y70900D02*
X293600Y69400D01*
X194100D02*
X195600Y70900D01*
X184600Y54900D02*
X204100D01*
X283100D02*
X299600D01*
X184600Y-58100D02*
X243600D01*
X184600D02*
Y21400D01*
X299600Y-58100D02*
Y21400D01*
X243600Y-58100D02*
X299600D01*
X184600Y31400D02*
Y54900D01*
X299600Y31400D02*
Y54900D01*
X194100D02*
Y70900D01*
X195600D02*
X292100D01*
X293600Y54900D02*
Y70900D01*
X194100D02*
Y77400D01*
X195600Y78900D02*
X292100D01*
X293600Y70900D02*
Y77400D01*
X381750Y-121416D02*
Y-64526D01*
X425450Y-121416D02*
Y-64526D01*
X409600Y53100D02*
X429600D01*
X431100Y36600D02*
Y42100D01*
X426600Y36600D02*
X431100D01*
X430600Y51600D02*
Y56100D01*
X408600D02*
X430600D01*
X408600Y51600D02*
Y56100D01*
Y36600D02*
Y42100D01*
Y36600D02*
X412600D01*
X54600Y53100D02*
X74600D01*
X76100Y36600D02*
Y42100D01*
X71600Y36600D02*
X76100D01*
X75600Y51600D02*
Y56100D01*
X53600D02*
X75600D01*
X53600Y51600D02*
Y56100D01*
Y36600D02*
Y42100D01*
Y36600D02*
X57600D01*
D95*
X81300Y-26100D02*
X80677Y-26888D01*
X80096Y-27706D01*
X79557Y-28554D01*
X79063Y-29428D01*
X78614Y-30326D01*
X78212Y-31247D01*
X77858Y-32186D01*
X77552Y-33143D01*
X77297Y-34114D01*
X77091Y-35097D01*
X76937Y-36089D01*
X76833Y-37088D01*
X76781Y-38091D01*
X76781Y-39095D01*
X76832Y-40098D01*
X76935Y-41097D01*
X77089Y-42089D01*
X77293Y-43072D01*
X77548Y-44043D01*
X77853Y-45000D01*
X78207Y-45940D01*
X78608Y-46861D01*
X79056Y-47759D01*
X79550Y-48634D01*
X80088Y-49482D01*
X80669Y-50301D01*
X81291Y-51089D01*
X111309D02*
X111931Y-50302D01*
X112511Y-49484D01*
X113049Y-48637D01*
X113542Y-47763D01*
X113990Y-46866D01*
X114391Y-45946D01*
X114744Y-45008D01*
X115049Y-44052D01*
X115304Y-43082D01*
X115509Y-42100D01*
X115664Y-41109D01*
X115767Y-40111D01*
X115819Y-39109D01*
X115819Y-38106D01*
X115768Y-37104D01*
X115666Y-36107D01*
X115512Y-35115D01*
X115308Y-34133D01*
X115053Y-33163D01*
X114749Y-32207D01*
X114397Y-31268D01*
X113996Y-30348D01*
X113549Y-29450D01*
X113056Y-28576D01*
X112520Y-27729D01*
X111940Y-26910D01*
X111319Y-26123D01*
X126300Y-38600D02*
X126283Y-37592D01*
X126232Y-36586D01*
X126148Y-35582D01*
X126030Y-34581D01*
X125878Y-33584D01*
X125693Y-32594D01*
X125474Y-31610D01*
X125223Y-30634D01*
X124939Y-29667D01*
X124623Y-28710D01*
X124275Y-27764D01*
X123895Y-26831D01*
X123484Y-25910D01*
X123043Y-25005D01*
X122571Y-24114D01*
X122070Y-23240D01*
X121539Y-22383D01*
X120980Y-21544D01*
X120393Y-20725D01*
X119779Y-19926D01*
X119139Y-19148D01*
X118473Y-18392D01*
X117781Y-17658D01*
X117066Y-16949D01*
X116327Y-16263D01*
X115565Y-15603D01*
X114782Y-14969D01*
X113978Y-14362D01*
X113154Y-13781D01*
X112311Y-13229D01*
X111449Y-12706D01*
X110571Y-12212D01*
X109677Y-11747D01*
X108767Y-11313D01*
X107843Y-10910D01*
X106907Y-10538D01*
X105958Y-10197D01*
X104999Y-9889D01*
X104030Y-9613D01*
Y-67587D02*
X104999Y-67311D01*
X105958Y-67003D01*
X106907Y-66662D01*
X107843Y-66290D01*
X108767Y-65887D01*
X109677Y-65453D01*
X110571Y-64988D01*
X111449Y-64494D01*
X112310Y-63971D01*
X113154Y-63419D01*
X113978Y-62838D01*
X114782Y-62231D01*
X115565Y-61597D01*
X116327Y-60937D01*
X117066Y-60251D01*
X117781Y-59542D01*
X118472Y-58808D01*
X119139Y-58052D01*
X119779Y-57274D01*
X120393Y-56475D01*
X120980Y-55656D01*
X121539Y-54817D01*
X122069Y-53960D01*
X122571Y-53086D01*
X123043Y-52196D01*
X123484Y-51290D01*
X123895Y-50369D01*
X124275Y-49436D01*
X124623Y-48490D01*
X124939Y-47533D01*
X125223Y-46566D01*
X125474Y-45590D01*
X125693Y-44606D01*
X125878Y-43616D01*
X126030Y-42619D01*
X126148Y-41619D01*
X126232Y-40614D01*
X126283Y-39608D01*
X126300Y-38600D01*
X88570Y-9613D02*
X87608Y-9887D01*
X86655Y-10193D01*
X85712Y-10531D01*
X84782Y-10899D01*
X83864Y-11299D01*
X82960Y-11729D01*
X82071Y-12189D01*
X81198Y-12678D01*
X80341Y-13197D01*
X79503Y-13743D01*
X78683Y-14318D01*
X77882Y-14919D01*
X77103Y-15547D01*
X76344Y-16200D01*
X75608Y-16878D01*
X74895Y-17580D01*
X74206Y-18306D01*
X73541Y-19055D01*
X72901Y-19825D01*
X72288Y-20616D01*
X71702Y-21427D01*
X71142Y-22257D01*
X70611Y-23106D01*
X70108Y-23971D01*
X69635Y-24853D01*
X69191Y-25750D01*
X68778Y-26662D01*
X68395Y-27587D01*
X68043Y-28524D01*
X67722Y-29472D01*
X67434Y-30431D01*
X67177Y-31398D01*
X66953Y-32374D01*
X66762Y-33356D01*
X66603Y-34345D01*
X66478Y-35338D01*
X66386Y-36335D01*
X66327Y-37334D01*
X66301Y-38335D01*
X66309Y-39336D01*
X66350Y-40336D01*
X66425Y-41334D01*
X66533Y-42329D01*
X66674Y-43320D01*
X66848Y-44306D01*
X67054Y-45285D01*
X67294Y-46257D01*
X67565Y-47221D01*
X67869Y-48175D01*
X68204Y-49118D01*
X68571Y-50049D01*
X68968Y-50968D01*
X69396Y-51873D01*
X69854Y-52763D01*
X70341Y-53637D01*
X70857Y-54495D01*
X71402Y-55335D01*
X71974Y-56156D01*
X72573Y-56958D01*
X73199Y-57740D01*
X73850Y-58500D01*
X74526Y-59238D01*
X75227Y-59952D01*
X75951Y-60644D01*
X76698Y-61310D01*
X77466Y-61952D01*
X78256Y-62567D01*
X79066Y-63156D01*
X79894Y-63717D01*
X80742Y-64250D01*
X81606Y-64755D01*
X82487Y-65231D01*
X83383Y-65677D01*
X84293Y-66092D01*
X85217Y-66478D01*
X86153Y-66832D01*
X87101Y-67155D01*
X88059Y-67446D01*
X122284Y-23246D02*
X124646Y-20884D01*
X67954D02*
X70217Y-23147D01*
X67954Y-20884D02*
Y-9072D01*
X88426D01*
X124646Y-20884D02*
Y-9072D01*
X104174D02*
X124646D01*
X398042Y-153600D02*
X401979Y-157537D01*
X398042Y-153600D02*
X401979Y-149663D01*
X398042Y-157537D02*
Y-149663D01*
X401979Y-157537D02*
Y-149663D01*
X397742Y-168700D02*
X401679Y-172637D01*
X397742Y-168700D02*
X401679Y-164763D01*
X397742Y-172637D02*
Y-164763D01*
X401679Y-172637D02*
Y-164763D01*
X329542Y-118500D02*
X333479Y-122437D01*
X329542Y-118500D02*
X333479Y-114563D01*
X329542Y-122437D02*
Y-114563D01*
X333479Y-122437D02*
Y-114563D01*
X329542Y-106900D02*
X333479Y-110837D01*
X329542Y-106900D02*
X333479Y-102963D01*
X329542Y-110837D02*
Y-102963D01*
X333479Y-110837D02*
Y-102963D01*
X366663Y-124979D02*
X370600Y-121042D01*
X374537Y-124979D01*
X366663Y-121042D02*
X374537D01*
X366663Y-124979D02*
X374537D01*
X366663Y-148979D02*
X370600Y-145042D01*
X374537Y-148979D01*
X366663Y-145042D02*
X374537D01*
X366663Y-148979D02*
X374537D01*
X339700Y-184900D02*
Y-179902D01*
X342199D01*
X343032Y-180735D01*
Y-182401D01*
X342199Y-183234D01*
X339700D01*
X345531Y-184900D02*
X347198D01*
X348031Y-184067D01*
Y-182401D01*
X347198Y-181568D01*
X345531D01*
X344698Y-182401D01*
Y-184067D01*
X345531Y-184900D01*
X349697Y-181568D02*
Y-184067D01*
X350530Y-184900D01*
X351363Y-184067D01*
X352196Y-184900D01*
X353029Y-184067D01*
Y-181568D01*
X357194Y-184900D02*
X355528D01*
X354695Y-184067D01*
Y-182401D01*
X355528Y-181568D01*
X357194D01*
X358027Y-182401D01*
Y-183234D01*
X354695D01*
X359694Y-181568D02*
Y-184900D01*
Y-183234D01*
X360527Y-182401D01*
X361360Y-181568D01*
X362193D01*
X122732Y-190435D02*
X121899Y-189602D01*
X120233D01*
X119400Y-190435D01*
Y-191268D01*
X120233Y-192101D01*
X121899D01*
X122732Y-192934D01*
Y-193767D01*
X121899Y-194600D01*
X120233D01*
X119400Y-193767D01*
X124398Y-194600D02*
X126065D01*
X125231D01*
Y-191268D01*
X124398D01*
X130230Y-196266D02*
X131063D01*
X131896Y-195433D01*
Y-191268D01*
X129397D01*
X128564Y-192101D01*
Y-193767D01*
X129397Y-194600D01*
X131896D01*
X133562D02*
Y-191268D01*
X136061D01*
X136894Y-192101D01*
Y-194600D01*
X139393Y-191268D02*
X141060D01*
X141893Y-192101D01*
Y-194600D01*
X139393D01*
X138560Y-193767D01*
X139393Y-192934D01*
X141893D01*
X143559Y-194600D02*
X145225D01*
X144392D01*
Y-189602D01*
X143559D01*
X-8200Y-121900D02*
Y-118568D01*
X-6534Y-116902D01*
X-4868Y-118568D01*
Y-121900D01*
Y-119401D01*
X-8200D01*
X-3202Y-116902D02*
X131D01*
X-1536D01*
Y-121900D01*
X5129D02*
X1797D01*
X5129Y-118568D01*
Y-117735D01*
X4296Y-116902D01*
X2630D01*
X1797Y-117735D01*
X9294Y-121900D02*
Y-116902D01*
X6795Y-119401D01*
X10127D01*
X15126Y-117735D02*
X14293Y-116902D01*
X12627D01*
X11794Y-117735D01*
Y-121067D01*
X12627Y-121900D01*
X14293D01*
X15126Y-121067D01*
X16792Y-117735D02*
X17625Y-116902D01*
X19291D01*
X20124Y-117735D01*
Y-121067D01*
X19291Y-121900D01*
X17625D01*
X16792Y-121067D01*
Y-117735D01*
X25122Y-121900D02*
X21790D01*
X25122Y-118568D01*
Y-117735D01*
X24290Y-116902D01*
X22623D01*
X21790Y-117735D01*
X143500Y-150000D02*
X138502D01*
Y-147501D01*
X139335Y-146668D01*
X141001D01*
X141834Y-147501D01*
Y-150000D01*
Y-148334D02*
X143500Y-146668D01*
Y-141669D02*
Y-145002D01*
X140168Y-141669D01*
X139335D01*
X138502Y-142502D01*
Y-144169D01*
X139335Y-145002D01*
X142667Y-140003D02*
X143500Y-139170D01*
Y-137504D01*
X142667Y-136671D01*
X139335D01*
X138502Y-137504D01*
Y-139170D01*
X139335Y-140003D01*
X140168D01*
X141001Y-139170D01*
Y-136671D01*
X23200Y-150100D02*
Y-145102D01*
X25699D01*
X26532Y-145935D01*
Y-147601D01*
X25699Y-148434D01*
X23200D01*
X24866D02*
X26532Y-150100D01*
X31531D02*
X28198D01*
X31531Y-146768D01*
Y-145935D01*
X30698Y-145102D01*
X29031D01*
X28198Y-145935D01*
X33197D02*
X34030Y-145102D01*
X35696D01*
X36529Y-145935D01*
Y-146768D01*
X35696Y-147601D01*
X36529Y-148434D01*
Y-149267D01*
X35696Y-150100D01*
X34030D01*
X33197Y-149267D01*
Y-148434D01*
X34030Y-147601D01*
X33197Y-146768D01*
Y-145935D01*
X34030Y-147601D02*
X35696D01*
X22700Y-140200D02*
Y-135202D01*
X25199D01*
X26032Y-136035D01*
Y-137701D01*
X25199Y-138534D01*
X22700D01*
X24366D02*
X26032Y-140200D01*
X31031D02*
X27698D01*
X31031Y-136868D01*
Y-136035D01*
X30198Y-135202D01*
X28531D01*
X27698Y-136035D01*
X32697Y-135202D02*
X36029D01*
Y-136035D01*
X32697Y-139367D01*
Y-140200D01*
X144700Y-116800D02*
Y-111802D01*
X147199D01*
X148032Y-112635D01*
Y-114301D01*
X147199Y-115134D01*
X144700D01*
X146366D02*
X148032Y-116800D01*
X153031D02*
X149698D01*
X153031Y-113468D01*
Y-112635D01*
X152198Y-111802D01*
X150531D01*
X149698Y-112635D01*
X158029Y-111802D02*
X156363Y-112635D01*
X154697Y-114301D01*
Y-115967D01*
X155530Y-116800D01*
X157196D01*
X158029Y-115967D01*
Y-115134D01*
X157196Y-114301D01*
X154697D01*
X145500Y-101902D02*
Y-106900D01*
X148832D01*
X153831D02*
X150498D01*
X153831Y-103568D01*
Y-102735D01*
X152998Y-101902D01*
X151331D01*
X150498Y-102735D01*
X139500Y-128700D02*
Y-123702D01*
X141999D01*
X142832Y-124535D01*
Y-126201D01*
X141999Y-127034D01*
X139500D01*
X147831Y-124535D02*
X146998Y-123702D01*
X145331D01*
X144498Y-124535D01*
Y-127867D01*
X145331Y-128700D01*
X146998D01*
X147831Y-127867D01*
X152829Y-124535D02*
X151996Y-123702D01*
X150330D01*
X149497Y-124535D01*
Y-127867D01*
X150330Y-128700D01*
X151996D01*
X152829Y-127867D01*
X127302Y-14900D02*
X132300D01*
Y-12401D01*
X131467Y-11568D01*
X128135D01*
X127302Y-12401D01*
Y-14900D01*
X132300Y-9902D02*
Y-8236D01*
Y-9069D01*
X127302D01*
X128135Y-9902D01*
Y-5736D02*
X127302Y-4903D01*
Y-3237D01*
X128135Y-2404D01*
X131467D01*
X132300Y-3237D01*
Y-4903D01*
X131467Y-5736D01*
X128135D01*
X97265Y-102332D02*
X98098Y-101499D01*
Y-99833D01*
X97265Y-99000D01*
X93933D01*
X93100Y-99833D01*
Y-101499D01*
X93933Y-102332D01*
X95599D01*
Y-100666D01*
X93100Y-103998D02*
X98098D01*
Y-106498D01*
X97265Y-107331D01*
X95599D01*
X94766Y-106498D01*
Y-103998D01*
X97265Y-112329D02*
X98098Y-111496D01*
Y-109830D01*
X97265Y-108997D01*
X96432D01*
X95599Y-109830D01*
Y-111496D01*
X94766Y-112329D01*
X93933D01*
X93100Y-111496D01*
Y-109830D01*
X93933Y-108997D01*
X95599Y-113995D02*
Y-117327D01*
X93100Y-118993D02*
X98098D01*
X93100Y-122326D01*
X98098D01*
Y-127324D02*
Y-123992D01*
X93100D01*
Y-127324D01*
X95599Y-123992D02*
Y-125658D01*
X98098Y-131490D02*
Y-129823D01*
X97265Y-128990D01*
X93933D01*
X93100Y-129823D01*
Y-131490D01*
X93933Y-132323D01*
X97265D01*
X98098Y-131490D01*
X95599Y-133989D02*
Y-137321D01*
X98098Y-142319D02*
X97265Y-140653D01*
X95599Y-138987D01*
X93933D01*
X93100Y-139820D01*
Y-141486D01*
X93933Y-142319D01*
X94766D01*
X95599Y-141486D01*
Y-138987D01*
X93100Y-143985D02*
X98098D01*
X96432Y-145651D01*
X98098Y-147318D01*
X93100D01*
X6200Y-85800D02*
Y-82468D01*
X7866Y-80802D01*
X9532Y-82468D01*
Y-85800D01*
Y-83301D01*
X6200D01*
X11198Y-85800D02*
Y-82468D01*
X13698D01*
X14531Y-83301D01*
Y-85800D01*
X17030Y-81635D02*
Y-82468D01*
X16197D01*
X17863D01*
X17030D01*
Y-84967D01*
X17863Y-85800D01*
X22861D02*
X21195D01*
X20362Y-84967D01*
Y-83301D01*
X21195Y-82468D01*
X22861D01*
X23694Y-83301D01*
Y-84134D01*
X20362D01*
X25361Y-85800D02*
Y-82468D01*
X27860D01*
X28693Y-83301D01*
Y-85800D01*
X30359D02*
Y-82468D01*
X32858D01*
X33691Y-83301D01*
Y-85800D01*
X36190Y-82468D02*
X37856D01*
X38690Y-83301D01*
Y-85800D01*
X36190D01*
X35357Y-84967D01*
X36190Y-84134D01*
X38690D01*
X87832Y40565D02*
X86999Y41398D01*
X85333D01*
X84500Y40565D01*
Y39732D01*
X85333Y38899D01*
X86999D01*
X87832Y38066D01*
Y37233D01*
X86999Y36400D01*
X85333D01*
X84500Y37233D01*
X89498Y41398D02*
X92831D01*
X91164D01*
Y36400D01*
X94497Y41398D02*
Y36400D01*
X97829D01*
X99495Y41398D02*
X101161D01*
X100328D01*
Y36400D01*
X99495D01*
X101161D01*
X103661D02*
Y41398D01*
X106993Y36400D01*
Y41398D01*
X108659D02*
Y36400D01*
Y38066D01*
X111991Y41398D01*
X109492Y38899D01*
X111991Y36400D01*
X164000Y-181300D02*
Y-176302D01*
X166499D01*
X167332Y-177135D01*
Y-178801D01*
X166499Y-179634D01*
X164000D01*
X165666D02*
X167332Y-181300D01*
X172331D02*
X168998D01*
X172331Y-177968D01*
Y-177135D01*
X171498Y-176302D01*
X169831D01*
X168998Y-177135D01*
X177329Y-176302D02*
X173997D01*
Y-178801D01*
X175663Y-177968D01*
X176496D01*
X177329Y-178801D01*
Y-180467D01*
X176496Y-181300D01*
X174830D01*
X173997Y-180467D01*
X187800Y-180600D02*
Y-175602D01*
X190299D01*
X191132Y-176435D01*
Y-178101D01*
X190299Y-178934D01*
X187800D01*
X189466D02*
X191132Y-180600D01*
X196131D02*
X192798D01*
X196131Y-177268D01*
Y-176435D01*
X195298Y-175602D01*
X193631D01*
X192798Y-176435D01*
X200296Y-180600D02*
Y-175602D01*
X197797Y-178101D01*
X201129D01*
X207200Y-180600D02*
Y-175602D01*
X209699D01*
X210532Y-176435D01*
Y-178101D01*
X209699Y-178934D01*
X207200D01*
X208866D02*
X210532Y-180600D01*
X215531D02*
X212198D01*
X215531Y-177268D01*
Y-176435D01*
X214698Y-175602D01*
X213031D01*
X212198Y-176435D01*
X217197D02*
X218030Y-175602D01*
X219696D01*
X220529Y-176435D01*
Y-177268D01*
X219696Y-178101D01*
X218863D01*
X219696D01*
X220529Y-178934D01*
Y-179767D01*
X219696Y-180600D01*
X218030D01*
X217197Y-179767D01*
X332100Y-41400D02*
Y-38068D01*
X334599D01*
X335432Y-38901D01*
Y-41400D01*
X337098D02*
Y-36402D01*
X339598D01*
X340431Y-37235D01*
Y-38901D01*
X339598Y-39734D01*
X337098D01*
X338765D02*
X340431Y-41400D01*
X345429Y-36402D02*
X342097D01*
Y-38901D01*
X343763D01*
X342097D01*
Y-41400D01*
X171902Y-32500D02*
X176900D01*
Y-30001D01*
X176067Y-29168D01*
X172735D01*
X171902Y-30001D01*
Y-32500D01*
X172735Y-24169D02*
X171902Y-25002D01*
Y-26669D01*
X172735Y-27502D01*
X173568D01*
X174401Y-26669D01*
Y-25002D01*
X175234Y-24169D01*
X176067D01*
X176900Y-25002D01*
Y-26669D01*
X176067Y-27502D01*
X176900Y-22503D02*
Y-20837D01*
Y-21670D01*
X171902D01*
X172735Y-22503D01*
Y-18338D02*
X171902Y-17505D01*
Y-15839D01*
X172735Y-15006D01*
X173568D01*
X174401Y-15839D01*
Y-16672D01*
Y-15839D01*
X175234Y-15006D01*
X176067D01*
X176900Y-15839D01*
Y-17505D01*
X176067Y-18338D01*
X172735Y-13340D02*
X171902Y-12506D01*
Y-10840D01*
X172735Y-10007D01*
X176067D01*
X176900Y-10840D01*
Y-12506D01*
X176067Y-13340D01*
X172735D01*
X176900Y-5009D02*
Y-8341D01*
X173568Y-5009D01*
X172735D01*
X171902Y-5842D01*
Y-7508D01*
X172735Y-8341D01*
X425800Y-193100D02*
X427466D01*
X426633D01*
Y-188102D01*
X425800Y-188935D01*
X429965Y-193100D02*
X431632D01*
X430798D01*
Y-188102D01*
X429965Y-188935D01*
X434131Y-193100D02*
X435797D01*
X434964D01*
Y-188102D01*
X434131Y-188935D01*
X438296Y-188102D02*
X441628D01*
Y-188935D01*
X438296Y-192267D01*
Y-193100D01*
X107700Y-79502D02*
Y-84500D01*
X110199D01*
X111032Y-83667D01*
Y-82834D01*
X110199Y-82001D01*
X107700D01*
X110199D01*
X111032Y-81168D01*
Y-80335D01*
X110199Y-79502D01*
X107700D01*
X113531Y-81168D02*
X115198D01*
X116031Y-82001D01*
Y-84500D01*
X113531D01*
X112698Y-83667D01*
X113531Y-82834D01*
X116031D01*
X118530Y-80335D02*
Y-81168D01*
X117697D01*
X119363D01*
X118530D01*
Y-83667D01*
X119363Y-84500D01*
X449732Y-115635D02*
X448899Y-114802D01*
X447233D01*
X446400Y-115635D01*
Y-118967D01*
X447233Y-119800D01*
X448899D01*
X449732Y-118967D01*
X451398Y-119800D02*
X453064D01*
X452231D01*
Y-114802D01*
X451398Y-115635D01*
X470632Y5165D02*
X469799Y5998D01*
X468133D01*
X467300Y5165D01*
Y1833D01*
X468133Y1000D01*
X469799D01*
X470632Y1833D01*
X475631Y1000D02*
X472298D01*
X475631Y4332D01*
Y5165D01*
X474798Y5998D01*
X473131D01*
X472298Y5165D01*
X333732Y-173435D02*
X332899Y-172602D01*
X331233D01*
X330400Y-173435D01*
Y-176767D01*
X331233Y-177600D01*
X332899D01*
X333732Y-176767D01*
X337898Y-177600D02*
Y-172602D01*
X335398Y-175101D01*
X338731D01*
X481932Y-184335D02*
X481099Y-183502D01*
X479433D01*
X478600Y-184335D01*
Y-187667D01*
X479433Y-188500D01*
X481099D01*
X481932Y-187667D01*
X486931Y-183502D02*
X483598D01*
Y-186001D01*
X485264Y-185168D01*
X486098D01*
X486931Y-186001D01*
Y-187667D01*
X486098Y-188500D01*
X484431D01*
X483598Y-187667D01*
X481932Y-194035D02*
X481099Y-193202D01*
X479433D01*
X478600Y-194035D01*
Y-197367D01*
X479433Y-198200D01*
X481099D01*
X481932Y-197367D01*
X486931Y-193202D02*
X485264Y-194035D01*
X483598Y-195701D01*
Y-197367D01*
X484431Y-198200D01*
X486098D01*
X486931Y-197367D01*
Y-196534D01*
X486098Y-195701D01*
X483598D01*
X448332Y-167735D02*
X447499Y-166902D01*
X445833D01*
X445000Y-167735D01*
Y-171067D01*
X445833Y-171900D01*
X447499D01*
X448332Y-171067D01*
X449998Y-166902D02*
X453331D01*
Y-167735D01*
X449998Y-171067D01*
Y-171900D01*
X447032Y-144635D02*
X446199Y-143802D01*
X444533D01*
X443700Y-144635D01*
Y-147967D01*
X444533Y-148800D01*
X446199D01*
X447032Y-147967D01*
X448698Y-144635D02*
X449531Y-143802D01*
X451198D01*
X452031Y-144635D01*
Y-145468D01*
X451198Y-146301D01*
X452031Y-147134D01*
Y-147967D01*
X451198Y-148800D01*
X449531D01*
X448698Y-147967D01*
Y-147134D01*
X449531Y-146301D01*
X448698Y-145468D01*
Y-144635D01*
X449531Y-146301D02*
X451198D01*
X169335Y-147068D02*
X168502Y-147901D01*
Y-149567D01*
X169335Y-150400D01*
X172667D01*
X173500Y-149567D01*
Y-147901D01*
X172667Y-147068D01*
Y-145402D02*
X173500Y-144569D01*
Y-142902D01*
X172667Y-142069D01*
X169335D01*
X168502Y-142902D01*
Y-144569D01*
X169335Y-145402D01*
X170168D01*
X171001Y-144569D01*
Y-142069D01*
X444335Y18032D02*
X443502Y17199D01*
Y15533D01*
X444335Y14700D01*
X447667D01*
X448500Y15533D01*
Y17199D01*
X447667Y18032D01*
X444335Y19698D02*
X443502Y20531D01*
Y22198D01*
X444335Y23031D01*
X445168D01*
X446001Y22198D01*
Y21364D01*
Y22198D01*
X446834Y23031D01*
X447667D01*
X448500Y22198D01*
Y20531D01*
X447667Y19698D01*
X345532Y-141935D02*
X344699Y-141102D01*
X343033D01*
X342200Y-141935D01*
Y-145267D01*
X343033Y-146100D01*
X344699D01*
X345532Y-145267D01*
X347198Y-146100D02*
X348865D01*
X348031D01*
Y-141102D01*
X347198Y-141935D01*
X351364Y-146100D02*
X353030D01*
X352197D01*
Y-141102D01*
X351364Y-141935D01*
X169735Y-107968D02*
X168902Y-108801D01*
Y-110467D01*
X169735Y-111300D01*
X173067D01*
X173900Y-110467D01*
Y-108801D01*
X173067Y-107968D01*
X173900Y-106302D02*
Y-104636D01*
Y-105469D01*
X168902D01*
X169735Y-106302D01*
X173900Y-98804D02*
Y-102136D01*
X170568Y-98804D01*
X169735D01*
X168902Y-99637D01*
Y-101303D01*
X169735Y-102136D01*
X314835Y-138368D02*
X314002Y-139201D01*
Y-140867D01*
X314835Y-141700D01*
X318167D01*
X319000Y-140867D01*
Y-139201D01*
X318167Y-138368D01*
X319000Y-136702D02*
Y-135036D01*
Y-135869D01*
X314002D01*
X314835Y-136702D01*
X319000Y-130037D02*
X314002D01*
X316501Y-132536D01*
Y-129204D01*
X326232Y-141935D02*
X325399Y-141102D01*
X323733D01*
X322900Y-141935D01*
Y-145267D01*
X323733Y-146100D01*
X325399D01*
X326232Y-145267D01*
X327898Y-146100D02*
X329564D01*
X328731D01*
Y-141102D01*
X327898Y-141935D01*
X335396Y-141102D02*
X332064D01*
Y-143601D01*
X333730Y-142768D01*
X334563D01*
X335396Y-143601D01*
Y-145267D01*
X334563Y-146100D01*
X332897D01*
X332064Y-145267D01*
X275035Y-183568D02*
X274202Y-184401D01*
Y-186067D01*
X275035Y-186900D01*
X278367D01*
X279200Y-186067D01*
Y-184401D01*
X278367Y-183568D01*
X279200Y-181902D02*
Y-180236D01*
Y-181069D01*
X274202D01*
X275035Y-181902D01*
X274202Y-177736D02*
Y-174404D01*
X275035D01*
X278367Y-177736D01*
X279200D01*
X292735Y-105268D02*
X291902Y-106101D01*
Y-107767D01*
X292735Y-108600D01*
X296067D01*
X296900Y-107767D01*
Y-106101D01*
X296067Y-105268D01*
X296900Y-103602D02*
Y-101936D01*
Y-102769D01*
X291902D01*
X292735Y-103602D01*
Y-99436D02*
X291902Y-98603D01*
Y-96937D01*
X292735Y-96104D01*
X293568D01*
X294401Y-96937D01*
X295234Y-96104D01*
X296067D01*
X296900Y-96937D01*
Y-98603D01*
X296067Y-99436D01*
X295234D01*
X294401Y-98603D01*
X293568Y-99436D01*
X292735D01*
X294401Y-98603D02*
Y-96937D01*
X57235Y-29668D02*
X56402Y-30501D01*
Y-32167D01*
X57235Y-33000D01*
X60567D01*
X61400Y-32167D01*
Y-30501D01*
X60567Y-29668D01*
X61400Y-24669D02*
Y-28002D01*
X58068Y-24669D01*
X57235D01*
X56402Y-25502D01*
Y-27169D01*
X57235Y-28002D01*
X61400Y-23003D02*
Y-21337D01*
Y-22170D01*
X56402D01*
X57235Y-23003D01*
X173035Y-63068D02*
X172202Y-63901D01*
Y-65567D01*
X173035Y-66400D01*
X176367D01*
X177200Y-65567D01*
Y-63901D01*
X176367Y-63068D01*
X177200Y-58069D02*
Y-61402D01*
X173868Y-58069D01*
X173035D01*
X172202Y-58902D01*
Y-60569D01*
X173035Y-61402D01*
Y-56403D02*
X172202Y-55570D01*
Y-53904D01*
X173035Y-53071D01*
X176367D01*
X177200Y-53904D01*
Y-55570D01*
X176367Y-56403D01*
X173035D01*
X125135Y-63968D02*
X124302Y-64801D01*
Y-66467D01*
X125135Y-67300D01*
X128467D01*
X129300Y-66467D01*
Y-64801D01*
X128467Y-63968D01*
X129300Y-58969D02*
Y-62302D01*
X125968Y-58969D01*
X125135D01*
X124302Y-59802D01*
Y-61469D01*
X125135Y-62302D01*
X129300Y-53971D02*
Y-57303D01*
X125968Y-53971D01*
X125135D01*
X124302Y-54804D01*
Y-56470D01*
X125135Y-57303D01*
X99500Y-171702D02*
X102832D01*
X101166D01*
Y-176700D01*
X107831Y-171702D02*
X106165D01*
X106998D01*
Y-175867D01*
X106165Y-176700D01*
X105331D01*
X104498Y-175867D01*
X109497Y-176700D02*
Y-173368D01*
X111163Y-171702D01*
X112829Y-173368D01*
Y-176700D01*
Y-174201D01*
X109497D01*
X114495Y-176700D02*
X116161D01*
X115328D01*
Y-171702D01*
X114495Y-172535D01*
X118660D02*
X119493Y-171702D01*
X121160D01*
X121993Y-172535D01*
Y-175867D01*
X121160Y-176700D01*
X119493D01*
X118660Y-175867D01*
Y-172535D01*
X126991Y-171702D02*
X123659D01*
Y-174201D01*
X125325Y-173368D01*
X126158D01*
X126991Y-174201D01*
Y-175867D01*
X126158Y-176700D01*
X124492D01*
X123659Y-175867D01*
X128657Y-172535D02*
X129490Y-171702D01*
X131156D01*
X131990Y-172535D01*
Y-175867D01*
X131156Y-176700D01*
X129490D01*
X128657Y-175867D01*
Y-172535D01*
X491000Y-121902D02*
Y-126900D01*
X493499D01*
X494332Y-126067D01*
Y-122735D01*
X493499Y-121902D01*
X491000D01*
X495998Y-126900D02*
X497664D01*
X496831D01*
Y-121902D01*
X495998Y-122735D01*
X444102Y-45100D02*
X449100D01*
Y-42601D01*
X448267Y-41768D01*
X444935D01*
X444102Y-42601D01*
Y-45100D01*
X449100Y-36769D02*
Y-40102D01*
X445768Y-36769D01*
X444935D01*
X444102Y-37602D01*
Y-39269D01*
X444935Y-40102D01*
X357302Y-101968D02*
Y-105300D01*
X359801D01*
Y-103634D01*
Y-105300D01*
X362300D01*
X358968Y-100302D02*
X361467D01*
X362300Y-99469D01*
Y-96969D01*
X358968D01*
X362300Y-95303D02*
Y-92804D01*
X361467Y-91971D01*
X360634Y-92804D01*
Y-94470D01*
X359801Y-95303D01*
X358968Y-94470D01*
Y-91971D01*
X362300Y-87806D02*
Y-89472D01*
X361467Y-90305D01*
X359801D01*
X358968Y-89472D01*
Y-87806D01*
X359801Y-86973D01*
X360634D01*
Y-90305D01*
X304435Y-29268D02*
X303602Y-30101D01*
Y-31767D01*
X304435Y-32600D01*
X305268D01*
X306101Y-31767D01*
Y-30101D01*
X306934Y-29268D01*
X307767D01*
X308600Y-30101D01*
Y-31767D01*
X307767Y-32600D01*
X303602Y-27602D02*
X308600D01*
Y-25102D01*
X307767Y-24269D01*
X304435D01*
X303602Y-25102D01*
Y-27602D01*
X304435Y-19271D02*
X303602Y-20104D01*
Y-21770D01*
X304435Y-22603D01*
X307767D01*
X308600Y-21770D01*
Y-20104D01*
X307767Y-19271D01*
X305268Y-16772D02*
Y-15106D01*
X306101Y-14273D01*
X308600D01*
Y-16772D01*
X307767Y-17605D01*
X306934Y-16772D01*
Y-14273D01*
X305268Y-12607D02*
X308600D01*
X306934D01*
X306101Y-11773D01*
X305268Y-10940D01*
Y-10107D01*
X303602Y-4276D02*
X308600D01*
Y-6775D01*
X307767Y-7608D01*
X306101D01*
X305268Y-6775D01*
Y-4276D01*
X442600Y41398D02*
Y37233D01*
X443433Y36400D01*
X445099D01*
X445932Y37233D01*
Y41398D01*
X447598Y36400D02*
Y39732D01*
X449264Y41398D01*
X450931Y39732D01*
Y36400D01*
Y38899D01*
X447598D01*
X452597Y36400D02*
Y41398D01*
X455096D01*
X455929Y40565D01*
Y38899D01*
X455096Y38066D01*
X452597D01*
X454263D02*
X455929Y36400D01*
X457595Y41398D02*
X460927D01*
X459261D01*
Y36400D01*
X388000Y1998D02*
Y-3000D01*
X391332D01*
X392998D02*
X394665D01*
X393831D01*
Y1998D01*
X392998Y1165D01*
X350832Y-165902D02*
X349166Y-166735D01*
X347500Y-168401D01*
Y-170067D01*
X348333Y-170900D01*
X349999D01*
X350832Y-170067D01*
Y-169234D01*
X349999Y-168401D01*
X347500D01*
X352498Y-166735D02*
X353331Y-165902D01*
X354998D01*
X355831Y-166735D01*
Y-170067D01*
X354998Y-170900D01*
X353331D01*
X352498Y-170067D01*
Y-166735D01*
X360829Y-165902D02*
X357497D01*
Y-168401D01*
X359163Y-167568D01*
X359996D01*
X360829Y-168401D01*
Y-170067D01*
X359996Y-170900D01*
X358330D01*
X357497Y-170067D01*
X362495Y-166735D02*
X363328Y-165902D01*
X364994D01*
X365827Y-166735D01*
Y-170067D01*
X364994Y-170900D01*
X363328D01*
X362495Y-170067D01*
Y-166735D01*
X288302Y-173501D02*
Y-175167D01*
X289135Y-176000D01*
X292467D01*
X293300Y-175167D01*
Y-173501D01*
X292467Y-172668D01*
X289135D01*
X288302Y-173501D01*
Y-171002D02*
X293300D01*
Y-167669D01*
X288302Y-162671D02*
Y-166003D01*
X293300D01*
Y-162671D01*
X290801Y-166003D02*
Y-164337D01*
X288302Y-161005D02*
X293300D01*
Y-158506D01*
X292467Y-157673D01*
X289135D01*
X288302Y-158506D01*
Y-161005D01*
X293300Y-156007D02*
Y-154340D01*
Y-155173D01*
X288302D01*
X289135Y-156007D01*
X475665Y-154932D02*
X476498Y-154099D01*
Y-152433D01*
X475665Y-151600D01*
X472333D01*
X471500Y-152433D01*
Y-154099D01*
X472333Y-154932D01*
X473999D01*
Y-153266D01*
X471500Y-156598D02*
X476498D01*
X471500Y-159931D01*
X476498D01*
Y-161597D02*
X471500D01*
Y-164096D01*
X472333Y-164929D01*
X475665D01*
X476498Y-164096D01*
Y-161597D01*
X52450Y-181150D02*
X47452D01*
Y-178651D01*
X48285Y-177818D01*
X49951D01*
X50784Y-178651D01*
Y-181150D01*
Y-179484D02*
X52450Y-177818D01*
Y-176152D02*
Y-174486D01*
Y-175319D01*
X47452D01*
X48285Y-176152D01*
X210000Y-85500D02*
X205002D01*
Y-83001D01*
X205835Y-82168D01*
X207501D01*
X208334Y-83001D01*
Y-85500D01*
Y-83834D02*
X210000Y-82168D01*
Y-77169D02*
Y-80502D01*
X206668Y-77169D01*
X205835D01*
X205002Y-78002D01*
Y-79669D01*
X205835Y-80502D01*
X235400Y-85600D02*
X230402D01*
Y-83101D01*
X231235Y-82268D01*
X232901D01*
X233734Y-83101D01*
Y-85600D01*
Y-83934D02*
X235400Y-82268D01*
X231235Y-80602D02*
X230402Y-79769D01*
Y-78102D01*
X231235Y-77269D01*
X232068D01*
X232901Y-78102D01*
Y-78935D01*
Y-78102D01*
X233734Y-77269D01*
X234567D01*
X235400Y-78102D01*
Y-79769D01*
X234567Y-80602D01*
X250700Y-85900D02*
X245702D01*
Y-83401D01*
X246535Y-82568D01*
X248201D01*
X249034Y-83401D01*
Y-85900D01*
Y-84234D02*
X250700Y-82568D01*
Y-78402D02*
X245702D01*
X248201Y-80902D01*
Y-77569D01*
X270800Y-86500D02*
X265802D01*
Y-84001D01*
X266635Y-83168D01*
X268301D01*
X269134Y-84001D01*
Y-86500D01*
Y-84834D02*
X270800Y-83168D01*
X265802Y-78169D02*
Y-81502D01*
X268301D01*
X267468Y-79835D01*
Y-79002D01*
X268301Y-78169D01*
X269967D01*
X270800Y-79002D01*
Y-80669D01*
X269967Y-81502D01*
X296800Y-87000D02*
X291802D01*
Y-84501D01*
X292635Y-83668D01*
X294301D01*
X295134Y-84501D01*
Y-87000D01*
Y-85334D02*
X296800Y-83668D01*
X291802Y-78669D02*
X292635Y-80335D01*
X294301Y-82002D01*
X295967D01*
X296800Y-81169D01*
Y-79502D01*
X295967Y-78669D01*
X295134D01*
X294301Y-79502D01*
Y-82002D01*
X219800Y-198000D02*
Y-193002D01*
X222299D01*
X223132Y-193835D01*
Y-195501D01*
X222299Y-196334D01*
X219800D01*
X221466D02*
X223132Y-198000D01*
X224798Y-193002D02*
X228131D01*
Y-193835D01*
X224798Y-197167D01*
Y-198000D01*
X490800Y-25335D02*
X491633Y-24502D01*
X493299D01*
X494132Y-25335D01*
Y-28667D01*
X493299Y-29500D01*
X491633D01*
X490800Y-28667D01*
Y-25335D01*
X495798Y-24502D02*
Y-29500D01*
Y-27001D01*
X496631Y-26168D01*
X498298D01*
X499131Y-27001D01*
Y-29500D01*
X500797D02*
Y-26168D01*
X501630D01*
X502463Y-27001D01*
Y-29500D01*
Y-27001D01*
X503296Y-26168D01*
X504129Y-27001D01*
Y-29500D01*
X233450Y-198000D02*
Y-193002D01*
X235949D01*
X236782Y-193835D01*
Y-195501D01*
X235949Y-196334D01*
X233450D01*
X235116D02*
X236782Y-198000D01*
X238448Y-197167D02*
X239281Y-198000D01*
X240948D01*
X241781Y-197167D01*
Y-193835D01*
X240948Y-193002D01*
X239281D01*
X238448Y-193835D01*
Y-194668D01*
X239281Y-195501D01*
X241781D01*
X247100Y-198000D02*
Y-193002D01*
X249599D01*
X250432Y-193835D01*
Y-195501D01*
X249599Y-196334D01*
X247100D01*
X248766D02*
X250432Y-198000D01*
X252098D02*
X253765D01*
X252931D01*
Y-193002D01*
X252098Y-193835D01*
X256264D02*
X257097Y-193002D01*
X258763D01*
X259596Y-193835D01*
Y-197167D01*
X258763Y-198000D01*
X257097D01*
X256264Y-197167D01*
Y-193835D01*
X421200Y-172900D02*
Y-167902D01*
X423699D01*
X424532Y-168735D01*
Y-170401D01*
X423699Y-171234D01*
X421200D01*
X422866D02*
X424532Y-172900D01*
X426198D02*
X427865D01*
X427031D01*
Y-167902D01*
X426198Y-168735D01*
X433696Y-172900D02*
X430364D01*
X433696Y-169568D01*
Y-168735D01*
X432863Y-167902D01*
X431197D01*
X430364Y-168735D01*
X421200Y-149000D02*
Y-144002D01*
X423699D01*
X424532Y-144835D01*
Y-146501D01*
X423699Y-147334D01*
X421200D01*
X422866D02*
X424532Y-149000D01*
X426198D02*
X427865D01*
X427031D01*
Y-144002D01*
X426198Y-144835D01*
X433696Y-144002D02*
X430364D01*
Y-146501D01*
X432030Y-145668D01*
X432863D01*
X433696Y-146501D01*
Y-148167D01*
X432863Y-149000D01*
X431197D01*
X430364Y-148167D01*
X345000Y-102600D02*
Y-97602D01*
X347499D01*
X348332Y-98435D01*
Y-100101D01*
X347499Y-100934D01*
X345000D01*
X346666D02*
X348332Y-102600D01*
X353331D02*
X349998D01*
X353331Y-99268D01*
Y-98435D01*
X352498Y-97602D01*
X350831D01*
X349998Y-98435D01*
X354997D02*
X355830Y-97602D01*
X357496D01*
X358329Y-98435D01*
Y-101767D01*
X357496Y-102600D01*
X355830D01*
X354997Y-101767D01*
Y-98435D01*
X345500Y-126200D02*
Y-121202D01*
X347999D01*
X348832Y-122035D01*
Y-123701D01*
X347999Y-124534D01*
X345500D01*
X347166D02*
X348832Y-126200D01*
X353831D02*
X350498D01*
X353831Y-122868D01*
Y-122035D01*
X352998Y-121202D01*
X351331D01*
X350498Y-122035D01*
X355497Y-126200D02*
X357163D01*
X356330D01*
Y-121202D01*
X355497Y-122035D01*
X61400Y-54600D02*
X56402D01*
Y-52101D01*
X57235Y-51268D01*
X58901D01*
X59734Y-52101D01*
Y-54600D01*
Y-52934D02*
X61400Y-51268D01*
Y-46269D02*
Y-49602D01*
X58068Y-46269D01*
X57235D01*
X56402Y-47102D01*
Y-48769D01*
X57235Y-49602D01*
X61400Y-41271D02*
Y-44603D01*
X58068Y-41271D01*
X57235D01*
X56402Y-42104D01*
Y-43770D01*
X57235Y-44603D01*
X19900Y-45400D02*
X14902D01*
Y-42901D01*
X15735Y-42068D01*
X17401D01*
X18234Y-42901D01*
Y-45400D01*
Y-43734D02*
X19900Y-42068D01*
X15735Y-37069D02*
X14902Y-37902D01*
Y-39569D01*
X15735Y-40402D01*
X16568D01*
X17401Y-39569D01*
Y-37902D01*
X18234Y-37069D01*
X19067D01*
X19900Y-37902D01*
Y-39569D01*
X19067Y-40402D01*
X14902Y-35403D02*
Y-32071D01*
Y-33737D01*
X19900D01*
X233732Y-130235D02*
X232899Y-129402D01*
X231233D01*
X230400Y-130235D01*
Y-131068D01*
X231233Y-131901D01*
X232899D01*
X233732Y-132734D01*
Y-133567D01*
X232899Y-134400D01*
X231233D01*
X230400Y-133567D01*
X235398Y-129402D02*
X238731D01*
X237065D01*
Y-134400D01*
X240397D02*
Y-129402D01*
X242063Y-131068D01*
X243729Y-129402D01*
Y-134400D01*
X245395Y-130235D02*
X246228Y-129402D01*
X247894D01*
X248727Y-130235D01*
Y-131068D01*
X247894Y-131901D01*
X247061D01*
X247894D01*
X248727Y-132734D01*
Y-133567D01*
X247894Y-134400D01*
X246228D01*
X245395Y-133567D01*
X253726Y-134400D02*
X250394D01*
X253726Y-131068D01*
Y-130235D01*
X252893Y-129402D01*
X251227D01*
X250394Y-130235D01*
X397232Y-80100D02*
X393900D01*
X397232Y-76768D01*
Y-75935D01*
X396399Y-75102D01*
X394733D01*
X393900Y-75935D01*
X402231Y-75102D02*
X398898D01*
Y-77601D01*
X400564Y-76768D01*
X401398D01*
X402231Y-77601D01*
Y-79267D01*
X401398Y-80100D01*
X399731D01*
X398898Y-79267D01*
X403897D02*
X404730Y-80100D01*
X406396D01*
X407229Y-79267D01*
Y-75935D01*
X406396Y-75102D01*
X404730D01*
X403897Y-75935D01*
Y-76768D01*
X404730Y-77601D01*
X407229D01*
X412227Y-75102D02*
X410561Y-75935D01*
X408895Y-77601D01*
Y-79267D01*
X409728Y-80100D01*
X411394D01*
X412227Y-79267D01*
Y-78434D01*
X411394Y-77601D01*
X408895D01*
X184035Y-129300D02*
X183202Y-128467D01*
Y-126801D01*
X184035Y-125968D01*
X184868D01*
X185701Y-126801D01*
X186534Y-125968D01*
X187367D01*
X188200Y-126801D01*
Y-128467D01*
X187367Y-129300D01*
X186534D01*
X185701Y-128467D01*
X184868Y-129300D01*
X184035D01*
X185701Y-128467D02*
Y-126801D01*
X188200Y-124302D02*
X183202D01*
X184868Y-122635D01*
X183202Y-120969D01*
X188200D01*
X144900Y-81202D02*
X148232Y-86200D01*
Y-81202D02*
X144900Y-86200D01*
X149898Y-81202D02*
X153231D01*
X151565D01*
Y-86200D01*
X154897D02*
Y-82868D01*
X156563Y-81202D01*
X158229Y-82868D01*
Y-86200D01*
Y-83701D01*
X154897D01*
X159895Y-81202D02*
Y-86200D01*
X163227D01*
X168226D02*
X164893D01*
X168226Y-82868D01*
Y-82035D01*
X167393Y-81202D01*
X165727D01*
X164893Y-82035D01*
X362600Y-151800D02*
X357602D01*
Y-149301D01*
X358435Y-148468D01*
X360101D01*
X360934Y-149301D01*
Y-151800D01*
Y-150134D02*
X362600Y-148468D01*
X357602Y-146802D02*
X362600Y-143469D01*
X357602D02*
X362600Y-146802D01*
X358502Y-126100D02*
Y-122768D01*
Y-124434D01*
X363500D01*
X358502Y-121102D02*
X363500Y-117769D01*
X358502D02*
X363500Y-121102D01*
X322500Y-95102D02*
Y-100100D01*
X325832D01*
X330831Y-95102D02*
X327498D01*
Y-100100D01*
X330831D01*
X327498Y-97601D02*
X329165D01*
X332497Y-95102D02*
Y-100100D01*
X334996D01*
X335829Y-99267D01*
Y-95935D01*
X334996Y-95102D01*
X332497D01*
X337495Y-100100D02*
X339161D01*
X338328D01*
Y-95102D01*
X337495Y-95935D01*
X322500Y-125202D02*
Y-130200D01*
X325832D01*
X330831Y-125202D02*
X327498D01*
Y-130200D01*
X330831D01*
X327498Y-127701D02*
X329165D01*
X332497Y-125202D02*
Y-130200D01*
X334996D01*
X335829Y-129367D01*
Y-126035D01*
X334996Y-125202D01*
X332497D01*
X340827Y-130200D02*
X337495D01*
X340827Y-126868D01*
Y-126035D01*
X339994Y-125202D01*
X338328D01*
X337495Y-126035D01*
X382532Y-166002D02*
X379200D01*
Y-168501D01*
X380866Y-167668D01*
X381699D01*
X382532Y-168501D01*
Y-170167D01*
X381699Y-171000D01*
X380033D01*
X379200Y-170167D01*
X384198Y-166002D02*
Y-169334D01*
X385864Y-171000D01*
X387531Y-169334D01*
Y-166002D01*
X378800Y-151535D02*
X379633Y-150702D01*
X381299D01*
X382132Y-151535D01*
Y-152368D01*
X381299Y-153201D01*
X380466D01*
X381299D01*
X382132Y-154034D01*
Y-154867D01*
X381299Y-155700D01*
X379633D01*
X378800Y-154867D01*
X383798Y-150702D02*
Y-154034D01*
X385465Y-155700D01*
X387131Y-154034D01*
Y-150702D01*
X347100Y-164400D02*
Y-165233D01*
X346267D01*
Y-164400D01*
X347100D01*
X317800Y4400D02*
Y9398D01*
X321132Y4400D01*
Y9398D01*
X325298D02*
X323631D01*
X322798Y8565D01*
Y5233D01*
X323631Y4400D01*
X325298D01*
X326131Y5233D01*
Y8565D01*
X325298Y9398D01*
X336127Y8565D02*
X335294Y9398D01*
X333628D01*
X332795Y8565D01*
Y5233D01*
X333628Y4400D01*
X335294D01*
X336127Y5233D01*
X340293Y9398D02*
X338627D01*
X337793Y8565D01*
Y5233D01*
X338627Y4400D01*
X340293D01*
X341126Y5233D01*
Y8565D01*
X340293Y9398D01*
X342792Y4400D02*
Y9398D01*
X345291D01*
X346124Y8565D01*
Y6899D01*
X345291Y6066D01*
X342792D01*
X347790Y4400D02*
Y9398D01*
X350290D01*
X351122Y8565D01*
Y6899D01*
X350290Y6066D01*
X347790D01*
X356121Y9398D02*
X352789D01*
Y4400D01*
X356121D01*
X352789Y6899D02*
X354455D01*
X357787Y4400D02*
Y9398D01*
X360286D01*
X361119Y8565D01*
Y6899D01*
X360286Y6066D01*
X357787D01*
X359453D02*
X361119Y4400D01*
X206105Y-197412D02*
X204439D01*
X205272D01*
Y-202410D01*
X206105Y-201577D01*
X79109Y-197412D02*
X77443D01*
X78276D01*
Y-202410D01*
X79109Y-201577D01*
X74943D02*
X74110Y-202410D01*
X72444D01*
X71611Y-201577D01*
Y-200744D01*
X72444Y-199911D01*
X73277D01*
X72444D01*
X71611Y-199078D01*
Y-198245D01*
X72444Y-197412D01*
X74110D01*
X74943Y-198245D01*
X204115Y-234813D02*
X202448D01*
X203281D01*
Y-239812D01*
X204115Y-238979D01*
X197450Y-234813D02*
Y-239812D01*
X199949Y-237313D01*
X196617D01*
X81704Y-234813D02*
X85036D01*
X81704Y-238146D01*
Y-238979D01*
X82537Y-239812D01*
X84203D01*
X85036Y-238979D01*
X76705Y-239812D02*
X80037D01*
Y-237313D01*
X78371Y-238146D01*
X77538D01*
X76705Y-237313D01*
Y-235647D01*
X77538Y-234813D01*
X79204D01*
X80037Y-235647D01*
D96*
X287391Y-272409D02*
X288155Y-273071D01*
X289005Y-273617D01*
X289925Y-274037D01*
X290894Y-274321D01*
X291895Y-274465D01*
X292905D01*
X293906Y-274321D01*
X294875Y-274037D01*
X295795Y-273617D01*
X296645Y-273071D01*
X297409Y-272409D01*
X277391D02*
X278155Y-273071D01*
X279005Y-273617D01*
X279925Y-274037D01*
X280894Y-274321D01*
X281895Y-274465D01*
X282905D01*
X283906Y-274321D01*
X284875Y-274037D01*
X285795Y-273617D01*
X286645Y-273071D01*
X287409Y-272409D01*
Y-258225D02*
X286645Y-257563D01*
X285795Y-257016D01*
X284875Y-256597D01*
X283906Y-256312D01*
X282905Y-256168D01*
X281895D01*
X280894Y-256312D01*
X279925Y-256597D01*
X279005Y-257016D01*
X278155Y-257563D01*
X277391Y-258225D01*
X297409D02*
X296645Y-257563D01*
X295795Y-257016D01*
X294875Y-256597D01*
X293906Y-256312D01*
X292905Y-256168D01*
X291895D01*
X290894Y-256312D01*
X289925Y-256597D01*
X289005Y-257016D01*
X288155Y-257563D01*
X287391Y-258225D01*
X385391Y-272409D02*
X386155Y-273071D01*
X387005Y-273617D01*
X387925Y-274037D01*
X388894Y-274321D01*
X389895Y-274465D01*
X390905D01*
X391906Y-274321D01*
X392875Y-274037D01*
X393795Y-273617D01*
X394645Y-273071D01*
X395409Y-272409D01*
X375391D02*
X376155Y-273071D01*
X377005Y-273617D01*
X377925Y-274037D01*
X378894Y-274321D01*
X379895Y-274465D01*
X380905D01*
X381906Y-274321D01*
X382875Y-274037D01*
X383795Y-273617D01*
X384645Y-273071D01*
X385409Y-272409D01*
Y-258225D02*
X384645Y-257563D01*
X383795Y-257016D01*
X382875Y-256597D01*
X381906Y-256312D01*
X380905Y-256168D01*
X379895D01*
X378894Y-256312D01*
X377925Y-256597D01*
X377005Y-257016D01*
X376155Y-257563D01*
X375391Y-258225D01*
X395409D02*
X394645Y-257563D01*
X393795Y-257016D01*
X392875Y-256597D01*
X391906Y-256312D01*
X390905Y-256168D01*
X389895D01*
X388894Y-256312D01*
X387925Y-256597D01*
X387005Y-257016D01*
X386155Y-257563D01*
X385391Y-258225D01*
X276900Y-250400D02*
X396025D01*
X313733Y-275400D02*
Y-257900D01*
X358733Y-275400D02*
Y-257900D01*
X311233Y-277900D02*
Y-255400D01*
Y-277900D02*
X361233D01*
Y-255400D01*
X294900Y-255733D02*
X297400Y-258233D01*
Y-272400D02*
Y-258233D01*
X294900Y-274900D02*
X297400Y-272400D01*
X279900Y-274900D02*
X294900D01*
X277400Y-272400D02*
X279900Y-274900D01*
X277400Y-272400D02*
Y-258233D01*
X279900Y-255733D01*
X287400Y-272400D02*
Y-258233D01*
X392900Y-255733D02*
X395400Y-258233D01*
Y-272400D02*
Y-258233D01*
X392900Y-274900D02*
X395400Y-272400D01*
X377900Y-274900D02*
X392900D01*
X375400Y-272400D02*
X377900Y-274900D01*
X375400Y-272400D02*
Y-258233D01*
X377900Y-255733D01*
X385400Y-272400D02*
Y-258233D01*
D97*
X480711Y-10850D02*
X480261Y-9960D01*
X479741Y-9109D01*
X479153Y-8304D01*
X478501Y-7549D01*
X477789Y-6851D01*
X477023Y-6212D01*
X476207Y-5639D01*
X475348Y-5133D01*
X474450Y-4700D01*
X473519Y-4342D01*
X472562Y-4060D01*
X471586Y-3858D01*
X470596Y-3736D01*
X469600Y-3695D01*
X468604Y-3736D01*
X467614Y-3858D01*
X466638Y-4060D01*
X465681Y-4342D01*
X464750Y-4700D01*
X463852Y-5133D01*
X462993Y-5639D01*
X462177Y-6212D01*
X461411Y-6850D01*
X460699Y-7549D01*
X460047Y-8304D01*
X459459Y-9109D01*
X458939Y-9960D01*
X458489Y-10850D01*
X458489Y-20950D02*
X458939Y-21840D01*
X459459Y-22691D01*
X460047Y-23496D01*
X460699Y-24251D01*
X461411Y-24949D01*
X462177Y-25588D01*
X462992Y-26161D01*
X463852Y-26667D01*
X464750Y-27100D01*
X465681Y-27458D01*
X466638Y-27740D01*
X467614Y-27942D01*
X468604Y-28064D01*
X469600Y-28105D01*
X470596Y-28064D01*
X471586Y-27942D01*
X472563Y-27740D01*
X473519Y-27458D01*
X474450Y-27100D01*
X475348Y-26667D01*
X476207Y-26161D01*
X477023Y-25588D01*
X477789Y-24949D01*
X478501Y-24251D01*
X479153Y-23496D01*
X479741Y-22691D01*
X480261Y-21840D01*
X480711Y-20950D01*
X493403Y-85900D02*
X493383Y-84901D01*
X493323Y-83904D01*
X493222Y-82910D01*
X493082Y-81921D01*
X492902Y-80939D01*
X492682Y-79964D01*
X492424Y-78999D01*
X492127Y-78046D01*
X491791Y-77105D01*
X491418Y-76178D01*
X491008Y-75267D01*
X490562Y-74373D01*
X490080Y-73498D01*
X489563Y-72644D01*
X489013Y-71810D01*
X488429Y-71000D01*
X487813Y-70213D01*
X487165Y-69453D01*
X486488Y-68718D01*
X485782Y-68012D01*
X485047Y-67335D01*
X484287Y-66687D01*
X483500Y-66071D01*
X482690Y-65487D01*
X481856Y-64937D01*
X481002Y-64420D01*
X480127Y-63938D01*
X479233Y-63492D01*
X478322Y-63082D01*
X477395Y-62709D01*
X476454Y-62373D01*
X475501Y-62076D01*
X474536Y-61818D01*
X473561Y-61598D01*
X472579Y-61418D01*
X471590Y-61278D01*
X470596Y-61177D01*
X469599Y-61117D01*
X468600Y-61097D01*
X467601Y-61117D01*
X466604Y-61177D01*
X465610Y-61278D01*
X464621Y-61418D01*
X463639Y-61598D01*
X462664Y-61818D01*
X461699Y-62076D01*
X460746Y-62373D01*
X459805Y-62709D01*
X458878Y-63082D01*
X457967Y-63492D01*
X457073Y-63938D01*
X456198Y-64420D01*
X455343Y-64937D01*
X454510Y-65487D01*
X453700Y-66071D01*
X452913Y-66687D01*
X452152Y-67335D01*
X451418Y-68012D01*
X450712Y-68718D01*
X450035Y-69453D01*
X449387Y-70213D01*
X448771Y-71000D01*
X448187Y-71810D01*
X447637Y-72644D01*
X447120Y-73498D01*
X446638Y-74373D01*
X446192Y-75267D01*
X445782Y-76178D01*
X445409Y-77105D01*
X445073Y-78046D01*
X444776Y-78999D01*
X444518Y-79964D01*
X444298Y-80939D01*
X444118Y-81921D01*
X443978Y-82910D01*
X443877Y-83904D01*
X443817Y-84901D01*
X443797Y-85900D01*
X443817Y-86899D01*
X443877Y-87896D01*
X443978Y-88890D01*
X444118Y-89879D01*
X444298Y-90861D01*
X444518Y-91836D01*
X444776Y-92801D01*
X445073Y-93754D01*
X445409Y-94695D01*
X445782Y-95622D01*
X446192Y-96533D01*
X446638Y-97427D01*
X447120Y-98302D01*
X447637Y-99156D01*
X448187Y-99990D01*
X448771Y-100800D01*
X449387Y-101587D01*
X450035Y-102348D01*
X450712Y-103082D01*
X451418Y-103788D01*
X452152Y-104465D01*
X452913Y-105113D01*
X453700Y-105729D01*
X454510Y-106313D01*
X455344Y-106863D01*
X456199Y-107380D01*
X457073Y-107862D01*
X457967Y-108308D01*
X458878Y-108718D01*
X459805Y-109091D01*
X460746Y-109427D01*
X461699Y-109724D01*
X462664Y-109982D01*
X463639Y-110202D01*
X464621Y-110382D01*
X465610Y-110522D01*
X466604Y-110623D01*
X467601Y-110683D01*
X468600Y-110703D01*
X469599Y-110683D01*
X470596Y-110623D01*
X471590Y-110522D01*
X472579Y-110382D01*
X473561Y-110202D01*
X474536Y-109982D01*
X475501Y-109724D01*
X476454Y-109427D01*
X477395Y-109091D01*
X478322Y-108718D01*
X479233Y-108308D01*
X480126Y-107862D01*
X481002Y-107380D01*
X481856Y-106863D01*
X482690Y-106313D01*
X483500Y-105729D01*
X484287Y-105113D01*
X485047Y-104465D01*
X485782Y-103788D01*
X486488Y-103082D01*
X487165Y-102348D01*
X487813Y-101587D01*
X488429Y-100800D01*
X489012Y-99990D01*
X489563Y-99157D01*
X490080Y-98302D01*
X490562Y-97427D01*
X491008Y-96533D01*
X491418Y-95622D01*
X491791Y-94696D01*
X492127Y-93755D01*
X492424Y-92801D01*
X492682Y-91836D01*
X492902Y-90861D01*
X493082Y-89879D01*
X493222Y-88890D01*
X493323Y-87896D01*
X493383Y-86899D01*
X493403Y-85900D01*
X330100Y-163900D02*
X344600D01*
X346100Y-162400D01*
Y-147900D01*
X330100D02*
X346100D01*
X330100Y-163900D02*
Y-147900D01*
X482198Y-10900D02*
Y-3302D01*
Y-28498D02*
Y-20900D01*
X457002Y-11400D02*
Y-8498D01*
Y-23302D02*
Y-20400D01*
Y-23302D02*
X462198Y-28498D01*
X457002Y-8498D02*
X462198Y-3302D01*
X482198D01*
X462198Y-28498D02*
X482198D01*
D98*
X47050Y-52218D02*
X47787Y-52805D01*
X48635Y-53214D01*
X49554Y-53424D01*
X50496D01*
X51415Y-53214D01*
X52263Y-52805D01*
X53000Y-52218D01*
X52950Y-41218D02*
X52220Y-40635D01*
X51378Y-40230D01*
X50467Y-40022D01*
X49533D01*
X48622Y-40230D01*
X47780Y-40635D01*
X47050Y-41218D01*
X356450Y-119850D02*
X357037Y-119113D01*
X357446Y-118265D01*
X357656Y-117346D01*
Y-116404D01*
X357446Y-115485D01*
X357037Y-114637D01*
X356450Y-113900D01*
X345450Y-113950D02*
X344867Y-114680D01*
X344462Y-115522D01*
X344254Y-116433D01*
Y-117367D01*
X344462Y-118278D01*
X344867Y-119120D01*
X345450Y-119850D01*
X356450Y-110850D02*
X357037Y-110113D01*
X357446Y-109265D01*
X357656Y-108346D01*
Y-107404D01*
X357446Y-106485D01*
X357037Y-105637D01*
X356450Y-104900D01*
X345450Y-104950D02*
X344867Y-105680D01*
X344462Y-106522D01*
X344254Y-107433D01*
Y-108367D01*
X344462Y-109278D01*
X344867Y-110120D01*
X345450Y-110850D01*
X432750Y-157150D02*
X433337Y-156413D01*
X433746Y-155565D01*
X433956Y-154646D01*
Y-153704D01*
X433746Y-152785D01*
X433337Y-151937D01*
X432750Y-151200D01*
X421750Y-151250D02*
X421168Y-151980D01*
X420762Y-152822D01*
X420554Y-153733D01*
Y-154667D01*
X420762Y-155578D01*
X421168Y-156420D01*
X421750Y-157150D01*
X432550Y-166150D02*
X433137Y-165413D01*
X433546Y-164565D01*
X433756Y-163646D01*
Y-162704D01*
X433546Y-161785D01*
X433137Y-160937D01*
X432550Y-160200D01*
X421550Y-160250D02*
X420968Y-160980D01*
X420562Y-161822D01*
X420354Y-162733D01*
Y-163667D01*
X420562Y-164578D01*
X420968Y-165420D01*
X421550Y-166150D01*
X247950Y-176050D02*
X247213Y-175463D01*
X246365Y-175054D01*
X245446Y-174844D01*
X244504D01*
X243585Y-175054D01*
X242737Y-175463D01*
X242000Y-176050D01*
X242050Y-187050D02*
X242780Y-187632D01*
X243622Y-188038D01*
X244533Y-188246D01*
X245467D01*
X246378Y-188038D01*
X247220Y-187632D01*
X247950Y-187050D01*
X239950Y-176550D02*
X239213Y-175963D01*
X238365Y-175554D01*
X237446Y-175344D01*
X236504D01*
X235585Y-175554D01*
X234737Y-175963D01*
X234000Y-176550D01*
X234050Y-187550D02*
X234780Y-188132D01*
X235622Y-188538D01*
X236533Y-188746D01*
X237467D01*
X238378Y-188538D01*
X239220Y-188132D01*
X239950Y-187550D01*
X231650Y-176650D02*
X230913Y-176063D01*
X230065Y-175654D01*
X229146Y-175444D01*
X228204D01*
X227285Y-175654D01*
X226437Y-176063D01*
X225700Y-176650D01*
X225750Y-187650D02*
X226480Y-188232D01*
X227322Y-188638D01*
X228233Y-188846D01*
X229167D01*
X230078Y-188638D01*
X230920Y-188232D01*
X231650Y-187650D01*
X288550Y-75482D02*
X287813Y-74895D01*
X286965Y-74486D01*
X286046Y-74276D01*
X285104D01*
X284185Y-74486D01*
X283337Y-74895D01*
X282600Y-75482D01*
X282650Y-86482D02*
X283380Y-87065D01*
X284222Y-87470D01*
X285133Y-87678D01*
X286067D01*
X286978Y-87470D01*
X287820Y-87065D01*
X288550Y-86482D01*
X279550Y-75482D02*
X278813Y-74895D01*
X277965Y-74486D01*
X277046Y-74276D01*
X276104D01*
X275185Y-74486D01*
X274337Y-74895D01*
X273600Y-75482D01*
X273650Y-86482D02*
X274380Y-87065D01*
X275222Y-87470D01*
X276133Y-87678D01*
X277067D01*
X277978Y-87470D01*
X278820Y-87065D01*
X279550Y-86482D01*
X242550Y-75182D02*
X241813Y-74595D01*
X240965Y-74186D01*
X240046Y-73976D01*
X239104D01*
X238185Y-74186D01*
X237337Y-74595D01*
X236600Y-75182D01*
X236650Y-86182D02*
X237380Y-86765D01*
X238222Y-87170D01*
X239133Y-87378D01*
X240067D01*
X240978Y-87170D01*
X241820Y-86765D01*
X242550Y-86182D01*
X228550Y-75182D02*
X227813Y-74595D01*
X226965Y-74186D01*
X226046Y-73976D01*
X225104D01*
X224185Y-74186D01*
X223337Y-74595D01*
X222600Y-75182D01*
X222650Y-86182D02*
X223380Y-86765D01*
X224222Y-87170D01*
X225133Y-87378D01*
X226067D01*
X226978Y-87170D01*
X227820Y-86765D01*
X228550Y-86182D01*
X218250Y-75350D02*
X217513Y-74763D01*
X216665Y-74354D01*
X215746Y-74144D01*
X214804D01*
X213885Y-74354D01*
X213037Y-74763D01*
X212300Y-75350D01*
X212350Y-86350D02*
X213080Y-86932D01*
X213922Y-87338D01*
X214833Y-87546D01*
X215767D01*
X216678Y-87338D01*
X217520Y-86932D01*
X218250Y-86350D01*
X55650Y-188750D02*
X56387Y-189337D01*
X57235Y-189746D01*
X58154Y-189956D01*
X59096D01*
X60015Y-189746D01*
X60863Y-189337D01*
X61600Y-188750D01*
X61550Y-177750D02*
X60820Y-177168D01*
X59978Y-176762D01*
X59067Y-176554D01*
X58133D01*
X57222Y-176762D01*
X56380Y-177168D01*
X55650Y-177750D01*
X211750Y-184550D02*
X211013Y-183963D01*
X210165Y-183554D01*
X209246Y-183344D01*
X208304D01*
X207385Y-183554D01*
X206537Y-183963D01*
X205800Y-184550D01*
X205850Y-195550D02*
X206580Y-196132D01*
X207422Y-196538D01*
X208333Y-196746D01*
X209267D01*
X210178Y-196538D01*
X211020Y-196132D01*
X211750Y-195550D01*
X202850Y-184450D02*
X202113Y-183863D01*
X201265Y-183454D01*
X200346Y-183244D01*
X199404D01*
X198485Y-183454D01*
X197637Y-183863D01*
X196900Y-184450D01*
X196950Y-195450D02*
X197680Y-196032D01*
X198522Y-196438D01*
X199433Y-196646D01*
X200367D01*
X201278Y-196438D01*
X202120Y-196032D01*
X202850Y-195450D01*
X174550Y-185050D02*
X173813Y-184463D01*
X172965Y-184054D01*
X172046Y-183844D01*
X171104D01*
X170185Y-184054D01*
X169337Y-184463D01*
X168600Y-185050D01*
X168650Y-196050D02*
X169380Y-196632D01*
X170222Y-197038D01*
X171133Y-197246D01*
X172067D01*
X172978Y-197038D01*
X173820Y-196632D01*
X174550Y-196050D01*
X128750Y-110400D02*
X128163Y-111137D01*
X127754Y-111985D01*
X127544Y-112904D01*
Y-113846D01*
X127754Y-114765D01*
X128163Y-115613D01*
X128750Y-116350D01*
X139750Y-116300D02*
X140332Y-115570D01*
X140738Y-114728D01*
X140946Y-113817D01*
Y-112883D01*
X140738Y-111972D01*
X140332Y-111130D01*
X139750Y-110400D01*
X44750Y-134950D02*
X44163Y-135687D01*
X43754Y-136535D01*
X43544Y-137454D01*
Y-138396D01*
X43754Y-139315D01*
X44163Y-140163D01*
X44750Y-140900D01*
X55750Y-140850D02*
X56332Y-140120D01*
X56738Y-139278D01*
X56946Y-138367D01*
Y-137433D01*
X56738Y-136522D01*
X56332Y-135680D01*
X55750Y-134950D01*
X44750Y-142950D02*
X44163Y-143687D01*
X43754Y-144535D01*
X43544Y-145454D01*
Y-146396D01*
X43754Y-147315D01*
X44163Y-148163D01*
X44750Y-148900D01*
X55750Y-148850D02*
X56332Y-148120D01*
X56738Y-147278D01*
X56946Y-146367D01*
Y-145433D01*
X56738Y-144522D01*
X56332Y-143680D01*
X55750Y-142950D01*
X128650Y-148750D02*
X129387Y-149337D01*
X130235Y-149746D01*
X131154Y-149956D01*
X132096D01*
X133015Y-149746D01*
X133863Y-149337D01*
X134600Y-148750D01*
X134550Y-137750D02*
X133820Y-137168D01*
X132978Y-136762D01*
X132067Y-136554D01*
X131133D01*
X130222Y-136762D01*
X129380Y-137168D01*
X128650Y-137750D01*
X129054Y-108900D02*
X133354D01*
X129054Y-102950D02*
X133404D01*
X135754D02*
X140054D01*
X135754Y-108850D02*
X140054D01*
X134600Y-53050D02*
X140550D01*
X134650Y-66050D02*
X140550D01*
X134600Y-58350D02*
Y-53050D01*
X140550Y-58400D02*
X140550Y-53050D01*
X140550Y-60750D02*
X140550Y-66050D01*
X134650Y-66000D02*
Y-60750D01*
X161600Y-53050D02*
X167550D01*
X161650Y-66050D02*
X167550D01*
X161600Y-58350D02*
Y-53050D01*
X167550Y-58400D02*
X167550Y-53050D01*
X167550Y-60750D02*
X167550Y-66050D01*
X161650Y-66000D02*
Y-60750D01*
X47400Y-19550D02*
X53350D01*
X47450Y-32550D02*
X53350D01*
X47400Y-24850D02*
Y-19550D01*
X53350Y-24900D02*
X53350Y-19550D01*
X53350Y-27250D02*
X53350Y-32550D01*
X47450Y-32500D02*
Y-27250D01*
X283600Y-95050D02*
X289550D01*
X283650Y-108050D02*
X289550D01*
X283600Y-100350D02*
Y-95050D01*
X289550Y-100400D02*
X289550Y-95050D01*
X289550Y-102750D02*
X289550Y-108050D01*
X283650Y-108000D02*
Y-102750D01*
X264800Y-172350D02*
X270750D01*
X264850Y-185350D02*
X270750D01*
X264800Y-177650D02*
Y-172350D01*
X270750Y-177700D02*
X270750Y-172350D01*
X270750Y-180050D02*
X270750Y-185350D01*
X264850Y-185300D02*
Y-180050D01*
X323750Y-138900D02*
Y-132950D01*
X336750Y-138850D02*
Y-132950D01*
X323750Y-138900D02*
X329050D01*
X323750Y-132950D02*
X329100Y-132950D01*
X331450D02*
X336750Y-132950D01*
X331450Y-138850D02*
X336700D01*
X314250Y-157650D02*
X320200D01*
X314250Y-144650D02*
X320150D01*
X320200Y-157650D02*
Y-152350D01*
X314250Y-157650D02*
X314250Y-152300D01*
X314250Y-144650D02*
X314250Y-149950D01*
X320150Y-149950D02*
Y-144700D01*
X160100Y-98688D02*
X166050D01*
X160150Y-111688D02*
X166050D01*
X160100Y-103988D02*
Y-98688D01*
X166050Y-104038D02*
X166050Y-98688D01*
X166050Y-106388D02*
X166050Y-111688D01*
X160150Y-111638D02*
Y-106388D01*
X341750Y-138900D02*
Y-132950D01*
X354750Y-138850D02*
Y-132950D01*
X341750Y-138900D02*
X347050D01*
X341750Y-132950D02*
X347100Y-132950D01*
X349450D02*
X354750Y-132950D01*
X349450Y-138850D02*
X354700D01*
X451550Y13650D02*
X457500D01*
X451550Y26650D02*
X457450D01*
X457500Y13650D02*
Y18950D01*
X451550Y13650D02*
X451550Y19000D01*
X451550Y26650D02*
X451550Y21350D01*
X457450Y21350D02*
Y26600D01*
X160050Y-151450D02*
X166000D01*
X160050Y-138450D02*
X165950D01*
X166000Y-151450D02*
Y-146150D01*
X160050Y-151450D02*
X160050Y-146100D01*
X160050Y-138450D02*
X160050Y-143750D01*
X165950Y-143750D02*
Y-138500D01*
X441750Y-156900D02*
Y-150950D01*
X454750Y-156850D02*
Y-150950D01*
X441750Y-156900D02*
X447050D01*
X441750Y-150950D02*
X447100Y-150950D01*
X449450D02*
X454750Y-150950D01*
X449450Y-156850D02*
X454700D01*
X454750Y-165550D02*
Y-159600D01*
X441750Y-165550D02*
Y-159650D01*
X449450Y-159600D02*
X454750D01*
X449400Y-165550D02*
X454750Y-165550D01*
X441750D02*
X447050Y-165550D01*
X441800Y-159650D02*
X447050D01*
X473450Y-197850D02*
Y-191900D01*
X460450Y-197850D02*
Y-191950D01*
X468150Y-191900D02*
X473450D01*
X468100Y-197850D02*
X473450Y-197850D01*
X460450D02*
X465750Y-197850D01*
X460500Y-191950D02*
X465750D01*
X473650Y-188950D02*
Y-183000D01*
X460650Y-188950D02*
Y-183050D01*
X468350Y-183000D02*
X473650D01*
X468300Y-188950D02*
X473650Y-188950D01*
X460650D02*
X465950Y-188950D01*
X460700Y-183050D02*
X465950D01*
X315550Y-178700D02*
Y-172750D01*
X328550Y-178650D02*
Y-172750D01*
X315550Y-178700D02*
X320850D01*
X315550Y-172750D02*
X320900Y-172750D01*
X323250D02*
X328550Y-172750D01*
X323250Y-178650D02*
X328500D01*
X53000Y-47918D02*
X53000Y-52218D01*
X47050D02*
Y-47868D01*
Y-45518D02*
Y-41218D01*
X52950Y-41218D02*
X52950Y-45518D01*
X352150Y-113900D02*
X356450Y-113900D01*
X352100Y-119850D02*
X356450D01*
X345450D02*
X349750D01*
X345450Y-113950D02*
X349750Y-113950D01*
X352150Y-104900D02*
X356450Y-104900D01*
X352100Y-110850D02*
X356450D01*
X345450D02*
X349750D01*
X345450Y-104950D02*
X349750Y-104950D01*
X428450Y-151200D02*
X432750Y-151200D01*
X428400Y-157150D02*
X432750D01*
X421750D02*
X426050D01*
X421750Y-151250D02*
X426050Y-151250D01*
X428250Y-160200D02*
X432550Y-160200D01*
X428200Y-166150D02*
X432550D01*
X421550D02*
X425850D01*
X421550Y-160250D02*
X425850Y-160250D01*
X242000Y-176050D02*
X242000Y-180350D01*
X247950Y-180400D02*
Y-176050D01*
Y-187050D02*
Y-182750D01*
X242050Y-182750D02*
X242050Y-187050D01*
X234000Y-176550D02*
X234000Y-180850D01*
X239950Y-180900D02*
Y-176550D01*
Y-187550D02*
Y-183250D01*
X234050Y-183250D02*
X234050Y-187550D01*
X225700Y-176650D02*
X225700Y-180950D01*
X231650Y-181000D02*
Y-176650D01*
Y-187650D02*
Y-183350D01*
X225750Y-183350D02*
X225750Y-187650D01*
X282600Y-75482D02*
X282600Y-79782D01*
X288550Y-79832D02*
Y-75482D01*
Y-86482D02*
Y-82182D01*
X282650Y-82182D02*
X282650Y-86482D01*
X273600Y-75482D02*
X273600Y-79782D01*
X279550Y-79832D02*
Y-75482D01*
Y-86482D02*
Y-82182D01*
X273650Y-82182D02*
X273650Y-86482D01*
X236600Y-75182D02*
X236600Y-79482D01*
X242550Y-79532D02*
Y-75182D01*
Y-86182D02*
Y-81882D01*
X236650Y-81882D02*
X236650Y-86182D01*
X222600Y-75182D02*
X222600Y-79482D01*
X228550Y-79532D02*
Y-75182D01*
Y-86182D02*
Y-81882D01*
X222650Y-81882D02*
X222650Y-86182D01*
X212300Y-75350D02*
X212300Y-79650D01*
X218250Y-79700D02*
Y-75350D01*
Y-86350D02*
Y-82050D01*
X212350Y-82050D02*
X212350Y-86350D01*
X61600Y-184450D02*
X61600Y-188750D01*
X55650D02*
Y-184400D01*
Y-182050D02*
Y-177750D01*
X61550Y-177750D02*
X61550Y-182050D01*
X205800Y-184550D02*
X205800Y-188850D01*
X211750Y-188900D02*
Y-184550D01*
Y-195550D02*
Y-191250D01*
X205850Y-191250D02*
X205850Y-195550D01*
X196900Y-184450D02*
X196900Y-188750D01*
X202850Y-188800D02*
Y-184450D01*
Y-195450D02*
Y-191150D01*
X196950Y-191150D02*
X196950Y-195450D01*
X168600Y-185050D02*
X168600Y-189350D01*
X174550Y-189400D02*
Y-185050D01*
Y-196050D02*
Y-191750D01*
X168650Y-191750D02*
X168650Y-196050D01*
X128750Y-116350D02*
X133050Y-116350D01*
X128750Y-110400D02*
X133100D01*
X135450D02*
X139750D01*
X135450Y-116300D02*
X139750Y-116300D01*
X44750Y-140900D02*
X49050Y-140900D01*
X44750Y-134950D02*
X49100D01*
X51450D02*
X55750D01*
X51450Y-140850D02*
X55750Y-140850D01*
X44750Y-148900D02*
X49050Y-148900D01*
X44750Y-142950D02*
X49100D01*
X51450D02*
X55750D01*
X51450Y-148850D02*
X55750Y-148850D01*
X134600Y-144450D02*
X134600Y-148750D01*
X128650D02*
Y-144400D01*
Y-142050D02*
Y-137750D01*
X134550Y-137750D02*
X134550Y-142050D01*
D99*
X137100Y-9400D02*
X138600Y-7900D01*
X140100Y-9400D01*
X137100D02*
X140100D01*
X490100Y-40400D02*
Y-35400D01*
X491600Y-33900D01*
X498100D01*
X499100Y-34900D01*
Y-40400D02*
Y-34900D01*
X490100Y-49400D02*
Y-42900D01*
Y-49400D02*
X499100D01*
Y-42900D01*
X41100Y-48250D02*
Y-25250D01*
X29100Y-48250D02*
X41100D01*
X29100D02*
Y-25250D01*
X41100D01*
M02*
